<svg xmlns="http://www.w3.org/2000/svg" xmlns:xlink="http://www.w3.org/1999/xlink" width="631.65" height="482.365" viewBox="0 0 631.65 482.365"><defs><style>.a{fill:url(#a);}.b{fill:url(#b);}.c{fill:#6aafe8;}.d{fill:url(#c);}.e{fill:url(#d);}.f{fill:url(#e);}.g{fill:url(#g);}.h{fill:#fff;}.i{fill:url(#h);}.j{fill:url(#i);}.k{fill:url(#j);}.l{fill:url(#k);}.m{fill:#1487e3;}.n{fill:#78c2ff;}.o{fill:#ff7e55;}.p{fill:#424773;}.q{fill:#292c47;}.r{fill:#eea886;}.s{fill:#754836;}.t{fill:#e2d2ca;}.u{fill:#a1d4ff;}.v{fill:url(#l);}.w{fill:url(#m);}.x{fill:#4d78eb;}.y{fill:#e0e0e0;}.z{fill:#ff8761;}.aa{opacity:0.76;}.ab{fill:#4aafff;}.ac{fill:#1a598c;}.ad{fill:#2273b5;}.ae{fill:#3788cc;}.af{fill:#414773;}.ag{fill:#2d314f;}.ah{fill:#2b3b57;}.ai{fill:#ffc655;}.aj{fill:#353a3d;}.ak{fill:#d4d8e8;}.al{fill:#e55353;}.am{fill:#6069a8;}.an{fill:#202338;}.ao{fill:#464240;}.ap{fill:#eb4747;}.aq{fill:#325bb3;}.ar{fill:#a77860;}.as{fill:#5e5853;}.at{fill:#91887f;}.au{fill:#eddad3;}.av{fill:#6e6760;}.aw{fill:#807066;}.ax,.ay,.az{fill:none;stroke-miterlimit:10;}.ax,.ay{stroke:#6aafe8;}.ax,.az{stroke-width:2px;}.az{stroke:#78c2ff;}</style><linearGradient id="a" x1="-0.03" y1="0.5" x2="1.081" y2="0.5" gradientUnits="objectBoundingBox"><stop offset="0" stop-color="#40d5e6"/><stop offset="1" stop-color="#57f"/></linearGradient><linearGradient id="b" y1="0.5" x2="1" y2="0.5" gradientUnits="objectBoundingBox"><stop offset="0" stop-color="#404b61"/><stop offset="0.49" stop-color="#3c4860"/><stop offset="1" stop-color="#2f3e5c"/></linearGradient><linearGradient id="c" y1="0.5" x2="1" y2="0.5" gradientUnits="objectBoundingBox"><stop offset="0" stop-color="#3076a1"/><stop offset="1" stop-color="#639c38"/></linearGradient><linearGradient id="d" x1="0" y1="0.5" x2="1" y2="0.5" xlink:href="#c"/><linearGradient id="e" x1="0" y1="0.5" x2="1" y2="0.5" xlink:href="#c"/><linearGradient id="g" x1="-0.001" y1="0.5" x2="0.999" y2="0.5" xlink:href="#c"/><linearGradient id="h" x1="0.028" y1="1.449" x2="0.657" y2="0.244" xlink:href="#c"/><linearGradient id="i" x1="0" y1="0.5" x2="1" y2="0.5" xlink:href="#c"/><linearGradient id="j" y1="0.5" x2="1" y2="0.5" gradientUnits="objectBoundingBox"><stop offset="0" stop-color="#ff9340"/><stop offset="1" stop-color="#ffce45"/></linearGradient><linearGradient id="k" x1="0.001" y1="0.5" x2="1" y2="0.5" gradientUnits="objectBoundingBox"><stop offset="0" stop-color="#c97332"/><stop offset="1" stop-color="#ffce45"/></linearGradient><linearGradient id="l" x1="0.5" y1="-0.097" x2="0.5" y2="1.41" xlink:href="#a"/><linearGradient id="m" x1="-0.464" y1="0.498" x2="0.537" y2="0.498" xlink:href="#a"/></defs><g transform="translate(1)"><path class="a" d="M0,0H300.864V212.317a10.536,10.536,0,0,1-10.536,10.536H10.547A10.536,10.536,0,0,1,.011,212.317V0Z" transform="translate(465.109 381.936) rotate(180)"/><rect class="b" width="279.059" height="171.431" transform="translate(453.939 341.439) rotate(180)"/><path class="c" d="M174.56,177.209H103.58l.122-.634a12.516,12.516,0,0,1,12.238-10.091,12.337,12.337,0,0,1,2.559.267,21.294,21.294,0,0,1,36.046-2.637,15.576,15.576,0,0,1,19.926,12.427ZM104.893,176.1h68.421a14.585,14.585,0,0,0-14.207-11.637,14.4,14.4,0,0,0-4.561.734l-.378.122-.223-.323a20.248,20.248,0,0,0-34.656,2.559l-.189.378-.412-.1a11.127,11.127,0,0,0-2.715-.334,11.459,11.459,0,0,0-11.081,8.6Z" transform="translate(-28.995 -6.356)"/><path class="c" d="M403.944,100.883l-.234-.122c-25.2-12.861-21.817-37.771-21.772-38.016l.067-.456h.456c16.01,0,21.049-5.162,21.138-5.207l.389-.423.389.423c.056,0,5.084,5.207,21.138,5.207h.467l.067.456c0,.245,3.416,25.155-21.772,38.016Zm-21-37.537c-.323,3.338-1.38,24.754,21,36.347,22.4-11.593,21.327-32.965,21.016-36.347-13.907-.078-19.57-3.961-21.016-5.2C402.5,59.386,396.835,63.268,382.939,63.346Z" transform="translate(2.312 -17.465)"/><path class="d" d="M525.686,405.205c-3.783-17.322,4.45-21.65,12.327-25.833,6.475-3.415,12.594-6.675,12.238-16.855-.423-13.529,8.8-18.457,16.933-22.807,6.052-3.226,11.771-6.286,12.616-12.438,2.058-14.83,15.731-33.243,15.865-33.432l.846.634c-.134.178-13.64,18.39-15.654,32.942-.923,6.675-6.875,9.868-13.172,13.228-8.255,4.45-16.777,8.967-16.365,21.839.345,10.881-6.353,14.407-12.828,17.8-7.921,4.172-15.409,8.122-11.793,24.665Z" transform="translate(18.402 9.228)"/><path class="e" d="M530.478,402.488h-.545c-3.427-.256-6.786-2.859-10.569-8.2l-.234-.334.267-.311c0-.078,6.119-7.465,3.894-21.35a63.988,63.988,0,0,0-1.769-7.71c-.812-2.9-1.357-4.817-.456-6.353,1.112-1.947,4.239-2.959,12.95-5.04,9.279-2.225,12.383-12.661,15.119-21.884,2.57-8.678,5.018-16.877,12.238-16.621,6.675.256,16.688-10.135,25.589-19.3,8.244-8.5,16.032-16.51,21-16.343a3.916,3.916,0,0,1,2.993,1.48c4.45,5.285.3,13.351-3.7,21.049-3.415,6.62-6.675,12.861-4.561,16.977,2.614,5.184,2.97,9.868,1.113,13.551-2.225,4.361-7.565,7.165-15.731,8.355-7.465,1.113-8.266,9.223-9.123,17.8-.99,10.013-2.125,21.461-14.652,22.54-9.3.812-15.576,7.343-21.138,13.106C538.733,398.471,534.906,402.488,530.478,402.488Zm-10.013-8.5c3.438,4.773,6.575,7.209,9.546,7.432,4.172.3,7.966-3.649,12.36-8.222,5.663-5.908,12.082-12.583,21.784-13.428,11.648-1,12.683-11.47,13.684-21.594.9-9.045,1.747-17.589,10.013-18.791,7.788-1.113,12.828-3.749,14.93-7.788,1.758-3.338,1.391-7.721-1.113-12.583-2.325-4.595,1.024-11.125,4.573-17.934,3.838-7.443,7.788-15.142,3.827-19.881a2.881,2.881,0,0,0-2.225-1.113c-4.506-.156-12.138,7.7-20.215,16.032-9.268,9.579-18.947,19.592-26.034,19.592h-.267c-6.4-.245-8.622,7.22-11.125,15.854-2.815,9.5-6.008,20.259-15.887,22.618-7.877,1.869-11.326,2.926-12.238,4.539-.679,1.113-.211,2.792.556,5.563a64.687,64.687,0,0,1,1.791,7.788c1.98,12.906-2.77,20.271-3.961,21.884Z" transform="translate(17.771 7.562)"/><path class="f" d="M533.046,401.339h-.367c-5.618-.512-9.946-12.828-14.118-24.732a119.717,119.717,0,0,0-5.685-14.463c-1.413-2.659-3.2-5.429-4.951-8.1-4.628-7.131-9.412-14.463-7.855-20.983.823-3.4,3.26-6.241,7.465-8.667,9.212-5.307,7.788-8.3,4.695-14.875a48.14,48.14,0,0,1-5.563-21.806c-.056-4.45-.156-8.322-.245-11.726-.3-10.947-.445-16.443,1.891-18.435.968-.812,2.325-1.035,4.261-.656,3.338.623,4.751,3.338,6.264,6.141,1.936,3.616,4.139,7.71,10.758,9.089,6.219,1.3,12.238,3.082,13.84,7.209,1.168,2.9.067,6.675-3.338,11.671a3.816,3.816,0,0,0-.868,3.126c.545,1.991,3.638,3.438,7.232,5.118,5.1,2.381,11.448,5.34,13.25,11.481,1.446,4.94-.234,11.125-5.129,18.858-11.593,18.312-11.125,30.74-10.714,41.709.3,8.122.59,15.787-4.306,24.365C537.429,399.492,535.282,401.339,533.046,401.339ZM510.962,257.821a2.848,2.848,0,0,0-1.914.59c-1.947,1.658-1.8,7.32-1.524,17.589.089,3.415.189,7.276.245,11.748.122,10.158,3.182,16.633,5.418,21.372,3.082,6.508,4.94,10.447-5.118,16.243-3.938,2.225-6.219,4.884-6.976,7.988-1.446,6.03,3.215,13.206,7.721,20.159,1.758,2.692,3.56,5.485,5,8.177a117.087,117.087,0,0,1,5.741,14.552c3.883,11.048,8.277,23.575,13.217,24.031,1.891.167,3.872-1.546,5.9-5.084,4.751-8.311,4.45-15.5,4.172-23.808-.423-11.125-.89-23.719,10.881-42.277,4.717-7.476,6.364-13.35,5-18-1.658-5.674-7.51-8.4-12.683-10.814-3.816-1.78-7.12-3.338-7.788-5.8a4.818,4.818,0,0,1,1.023-4.005c3.2-4.639,4.261-8.133,3.249-10.68-1.469-3.671-7.432-5.374-13.083-6.553-7.1-1.491-9.523-6.008-11.47-9.635-1.457-2.726-2.715-5.073-5.563-5.563a8.256,8.256,0,0,0-1.435-.234Z" transform="translate(15.592 5.05)"/><path class="d" d="M531.457,405.929l-1.012-.323c5.663-17.912-4.584-58.086-7.632-67.865-1.5-4.806-.111-12.038,1.224-19.036,1.736-9.045,3.527-18.39-1.046-21.895-8.578-6.575-8.122-21.806-8.1-22.451H516c0,.145-.456,15.32,7.688,21.561,5.1,3.9,3.237,13.584,1.446,22.941-1.313,6.864-2.681,13.973-1.257,18.524C527.6,349.523,537.108,388.062,531.457,405.929Z" transform="translate(17.293 7.035)"/><path class="g" d="M492.806,288.459c-2.359-5.985-11.57-5.073-10.725,3.393s6.775,17.489-2.225,31.885,11.57,17.211,18.913,26.245,9.879,21.439,16.087,29.349,10.447,26.8,15.52,19.748.3-16.232.868-28.926,11.86-20.738.556-28.926-22.662-10.691-18.913-29.149C514.467,303.956,500.138,307.083,492.806,288.459Z" transform="translate(13.099 8.189)"/><path class="h" d="M536.671,398.169c0-.378-6.33-37.57-20.382-47.761-14.33-10.4-16.933-20.026-21.939-42.644l1.035-.234c4.951,22.362,7.51,31.852,21.528,42.01,14.4,10.458,20.549,46.9,20.8,48.451Z" transform="translate(14.982 10.768)"/><path class="i" d="M522.1,403.5s4.172-10.324-3.427-25-13.751-12.416,4.539-23.7.111-46.849,15.7-51.366,29.171-62.113,41.042-54.748S576,284.231,584.469,292.7s9.59,19.247-7.9,27.969,12.416,42.021-11.292,52.189S548.356,422.854,522.1,403.5Z" transform="translate(16.882 4.073)"/><path class="h" d="M527.55,411.046c0-.134-2.581-13.35,5.474-30.428,8.211-17.4,12.138-36.425,10.5-50.888-.879-7.788,4.139-10.892,8.989-13.862s9.724-5.93,9.445-13.651c-.245-6.965,2.7-23.363,2.837-24l1.046.189c0,.167-3.06,16.922-2.815,23.775.289,8.333-4.917,11.515-9.957,14.6-4.784,2.915-9.29,5.674-8.489,12.828,1.647,14.652-2.314,33.888-10.6,51.466-7.888,16.688-5.418,29.638-5.4,29.76Z" transform="translate(18.674 7.47)"/><path class="h" d="M547.111,332.432c5.318-4.951,12.36-5.663,10.892,1.68s-6.5,9.423-3.983,14.04,6.675,9.212-.412,14.875S542.482,369.313,540.4,380s-1.68,17.99-10.9,18.446-5.652-12.995-2.726-19.08a20.126,20.126,0,0,0,1.469-16.032c-2.937-9.112-8.589-14.029,3.338-17.122S543.517,335.714,547.111,332.432Z" transform="translate(18.271 13.146)"/><path class="j" d="M529.5,404.388c0-1.313-.656-32.1,5.1-37.281s7.009-14.641,7.165-19.748c.2-6.675,8.789-10.6,9.156-10.769l.434.968c-.089,0-8.355,3.838-8.533,9.824-.189,6.442-1.646,15.231-7.51,20.515-5.4,4.862-4.751,36.146-4.751,36.469Z" transform="translate(18.936 14.039)"/><path class="k" d="M517.492,364.8l-9.557,36.247h-21.35L477.04,364.8Z" transform="translate(52.574 41.055)"/><path class="l" d="M553.036,386.23s-21.072,3.95-21.072,36.247H522.1L512.54,386.23Z" transform="translate(17.029 19.625)"/><rect class="m" width="28.114" height="3.182" transform="translate(165.602 311.145)"/><path class="n" d="M149.12,206.525H104.24V149.14H105.3v56.328H149.12Z" transform="translate(10.619 16.785)"/><path class="n" d="M315.407,177.761H314.35V118.585h57.107V68.81h1.057v50.832H315.407Z" transform="translate(34.265 7.744)"/><path class="n" d="M487.141,229.588H427.72V228.52h58.353v-34.5h1.068Z" transform="translate(47.023 21.836)"/><path class="o" d="M118.348,291.294s-1.279,17.856,2.225,20.026c2.225,1.335,10.892,5.852,10.636,6.675s-4.917,7.532-4.917,7.532-16.688-11.014-17.278-14.463.823-26.145,3.126-27.191c1.724-.79,2.626-.133,4.806,1.48C119.983,287.579,118.348,291.294,118.348,291.294Z" transform="translate(-28.399 8.068)"/><path class="p" d="M116.332,407.337s-.523,3.616-.59,4.15-5.785-.312-5.785-.312l-.467-4.306S115.62,406.826,116.332,407.337Z" transform="translate(-28.33 21.948)"/><path class="q" d="M115.9,410.635a15.177,15.177,0,0,0,3.56,3.126c1.758.946,4.517,1.324,5.563,2.3.745.712,2.726,3.76-4.561,3.7s-10.792.434-11.57-.745S110,410.39,110,410.39,111.726,411.069,115.9,410.635Z" transform="translate(-28.419 22.344)"/><path class="p" d="M142.082,407.337s-.523,3.616-.59,4.15-5.785-.312-5.785-.312l-.467-4.306S141.359,406.826,142.082,407.337Z" transform="translate(-25.432 21.948)"/><path class="q" d="M141.651,410.63a15.177,15.177,0,0,0,3.56,3.126c1.758.946,8.211,1.724,9.245,2.715.757.7,1.991,3.56-8.255,3.338-7.287-.189-10.792.434-11.582-.745s1.113-8.633,1.113-8.633S137.379,411.064,141.651,410.63Z" transform="translate(-25.524 22.349)"/><path class="q" d="M118.47,323.86S113.1,332.4,113.5,340.136s-.478,15.976-1.291,24.042c-.9,8.989-3.338,27.713-3.482,32.52s.167,22.93.167,22.93l9.334-.078s3.338-36.569,4.917-40.374,8.188-31.285,8.455-34.322S118.47,323.86,118.47,323.86Z" transform="translate(-28.421 12.606)"/><path class="q" d="M146.068,325.166s2.125,21,2.659,25.733.167,25.21.434,28.17-1.78,34.2-2.292,40.152l-10.247-.067s-.712-25.277-.712-37.559-3.148-26.579-6.764-34.689-11.882-8.3-14.1-23.363C115.05,323.575,143.064,320.4,146.068,325.166Z" transform="translate(-27.704 12.457)"/><path class="r" d="M122.907,259.284s6.408-4.283,10.9.311,6.675,15.364,3.482,17.511-8.711,2.715-11.315-.2-5.374-7.376-6.063-10.625S121.282,260.652,122.907,259.284Z" transform="translate(-27.172 5.134)"/><path class="r" d="M134.711,276.24s-.078,4.45.423,5.463-9.356.979-9.356.979a65.315,65.315,0,0,0-2.314-9.635C121.939,268.7,134.711,276.24,134.711,276.24Z" transform="translate(-26.772 6.735)"/><path class="s" d="M124.195,274.68s.923.935,3.516-.122,5.051-5.44,6.086-6.1.89-1.324.89-1.324l.946.868,1.224-.211s-1.858-2.959-.512-4.65-4.161-10.013-12.116-4.94c0,0-6.219,3.4-5.084,7.131S122.259,273.145,124.195,274.68Z" transform="translate(-27.259 5.035)"/><path class="t" d="M135.579,280.852s0-1.836-.857-2-9.178-.979-10.2-.579v2.136S126.489,281.62,135.579,280.852Z" transform="translate(-26.639 7.463)"/><path class="r" d="M132.9,264.975c-.3-.6-2.347-2.036-2.5.056s2,4.339,2.815,3.905S133.661,266.5,132.9,264.975Z" transform="translate(-25.978 5.862)"/><path class="s" d="M121.261,260.09s-9.156,2.459,2.692,13.84Z" transform="translate(-27.385 5.429)"/><path class="r" d="M196.4,304.084,187.055,304c.812-.467,2.114-1.313,1.825-1.691-.412-.545-3.059.656-4.139.768a15.651,15.651,0,0,0-3.883.423l-2.948,1.257,2.7,2.5s4.884.7,6.308.8c2.325.167,9.445-2.6,9.557-3.026C196.69,304.273,196.4,304.084,196.4,304.084Z" transform="translate(-20.63 10.164)"/><path class="o" d="M149.352,283.173c-5.941-1.046-12.238-2.548-12.238-2.548l-11.059-.445s-10.158,2.225-14.152,4.039c-.378.167-.378,9.056-1.424,11.381l3.338,7s1.914,13.851,2.314,20.026c.178,2.826-3.95,26.523-3.95,26.523a76.672,76.672,0,0,0,11.971,2.136c7.554.834,26.423-.3,26.534-1.19s-3.649-33.209-3.816-34.878c-.256-2.57.734-14.463.734-14.463,1.424,1.914,9.657,9.078,13.673,11.359,2.848,1.624,9.857.634,11.915.423,4.45-.456,16.81-1.346,17.055-1.78s-.712-4.762-1.235-4.929-16.377-.946-20.371-.734c-1.624.089-6.909-5.819-6.909-5.819S152.634,284.641,149.352,283.173Z" transform="translate(-28.219 7.69)"/><path class="n" d="M48.73,221.24H77.968V246.9l-4.461-4.461H48.73Z" transform="translate(4.372 24.899)"/><path class="c" d="M510.37,184.923H482v-28.4h28.37Zm-27.457-.946h26.512V157.466H482.912Z" transform="translate(13.592 -6.227)"/><path class="c" d="M577.638,166.582H512.61V159.64h65.028Zm-64.082-.946h63.137v-5.051H513.556Z" transform="translate(17.037 -5.875)"/><path class="c" d="M581.083,195.612H482V188.67h99.116Zm-98.171-.946h97.225v-5.051H482.912Z" transform="translate(13.592 -2.608)"/><path class="c" d="M545.092,207.592H482V200.65h63.126Zm-62.18-.99H544.1V201.6h-61.19Z" transform="translate(13.592 -1.26)"/><path class="c" d="M556.644,178.493H512.61V171.54h44.034Zm-43.089-.946H555.7V172.5H513.556Z" transform="translate(17.037 -4.536)"/><path class="c" d="M593.509,229.2H471.83V142.94H593.509Zm-120.733-.946H592.563V143.886H472.776Z" transform="translate(12.448 -7.755)"/><path class="c" d="M398.642,87.711H389.53V86.643h8.044V78.61h1.068Z" transform="translate(42.726 8.847)"/><path class="c" d="M343.612,87.711H334.5v-9.1h1.068v8.033h8.044Z" transform="translate(36.532 8.847)"/><path class="c" d="M335.567,32.681H334.51v-9.1h9.1v1.057h-8.044Z" transform="translate(36.534 2.654)"/><path class="c" d="M398.642,32.681h-1.068V24.648H389.53V23.58h9.112Z" transform="translate(42.726 2.654)"/><rect class="c" width="1.057" height="24.932" transform="translate(440.299 48.93)"/><rect class="c" width="1.068" height="24.932" transform="translate(371.032 48.93)"/><path class="n" d="M140.656,171.84a3.905,3.905,0,1,1,3.894-3.894,3.905,3.905,0,0,1-3.894,3.894Zm0-6.731a2.837,2.837,0,1,0,2.837,2.837A2.837,2.837,0,0,0,140.656,165.109Z" transform="translate(-25.263 -5.381)"/><path class="n" d="M402.094,91.508a3.894,3.894,0,1,1,3.894-3.894,3.894,3.894,0,0,1-3.894,3.894Zm0-6.675a1.18,1.18,0,1,0,0-.056Z" transform="translate(4.162 -14.419)"/><path class="n" d="M516.583,216.878a3.894,3.894,0,1,1,2.761-1.137,3.894,3.894,0,0,1-2.761,1.137Zm0-6.731a1.179,1.179,0,1,0,0-.045Z" transform="translate(17.047 -0.31)"/><path class="u" d="M205.459,129.28l-.4-1.046a5.675,5.675,0,0,1-1.046-.234l-.812.757-2.347-1.635.445-1.012a6.955,6.955,0,0,1-.567-.912h-1.113l-.478-2.848,1.035-.4a6.5,6.5,0,0,1,.245-1.046l-.757-.812,1.669-2.359,1.023.456a4.73,4.73,0,0,1,.9-.567v-1.113l2.848-.478.4,1.035a4.919,4.919,0,0,1,1.046.245l.812-.768,2.347,1.68-.445,1.012a6.951,6.951,0,0,1,.567.912h1.113l.478,2.848-1.035.4a6.492,6.492,0,0,1-.245,1.046l.757.812-1.669,2.359-1.023-.456a4.728,4.728,0,0,1-.9.567v1.113Zm-1.624-2.225.223.089a4.45,4.45,0,0,0,1.324.3h.245l.345.89,1.569-.256v-.957l.234-.1a5.108,5.108,0,0,0,1.113-.723l.189-.156.868.389.923-1.3-.656-.69.089-.234a4.884,4.884,0,0,0,.312-1.324v-.245l.89-.334-.267-1.569h-.957l-.1-.223a4.831,4.831,0,0,0-.712-1.113l-.167-.2.389-.868-1.291-.923-.7.656-.234-.089a4.45,4.45,0,0,0-1.313-.3H205.9l-.345-.89-1.569.256v.957l-.223.1a5.107,5.107,0,0,0-1.113.723l-.189.156-.868-.389-.923,1.3.645.69-.089.234a5.319,5.319,0,0,0-.3,1.324v.245l-.89.345.267,1.558h.957l.1.223a4.761,4.761,0,0,0,.712,1.113l.167.189-.389.868,1.291.923Zm1.958-1.324a3.15,3.15,0,1,1,.534-.044,2.882,2.882,0,0,1-.534.067Zm0-5.485a2.336,2.336,0,0,0-2.314,2.737,2.292,2.292,0,0,0,.957,1.513h0a2.341,2.341,0,0,0,3.671-2.3,2.292,2.292,0,0,0-.957-1.513,2.225,2.225,0,0,0-1.346-.412Z" transform="translate(-18.241 -10.783)"/><path class="u" d="M186.463,133.943l-.89-2.314a13.206,13.206,0,0,1-2.792-.634l-1.88,1.691-4.929-3.493,1.012-2.225a12.659,12.659,0,0,1-1.513-2.425l-2.481-.078-.99-6.008,2.314-.89a12.572,12.572,0,0,1,.645-2.792l-1.7-1.8,3.493-4.917,2.225,1.012a13.074,13.074,0,0,1,2.425-1.524l.078-2.481,5.952-1,.89,2.325a11.96,11.96,0,0,1,2.792.634l1.813-1.7,4.906,3.5-1.012,2.225a12.239,12.239,0,0,1,1.524,2.425l2.481.078,1,5.952-2.314.879a12.57,12.57,0,0,1-.645,2.792l1.7,1.813-3.5,4.917-2.225-1.012a13.018,13.018,0,0,1-2.425,1.513l-.078,2.481Zm-3.927-4.183.312.122a11.77,11.77,0,0,0,3.148.723h.334l.812,2.125,4.239-.712.067-2.225.3-.134a11.57,11.57,0,0,0,2.737-1.713l.256-.211,2.08.923,2.492-3.5-1.558-1.658.122-.312a12.115,12.115,0,0,0,.723-3.148v-.323l2.125-.823-.712-4.239-2.225-.067-.145-.3a11.125,11.125,0,0,0-1.713-2.737l-.211-.256.935-2.08-3.516-2.514-1.658,1.558-.312-.122a11.759,11.759,0,0,0-3.148-.712h-.334l-.812-2.125-4.239.712-.067,2.225-.312.134a11.66,11.66,0,0,0-2.737,1.713l-.245.211-2.08-.923-2.537,3.527,1.558,1.658-.122.312a11.771,11.771,0,0,0-.723,3.148v.334l-2.125.812.712,4.239,2.225.067.145.312a11.125,11.125,0,0,0,1.713,2.737l.211.256-.935,2.069,3.5,2.492Zm4.45-3.883a6.816,6.816,0,1,0-.022,0Zm0-12.672a5.58,5.58,0,1,1-.011,0Z" transform="translate(-21.295 -12.13)"/><path class="v" d="M452.8,314.38H152.049L119.14,437.394H485.711Z" transform="translate(12.296 35.381)"/><path class="h" d="M194.826,355.211H213.3a1.112,1.112,0,0,1,1.213,1.246l-1.791,8.044a1.191,1.191,0,0,1-1.213.846H192.723a1.113,1.113,0,0,1-1.2-1.279l2.1-8.033A1.212,1.212,0,0,1,194.826,355.211Z" transform="translate(-19.1 16.134)"/><path class="h" d="M183.4,333.78h13.962L195.5,343.915H181.26Z" transform="translate(19.287 37.564)"/><path class="h" d="M202.186,333.78h13.962l-1.457,10.135-14.241.011Z" transform="translate(21.446 37.564)"/><path class="h" d="M220.974,333.78h13.974l-1.068,10.135H219.65Z" transform="translate(23.607 37.564)"/><path class="h" d="M239.775,333.78h13.962l-.667,10.135H238.84Z" transform="translate(25.767 37.564)"/><path class="h" d="M258.564,333.78h13.962l-.256,10.135-14.24.011Z" transform="translate(27.926 37.564)"/><path class="h" d="M411.339,333.78H390.39l2.258,10.135H414Z" transform="translate(42.822 37.564)"/><path class="h" d="M385.523,333.78H371.55l1.869,10.135h14.229Z" transform="translate(40.702 37.564)"/><path class="h" d="M366.693,333.78H352.72l1.457,10.135,14.241.011Z" transform="translate(38.583 37.564)"/><path class="h" d="M347.853,333.78H333.88l1.068,10.135h14.229Z" transform="translate(36.463 37.564)"/><path class="h" d="M329.023,333.78H315.05l.668,10.135h14.229Z" transform="translate(34.343 37.564)"/><path class="h" d="M310.182,333.78H296.22l.267,10.135,14.229.011Z" transform="translate(32.224 37.564)"/><path class="h" d="M277.34,333.78h13.974l.234,10.135H277.34Z" transform="translate(30.1 37.564)"/><path class="h" d="M153.655,349.68h29.182l-1.658,10.458H151.43Z" transform="translate(15.93 39.354)"/><path class="h" d="M416.971,349.68H380.88l2.058,10.458h36.769Z" transform="translate(41.752 39.354)"/><path class="h" d="M375.86,349.68H361.43l1.635,10.458h14.708Z" transform="translate(39.563 39.354)"/><path class="h" d="M356.4,349.68H341.97l1.235,10.458h14.708Z" transform="translate(37.373 39.354)"/><path class="h" d="M336.94,349.68H322.51l.823,10.458h14.708Z" transform="translate(35.183 39.354)"/><path class="h" d="M317.48,349.68H303.05l.412,10.458h14.708Z" transform="translate(32.993 39.354)"/><path class="h" d="M149.786,366.44h29.838l-2.181,10.391H147.06Z" transform="translate(15.438 41.24)"/><path class="h" d="M183.236,366.44h14.93L196.4,376.831H181.2Z" transform="translate(19.28 41.24)"/><path class="h" d="M203.315,366.44h111.9l.412,10.391H201.68Z" transform="translate(21.585 41.24)"/><path class="h" d="M310.44,366.44h14.919l.823,10.391h-15.2Z" transform="translate(33.825 41.24)"/><path class="h" d="M330.56,366.44h14.919l1.224,10.391H331.517Z" transform="translate(36.089 41.24)"/><path class="h" d="M350.68,366.44H365.6l1.635,10.391h-15.2Z" transform="translate(38.353 41.24)"/><path class="h" d="M370.8,366.44h14.919l2.036,10.391h-15.2Z" transform="translate(40.618 41.24)"/><path class="h" d="M390.91,366.44h29.849l2.715,10.391H393.091Z" transform="translate(42.881 41.24)"/><path class="h" d="M298.037,349.68H283.73v10.458h14.585Z" transform="translate(30.819 39.354)"/><path class="h" d="M278.631,349.68H264.2l-.412,10.458H278.5Z" transform="translate(28.575 39.354)"/><path class="h" d="M259.223,349.68H244.782l-.812,10.458h14.7Z" transform="translate(26.344 39.354)"/><path class="h" d="M239.806,349.68h-14.43l-1.246,10.458h14.708Z" transform="translate(24.111 39.354)"/><path class="h" d="M220.386,349.68h-14.43l-1.647,10.458h14.708Z" transform="translate(21.881 39.354)"/><path class="h" d="M200.968,349.68h-14.43l-2.058,10.458h14.708Z" transform="translate(19.649 39.354)"/><path class="h" d="M159.56,328.966l2.37-9.056h6.786l-2.214,9.056Z" transform="translate(16.845 36.003)"/><path class="h" d="M174.106,319.91h13.562l-1.9,9.056h-13.8Z" transform="translate(18.241 36.003)"/><path class="h" d="M192.36,319.91h13.562l-1.546,9.056h-13.8Z" transform="translate(20.336 36.003)"/><path class="h" d="M210.614,319.91h13.562l-1.19,9.056h-13.8Z" transform="translate(22.43 36.003)"/><path class="h" d="M228.858,319.91h13.573l-.834,9.056H227.79Z" transform="translate(24.523 36.003)"/><path class="h" d="M247.112,319.91h13.573l-.478,9.056H246.4Z" transform="translate(26.618 36.003)"/><path class="h" d="M265.366,319.91h13.562l-.111,9.056H265.01Z" transform="translate(28.712 36.003)"/><path class="h" d="M283.62,319.91h13.562l.245,9.056H283.62Z" transform="translate(30.806 36.003)"/><path class="h" d="M301.91,319.91h13.562l.59,9.056h-13.8Z" transform="translate(32.865 36.003)"/><path class="h" d="M320.2,319.91h13.562l.946,9.056h-13.8Z" transform="translate(34.923 36.003)"/><path class="h" d="M338.49,319.91h13.562l1.3,9.056h-13.8Z" transform="translate(36.981 36.003)"/><path class="h" d="M356.78,319.91h13.562L372,328.966H358.2Z" transform="translate(39.04 36.003)"/><path class="h" d="M375.06,319.91h13.573l2.014,9.056h-13.8Z" transform="translate(41.097 36.003)"/><path class="h" d="M393.35,319.91h13.573l2.37,9.056H395.486Z" transform="translate(43.155 36.003)"/><path class="w" d="M511.671,455.969H164.258a9.579,9.579,0,0,1-9.568-9.579H521.25A9.579,9.579,0,0,1,511.671,455.969Z" transform="translate(-23.243 26.396)"/><path class="x" d="M366.844,411.029a4.45,4.45,0,0,0-4.45-3.749H286.04a4.45,4.45,0,0,0-4.45,3.749l-4.773,28.926a4.45,4.45,0,0,0,4.45,5.218h85.877a4.45,4.45,0,0,0,4.45-5.218Z" transform="translate(-9.507 21.994)"/><rect class="y" width="31.084" height="3.182" transform="translate(193.716 184.549)"/><rect class="y" width="22.44" height="3.182" transform="translate(233.511 208.513)"/><rect class="m" width="14.897" height="3.182" transform="translate(259.444 208.513)"/><rect class="m" width="14.897" height="3.182" transform="translate(194.072 268.79)"/><rect class="y" width="35.957" height="3.182" transform="translate(277.29 208.513)"/><rect class="y" width="23.107" height="3.182" transform="translate(194.072 256.719)"/><rect class="y" width="14.107" height="3.182" transform="translate(226.291 280.772)"/><rect class="m" width="27.947" height="3.182" transform="translate(194.072 280.772)"/><rect class="y" width="15.42" height="3.182" transform="translate(194.072 292.754)"/><rect class="n" width="22.073" height="3.182" transform="translate(230.852 184.549)"/><rect class="m" width="22.073" height="3.182" transform="translate(230.852 220.495)"/><rect class="y" width="9.434" height="3.182" transform="translate(219.816 232.477)"/><rect class="n" width="21.183" height="3.182" transform="translate(210.393 244.648)"/><rect class="m" width="29.238" height="3.182" transform="translate(234.768 244.648)"/><rect class="m" width="22.073" height="3.182" transform="translate(194.072 232.566)"/><rect class="m" width="13.095" height="3.182" transform="translate(194.072 244.648)"/><rect class="z" width="12.349" height="3.182" transform="translate(233.7 232.566)"/><rect class="z" width="12.349" height="3.182" transform="translate(194.439 304.736)"/><rect class="n" width="22.073" height="3.182" transform="translate(193.983 208.513)"/><rect class="n" width="22.073" height="3.182" transform="translate(213.497 268.79)"/><rect class="n" width="22.073" height="3.182" transform="translate(213.775 292.754)"/><rect class="n" width="22.073" height="3.182" transform="translate(252.981 292.754)"/><rect class="n" width="31.463" height="3.182" transform="translate(193.983 220.495)"/><rect class="n" width="22.073" height="3.182" transform="translate(341.405 184.549)"/><rect class="n" width="22.073" height="3.182" transform="translate(262.782 304.736)"/><rect class="n" width="14.775" height="3.182" transform="translate(370.343 184.549)"/><rect class="n" width="14.775" height="3.182" transform="translate(420.318 196.531)"/><rect class="m" width="28.114" height="3.182" transform="translate(258.866 184.549)"/><rect class="m" width="28.114" height="3.182" transform="translate(368.418 196.531)"/><rect class="m" width="28.114" height="3.182" transform="translate(333.94 208.513)"/><rect class="m" width="28.114" height="3.182" transform="translate(297.327 220.495)"/><rect class="n" width="19.992" height="3.182" transform="translate(365.592 208.513)"/><rect class="z" width="28.114" height="3.182" transform="translate(307.784 184.549)"/><rect class="z" width="16.488" height="3.182" transform="translate(275.699 220.495)"/><rect class="z" width="16.488" height="3.182" transform="translate(262.782 268.968)"/><rect class="y" width="10.291" height="3.182" transform="translate(292.187 184.549)"/><rect class="y" width="10.291" height="3.182" transform="translate(258.866 220.495)"/><rect class="y" width="10.291" height="3.182" transform="translate(403.318 196.531)"/><rect class="m" width="16.098" height="3.182" transform="translate(193.716 196.531)"/><rect class="m" width="12.716" height="3.182" transform="translate(236.682 256.808)"/><rect class="m" width="5.196" height="3.182" transform="translate(213.775 196.531)"/><rect class="y" width="42.966" height="3.182" transform="translate(320.501 196.531)"/><rect class="y" width="42.977" height="3.182" transform="translate(279.27 292.754)"/><rect class="z" width="5.307" height="3.182" transform="translate(222.797 196.531)"/><rect class="m" width="14.063" height="3.182" transform="translate(302.478 196.531)"/><rect class="z" width="14.063" height="3.182" transform="translate(316.529 208.513)"/><rect class="z" width="14.063" height="3.182" transform="translate(244.247 304.736)"/><rect class="m" width="29.916" height="3.182" transform="translate(268.845 196.531)"/><rect class="m" width="17.478" height="3.182" transform="translate(240.999 268.968)"/><rect class="m" width="8.745" height="3.182" transform="translate(239.875 292.754)"/><rect class="n" width="10.291" height="3.182" transform="translate(254.305 196.531)"/><rect class="z" width="10.291" height="3.182" transform="translate(219.66 208.513)"/><rect class="z" width="10.291" height="3.182" transform="translate(221.718 256.808)"/><rect class="m" width="17.934" height="3.182" transform="translate(232.443 196.531)"/><g class="aa" transform="translate(360.508 224.478)"><rect class="h" width="138.967" height="99.083" rx="4.01"/></g><rect class="ab" width="25.822" height="6.887" rx="1.54" transform="translate(460.358 275.465)"/><rect class="ab" width="25.822" height="6.887" rx="1.54" transform="translate(460.358 288.36)"/><rect class="ab" width="25.822" height="6.887" rx="1.54" transform="translate(460.358 301.254)"/><path class="ab" d="M446.655,257.8a38.361,38.361,0,0,0-72.237,25.844c.289.812.6,1.6.946,2.381A38.36,38.36,0,0,0,446.655,257.8Zm-26.434,40.051a28.759,28.759,0,0,1-31.552-8.489,29.1,29.1,0,0,1-4.45-7.165c-.256-.59-.489-1.179-.712-1.791A28.759,28.759,0,1,1,420.277,297.8Z" transform="translate(1.232 2.308)"/><path class="ac" d="M382.927,262.153l-9.167-2.859a38.416,38.416,0,0,1,35.468-26.923l.289,9.6a28.77,28.77,0,0,0-26.59,20.181Z" transform="translate(1.411 2.31)"/><path class="ad" d="M384.223,279.477l-8.9,3.827c-.345-.779-.656-1.569-.946-2.381a38.249,38.249,0,0,1-.5-24.353l9.167,2.859a28.7,28.7,0,0,0,.367,18.257C383.678,278.3,383.912,278.888,384.223,279.477Z" transform="translate(1.227 5.033)"/><path class="ae" d="M380.985,290.544A38.249,38.249,0,0,1,375,280.987l8.8-3.827a29.092,29.092,0,0,0,4.45,7.165Z" transform="translate(1.551 7.35)"/><path class="r" d="M418.218,289.138s-1.858-3.249,1.113-11.96a8.789,8.789,0,0,1,15.854-2.225c3.137,5.407,2.08,8.756-2.537,14.852S420.143,291.93,418.218,289.138Z" transform="translate(6.35 6.643)"/><path class="r" d="M438.76,422.107s.49,3.571.545,4.116,5.429-.323,5.429-.323l.445-4.261S439.427,421.6,438.76,422.107Z" transform="translate(8.726 23.61)"/><path class="af" d="M440.141,425.375a14.7,14.7,0,0,1-3.338,3.093c-1.647.946-4.228,1.313-5.2,2.292-.712.7-2.559,3.727,4.272,3.66s10.124.423,10.858-.734-1.057-8.555-1.057-8.555a19.049,19.049,0,0,1-5.54.245Z" transform="translate(7.834 24.003)"/><path class="r" d="M405.34,422.107s.49,3.571.556,4.116,5.429-.323,5.429-.323l.434-4.261S406.074,421.6,405.34,422.107Z" transform="translate(4.965 23.61)"/><path class="af" d="M407.051,425.375a14.7,14.7,0,0,1-3.338,3.093c-1.647.946-7.71,1.713-8.678,2.681-.7.712-1.869,3.538,7.788,3.271,6.831-.189,10.135.423,10.858-.734s-1.057-8.555-1.057-8.555a28.36,28.36,0,0,1-5.574.245Z" transform="translate(3.754 24.003)"/><path class="ag" d="M438.579,342s2.759,8.555,2.392,15.932,1.424,15.431,2.158,23.141c.812,8.578,4.15,28.926,4.261,33.5s-.512,19.258-.512,19.258L440.2,434s-5.563-35.535-7.042-39.161-8.644-29.482-8.9-32.375S438.579,342,438.579,342Z" transform="translate(7.094 14.648)"/><path class="ag" d="M413.149,341.343s-4.05,22.618-4.539,27.135-.8,21.828-1.046,24.654-1.613,36.9-2.9,41.1H412.1s7.632-24.776,7.632-36.5,5.051-25.488,8.311-33.22,10.736-7.921,12.739-22.251C440.784,342.277,415.863,336.792,413.149,341.343Z" transform="translate(4.889 14.37)"/><path class="r" d="M420.594,289.63a6.5,6.5,0,0,1,0,4.183c-.846,1.747,10.714.7,10.714.7a12.416,12.416,0,0,1,.99-6.564C433.8,284.99,420.594,289.63,420.594,289.63Z" transform="translate(6.677 8.454)"/><path class="ah" d="M440.509,343.908s-4.161,4.272-28.559-.656l.378-2.092,27.736,1.046Z" transform="translate(5.709 14.553)"/><path class="r" d="M422.443,296.639s-4.272.434-5.5.668-9.423-1.469-11.125-1.647-8.9-5.084-9.1-5.674-4.361-11.048-4.595-13.35-4.027-1.113-3.7.456c.612,2.926,1.391,10.013,1.813,12.06s1.7,7.243,2.4,7.855a50.064,50.064,0,0,0,13.5,7.632,53.992,53.992,0,0,1,11.125,5.162H448.41s12.138-17.333,12.394-19.948-8.466-20.026-10.213-22.162-4.261.712-4.261.712,5.218,15.32,5.919,17.489-6.075,11.748-7.932,11.782-6.675-.59-8.745-.668a14.817,14.817,0,0,1-4.361-1.024Z" transform="translate(3.059 6.195)"/><path class="ai" d="M407.6,305.725a10.013,10.013,0,0,1,4.172,6.9,91.027,91.027,0,0,0,2.437,13.584c.7,2.347-.612,19.425-.779,20.638s24.131,4.116,27.869,1.224c0,0,1.046-15.943,1.48-20.471s2.525-15.5,3.215-16.977,9.145-13.35,9.5-14.9c0,0-4.372-6.964-7.51-7.053,0,0-4.984,5.841-6.609,6.1s-11.57-1.557-11.57-1.58-1.113,1.48-6.864-.256c0,0-6.875.768-7.988.912-1.357.178-10.769-1.179-10.769-1.179s-3.783,6.375-3.126,9.6Z" transform="translate(4.475 8.646)"/><path class="r" d="M392.859,278.659s-.846-4.039.178-5.2a30.5,30.5,0,0,0,2.114-2.67c.133-.256,1.635-1.113,1.635-1.535s-1.469-.935-2.759.256-2.08,1.446-2.592,1.313-1.257-4.395-1.313-5.451-.478-3.849-1.112-3.66-.634,1.413-.634,1.413-.768-2.114-1.279-1.7-.456,1.446-.456,1.446-.957-1.179-1.213-.323a2.992,2.992,0,0,0,0,1.635s-1-.545-1.057.812a20.515,20.515,0,0,0,.99,6.675c.7,1.413,3.338,5.107,3.66,6.553S392.859,278.659,392.859,278.659Z" transform="translate(2.605 5.574)"/><path class="r" d="M442.3,272.375s-2.893-4.884-3.883-5.318a16.243,16.243,0,0,1-3.6-1.558c-1.213-.868-2.826-1.591-2.737-1.88s1.524-.178,3.059.49,2.225.345,2.359,0a9.013,9.013,0,0,0-1.291-3.393c-.456-.578-3.771-3.905-3.215-4.395s2.7,1.335,3.048,1.7c0,0-1.713-3.593-1.046-3.771s1.914,1.113,1.914,1.113-.145-3.071,3.171,1.925c0,0-.7-1.658.311-1.113s2,3.649,2.325,5.218,1.769,6.564,3,7.788S442.3,272.375,442.3,272.375Z" transform="translate(7.974 4.77)"/><path class="aj" d="M432.465,289.839a13.217,13.217,0,0,1-4.784-.99c-3.249-1.113-3.493-6.809-4.194-6.13a2.069,2.069,0,0,1-3.338-.389s1.591-2.092.857-3.093a7.712,7.712,0,0,0-1.936-1.747s2.292-11.025,12.694-6C443.958,277.378,432.465,289.839,432.465,289.839Z" transform="translate(6.51 6.565)"/><path class="ak" d="M420.59,293.283l.367-1.591a84.805,84.805,0,0,1,10.258.389l.389,1.9S426.965,296.087,420.59,293.283Z" transform="translate(6.681 8.983)"/><path class="r" d="M422.156,280.289c.6-1.012,2.837-1.68,3.093,1.113.211,2.225-3.983,4.606-4.027,2.559A6.186,6.186,0,0,1,422.156,280.289Z" transform="translate(6.751 7.604)"/><path class="al" d="M392.2,276.08a6.674,6.674,0,0,0-3.56,1.113,2.314,2.314,0,0,0,.2,1.19,14.585,14.585,0,0,1,3.671-1.113,2.369,2.369,0,0,0-.311-1.19Z" transform="translate(3.084 7.229)"/><path class="aj" d="M389.308,276.685a1.024,1.024,0,0,0,.545,1.346,1.035,1.035,0,1,0-.545-1.346Z" transform="translate(3.152 7.225)"/><path class="am" d="M336.964,200.35s3.427,5.807,4.873,6.764c1.958,1.279.734,2.581-.2,2.581s-5.7.345-6.742-.846-1.569-4.762-2.548-5.7-1.98-4.639.478-5.563C334.995,196.813,336.964,200.35,336.964,200.35Z" transform="translate(-3.369 -1.617)"/><path class="an" d="M335.345,197.786s3.916,6.8,4.595,7.788-1.279,1.012-2.481.534-4.25-5.362-4.684-6.252a3.238,3.238,0,0,1-.089-2.225Z" transform="translate(-3.229 -1.6)"/><path class="am" d="M295.94,179.62l.9,6.976.478.022-.145-5.018Z" transform="translate(32.193 20.215)"/><path class="am" d="M306.424,200.347s3.427,5.807,4.873,6.764c1.969,1.279.734,2.581-.2,2.581s-5.685.345-6.742-.846-1.569-4.762-2.537-5.7-2.025-4.739.467-5.563C304.477,196.943,306.424,200.347,306.424,200.347Z" transform="translate(-6.806 -1.614)"/><path class="an" d="M305.01,197.8s3.716,6.786,4.45,7.788-1.279,1.012-2.492.534-4.239-5.362-4.673-6.252a3.271,3.271,0,0,1-.1-2.225Z" transform="translate(-6.66 -1.599)"/><path class="am" d="M265.4,179.62l.912,6.976.478.022-.156-5.018Z" transform="translate(28.756 20.215)"/><path class="an" d="M292.19,153.049,323.2,167.178a5.963,5.963,0,0,1,3.849,4.962c1.2,11.993,10.18,31.018,10.18,31.018,2.87,1.413,2.659.189,2.659.189-1.813-5.83-4.027-29.827-4.817-39.473-.167-2.036-.267-3.438-.289-3.883s-.345-.712-.923-1.168c-4.25-3.449-21.761-10.591-21.761-10.591C298.954,147.9,292.19,153.049,292.19,153.049Z" transform="translate(-7.769 -7.161)"/><path class="an" d="M286.959,159.327c.957,8.377,12.917,7.421,12.917,7.421h14.463a90.632,90.632,0,0,0-5.273,15.576c-1.557,7.588-5.24,21-5.24,21s.245.456,2.87.2c0,0,11.37-22.685,15.731-28.381a38.372,38.372,0,0,0,4.083-11.86c.156-1.335.067-2.37-.434-2.792s-1.658-1.213-3.2-2.225c-4.539-2.87-12.427-7.276-16.822-8.266-5.885-1.324-15.186-3.794-15.186-3.794A16.009,16.009,0,0,0,286.959,159.327Z" transform="translate(-8.378 -7.387)"/><path class="ao" d="M295.948,101.595a13.517,13.517,0,0,1-1.112-8.511c1.057-4.383,5.129-8.756,11.125-6.753s10.769,6.675,7.2,11.993,3.238,7.788,1.5,10.324-1.113,5.207-.345,5.8,3.1,2.7,2.848,5.207-11.57-7.287-11.57-7.287S299.408,99.993,295.948,101.595Z" transform="translate(-7.499 -14.182)"/><path class="ap" d="M314.573,147.522s-.9,4.361-24.053-1.113C290.52,146.376,298.285,143.829,314.573,147.522Z" transform="translate(-7.957 -7.464)"/><path class="aq" d="M290.761,151.611l-1.113,2.058,25.388.745c-1.346-4.45-.912-10.558-.668-15.164.278-5.629,3.338-9.546,3.059-15.231,1.669.267,1.958.323,3.638.579-2.559-7.309-3.438-10.936-11.4-13.74a14.8,14.8,0,0,0-7.109-.868c-9.223.757-12.015.868-16.543,9.223,7.1,1.113,5.93,3.683,8.077,10.736,1.057,3.449,2.147,7.287,1.58,10.914S290.761,148.352,290.761,151.611Z" transform="translate(-8.464 -11.475)"/><path class="r" d="M303.828,113.364c-3.783-.712-2.971-2.815-2.971-2.815s.167-1.19.234-2.681v-1.2a14.627,14.627,0,0,0-.111-1.858c-.3-2.537,6.853-1.024,6.853-1.024s-.412,5.129.579,6.675S307.6,114.087,303.828,113.364Z" transform="translate(-6.802 -12.212)"/><path class="r" d="M297,109.879s7.621,8.789,10.436,10.825c0,0,3.238-2.915,1.246-10.636C308.726,110.091,305.044,108.222,297,109.879Z" transform="translate(-7.228 -11.553)"/><path class="r" d="M297.408,90.923s-3.961,7.621,0,14.841,11.626-3.149,12.127-4.361,3.148-8.088-2.114-10.18S298.532,88.854,297.408,90.923Z" transform="translate(-7.38 -13.768)"/><path class="ao" d="M298.737,93.786s-2.726,3.582-3.048,6.219a14.185,14.185,0,0,1,1.98-9.79c3.071-4.806,10.858-.234,11.9,1.691s4.105,3.6-1.035,11.849C308.538,103.755,299.293,97.324,298.737,93.786Z" transform="translate(-7.396 -13.928)"/><path class="ar" d="M304.428,104.8a7.354,7.354,0,0,1-3.338,2.9q0-.579,0-1.2a6.408,6.408,0,0,0,3.338-1.7Z" transform="translate(-6.767 -12.047)"/><path class="r" d="M268.953,141.257s-1.88.834-2.77.456a8.322,8.322,0,0,0-2.7-.456c-.59,0-2.4-.645-2.37.067s2.948,1.2,3.549,1.424-1.791,1.535-2.014,2.125,2.481,4.45,3.994,3.338,2.347-3.271,2.659-3.415a10.407,10.407,0,0,0,1.113-.745Z" transform="translate(-11.267 -7.974)"/><path class="r" d="M263.2,144.17s-4.45,3.66-4.45,4.15.156.723.59.4l4.372-3.4s-4.45,5.218-4.572,5.563c-.089.222.334.7.59.545s4.94-5.062,4.94-5.062-4.116,4.873-4.139,5.24a.478.478,0,0,0,.812.323c.334-.334,4.45-4.639,4.45-4.639s-2.759,3.738-2.581,4.072.445.623,1.113-.367,2.548-3.148,2.548-3.148Z" transform="translate(-11.532 -7.616)"/><path class="o" d="M312.857,166.748H299.874s-11.96.957-12.917-7.421A16.01,16.01,0,0,1,290.9,146.3s6.319,1.68,11.837,3.015a42.411,42.411,0,0,1,10.013-.868s23.363,7.721,22.685,11.793C335.386,160.24,325.607,155.011,312.857,166.748Z" transform="translate(-8.377 -7.377)"/><path class="as" d="M267.08,130.247l24.754-.367-12.494,6.341Z" transform="translate(28.945 14.617)"/><path class="aq" d="M310.826,149.037a21.227,21.227,0,0,1-12.394.2l-.323-2.548,14.063.779Z" transform="translate(-7.103 -7.333)"/><path class="at" d="M279.34,136.184l-12.26-4.739V130.21l13.228,4.762Z" transform="translate(28.945 14.654)"/><path class="au" d="M309.672,154.339a1.224,1.224,0,0,0,1.713,1.268l1.446-.612a1.035,1.035,0,0,0,.6-1.113c-.6-3.738-1.88-18.312,0-20.816a9.133,9.133,0,0,0,1.368-2.448c1.235,3.193,2.781,7.309,3.393,9.523l11.693,15.576,3.927.99a131.612,131.612,0,0,0-8.834-18.034c-.757-2.058-2.959-8.277-4.9-13.818-1.235-3.5-2.359-6.675-2.959-8.466a3.972,3.972,0,0,0-1.713-2.092c-1.813-1.113-4.828-2.792-7.565-4.116h0l-.267-.122h0c5.2,7.877,3.171,30.116,2.147,44.335Z" transform="translate(-6.037 -11.455)"/><path class="au" d="M295.013,110.72c-1.669.256-5.807,4.272-8,8.322-2.5,4.628-5.051,9.89-6.965,11.615-3.516,3.193-13.351,14.463-13.829,14.174a30.7,30.7,0,0,0,3.071,3.527c.178.078,16.165-13.773,17.7-15.887s5.351-10.4,6.519-10.213h0a60.654,60.654,0,0,1,2.848,7.788l.067.223a24.932,24.932,0,0,1,.345,10.347c-.378,2.893-2.537,7.6-3.827,9.891a1.568,1.568,0,0,0,0,1.2h0a.856.856,0,0,0,.434.5l4.684,1.736,1.113.412a2.4,2.4,0,0,0,3.215-1.947c1.046-8.021,2.359-16.221,3.415-19.314A29.294,29.294,0,0,0,304,109.34a87.6,87.6,0,0,0-8.989,1.38Z" transform="translate(-10.692 -11.536)"/><path class="av" d="M278.1,137.614l7.365-20.1,23.742.389-7.02,18.524Z" transform="translate(30.185 13.225)"/><path class="aw" d="M327.133,147.13c-.723,1.446-.5,3.026.49,3.527s2.392-.278,3.115-1.724.5-3.026-.49-3.527S327.856,145.683,327.133,147.13Z" transform="translate(-3.884 -7.494)"/><path class="ao" d="M304.751,97.616s1.513,2.37.111,4.45.356,4.05.656,6.208-5.863,7.91,1,10.792,9.045-1.88,7.3-4.517-2.993-4.762-3.148-8.5S309.29,96.414,304.751,97.616Z" transform="translate(-6.523 -12.873)"/><g transform="translate(105.455 30.576)"><path class="n" d="M145.537,61.915a10.571,10.571,0,0,1-.512-1.113,5.462,5.462,0,0,1-.178-1.413h0V54.228a5.207,5.207,0,0,0-1.346-3.994,5.83,5.83,0,0,0-4.172-1.3,9.69,9.69,0,0,0-2.47.3,9.1,9.1,0,0,0-2.069.779,1.2,1.2,0,0,0-.445.334.957.957,0,0,0-.1.545v.79c0,.323.1.5.323.5h.256l.612-.245a15.331,15.331,0,0,1,1.713-.545,7.343,7.343,0,0,1,1.7-.2,3.649,3.649,0,0,1,2.6.734,3.516,3.516,0,0,1,.734,2.537v1.224a16.688,16.688,0,0,0-1.836-.356,12.383,12.383,0,0,0-1.7-.122,5.7,5.7,0,0,0-3.861,1.224,4.45,4.45,0,0,0-.278,6.33,4.35,4.35,0,0,0,3.193,1.19,5.908,5.908,0,0,0,4.684-2.225,9.393,9.393,0,0,0,.5.935,3.984,3.984,0,0,0,.556.734.69.69,0,0,0,.49.222.645.645,0,0,0,.378-.145l1.012-.668a.556.556,0,0,0,.256-.734l-.067-.1ZM142.2,58.055a5.2,5.2,0,0,1-.145,1.38,2.615,2.615,0,0,1-.467,1.046,3.66,3.66,0,0,1-1.5,1.024,5.218,5.218,0,0,1-1.713.278,2.359,2.359,0,0,1-1.48-4.105,3.749,3.749,0,0,1,2.359-.612,8.633,8.633,0,0,1,1.5.089c.512.078.99.167,1.446.267Zm7.932,4.65a1.491,1.491,0,0,0,.323.634,1.012,1.012,0,0,0,.623.145h1.357a1.046,1.046,0,0,0,.634-.145,1.246,1.246,0,0,0,.312-.656l2.448-10.247,2.47,10.247a1.023,1.023,0,0,0,.289.634.912.912,0,0,0,.656.167h1.368a.912.912,0,0,0,.59-.167,1.2,1.2,0,0,0,.345-.612l3.961-12.294a.979.979,0,0,0,.111-.389v-.256a.345.345,0,0,0-.289-.389h-1.591a1.113,1.113,0,0,0-.623.156,1.324,1.324,0,0,0-.3.612L160.045,60.8,157.5,50.234a.777.777,0,0,0-.935-.779h-1.3a.823.823,0,0,0-.935.668.456.456,0,0,1,0,.122L151.857,60.7l-2.648-10.458a1.435,1.435,0,0,0-.312-.623.99.99,0,0,0-.634-.156h-1.535c-.256,0-.378.145-.378.4a2.582,2.582,0,0,0,.133.634Zm17.089.289a7.109,7.109,0,0,0,1.825.634,10.67,10.67,0,0,0,2.448.289,7.632,7.632,0,0,0,2.292-.345,4.717,4.717,0,0,0,1.7-.89,4.172,4.172,0,0,0,1.113-1.4,4.039,4.039,0,0,0,.412-1.847,3.538,3.538,0,0,0-.734-2.225,4.829,4.829,0,0,0-2.192-1.524l-2.225-.712a4.762,4.762,0,0,1-1.713-.89,1.558,1.558,0,0,1-.478-1.113,1.535,1.535,0,0,1,.757-1.413,4.205,4.205,0,0,1,1.98-.445,7.087,7.087,0,0,1,3.059.634,2.225,2.225,0,0,0,.6.189c.234,0,.367-.178.367-.512v-.757a.757.757,0,0,0-.156-.512,1.235,1.235,0,0,0-.478-.412,4.906,4.906,0,0,0-.656-.289,4.294,4.294,0,0,1-.912-.245l-.99-.2h-1.113a6.675,6.675,0,0,0-1.991.267,4.918,4.918,0,0,0-1.713.834,4.016,4.016,0,0,0-1.113,1.3,3.337,3.337,0,0,0-.423,1.7,3.8,3.8,0,0,0,.779,2.3,4.84,4.84,0,0,0,2.548,1.624l2.314.723a3.56,3.56,0,0,1,1.6.823,1.557,1.557,0,0,1,.445,1.113,1.724,1.724,0,0,1-.89,1.546,4.35,4.35,0,0,1-2.325.512,8.367,8.367,0,0,1-1.9-.189,7.6,7.6,0,0,1-1.7-.545l-.4-.167h-.289c-.234,0-.378.167-.378.49v.879a1.247,1.247,0,0,0,.111.445,1.2,1.2,0,0,0,.545.356Zm6.531,7.454a46.727,46.727,0,0,1-41.676-2.6c-.579-.345-1.024.256-.545.7a35.078,35.078,0,0,0,23.719,9.023,34.366,34.366,0,0,0,19.38-5.908c.812-.656.067-1.613-.812-1.213Zm5.129-2.993c-.567-.7-5.485-1.313-8.544.779-.467.345-.378.79.111.723,1.713-.2,5.474-.645,6.141.2s-.756,4.45-1.391,5.985c-.189.456.222.668.656.289,2.982-2.359,3.727-7.265,3.137-7.977Z" transform="translate(-131.328 -48.912)"/></g><path class="ax" d="M488.29,67.53h7.977a3.026,3.026,0,0,1,2.826,1.947L507.8,92.44a3.026,3.026,0,0,0,2.826,1.947h25.878" transform="translate(14.3 -16.242)"/><path class="ax" d="M498.74,71.24h31.374a2.414,2.414,0,0,1,2.414,2.414v9.779a2.4,2.4,0,0,1-2.414,2.4H504.525" transform="translate(15.476 -15.824)"/><line class="ay" y2="14.597" transform="translate(524.352 55.416)"/><line class="ay" y2="14.597" transform="translate(532.518 55.416)"/><line class="ay" y2="14.597" transform="translate(540.684 55.416)"/><line class="ay" x2="31.018" transform="translate(516.975 62.714)"/><circle class="ay" cx="2.27" cy="2.27" r="2.27" transform="translate(527.133 82.64)"/><circle class="ay" cx="2.27" cy="2.27" r="2.27" transform="translate(542.275 82.64)"/><rect class="az" width="28.526" height="50.576" rx="3.9" transform="translate(0 66.063)"/><path class="az" d="M8.64,59.38H20.166v2.436a1.947,1.947,0,0,1-1.947,1.947H10.587A1.947,1.947,0,0,1,8.64,61.816Z" transform="translate(-0.14 6.683)"/><line class="az" x2="28.526" transform="translate(0 110.209)"/><path class="n" d="M48.852,100.98h1.724a.857.857,0,0,1,.868.857h1.724a2.592,2.592,0,0,0-2.592-2.592V97.52H48.852v1.724a2.592,2.592,0,0,0,0,5.184h1.724a.868.868,0,0,1,0,1.736H48.852a.868.868,0,0,1-.868-.868H46.26a2.592,2.592,0,0,0,2.592,2.592v1.736h1.724v-1.736a2.592,2.592,0,0,0,0-5.184H48.852a.868.868,0,0,1-.868-.868.857.857,0,0,1,.868-.857Z" transform="translate(-35.446 -12.866)"/><rect class="az" width="28.526" height="50.576" rx="3.9" transform="translate(42.788 85.944)"/><path class="az" d="M47.1,77.25H58.626v2.436a1.947,1.947,0,0,1-1.947,1.947H49.058a1.947,1.947,0,0,1-1.947-1.947V77.25Z" transform="translate(4.188 8.694)"/><line class="az" x2="28.526" transform="translate(42.788 130.09)"/><path class="n" d="M87.312,118.85h1.736a.857.857,0,0,1,.857.857H91.64a2.6,2.6,0,0,0-2.592-2.592V115.39H87.312v1.724a2.6,2.6,0,0,0,0,5.2h1.736a.857.857,0,0,1,.857.857.868.868,0,0,1-.857.868H87.312a.868.868,0,0,1-.868-.868H84.72a2.592,2.592,0,0,0,2.592,2.592v1.736h1.736v-1.736a2.592,2.592,0,1,0,0-5.184H87.312a.868.868,0,0,1-.868-.868.857.857,0,0,1,.868-.857Z" transform="translate(-31.118 -10.855)"/><path class="az" d="M68.69,83.31H79.571A3.182,3.182,0,0,1,82.753,86.5v5.273" transform="translate(-32.922 -14.466)"/><path class="n" d="M49.808,69.04h-7.3l3.638,3.649Z" transform="translate(3.672 7.77)"/><path class="az" d="M66.544,143.855H55.663a3.182,3.182,0,0,1-3.193-3.182V135.4" transform="translate(-34.747 -8.603)"/><path class="n" d="M13.65,114.8h7.3L17.3,111.15Z" transform="translate(0.424 12.509)"/><path class="n" d="M242.994,97.228a3.516,3.516,0,0,1-1.5-1.535,5.384,5.384,0,0,1-.512-2.425V85.58h2.225v7.788a2.225,2.225,0,0,0,.556,1.613,2.47,2.47,0,0,0,3.148,0,2.225,2.225,0,0,0,.556-1.613V85.58h2.281v7.688a5.24,5.24,0,0,1-.523,2.425,3.483,3.483,0,0,1-1.513,1.535,5.685,5.685,0,0,1-4.762,0Z" transform="translate(-13.532 -14.21)"/><path class="n" d="M254.609,97.629H252.25V85.58h2.359Z" transform="translate(-12.264 -14.21)"/><path class="n" d="M258.768,100.065H256.61L261.995,84.3h2.158Z" transform="translate(-11.773 -14.354)"/><path class="n" d="M267.685,97.232a3.4,3.4,0,0,1-1.5-1.535,5.24,5.24,0,0,1-.523-2.425V85.583h2.225v7.788a2.225,2.225,0,0,0,.556,1.613,2.448,2.448,0,0,0,3.16-.033,2.225,2.225,0,0,0,.567-1.613V85.55h2.225v7.688a5.24,5.24,0,0,1-.523,2.425,3.516,3.516,0,0,1-1.5,1.535,5,5,0,0,1-2.392.523A4.907,4.907,0,0,1,267.685,97.232Z" transform="translate(-10.755 -14.214)"/><path class="n" d="M280.156,90.208l2.715-4.628h2.392l-3.983,6.809-3.037,5.24H275.85Zm0,2.492-.234-.389-3.983-6.675h2.392l2.7,4.561.311.545,4.128,6.942h-2.4Z" transform="translate(-9.608 -14.21)"/><rect class="n" width="2.948" height="14.074" rx="1.22" transform="translate(310.621 28.748)"/><rect class="n" width="2.948" height="14.074" rx="1.22" transform="translate(336.399 28.748)"/><path class="n" d="M319.51,47.27V62.389a1.235,1.235,0,0,0,1.235,1.268h2.9v6.23a2.436,2.436,0,0,0,2.425,2.425h0a2.436,2.436,0,0,0,2.425-2.425v-6.23h2.381v6.23a2.425,2.425,0,0,0,4.851,0v-6.23h2.893a1.235,1.235,0,0,0,1.235-1.235V47.27Z" transform="translate(-4.694 -18.522)"/><path class="n" d="M336.221,39.71l1.98-1.969a.534.534,0,0,0,0-.757l-.189-.189a.556.556,0,0,0-.757,0l-2.114,2.125a10.191,10.191,0,0,0-10.9,0L322.114,36.8a.556.556,0,0,0-.757,0l-.189.245a.534.534,0,0,0,0,.757l1.969,1.969a10.168,10.168,0,0,0-3.638,7.788v.289h20.359v-.289A10.169,10.169,0,0,0,336.221,39.71Zm-11.548,5.04a1.046,1.046,0,1,1,1.046-1.046A1.046,1.046,0,0,1,324.673,44.75Zm10.013,0a1.035,1.035,0,1,1,.022,0Z" transform="translate(-4.695 -19.717)"/><g transform="translate(209.714 0)"><path class="n" d="M236.991,21.43a7.254,7.254,0,0,0-3.338.79c-2.726,1.335-4.283,4.205-4.283,7.788s1.524,6.375,4.239,7.632a8.533,8.533,0,0,0,6.853,0c2.715-1.3,4.25-4.061,4.25-7.632s-1.569-6.442-4.283-7.788a7.532,7.532,0,0,0-3.393-.79Zm1.113,2.537c1.635.445,2.792,1.9,3.282,4.061a9.234,9.234,0,0,1-.223,4.617,4.239,4.239,0,0,1-8.266,0,9.09,9.09,0,0,1-.234-4.617,4.906,4.906,0,0,1,3.282-4.061,5.04,5.04,0,0,1,2.158,0Z" transform="translate(-224.553 -21.43)"/><path class="n" d="M226.642,21.43a1.658,1.658,0,1,0,1.19.47,1.647,1.647,0,0,0-1.19-.47Zm-1.524,4.951v11.96h3.048V26.381Z" transform="translate(-225.04 -21.43)"/><path class="n" d="M247.436,38.339a11.181,11.181,0,0,1-3.616-1s.634-2.425.668-2.459c1.713.59,4.139,1.368,5.741.634a2.092,2.092,0,0,0,1.19-2.225c-.156-1.113-.9-1.68-2.9-2.425-2.225-.857-3.582-1.858-4.094-3.193a4.451,4.451,0,0,1-.234-2.225,4.917,4.917,0,0,1,4.361-3.916,13.35,13.35,0,0,1,2.982,0,6.1,6.1,0,0,1,2.3.745c0,.078-.623,2.225-.668,2.347a10.836,10.836,0,0,0-3.271-.745c-1.424,0-2.982.823-2.726,2.314.189.923.79,1.38,2.982,2.225a8.344,8.344,0,0,1,3.06,1.791,4.172,4.172,0,0,1,1.224,3.082,3.894,3.894,0,0,1-.4,2.125c-.779,1.68-2.348,2.648-4.728,2.9a10.691,10.691,0,0,1-1.858.078Z" transform="translate(-222.926 -21.428)"/></g></g></svg>