<svg xmlns="http://www.w3.org/2000/svg" width="370.032" height="356.509" viewBox="0 0 370.032 356.509"><defs><style>.a{fill:#75c7e6;}.b{fill:#263238;}.c{fill:#fafafa;}.d{fill:#f5f5f5;}.e{fill:#e0e0e0;}.f{fill:#e8505b;}.g{opacity:0.3;}.h{fill:#fff;}.i{opacity:0.2;}.j{fill:#ffbe9d;}.k{fill:#eb996e;}.l{opacity:0.78;}.m{opacity:0.6;}.n{fill:#455a64;}.o{opacity:0.4;}.p{fill:#febc61;}</style></defs><g transform="translate(0 0.001)"><g transform="translate(6.463 0.174)"><path class="a" d="M368.415,97.84l-2.073-3.358C348.83,65.991,317.166,48.816,283.789,50.9a88.672,88.672,0,0,0-12.777,1.738c-30.346,6.422-56.756,29.079-67.7,58.107-6.439,17.066-8.235,36.718-20.449,50.267-15.9,17.629-42.888,18.191-66.619,17.461S65.5,178.36,49.682,196.1c-9.914,11.081-13.062,26.863-12.264,41.7,2.149,39.245,29.851,74.393,65.108,91.862S179.336,348.694,217.951,341c54.086-10.762,105.52-40.294,136.437-85.994S393.153,147.124,368.415,97.84Z" transform="translate(-37.299 -50.727)"/></g><g transform="translate(0 354.703)"><path class="b" d="M399.632,473.278c0,.118-82.837.218-185.008.218S29.6,473.4,29.6,473.278s82.821-.218,185.024-.218S399.632,473.161,399.632,473.278Z" transform="translate(-29.6 -473.06)"/></g><g transform="translate(128.722 26.585)"><path class="b" d="M318.6,410.854l-111.488-.512a24.285,24.285,0,0,1-24.176-24.428l1.175-279.539a24.294,24.294,0,0,1,24.4-24.185l111.5.52a24.285,24.285,0,0,1,24.151,24.437l-1.184,279.539A24.294,24.294,0,0,1,318.6,410.854Z" transform="translate(-182.939 -82.19)"/><path class="c" d="M321.231,94.267l-21.616-.1a5.364,5.364,0,0,0-5.272,5.465v3.92a5.381,5.381,0,0,1-5.272,5.465l-42.141-.2a5.364,5.364,0,0,1-5.221-5.507v-3.92a5.389,5.389,0,0,0-5.23-5.515h-7.605l-18.913-.092a17.016,17.016,0,0,0-17.091,16.94l-1.15,272.823a17.007,17.007,0,0,0,16.932,17.075l111.27.52a17.024,17.024,0,0,0,17.091-16.94l1.15-272.823a17.007,17.007,0,0,0-16.932-17.108Z" transform="translate(-184.349 -84.05)"/><path class="b" d="M351.739,129.987a.839.839,0,1,1-.789-.8A.8.8,0,0,1,351.739,129.987Z" transform="translate(-209.77 -89.735)"/><path class="b" d="M351.745,133.407a.8.8,0,1,1-.8-.8.8.8,0,0,1,.8.8Z" transform="translate(-209.784 -90.284)"/><path class="b" d="M351.729,136.856a.713.713,0,1,1-.839-.756A.839.839,0,0,1,351.729,136.856Z" transform="translate(-209.81 -90.845)"/><rect class="d" width="118.607" height="75.249" rx="4.3" transform="translate(28.34 83.291)"/><rect class="e" width="118.607" height="75.249" rx="4.3" transform="translate(25.083 78.405)"/><path class="b" d="M319.472,157.024h-1.133l-.21.52h-.579l1.083-2.434h.562l1.091,2.434h-.6Zm-.176-.428-.386-.932-.386.932Z" transform="translate(-204.55 -93.897)"/><path class="b" d="M321.11,155.108h1.108a1.226,1.226,0,1,1,0,2.434H321.11Zm1.083,1.973a.756.756,0,1,0,0-1.511h-.512v1.511Z" transform="translate(-205.122 -93.895)"/><path class="b" d="M324.55,155.108h1.108a1.226,1.226,0,1,1,0,2.434H324.55Zm1.074,1.973a.756.756,0,0,0,0-1.511h-.512v1.511Z" transform="translate(-205.674 -93.895)"/><path class="b" d="M331.376,157.534v-1.461l-.722,1.2H330.4l-.714-1.167v1.427h-.529V155.1h.462l.915,1.511.9-1.511h.462v2.434Z" transform="translate(-206.414 -93.895)"/><path class="b" d="M332.94,156.29a1.335,1.335,0,1,1,1.335,1.259,1.268,1.268,0,0,1-1.335-1.259Zm2.1,0a.764.764,0,1,0-.764.781.747.747,0,0,0,.764-.781Z" transform="translate(-207.021 -93.86)"/><path class="b" d="M338.193,157.534l-.47-.68h-.52v.68h-.562V155.1h1.049c.655,0,1.058.336,1.058.839a.839.839,0,0,1-.5.772l.546.781Zm-.529-1.981H337.2v.839h.462c.344,0,.512-.16.512-.428s-.168-.4-.512-.4Z" transform="translate(-207.615 -93.895)"/><path class="b" d="M341.579,157.09v.445H339.69V155.1h1.847v.453h-1.284v.529h1.133v.437h-1.133v.562Z" transform="translate(-208.105 -93.895)"/><path class="b" d="M343.967,156.616h-.613v.6h-.47v-.6h-.6v-.42h.6v-.6h.445v.6h.613Z" transform="translate(-208.521 -93.975)"/><path class="b" d="M208.16,133.679a3.064,3.064,0,0,1,5.314-1.889l-.839.764a1.755,1.755,0,0,0-1.394-.655,1.78,1.78,0,1,0,0,3.559,1.754,1.754,0,0,0,1.394-.655l.839.764a3.064,3.064,0,0,1-5.314-1.889Z" transform="translate(-186.989 -89.994)"/><path class="b" d="M219.1,134.28v2.443h-1.158v-.537a1.385,1.385,0,0,1-1.3.6c-1.007,0-1.6-.554-1.6-1.293s.537-1.284,1.838-1.284h.991c0-.529-.319-.839-.991-.839a2.082,2.082,0,0,0-1.234.395l-.445-.839a3.29,3.29,0,0,1,1.847-.52C218.364,132.375,219.1,132.987,219.1,134.28Zm-1.234,1.091v-.436h-.839c-.579,0-.764.21-.764.5s.269.52.705.52a.923.923,0,0,0,.9-.579Z" transform="translate(-188.093 -90.251)"/><path class="b" d="M223.873,132.369v1.15H223.6a1.058,1.058,0,0,0-1.142,1.192v2.023H221.22v-4.281H222.4v.562A1.721,1.721,0,0,1,223.873,132.369Z" transform="translate(-189.085 -90.245)"/><path class="b" d="M229.524,130.52V136.4h-1.175v-.437a1.629,1.629,0,0,1-1.335.554,2.208,2.208,0,0,1,0-4.407,1.679,1.679,0,0,1,1.284.52v-2.073Zm-1.175,3.761a1.091,1.091,0,1,0-1.083,1.184,1.074,1.074,0,0,0,1.083-1.184Z" transform="translate(-189.683 -89.949)"/><path class="b" d="M231.27,136.327l.411-.9a2.9,2.9,0,0,0,1.494.42c.571,0,.781-.151.781-.395,0-.7-2.586,0-2.586-1.679,0-.839.739-1.385,1.981-1.385a3.551,3.551,0,0,1,1.679.378l-.411.881a2.518,2.518,0,0,0-1.234-.319c-.554,0-.789.176-.789.4,0,.73,2.577,0,2.577,1.679,0,.8-.739,1.36-2.015,1.36A3.7,3.7,0,0,1,231.27,136.327Z" transform="translate(-190.699 -90.249)"/><path class="b" d="M266.654,348.589H265.21V347.54h4.2v1.049h-1.435v3.643h-1.326Z" transform="translate(-196.148 -124.79)"/><path class="b" d="M270.439,349.8a2.619,2.619,0,1,1,2.611,2.443,2.46,2.46,0,0,1-2.611-2.443Zm3.878,0a1.259,1.259,0,1,0-.341.948A1.268,1.268,0,0,0,274.317,349.8Z" transform="translate(-196.986 -124.704)"/><path class="b" d="M278.324,348.589H276.88V347.54h4.2v1.049h-1.435v3.643h-1.318Z" transform="translate(-198.021 -124.79)"/><path class="b" d="M285.29,351.326H283.3l-.369.907H281.58l2.073-4.693h1.31l2.073,4.693H285.66Zm-.395-.982-.6-1.5-.6,1.5Z" transform="translate(-198.776 -124.79)"/><path class="b" d="M288.48,347.54h1.326v3.643h2.241v1.049H288.48Z" transform="translate(-199.883 -124.79)"/><path class="b" d="M253.4,372.646V374.1h-.63v-1.435a4.751,4.751,0,0,1-3.03-1.158l.369-.722a4.323,4.323,0,0,0,2.661,1.066v-3.358c-1.393-.344-2.812-.772-2.812-2.443,0-1.217.839-2.267,2.812-2.418V362.17h.63v1.444a5.036,5.036,0,0,1,2.569.789l-.319.747a4.667,4.667,0,0,0-2.25-.739v3.358c1.427.336,2.938.739,2.938,2.443C256.338,371.471,255.415,372.529,253.4,372.646Zm-.63-5.037v-3.165c-1.31.118-1.889.789-1.889,1.587,0,.982.848,1.335,1.889,1.6Zm2.644,2.661c0-1.007-.923-1.343-2.015-1.612v3.165c1.393-.076,2.015-.722,2.015-1.528Z" transform="translate(-193.664 -127.139)"/><path class="b" d="M265.425,364v8.856h-.915v-8.017h-2.09V364Z" transform="translate(-195.7 -127.433)"/><path class="b" d="M275.268,370.4c0,1.561-1.326,2.518-3.442,2.518s-3.417-.982-3.417-2.518a2.225,2.225,0,0,1,1.679-2.183,2,2,0,0,1-1.394-1.948c0-1.444,1.226-2.342,3.1-2.342s3.131.9,3.131,2.342a2.006,2.006,0,0,1-1.419,1.948,2.233,2.233,0,0,1,1.763,2.183Zm-.932,0c0-1.091-.94-1.771-2.518-1.771s-2.518.68-2.518,1.771.923,1.788,2.518,1.788,2.518-.705,2.518-1.8Zm-2.518-2.518c1.385,0,2.208-.621,2.208-1.587s-.839-1.6-2.208-1.6-2.191.6-2.191,1.595.823,1.6,2.2,1.6Z" transform="translate(-196.661 -127.422)"/><path class="b" d="M278.09,368.438c0-2.821,1.477-4.508,3.526-4.508s3.542,1.679,3.542,4.508-1.494,4.508-3.542,4.508S278.09,371.258,278.09,368.438Zm6.136,0c0-2.367-1.066-3.668-2.611-3.668s-2.6,1.3-2.6,3.668,1.058,3.668,2.6,3.668S284.226,370.805,284.226,368.438Z" transform="translate(-198.215 -127.422)"/><path class="b" d="M289.271,373.69a2.107,2.107,0,0,1-.176.739l-.529,1.746h-.571l.428-1.838a.638.638,0,0,1-.453-.646.655.655,0,0,1,.663-.68A.663.663,0,0,1,289.271,373.69Z" transform="translate(-199.801 -128.879)"/><path class="b" d="M297.2,372.056v.839H290.95v-.638l3.685-3.61c1-.991,1.192-1.587,1.192-2.191,0-1.024-.722-1.679-2.073-1.679a3,3,0,0,0-2.418.982l-.646-.554a3.953,3.953,0,0,1,3.14-1.268c1.8,0,2.93.915,2.93,2.392a3.644,3.644,0,0,1-1.452,2.77l-3.014,2.963Z" transform="translate(-200.238 -127.422)"/><path class="b" d="M299.74,368.438c0-2.821,1.477-4.508,3.526-4.508s3.551,1.679,3.551,4.508-1.494,4.508-3.551,4.508S299.74,371.258,299.74,368.438Zm6.136,0c0-2.367-1.066-3.668-2.611-3.668s-2.6,1.3-2.6,3.668,1.066,3.668,2.6,3.668S305.876,370.805,305.876,368.438Z" transform="translate(-201.691 -127.422)"/><rect class="f" width="113.41" height="29.767" rx="14.884" transform="translate(28.324 259.031)"/><g class="g" transform="translate(28.324 259.031)"><rect width="113.41" height="29.767" rx="14.884"/></g><rect class="f" width="113.41" height="29.767" rx="14.884" transform="translate(23.917 259.031)"/><path class="h" d="M273.835,406.071c0,1.528-1.1,2.451-2.93,2.451h-1.746v2.132h-1V403.62h2.745C272.735,403.62,273.835,404.543,273.835,406.071Zm-1,0c0-1.007-.68-1.578-1.964-1.578h-1.679v3.156h1.679C272.156,407.649,272.836,407.079,272.836,406.071Z" transform="translate(-196.621 -133.794)"/><path class="h" d="M280.549,408.9H276.8l-.772,1.754H275l3.19-7.035H279.2l3.2,7.035h-1.058Zm-.353-.839-1.519-3.45-1.519,3.526Z" transform="translate(-197.719 -133.794)"/><path class="h" d="M287.014,408.22v2.434h-1V408.2l-2.8-4.583h1.074l2.258,3.71,2.258-3.71h1Z" transform="translate(-199.039 -133.794)"/><path class="f" d="M290.7,325.283a8.14,8.14,0,0,0,1.57-.269,5.776,5.776,0,0,0,3.358-2.846,5.943,5.943,0,0,0,.512-1.469,8.769,8.769,0,0,0,.092-1.721v-3.954c0-2.846,0-6.078-.067-9.645s-.042-7.488-.067-11.694v-3.207a5.658,5.658,0,0,0-.747-3.072,5.473,5.473,0,0,0-2.367-2.208,6.589,6.589,0,0,0-3.358-.546l-30.749.118a5.515,5.515,0,0,0-3.584,1.351,5.415,5.415,0,0,0-1.813,3.316,12.418,12.418,0,0,0-.067,1.948v27.593a6.338,6.338,0,0,0,.562,3.14,5.432,5.432,0,0,0,2.057,2.267c1.746,1.175,3.9.755,5.826.839H289l-4.6.059-16.932.126h-8.6a5.876,5.876,0,0,1-3.03-.839,5.784,5.784,0,0,1-2.2-2.418,6.64,6.64,0,0,1-.613-3.3v-6.9c0-4.726-.042-9.687-.059-14.833V291.26a14.873,14.873,0,0,1,.067-2.015A5.876,5.876,0,0,1,255,285.669a5.969,5.969,0,0,1,3.87-1.461l30.741-.084a6.884,6.884,0,0,1,3.5.6,5.876,5.876,0,0,1,2.518,2.367,6.044,6.044,0,0,1,.781,3.266c0,1.083,0,2.157,0,3.207v25.293a8.649,8.649,0,0,1-.118,1.763,6.622,6.622,0,0,1-.546,1.5,5.792,5.792,0,0,1-3.526,2.854,5.378,5.378,0,0,1-1.184.185Z" transform="translate(-194.181 -114.605)"/><path class="f" d="M283.7,313.5h-1.125l-3.081.042-10.367.092h-.084v-.084c-.084-.546-.168-1.125-.252-1.679-.722-5.037-1.36-9.5-1.78-12.432l.067.05h-3.5a.916.916,0,0,1-.26,0h.991l2.762-.05h.05v.059c.436,2.921,1.1,7.4,1.847,12.424.084.588.168,1.167.252,1.679l-.1-.084h14.288Z" transform="translate(-195.844 -117.068)"/><path class="f" d="M269.54,310.995h1.125l3.123-.05,10.753-.092-.092.076c.311-1.813.638-3.769.982-5.8.185-1.041.353-2.065.52-3.039l.1.109-12.676.042h-3.761l3.752-.05,12.676-.109h.109v.109c-.168.982-.336,2.006-.52,3.047-.344,2.031-.68,3.987-.991,5.8v.076H269.616Z" transform="translate(-196.692 -117.492)"/><path class="f" d="M274.03,320.7a1.073,1.073,0,0,0-.084-.344,1.511,1.511,0,0,0-.537-.755,1.377,1.377,0,1,0-1.293,2.4,1.41,1.41,0,0,0,1.3-.193,1.436,1.436,0,0,0,.529-.756c.067-.218.067-.353.084-.353a.789.789,0,0,1,0,.369,1.435,1.435,0,0,1-.52.839,1.511,1.511,0,0,1-1.444.252A1.561,1.561,0,0,1,271,320.7a1.536,1.536,0,0,1,1.024-1.452,1.486,1.486,0,0,1,1.981,1.074.747.747,0,0,1,.025.378Z" transform="translate(-197.077 -120.233)"/><path class="f" d="M285.2,320.623a1.093,1.093,0,0,0-.084-.353,1.461,1.461,0,0,0-.537-.747,1.4,1.4,0,0,0-1.31-.176,1.385,1.385,0,0,0-.881,1.293,1.368,1.368,0,0,0,.9,1.276,1.385,1.385,0,0,0,1.3-.185,1.561,1.561,0,0,0,.537-.764c.059-.218.059-.344.076-.344a.748.748,0,0,1,0,.361,1.436,1.436,0,0,1-.52.839,1.536,1.536,0,0,1-2.518-1.2,1.553,1.553,0,0,1,1.024-1.461,1.511,1.511,0,0,1,1.452.235,1.461,1.461,0,0,1,.529.839.789.789,0,0,1,.034.386Z" transform="translate(-198.869 -120.22)"/><path class="f" d="M291.765,299.5a4.2,4.2,0,1,1-4.2-4.138,4.2,4.2,0,0,1,4.2,4.138Z" transform="translate(-199.063 -116.413)"/><path class="h" d="M288.74,298.41v3.156h-.73V299h-.63v-.588Z" transform="translate(-199.707 -116.903)"/><rect class="f" width="118.607" height="75.249" rx="4.3" transform="translate(21.314 74.342)"/><path class="h" d="M230.624,190.456c0,.965-.764,1.519-2.225,1.519H225.52V186.41h2.72c1.393,0,2.107.579,2.107,1.444a1.335,1.335,0,0,1-.739,1.226,1.377,1.377,0,0,1,1.016,1.377Zm-3.82-3.081v1.318h1.276c.63,0,.974-.227.974-.663s-.344-.655-.974-.655Zm2.518,2.946c0-.47-.361-.7-1.024-.7h-1.5V191h1.5c.672,0,1.033-.2,1.033-.68Z" transform="translate(-189.776 -98.922)"/><path class="h" d="M236.289,190.784H233.7l-.5,1.192H231.89l2.518-5.566h1.268l2.518,5.566h-1.352Zm-.4-.982L235,187.669l-.839,2.132Z" transform="translate(-190.798 -98.922)"/><path class="h" d="M245.121,186.4v5.532h-1.058l-2.779-3.358v3.358H240V186.37h1.066l2.762,3.358V186.37Z" transform="translate(-192.1 -98.915)"/><path class="h" d="M249.693,189.778l-.747.781v1.377H247.67V186.37h1.276v2.594l2.468-2.594h1.427l-2.3,2.518,2.443,3.047h-1.511Z" transform="translate(-193.332 -98.915)"/><path class="h" d="M229.512,218.1h-1.024v1.343h-.52V218.1H225.08v-.378l2.711-3.358h.588l-2.619,3.3h2.225v-1.184h.5v1.184h1.024Z" transform="translate(-189.705 -103.409)"/><path class="h" d="M234.124,217.965c0,.839-.621,1.511-1.855,1.511a2.644,2.644,0,0,1-1.838-.655l.26-.42a2.225,2.225,0,0,0,1.578.6c.839,0,1.318-.395,1.318-1.033s-.437-1.016-1.385-1.016h-.361v-.378l1.419-1.771H230.64v-.47h3.291v.378l-1.444,1.813C233.578,216.571,234.124,217.151,234.124,217.965Z" transform="translate(-190.564 -103.404)"/><path class="h" d="M239.054,217.93c0,.839-.613,1.545-1.855,1.545a2.644,2.644,0,0,1-1.838-.655l.26-.42a2.2,2.2,0,0,0,1.57.6c.839,0,1.326-.428,1.326-1.049s-.411-1.066-1.679-1.066h-1.083l.26-2.56h2.8v.47h-2.334l-.176,1.629h.655C238.466,216.419,239.054,217.023,239.054,217.93Z" transform="translate(-191.355 -103.402)"/><path class="h" d="M244.386,217.9a1.595,1.595,0,0,1-1.746,1.57c-1.36,0-2.09-.94-2.09-2.518a2.425,2.425,0,0,1,3.543-2.367l-.21.42a1.847,1.847,0,0,0-.991-.235c-1.108,0-1.813.705-1.813,2.09a3.986,3.986,0,0,0,0,.42,1.62,1.62,0,0,1,1.561-.839,1.545,1.545,0,0,1,1.746,1.461Zm-.52,0c0-.672-.5-1.1-1.284-1.1a1.175,1.175,0,0,0-1.31,1.117c0,.562.462,1.091,1.343,1.091a1.116,1.116,0,0,0,1.251-1.091Z" transform="translate(-192.189 -103.401)"/><path class="h" d="M257.7,219.676l-1.226-1.6-1.226,1.6h-.579l1.519-1.973-1.452-1.864h.588l1.15,1.5,1.158-1.5h.571l-1.452,1.864,1.536,1.973Z" transform="translate(-194.455 -103.647)"/><path class="h" d="M262.339,219.676l-1.217-1.6-1.234,1.6H259.3l1.519-1.973-1.444-1.864h.588l1.15,1.5,1.15-1.5h.571L261.39,217.7l1.536,1.973Z" transform="translate(-195.199 -103.647)"/><path class="h" d="M267,219.676l-1.226-1.6-1.226,1.6H264l1.519-1.973L264,215.84h.588l1.15,1.5,1.158-1.5h.571l-1.452,1.864,1.536,1.973Z" transform="translate(-195.953 -103.647)"/><path class="h" d="M271.63,219.676l-1.217-1.6-1.226,1.6H268.6l1.519-1.973-1.444-1.864h.579l1.158,1.5,1.15-1.5h.571L270.69,217.7l1.528,1.973Z" transform="translate(-196.692 -103.647)"/><path class="h" d="M287.67,219.676l-1.226-1.6-1.226,1.6h-.579l1.519-1.973-1.452-1.864h.588l1.15,1.5,1.158-1.5h.571l-1.452,1.864,1.536,1.973Z" transform="translate(-199.267 -103.647)"/><path class="h" d="M292.314,219.676l-1.217-1.6-1.209,1.6H289.3l1.519-1.973-1.444-1.864h.579l1.158,1.5,1.15-1.5h.571L291.39,217.7l1.528,1.973Z" transform="translate(-200.015 -103.647)"/><path class="h" d="M296.95,219.676l-1.217-1.6-1.226,1.6h-.588l1.519-1.973-1.452-1.864h.588l1.15,1.5,1.158-1.5h.562L296,217.7l1.536,1.973Z" transform="translate(-200.757 -103.647)"/><path class="h" d="M301.6,219.676l-1.217-1.6-1.234,1.6h-.579l1.519-1.973-1.452-1.864h.588l1.158,1.5,1.15-1.5h.571L300.66,217.7l1.528,1.973Z" transform="translate(-201.503 -103.647)"/><path class="h" d="M316.257,214.32v5.112h-.487V214.79h-1.2v-.47Z" transform="translate(-204.072 -103.402)"/><path class="h" d="M321.354,217.965c0,.839-.621,1.511-1.855,1.511a2.644,2.644,0,0,1-1.838-.655l.252-.42a2.241,2.241,0,0,0,1.587.6c.839,0,1.31-.395,1.31-1.033s-.428-1.016-1.377-1.016h-.361v-.378l1.41-1.771H317.87v-.47h3.282v.378l-1.444,1.813C320.808,216.571,321.354,217.151,321.354,217.965Z" transform="translate(-204.568 -103.404)"/><path class="h" d="M327.262,218.1h-1.024v1.343h-.52V218.1H322.83v-.378l2.711-3.358h.579l-2.611,3.3h2.216v-1.184h.512v1.184h1.024Z" transform="translate(-205.398 -103.409)"/><path class="h" d="M332.094,218.958v.47H328.51v-.344L330.633,217c.579-.571.688-.915.688-1.268,0-.588-.42-.957-1.2-.957a1.737,1.737,0,0,0-1.393.571l-.378-.319a2.292,2.292,0,0,1,1.813-.73c1.041,0,1.679.529,1.679,1.377a2.091,2.091,0,0,1-.839,1.6l-1.738,1.679Z" transform="translate(-206.284 -103.399)"/><path class="h" d="M222,232.805a1.335,1.335,0,0,1,2.325-.839l-.361.336a.764.764,0,0,0-.613-.285.781.781,0,0,0,0,1.561.772.772,0,0,0,.613-.294l.361.336a1.234,1.234,0,0,1-1.007.437A1.251,1.251,0,0,1,222,232.805Z" transform="translate(-189.21 -106.165)"/><path class="h" d="M226.631,233.512H225.5l-.218.52H224.7l1.091-2.443h.554l1.091,2.443h-.6Zm-.185-.428-.386-.94-.386.94Z" transform="translate(-189.644 -106.175)"/><path class="h" d="M229.866,234.033l-.47-.68h-.5v.68h-.562V231.59h1.049c.655,0,1.066.344,1.066.89a.839.839,0,0,1-.5.772l.546.781Zm-.529-1.981h-.445v.839h.462c.344,0,.52-.159.52-.42S229.682,232.052,229.337,232.052Z" transform="translate(-190.227 -106.175)"/><path class="h" d="M231.13,233.781l.193-.42a1.436,1.436,0,0,0,.839.252c.336,0,.47-.109.47-.26,0-.462-1.419-.143-1.419-1.049,0-.42.336-.764,1.033-.764a1.6,1.6,0,0,1,.839.218l-.168.428a1.419,1.419,0,0,0-.68-.193c-.336,0-.462.126-.462.285,0,.445,1.419.134,1.419,1.033,0,.4-.336.756-1.033.756A1.763,1.763,0,0,1,231.13,233.781Z" transform="translate(-190.676 -106.167)"/><path class="h" d="M237.423,231.59v2.443h-.562v-1h-1.108v1h-.562V231.59h.562v.965h1.108v-.965Z" transform="translate(-191.328 -106.175)"/><path class="h" d="M238.37,232.78a1.335,1.335,0,1,1,1.335,1.259,1.259,1.259,0,0,1-1.335-1.259Zm2.09,0a.764.764,0,1,0-.756.781.739.739,0,0,0,.756-.781Z" transform="translate(-191.838 -106.14)"/><path class="h" d="M242.06,231.59h.562v2.023h1.226v.462H242.06Z" transform="translate(-192.431 -106.175)"/><path class="h" d="M244.57,231.589h1.108a1.226,1.226,0,1,1,0,2.443H244.57Zm1.074,1.981a.756.756,0,0,0,0-1.511h-.512v1.553Z" transform="translate(-192.834 -106.174)"/><path class="h" d="M249.889,233.62v.453H248V231.63h1.847v.453h-1.284v.529h1.116v.445h-1.133v.562Z" transform="translate(-193.385 -106.182)"/><path class="h" d="M252.343,234.033l-.47-.68h-.52v.68h-.562V231.59h1.058c.646,0,1.058.344,1.058.89a.839.839,0,0,1-.5.772l.546.781Zm-.529-1.981h-.462v.839h.453c.344,0,.52-.159.52-.42s-.168-.42-.52-.42Z" transform="translate(-193.832 -106.175)"/><path class="h" d="M221.66,243.623l.6-.722a1.066,1.066,0,0,0,.839.512c.437,0,.663-.26.663-.772V240.4h-1.679v-.839h2.728v3.047a1.519,1.519,0,0,1-1.679,1.738,1.889,1.889,0,0,1-1.477-.722Z" transform="translate(-189.156 -107.455)"/><path class="h" d="M226.33,244.276a.651.651,0,1,1,1.3,0,.638.638,0,0,1-.655.655.63.63,0,0,1-.646-.655Z" transform="translate(-189.905 -108.108)"/><path class="h" d="M235.563,239.52l-1.536,4.7h-1.175l-1.033-3.182-1.066,3.182h-1.158l-1.545-4.7h1.125l1.066,3.307,1.108-3.307h1l1.075,3.358,1.1-3.358Z" transform="translate(-190.182 -107.448)"/><path class="h" d="M237.52,239.409a.655.655,0,1,1,.651.581.655.655,0,0,1-.651-.581Zm.126,1.091H238.7v3.61h-1.049Z" transform="translate(-191.702 -107.337)"/><path class="h" d="M240.08,239.19h1.041v4.978H240.08Z" transform="translate(-192.113 -107.395)"/><path class="h" d="M242.48,239.19h1.049v4.978H242.48Z" transform="translate(-192.498 -107.395)"/><path class="h" d="M244.73,239.409a.6.6,0,0,1,.655-.579.588.588,0,0,1,.646.562.655.655,0,0,1-1.3,0Zm.126,1.091h1.049v3.61h-1.049Z" transform="translate(-192.86 -107.337)"/><path class="h" d="M250.435,242.362v2.057h-.974v-.453a1.175,1.175,0,0,1-1.1.5c-.839,0-1.352-.47-1.352-1.091s.445-1.083,1.545-1.083h.839c0-.445-.269-.705-.839-.705a1.679,1.679,0,0,0-1.033.336l-.378-.739a2.812,2.812,0,0,1,1.553-.437C249.8,240.75,250.435,241.262,250.435,242.362Zm-1.041.915v-.369h-.714c-.487,0-.646.185-.646.428s.227.437.6.437a.789.789,0,0,0,.764-.5Z" transform="translate(-193.226 -107.646)"/><path class="h" d="M258.314,242.359v2.065h-1.041v-1.906c0-.588-.269-.839-.688-.839s-.8.3-.8.949v1.813h-1.049v-1.906c0-.588-.243-.839-.68-.839s-.8.3-.8.949v1.813H252.22v-3.61h1v.411a1.486,1.486,0,0,1,1.133-.47,1.343,1.343,0,0,1,1.184.6,1.679,1.679,0,0,1,1.31-.6,1.4,1.4,0,0,1,1.469,1.57Z" transform="translate(-194.062 -107.652)"/><path class="h" d="M260.18,244.083l.353-.747a2.518,2.518,0,0,0,1.251.344c.487,0,.663-.126.663-.327,0-.588-2.183,0-2.183-1.427,0-.688.621-1.175,1.679-1.175a2.964,2.964,0,0,1,1.385.319l-.353.747a2.04,2.04,0,0,0-1.033-.269c-.47,0-.672.143-.672.336,0,.613,2.174,0,2.174,1.444,0,.672-.621,1.142-1.679,1.142a3.14,3.14,0,0,1-1.587-.386Z" transform="translate(-195.34 -107.646)"/><path class="h" d="M310.36,242.026c0-1.553.839-2.426,2.015-2.426s2.015.839,2.015,2.426-.839,2.434-2.015,2.434S310.36,243.579,310.36,242.026Zm2.93,0c0-1.066-.369-1.511-.915-1.511s-.915.445-.915,1.511.378,1.511.915,1.511.915-.445.915-1.511Z" transform="translate(-203.396 -107.461)"/><path class="h" d="M319.656,242.892a1.612,1.612,0,0,1-1.771,1.57,2.041,2.041,0,0,1-2.107-2.334,2.292,2.292,0,0,1,2.4-2.518,2.518,2.518,0,0,1,1.309.319l-.4.839a1.545,1.545,0,0,0-.881-.235,1.251,1.251,0,0,0-1.326,1.368,1.587,1.587,0,0,1,1.167-.42,1.486,1.486,0,0,1,1.612,1.41Zm-1.049.059a.714.714,0,0,0-.8-.705.739.739,0,0,0-.839.705c0,.4.3.7.839.7a.705.705,0,0,0,.8-.7Z" transform="translate(-204.264 -107.462)"/><path class="h" d="M322.578,238.56h.94l-2.216,6.321h-.932Z" transform="translate(-205.003 -107.294)"/><path class="h" d="M327.536,243.5v.89H323.96v-.705l1.813-1.679c.42-.395.5-.638.5-.839,0-.369-.26-.588-.755-.588a1.158,1.158,0,0,0-.974.47l-.789-.5a2.157,2.157,0,0,1,1.864-.839c1.049,0,1.746.537,1.746,1.385a1.872,1.872,0,0,1-.781,1.486L325.5,243.6Z" transform="translate(-205.546 -107.478)"/><path class="h" d="M333.01,243.4h-.764v.991h-1.058V243.4H328.67v-.73l2.216-2.98h1.142l-2.057,2.829h1.268v-.89h1.024v.881h.764Z" transform="translate(-206.336 -107.476)"/><g class="i" transform="translate(92.574 89.886)"><path class="h" d="M307.633,194.65a7.354,7.354,0,0,0-7.731-5.356,9.235,9.235,0,0,0-3.131.739c-2.443,1.091-4.147,3.987-3.358,6.539.663,2.082,2.686,3.408,4.693,4.281s4.558,1.519,6.632.546a5.767,5.767,0,0,0,3.056-5.448,6.848,6.848,0,0,0-.16-1.3Z" transform="translate(-293.218 -189.266)"/></g><g class="i" transform="translate(21.306 74.342)"><path class="h" d="M323.057,170.75H212.249a3.929,3.929,0,0,0-3.929,3.937v19.862c6.993,4.886,16.6,5.742,25.133,3.962,10.073-2.107,19.148-7.245,28.541-11.459s19.652-7.555,29.767-5.876c9.553,1.637,17.7,7.555,26.325,11.987a51.107,51.107,0,0,0,8.865,3.576V174.687a3.937,3.937,0,0,0-3.9-3.937Z" transform="translate(-208.32 -170.75)"/></g></g><g transform="translate(20.207 24.796)"><path class="j" d="M57.673,91.186v.252c.2,1.2,1.679,6.288,2.384,6.329s2.392-.839,2.325-1.545-2.057-6.355-2.057-6.355-.378-.839-1.956-.663C57.387,89.348,57.673,91.186,57.673,91.186Z" transform="translate(-54.307 -81.523)"/><path class="j" d="M60.713,87.981a.487.487,0,0,0,0,.252c.21,1.209,1.679,6.288,2.384,6.338s2.4-.839,2.334-1.545-2.073-6.338-2.073-6.338-.378-.839-1.956-.663C60.427,86.151,60.713,87.981,60.713,87.981Z" transform="translate(-54.795 -81.012)"/><path class="j" d="M63.992,85.9v.252c.2,1.2,1.679,6.288,2.384,6.329s2.4-.839,2.334-1.545S66.628,84.6,66.628,84.6s-.369-.839-1.956-.663C63.7,84.061,63.992,85.9,63.992,85.9Z" transform="translate(-55.321 -80.677)"/><path class="j" d="M67.242,83.88a.487.487,0,0,0,0,.252c.2,1.209,1.679,6.288,2.384,6.338s2.4-.839,2.334-1.545-2.073-6.338-2.073-6.338-.378-.839-1.964-.672C66.957,82.05,67.242,83.88,67.242,83.88Z" transform="translate(-55.843 -80.353)"/><path class="k" d="M62.553,94.86a10.073,10.073,0,0,1-.932-2.418A10.216,10.216,0,0,1,61,90a10.074,10.074,0,0,1,.932,2.418,10.216,10.216,0,0,1,.621,2.443Z" transform="translate(-54.848 -81.654)"/><path class="k" d="M66.015,93.469a20.592,20.592,0,0,1-1.276-3.45,19.946,19.946,0,0,1-.949-3.559,20.986,20.986,0,0,1,1.268,3.459A21.206,21.206,0,0,1,66.015,93.469Z" transform="translate(-55.296 -81.086)"/><g class="l" transform="translate(11.483 4.266)"><path class="k" d="M69.575,92.149A19.425,19.425,0,0,1,68.3,88.7a19.751,19.751,0,0,1-.949-3.559A20.987,20.987,0,0,1,68.618,88.6a21.206,21.206,0,0,1,.957,3.551Z" transform="translate(-67.35 -85.14)"/></g><path class="j" d="M60.4,101.162c-.084-.3-2.762-10.6-2.762-10.6H70.652c.487.839,1.368,9.083,1.368,9.083l-.646,2.7s-8.982,3.987-9.234,4S60.4,101.162,60.4,101.162Z" transform="translate(-54.308 -81.744)"/><path class="j" d="M69.762,99.753l1.57-4.071a7.438,7.438,0,0,0-.084-5.54l-.562-1.352L60.78,92.148s1.872,3.358,4.449,1.9l-2.216,3.408Z" transform="translate(-54.812 -81.46)"/><path class="k" d="M63.713,97.877a8.828,8.828,0,0,1,.269-1.293,4.726,4.726,0,0,1,2.073-2.661L67,93.36l-1.083.185-2.518.437h.05a2.837,2.837,0,0,1-2.569-1.561,2.372,2.372,0,0,1-.076-.227l-.168.277c2.837-.839,5.389-1.6,7.2-2.275.9-.336,1.629-.621,2.115-.839a2.736,2.736,0,0,0,.747-.386,28.058,28.058,0,0,0-2.98.907C65.9,90.456,63.344,91.186,60.5,92l-.218.067.05.218a1.872,1.872,0,0,0,.109.327,2.863,2.863,0,0,0,1.284,1.419,4.021,4.021,0,0,0,1.679.42h.05l2.518-.487-.134-.378a4.793,4.793,0,0,0-2.082,2.963,2.426,2.426,0,0,0-.042,1.326Z" transform="translate(-54.732 -81.489)"/><path class="k" d="M61.439,93.756c-.092,0,0,.52-.2,1.192a.907.907,0,0,1-.839.646,1.352,1.352,0,0,1-1.024-.839c-.478-1.058-.965-2.04-1.251-2.737s-.411-1.175-.487-1.158a2.518,2.518,0,0,0,.16,1.268,23.555,23.555,0,0,0,1.142,2.854,1.754,1.754,0,0,0,1.519,1.033,1.242,1.242,0,0,0,1.15-.982,2.09,2.09,0,0,0,0-.974C61.523,93.865,61.472,93.748,61.439,93.756Z" transform="translate(-54.304 -81.792)"/><path class="b" d="M151.647,191.063c-.084,0-.63-1.595-1.9-4.029a12.592,12.592,0,0,0-2.9-3.752,7.765,7.765,0,0,0-2.4-1.377,13.7,13.7,0,0,0-2.946-.646,21.922,21.922,0,0,1-5.876-1.15A7.874,7.874,0,0,1,131,173.77a4.67,4.67,0,0,1,0-.89c0-.21,0-.311.042-.311s0,.428.143,1.184a8.1,8.1,0,0,0,1.125,2.988,7.606,7.606,0,0,0,3.526,3.039,21.943,21.943,0,0,0,5.75,1.083,13.9,13.9,0,0,1,3.039.68,8.117,8.117,0,0,1,2.518,1.469,12.516,12.516,0,0,1,2.913,3.92,26.682,26.682,0,0,1,1.268,3.022A6.06,6.06,0,0,1,151.647,191.063Z" transform="translate(-66.082 -94.91)"/><path class="b" d="M112.85,134.108a15.009,15.009,0,0,1,17.284,3.282c2.124,2.35,3.517,5.406,6.111,7.228,3.19,2.225,7.4,2.048,11.282,2.166s8.277.915,10.392,4.2a19.643,19.643,0,0,1,1.838,5.112,6.987,6.987,0,0,0,2.988,4.382,11.282,11.282,0,0,0,3.937.839,4.664,4.664,0,0,1,3.492,1.746,45.188,45.188,0,0,1-8.16,14.38l-2.728-1.4c.067,1.075.143,2.157.21,3.24a24.344,24.344,0,0,0-6.556,5.331q-2.518-3.072-5.037-6.153c-1.477-1.788-3.03-3.643-5.137-4.617-1.956-.907-4.2-.957-6.321-1.2s-4.407-.781-5.876-2.359c-1.184-1.284-1.679-3.072-2.711-4.483a6.967,6.967,0,0,0-6.246-2.737" transform="translate(-63.172 -88.507)"/><path class="f" d="M125.046,167.033a3.778,3.778,0,0,0,2.359,4.029,11.324,11.324,0,0,0,4.953.688,10.678,10.678,0,0,1,4.944.747c2.518,1.242,3.694,4.2,5.876,5.918a7.438,7.438,0,0,0,11.954-4.751,7.471,7.471,0,0,1-9.016.05c-2.04-1.595-3.2-4.248-5.524-5.372s-5.037-.395-7.555-.176-5.683-.5-6.439-2.946l-.546.092Z" transform="translate(-65.118 -93.73)"/><g class="g" transform="translate(60.526 71.372)"><path d="M125.779,169.588c-.126.193,1.763,1.679,1.754,1.452,0,0,1.276-.714,1.477-1.427a2.451,2.451,0,0,0-.369-2.241,3.442,3.442,0,0,1-1.855-2.292h-.571l-.437,4.508" transform="translate(-125.773 -165.08)"/></g><path class="c" d="M131.732,168.65a4.81,4.81,0,0,1-.193,1.83,9.175,9.175,0,0,1-.529,1.771,10.846,10.846,0,0,1,.353-1.8C131.606,169.464,131.7,168.65,131.732,168.65Z" transform="translate(-66.087 -94.281)"/><path class="c" d="M140.807,168.29a17.215,17.215,0,0,0-1.461,1.939,12.213,12.213,0,0,0-.907,2.25,1.9,1.9,0,0,1,.1-.714,6.1,6.1,0,0,1,.655-1.62,7.2,7.2,0,0,1,1.058-1.393A2.594,2.594,0,0,1,140.807,168.29Z" transform="translate(-67.28 -94.223)"/><path class="c" d="M148.714,175.12a2.468,2.468,0,0,1-.462.621A8.772,8.772,0,0,1,146.875,177a8.664,8.664,0,0,1-1.6.949,2.275,2.275,0,0,1-.722.26,23.052,23.052,0,0,0,2.225-1.352A21.253,21.253,0,0,0,148.714,175.12Z" transform="translate(-68.261 -95.32)"/><path class="c" d="M155.927,181.123c-.05,0,.05-.915.059-2.031a17.81,17.81,0,0,1,0-2.031,8.923,8.923,0,0,1,.143,2.031,6.581,6.581,0,0,1-.2,2.031Z" transform="translate(-70.085 -95.631)"/><path class="j" d="M157.076,299.019l30.8-11.584-4.29-13.624-33.326,7.715Z" transform="translate(-44.33 -68.755)"/><path class="f" d="M218.97,339.066l.907-.269s10.854,13.532,13.826,12.81l-9.419-30.548-10.073,3.551a18.292,18.292,0,0,1,4.76,14.455Z" transform="translate(-79.445 -118.75)"/><g class="m" transform="translate(138.998 206.649)"><path class="h" d="M219.259,327.531a1.318,1.318,0,0,1,1.158-1.3,1.259,1.259,0,0,1,1.3,1.142,1.368,1.368,0,0,1-1.234,1.368,1.285,1.285,0,0,1-1.217-1.335" transform="translate(-219.252 -326.229)"/></g><g class="m" transform="translate(142.43 202.31)"><path class="h" d="M225.749,321.06l-2.409.839,9.906,28.961s1.016,1.175,1.922.73Z" transform="translate(-223.34 -321.06)"/></g><path class="b" d="M221.028,341.652c.151-.05,0-.839.243-1.679s.755-1.469.655-1.587-.89.369-1.184,1.444A1.81,1.81,0,0,0,221.028,341.652Z" transform="translate(-80.479 -121.529)"/><path class="b" d="M223.83,345.1c.151,0,.21-.73.68-1.435s1.1-1.049,1.049-1.2-.923,0-1.5.907S223.687,345.138,223.83,345.1Z" transform="translate(-80.964 -122.177)"/><path class="b" d="M228.661,346.356c0-.143-.839-.126-1.511.512s-.839,1.435-.672,1.461.453-.546,1.033-1.058S228.695,346.507,228.661,346.356Z" transform="translate(-81.405 -122.799)"/><path class="j" d="M73.69,374.589l8.991,31.656,13.927-3.14L91.688,369.25Z" transform="translate(-32.037 -84.077)"/><path class="f" d="M109.824,458.239l.193.932s-14.388,9.687-13.91,12.709l31.219-6.85-2.7-10.3a18.275,18.275,0,0,1-14.8,3.509Z" transform="translate(-60.482 -140.21)"/><g class="m" transform="translate(60.406 318.541)"><path class="h" d="M126.931,459.52a1.31,1.31,0,0,1,1.2,1.268,1.267,1.267,0,0,1-1.242,1.2,1.368,1.368,0,0,1-1.259-1.343,1.293,1.293,0,0,1,1.427-1.108" transform="translate(-125.63 -459.52)"/></g><g class="m" transform="translate(35.582 322.344)"><path class="h" d="M127.321,466.526l-.655-2.476-29.683,7.513s-1.259.915-.839,1.855Z" transform="translate(-96.058 -464.05)"/></g><path class="b" d="M112.579,460.1c0,.151.839.059,1.679.378s1.393.839,1.528.789-.294-.923-1.343-1.293S112.512,459.969,112.579,460.1Z" transform="translate(-63.128 -141.025)"/><path class="b" d="M109,462.6c0,.16.714.269,1.377.839s.957,1.175,1.108,1.133.059-.923-.781-1.561S109,462.458,109,462.6Z" transform="translate(-62.554 -141.457)"/><path class="b" d="M107.5,467.324c.143,0,.185-.839-.386-1.561s-1.36-.923-1.393-.781.5.487.965,1.108S107.34,467.341,107.5,467.324Z" transform="translate(-62.027 -141.849)"/><path class="b" d="M83.983,263.683s-1.15,60.441,4.777,101.289l13.633,44.273,18.468-3.727s-7.085-45.843-8.076-64.554-.294-87.3-.294-87.3Z" transform="translate(-58.523 -107.929)"/><path class="b" d="M98.6,258.046l17.914,69.112a25.8,25.8,0,0,0,32.327,18.258l40.907-12.164-5.876-17.629L145.6,322.038l-5.129-39.883s-7.119-29.784-16.6-29.776C121.819,252.38,98.6,258.046,98.6,258.046Z" transform="translate(-60.884 -107.723)"/><path class="j" d="M70.582,103.85l-.076,3.752s-1.519,29.012-1.435,33.352,14.64,29.238,14.64,29.238L74.83,184.74l-20.063-36.1a7.941,7.941,0,0,1-.949-4.852l4.793-38.565.126-1.016" transform="translate(-53.685 -83.878)"/><path class="f" d="M69.783,149.1l15.622,20.676c2.946,3.9,8.017,6.1,12.525,7.966h0c11.207.546,24.806-.932,30.388,8.176a6.237,6.237,0,0,1,.663,5.087c-2.418,7.933-10.409,34.342-10.711,37.717,0,0,3.484,3.593,2.7,5.809s-3.744,1.268-3.744,1.268L80.377,246.712s-1.679-.839-1.5-2.065a59.088,59.088,0,0,1,2.644-7.966,27.811,27.811,0,0,0,.772-17.477,61.968,61.968,0,0,1-1.679-6.976l-.907-13.163c-5.121-8.52-16.579-20.986-22.455-38.355Z" transform="translate(-54.246 -91.142)"/><path class="j" d="M123.305,148.966a12.86,12.86,0,0,0-11.559-14.4,13.121,13.121,0,0,0-13.977,11.257c-.9,5.969-1.679,12-1.679,14.178.084,6.6,3.945,9.167,5.515,9.939a8.561,8.561,0,0,0,1.729.437h0a.05.05,0,0,1,0,.05l-1.469,7.555c-.663,4.961,2.107,9.394,7.06,10.115s8.865-3.089,9.62-8.059Z" transform="translate(-60.481 -88.801)"/><path class="b" d="M99.448,152.432c.109.151.982-.319,2.1-.151s1.855.839,1.99.722,0-.311-.344-.621a2.812,2.812,0,0,0-1.57-.747,2.72,2.72,0,0,0-1.679.285C99.548,152.129,99.389,152.356,99.448,152.432Z" transform="translate(-61.018 -91.544)"/><path class="b" d="M111.288,154.992c.109.151.982-.311,2.1-.143s1.847.839,1.99.722,0-.319-.344-.63a2.871,2.871,0,0,0-1.57-.747,2.837,2.837,0,0,0-1.679.285C111.388,154.7,111.229,154.925,111.288,154.992Z" transform="translate(-62.919 -91.956)"/><path class="b" d="M106.159,159.671a7.478,7.478,0,0,0-1.763-.588c-.285-.076-.546-.168-.562-.369a1.5,1.5,0,0,1,.311-.839l1.158-2.048a37.222,37.222,0,0,0,2.728-5.406,39.16,39.16,0,0,0-3.156,5.179c-.386.722-.764,1.4-1.125,2.065a1.679,1.679,0,0,0-.311,1.1.739.739,0,0,0,.411.479,2.225,2.225,0,0,0,.47.143,7.026,7.026,0,0,0,1.838.285Z" transform="translate(-61.66 -91.354)"/><path class="k" d="M104.745,176.967s4.256.982,10.124-1.477c0,0-2.518,5.456-10.518,3.517Z" transform="translate(-61.807 -95.379)"/><path class="f" d="M106.751,164.624a2.04,2.04,0,0,1,1.914-.487,1.855,1.855,0,0,1,1.167.839,1.2,1.2,0,0,1-.1,1.352,1.377,1.377,0,0,1-1.519.151,4.282,4.282,0,0,1-1.31-1.058,1.478,1.478,0,0,1-.269-.378.4.4,0,0,1,.067-.42" transform="translate(-62.169 -93.546)"/><path class="b" d="M109.705,162.93c-.185,0-.361,1.175-1.528,1.889s-2.434.386-2.468.554.252.277.839.369a3,3,0,0,0,2.048-.395,2.636,2.636,0,0,0,1.2-1.587C109.873,163.257,109.789,162.938,109.705,162.93Z" transform="translate(-62.025 -93.363)"/><path class="b" d="M112.2,150.711c.067.319,1.209.336,2.518.688s2.292.839,2.518.613c.092-.118-.05-.428-.428-.789a4.34,4.34,0,0,0-1.8-.932,4.256,4.256,0,0,0-2.015-.059C112.452,150.358,112.175,150.56,112.2,150.711Z" transform="translate(-63.067 -91.309)"/><path class="b" d="M100.787,148.307c.16.285.974.134,1.9.26s1.679.42,1.906.176c.092-.118,0-.386-.3-.68a2.653,2.653,0,0,0-1.469-.638,2.586,2.586,0,0,0-1.587.294C100.862,147.9,100.72,148.173,100.787,148.307Z" transform="translate(-61.233 -90.87)"/><path class="f" d="M98.734,228.658a9.234,9.234,0,0,1-9.234-9.31,53.212,53.212,0,0,1,1.729-11.5l14.271,3.165h0l3.778-6.246s7.958-15.463,15.5-16.479c6.8-.923,10.577,3.954,9.142,10.72s-11.5,19.912-20.147,25.251a29.423,29.423,0,0,1-15.035,4.4Z" transform="translate(-59.423 -97.416)"/><path class="b" d="M125.628,216.691a2.713,2.713,0,0,1-.3.512q-.327.5-.982,1.41a46.716,46.716,0,0,1-4.021,4.869,34.419,34.419,0,0,1-7.253,5.918,25.562,25.562,0,0,1-10.846,3.643,20.341,20.341,0,0,1-5.96-.369,11.316,11.316,0,0,1-5.037-2.351,8.974,8.974,0,0,1-2.669-4.273,12.735,12.735,0,0,1-.453-4.365,24.537,24.537,0,0,1,1.352-6.17c.243-.705.445-1.242.579-1.612a3.264,3.264,0,0,1,.235-.554,3.014,3.014,0,0,1-.151.579c-.126.42-.294.965-.5,1.679a26.023,26.023,0,0,0-1.217,6.128,12.768,12.768,0,0,0,.5,4.248,8.563,8.563,0,0,0,2.577,4.071,11.173,11.173,0,0,0,4.869,2.241,20.3,20.3,0,0,0,5.826.344,25.452,25.452,0,0,0,10.678-3.551A35.45,35.45,0,0,0,120.1,223.3a56.668,56.668,0,0,0,4.1-4.751l1.041-1.36A3.357,3.357,0,0,1,125.628,216.691Z" transform="translate(-59.194 -101.457)"/><path class="b" d="M133.769,217.839a4.13,4.13,0,0,1-1.721,2.031,4.2,4.2,0,0,1-2.518.974c0-.126,1.083-.5,2.233-1.335S133.66,217.764,133.769,217.839Z" transform="translate(-65.85 -102.177)"/><path class="b" d="M107.112,221.266a6.808,6.808,0,0,1,.126-2.846,6.9,6.9,0,0,1,.839-2.72,14.774,14.774,0,0,1-.453,2.8,14.523,14.523,0,0,1-.512,2.77Z" transform="translate(-62.236 -101.835)"/><path class="b" d="M109.856,222.2a9.754,9.754,0,0,1-1.788-6.8c.126,0,.185,1.587.68,3.459S109.974,222.141,109.856,222.2Z" transform="translate(-62.394 -101.787)"/><path class="b" d="M117.555,198a15.689,15.689,0,0,1-1.251,2.25c-.839,1.36-1.973,3.224-3.265,5.263s-2.518,3.887-3.358,5.2a16.446,16.446,0,0,1-1.511,2.09,15.017,15.017,0,0,1,1.242-2.25c.839-1.368,1.973-3.232,3.274-5.272s2.518-3.887,3.358-5.2A15.17,15.17,0,0,1,117.555,198Z" transform="translate(-62.421 -98.993)"/><path class="b" d="M86.379,223.433a3.743,3.743,0,0,1-.411-.839,24.345,24.345,0,0,1-.839-2.518,31.605,31.605,0,0,1,.059-17.167,23.085,23.085,0,0,1,.839-2.518,4.854,4.854,0,0,1,.411-.839c.076,0-.42,1.31-.965,3.442A34.98,34.98,0,0,0,85.405,220C85.959,222.157,86.455,223.433,86.379,223.433Z" transform="translate(-58.535 -99.242)"/><path class="b" d="M116.77,241.32a5.255,5.255,0,0,1-.621.839,24.465,24.465,0,0,1-1.931,2.141,31.373,31.373,0,0,1-3.224,2.821,36.788,36.788,0,0,1-4.416,2.837,37.247,37.247,0,0,1-4.818,2.09,31.9,31.9,0,0,1-4.139,1.108,23.044,23.044,0,0,1-2.854.411,4.608,4.608,0,0,1-1.058,0c0-.084,1.494-.21,3.845-.747a37.124,37.124,0,0,0,4.071-1.184,35.256,35.256,0,0,0,9.125-4.869,36.769,36.769,0,0,0,3.249-2.72C115.779,242.436,116.7,241.269,116.77,241.32Z" transform="translate(-60.099 -105.948)"/><path class="b" d="M127.51,237.74a11.156,11.156,0,0,1,1.444,2.728,11.006,11.006,0,0,1,1.041,2.913,11.122,11.122,0,0,1-1.444-2.737,11.265,11.265,0,0,1-1.041-2.9Z" transform="translate(-65.525 -105.373)"/><path class="n" d="M116.477,327.273c-.118,0-2.9-11.341-6.229-25.385s-5.927-25.452-5.809-25.477,2.9,11.333,6.229,25.377S116.595,327.273,116.477,327.273Z" transform="translate(-61.821 -111.581)"/><path class="n" d="M135.075,259.149a2.517,2.517,0,0,1-.5.537,11.573,11.573,0,0,1-1.612,1.217,13.02,13.02,0,0,1-12.785.571,11.233,11.233,0,0,1-1.679-1.066c-.378-.285-.562-.47-.546-.5a21.213,21.213,0,0,0,2.392,1.284,13.641,13.641,0,0,0,12.491-.562C134.252,259.812,135.016,259.082,135.075,259.149Z" transform="translate(-63.99 -108.81)"/><path class="n" d="M105.753,286.4a2.821,2.821,0,0,1-.8-.68,9.117,9.117,0,0,1-1.545-2.409,33.45,33.45,0,0,1-1.4-3.979l-1.519-4.911c-1.075-3.5-2.015-6.665-2.678-8.965-.3-1.083-.562-2-.764-2.728a4.517,4.517,0,0,1-.218-1.024,5.2,5.2,0,0,1,.378.974c.243.714.546,1.62.9,2.686.739,2.275,1.729,5.431,2.8,8.923.52,1.746,1.024,3.408,1.486,4.928a38,38,0,0,0,1.31,3.971,10.712,10.712,0,0,0,2.048,3.215Z" transform="translate(-60.6 -109.22)"/><path class="n" d="M101.143,263.107c-.05,0,.168-.411.772-.378a1.1,1.1,0,0,1,.839.5,1.134,1.134,0,0,1-1.352,1.595,1.091,1.091,0,0,1-.638-.789.745.745,0,0,1,.252-.839,1.394,1.394,0,0,0,0,.739.907.907,0,0,0,.487.5.7.7,0,0,0,.73-.252.705.705,0,0,0,.134-.764.839.839,0,0,0-.571-.4C101.436,262.956,101.185,263.158,101.143,263.107Z" transform="translate(-61.227 -109.385)"/><path class="n" d="M103.746,267.515a.381.381,0,0,1,.269-.151.949.949,0,0,1,.8.277,1.016,1.016,0,0,1,.092,1.268,1.251,1.251,0,0,1-1.469.487,1.519,1.519,0,0,1-.982-1.184,1.578,1.578,0,0,1,.243-1.217.839.839,0,0,1,.747-.395c.227,0,.277.168.26.176a2.3,2.3,0,0,1-.26,0,.789.789,0,0,0-.5.4,1.318,1.318,0,0,0,.63,1.8.84.84,0,0,0,.991-.294.663.663,0,0,0,0-.839.839.839,0,0,0-.554-.319C103.83,267.515,103.746,267.548,103.746,267.515Z" transform="translate(-61.497 -110.006)"/><path class="n" d="M87.9,266.15a4.449,4.449,0,0,1,.5,1.721,9.947,9.947,0,0,1-.361,4.3,10.074,10.074,0,0,1-2.132,3.752,4.34,4.34,0,0,1-1.385,1.133c-.05-.059.47-.5,1.15-1.335a11.409,11.409,0,0,0,1.948-3.677,11.131,11.131,0,0,0,.47-4.138C88.011,266.864,87.827,266.175,87.9,266.15Z" transform="translate(-58.623 -109.934)"/><path class="n" d="M154.586,334.69a26.752,26.752,0,0,1-3.2,3.509,25.649,25.649,0,0,1-3.517,3.207,26.486,26.486,0,0,1,3.207-3.509A25.891,25.891,0,0,1,154.586,334.69Z" transform="translate(-68.794 -120.938)"/><path class="n" d="M152.51,342.626a27.988,27.988,0,0,1,1.679-6.716,13.977,13.977,0,0,1-.613,3.417,13.777,13.777,0,0,1-1.066,3.3Z" transform="translate(-69.539 -121.134)"/><g class="g" transform="translate(32.041 124.837)"><path d="M91.974,232.64a8.839,8.839,0,0,0,4.516,5.557,12.961,12.961,0,0,0,7.2,1.268,17.192,17.192,0,0,0,14.145-10.695c-3.744,2.6-7.882,5.037-12.365,6.12A17.906,17.906,0,0,1,91.84,232.9" transform="translate(-91.84 -228.77)"/></g><path class="j" d="M121.86,187.7l2.787-2.518a1.041,1.041,0,0,1,.839-.386c.42.059.588.571.6.991a3.752,3.752,0,0,1-1.326,2.972" transform="translate(-64.618 -96.874)"/><path class="k" d="M124.738,188.7c-.05-.05.361-.395.722-1.125a3.828,3.828,0,0,0,.386-1.352,2.518,2.518,0,0,0,0-.8c-.059-.26-.21-.47-.4-.478a1.1,1.1,0,0,0-.646.369l-.655.579-1.125.965a8.272,8.272,0,0,1-1.108.839,5.807,5.807,0,0,1,.9-1.033l1.066-1.033.638-.6a1.36,1.36,0,0,1,.965-.487.781.781,0,0,1,.562.311,1.419,1.419,0,0,1,.227.5,2.518,2.518,0,0,1,0,.94,3.693,3.693,0,0,1-.5,1.452C125.267,188.469,124.764,188.737,124.738,188.7Z" transform="translate(-64.626 -96.832)"/><path class="j" d="M104.531,190.7,92.09,207.84l13.784,2.98,5.641-15.723,9.729,1.242,6.187-1.948-5.305-4.777-7.773-2.275a8.991,8.991,0,0,0-9.822,3.358Z" transform="translate(-59.839 -97.223)"/><path class="k" d="M122.123,189.59a1.419,1.419,0,0,1-.4-.084l-1.125-.319c-.974-.285-2.384-.705-4.139-1.184a28.358,28.358,0,0,0-2.879-.646,11.131,11.131,0,0,0-3.358,0,7.706,7.706,0,0,0-3.358,1.368,11.753,11.753,0,0,0-2.644,2.938,116.968,116.968,0,0,1-8.21,11.6c-1.15,1.41-2.115,2.518-2.8,3.282a6.489,6.489,0,0,1-.839.839,1.612,1.612,0,0,1-.294.277,11.547,11.547,0,0,1,.965-1.242c.638-.789,1.57-1.931,2.686-3.358a138.654,138.654,0,0,0,8.092-11.652,11.945,11.945,0,0,1,2.753-3.039,8.1,8.1,0,0,1,3.559-1.419,11.325,11.325,0,0,1,3.459,0,24.529,24.529,0,0,1,2.9.714c1.746.512,3.148.982,4.1,1.318l1.1.395A2.434,2.434,0,0,1,122.123,189.59Z" transform="translate(-59.836 -97.198)"/><path class="k" d="M115.347,195.26a10.157,10.157,0,0,1-.63,2.267,10.367,10.367,0,0,1-.747,2.225A7.631,7.631,0,0,1,115.347,195.26Z" transform="translate(-63.351 -98.553)"/><path class="k" d="M125.536,197.858a18.913,18.913,0,0,1-5.322-.067,14.643,14.643,0,0,0-3.668-.3,4.374,4.374,0,0,0-1.377.562c-.059,0,.319-.613,1.318-.839a12.677,12.677,0,0,1,3.778.168C123.16,197.665,125.528,197.7,125.536,197.858Z" transform="translate(-63.543 -98.851)"/><path class="j" d="M129.509,184.76a2.065,2.065,0,0,0,0,2.367c.839,1.184,1.5,1.259,1.5,1.259l-.319,1.343,1.973.714.949-2.846Z" transform="translate(-65.786 -96.867)"/><path class="k" d="M129.485,184.76a6.2,6.2,0,0,1,1.158.672c.739.47,1.813,1.158,3.064,2.006l.126.084-.05.143-.932,2.846-.067.218-.21-.076h0l-1.964-.714-.185-.067.05-.176c.109-.47.218-.915.327-1.343l.168.243a2.074,2.074,0,0,1-.915-.554,4.869,4.869,0,0,1-.6-.68,2.1,2.1,0,0,1-.47-1.419,1.629,1.629,0,0,1,.5-1.175,4.1,4.1,0,0,0-.26,1.184,1.889,1.889,0,0,0,.487,1.209,4.929,4.929,0,0,0,.579.613,1.847,1.847,0,0,0,.722.428l.21.05-.042.193c-.1.428-.2.881-.3,1.343l-.134-.243,1.973.7h0l-.277.134.957-2.837.084.227c-1.167-.839-2.141-1.553-2.854-2.09A11.75,11.75,0,0,1,129.485,184.76Z" transform="translate(-65.763 -96.867)"/><path class="b" d="M137.39,199.43a10.878,10.878,0,0,1,2.627,1.184c.26.395-1.318,48.42-1.318,48.42l-4.08-4.735Z" transform="translate(-66.667 -99.223)"/><path class="n" d="M98.9,146.09,84.89,189.372l16.9,3.945,2.762-44.861-2.493.395Z" transform="translate(-33.835 -48.25)"/><path class="c" d="M135.088,249.981a7.554,7.554,0,0,1-.94-1.1c-.562-.714-1.352-1.754-2.292-3.005l.109.076-5.322-.982c-2.888-.546-5.49-1.066-7.379-1.461-.94-.2-1.679-.369-2.225-.5a2.989,2.989,0,0,1-.839-.243,3.475,3.475,0,0,1,.839.076c.529.076,1.3.193,2.25.353,1.9.327,4.516.8,7.4,1.343l5.314,1.041h.076l.042.059c.907,1.276,1.679,2.342,2.174,3.1A6.624,6.624,0,0,1,135.088,249.981Z" transform="translate(-63.71 -106.18)"/><path class="c" d="M135.683,237.618a4.767,4.767,0,0,1-.739-.839c-.437-.579-1.049-1.419-1.78-2.434l.118.076-4.676-.839c-2.418-.462-4.6-.9-6.178-1.242a14.891,14.891,0,0,1-2.518-.638,15.788,15.788,0,0,1,2.586.336c1.595.26,3.786.655,6.2,1.108l4.659.923h.076l.042.059c.7,1.041,1.268,1.906,1.679,2.518a4.433,4.433,0,0,1,.529.974Z" transform="translate(-64.305 -104.403)"/><path class="c" d="M136.147,223.913a14.994,14.994,0,0,1-1.822-2.183l.118.076c-1.116-.185-2.518-.437-3.987-.714-1.864-.361-3.551-.705-4.768-.974a9.234,9.234,0,0,1-1.948-.529,9.47,9.47,0,0,1,2.006.227c1.234.193,2.93.487,4.793.839,1.486.277,2.863.554,3.962.789h.076v.059A15.111,15.111,0,0,1,136.147,223.913Z" transform="translate(-64.92 -102.459)"/><path class="c" d="M136.814,211.747a8.722,8.722,0,0,1-1.343-1.545l.109.067c-.89-.134-2.023-.336-3.257-.571a32.4,32.4,0,0,1-5.213-1.209,33.577,33.577,0,0,1,5.289.781c1.242.235,2.367.47,3.249.663h.067v.05a8.177,8.177,0,0,1,1.1,1.763Z" transform="translate(-65.461 -100.677)"/><path class="b" d="M131.39,252.124a86.539,86.539,0,0,1-8.5-1.763,86.293,86.293,0,0,1-8.395-2.191,85.849,85.849,0,0,1,8.5,1.763,84.887,84.887,0,0,1,8.386,2.191Z" transform="translate(-63.437 -107.048)"/><path class="n" d="M89.994,203.535l-5.1-5.885,16.9,3.945,4.08,4.743Z" transform="translate(-33.835 -56.528)"/><path class="f" d="M126.334,196.191,109.1,198.558V149.19l1.973.949Z" transform="translate(-37.722 -48.748)"/><g class="o" transform="translate(71.378 100.442)"><path d="M126.334,196.191,109.1,198.558V149.19l1.973.949Z" transform="translate(-109.1 -149.19)"/></g><path class="c" d="M150.283,238.39a9.483,9.483,0,0,1-1.058.311,11.317,11.317,0,0,0-2.711,1.209,7.32,7.32,0,0,0-2.871,3.207,5.767,5.767,0,0,0,.059,5.087,2.183,2.183,0,0,0,.923.89.839.839,0,0,0,1.007-.21,1.629,1.629,0,0,0,.235-1.133,3.417,3.417,0,0,0-.395-1.142,4,4,0,0,0-3.509-2.073,3.61,3.61,0,0,0-2.518,1.217c-.479.512-.655.839-.688.839s0-.092.1-.269a4.2,4.2,0,0,1,.462-.7,3.694,3.694,0,0,1,2.678-1.41,4.315,4.315,0,0,1,3.87,2.191,2.577,2.577,0,0,1,.143,2.728,1.251,1.251,0,0,1-1.519.353,2.577,2.577,0,0,1-1.125-1.074,6.1,6.1,0,0,1-.05-5.473,7.555,7.555,0,0,1,3.081-3.3,9.729,9.729,0,0,1,2.837-1.108A3.6,3.6,0,0,1,150.283,238.39Z" transform="translate(-67.329 -105.477)"/><path class="c" d="M147.012,229.548a2.694,2.694,0,0,1-1.1.789,6.674,6.674,0,0,1-6.3-.361c-.705-.462-1.033-.839-1-.907a9.4,9.4,0,0,1,1.15.638,7.807,7.807,0,0,0,2.98.839,7.681,7.681,0,0,0,3.047-.462A9.942,9.942,0,0,1,147.012,229.548Z" transform="translate(-67.307 -103.981)"/><path class="c" d="M142.529,215.379a9.806,9.806,0,0,0-1.108,1.679,4.633,4.633,0,0,0-.437,2.073,1.251,1.251,0,0,0,.487.965,1,1,0,0,0,1.091-.067,1.049,1.049,0,0,0,.453-1.024,1.544,1.544,0,0,0-.512-1.016,2.325,2.325,0,0,0-1.948-.42,4.474,4.474,0,0,0-1.352.546c-.3.176-.47.277-.5.252s.118-.168.4-.395a3.853,3.853,0,0,1,1.368-.705,2.585,2.585,0,0,1,2.283.42,1.956,1.956,0,0,1,.68,1.276,1.494,1.494,0,0,1-.63,1.427,1.427,1.427,0,0,1-1.578.067,1.6,1.6,0,0,1-.638-1.31,4.5,4.5,0,0,1,.554-2.233,4.659,4.659,0,0,1,.923-1.234C142.311,215.455,142.512,215.354,142.529,215.379Z" transform="translate(-67.323 -101.783)"/><path class="f" d="M141.73,186.408l-15.4,8.68L109.1,151.672l5.129-2.762Z" transform="translate(-37.722 -48.703)"/><path class="f" d="M145.733,181.876l-3.022,4.08-27.5-37.5,3.484-2.367Z" transform="translate(-38.703 -48.25)"/><path class="c" d="M150.273,207.836a.73.73,0,0,1,.227-.21,2.015,2.015,0,0,1,.839-.3,4.642,4.642,0,0,1,3.064.73,6.884,6.884,0,0,1,2.863,3.685,5.817,5.817,0,0,1,.311,2.8,3.232,3.232,0,0,1-1.763,2.451,4.063,4.063,0,0,1-3.03.21,5.481,5.481,0,0,1-2.325-1.587,6.917,6.917,0,0,1-1.738-4.34,4.584,4.584,0,0,1,1.033-2.972,3.358,3.358,0,0,1,.63-.588c.168-.109.26-.159.269-.143a9.319,9.319,0,0,0-.764.839,4.6,4.6,0,0,0-.839,2.863,6.716,6.716,0,0,0,1.729,4.08,4.961,4.961,0,0,0,2.157,1.444,3.593,3.593,0,0,0,2.695-.193,2.787,2.787,0,0,0,1.545-2.132,5.616,5.616,0,0,0-.269-2.594,6.775,6.775,0,0,0-2.653-3.551,4.684,4.684,0,0,0-2.871-.839A2.921,2.921,0,0,0,150.273,207.836Z" transform="translate(-68.93 -100.485)"/><path class="c" d="M178.307,235.866a1.507,1.507,0,0,1-.361.546,3.257,3.257,0,0,1-1.536.839,4.029,4.029,0,0,1-2.619-.218,5.767,5.767,0,0,1-2.434-2.09,6.892,6.892,0,0,1-1.175-2.98,4.927,4.927,0,0,1,.344-2.6,3.878,3.878,0,0,1,1.033-1.427c.319-.277.529-.369.546-.344a5.532,5.532,0,0,0-1.293,1.889,4.785,4.785,0,0,0-.235,2.426,6.858,6.858,0,0,0,1.125,2.829,5.523,5.523,0,0,0,2.241,1.964,3.8,3.8,0,0,0,2.384.285,4.013,4.013,0,0,0,1.981-1.116Z" transform="translate(-72.369 -103.743)"/><path class="c" d="M153.841,230.7a.91.91,0,0,1,.218-.21,2,2,0,0,1,.839-.311,4.709,4.709,0,0,1,3.064.739,6.9,6.9,0,0,1,2.863,3.677,5.876,5.876,0,0,1,.311,2.8,3.249,3.249,0,0,1-1.763,2.46,4.055,4.055,0,0,1-3.03.2,5.406,5.406,0,0,1-2.325-1.587,6.875,6.875,0,0,1-1.738-4.332,4.625,4.625,0,0,1,1.032-2.98,3.273,3.273,0,0,1,.63-.579c.168-.118.26-.159.269-.151a10.5,10.5,0,0,0-.764.839,4.567,4.567,0,0,0-.839,2.863,6.716,6.716,0,0,0,1.729,4.071,4.969,4.969,0,0,0,2.157,1.452,3.626,3.626,0,0,0,2.695-.193,2.812,2.812,0,0,0,1.545-2.132,5.6,5.6,0,0,0-.269-2.594,6.716,6.716,0,0,0-2.653-3.551,4.76,4.76,0,0,0-2.871-.839A2.913,2.913,0,0,0,153.841,230.7Z" transform="translate(-69.502 -104.154)"/><g class="i" transform="translate(76.507 97.84)"><path d="M145.733,181.876l-3.022,4.08-27.5-37.5,3.484-2.367Z" transform="translate(-115.21 -146.09)"/></g><path class="n" d="M129.4,189.92a1.62,1.62,0,0,1,1.612-.327,4.869,4.869,0,0,1,1.486.839l9.906,7.387-2.426,1.385a10.913,10.913,0,0,0-5.49-5.037" transform="translate(-65.829 -97.629)"/><path class="b" d="M133.556,198.37a8.394,8.394,0,0,0-2.955-5.339,14.473,14.473,0,0,1-2.737-2.292,1.091,1.091,0,0,1-.243-1.066.839.839,0,0,1,.839-.395,2.409,2.409,0,0,1,.932.395,20.3,20.3,0,0,1,4.726,3.467,6.934,6.934,0,0,1,2.04,5.322" transform="translate(-65.535 -97.591)"/><path class="b" d="M104.717,135.181c-3.677.957-8.327,4.743-6.6,10.191,4.516-1.108,8.6-4.374,12.264-7.236a28.238,28.238,0,0,0,3.425,10.149c.839,1.486,7.689,7.5,8.663,7.975s1.486-4.1.579-5.876C123.051,150.409,118.744,131.546,104.717,135.181Z" transform="translate(-60.747 -88.833)"/><path class="f" d="M106.047,134.929a20.147,20.147,0,0,1,12.18,6.59,28.726,28.726,0,0,1,5.708,13.633c4.038-5.1,2.518-14.363-1.679-18.468s-11.114-4.558-16.227-1.763" transform="translate(-62.077 -88.581)"/><path class="b" d="M152.935,143.452a1.385,1.385,0,0,1,.2.445,2.678,2.678,0,0,1,0,1.393,3.668,3.668,0,0,1-1.2,1.855,6.715,6.715,0,0,1-2.644,1.251,24.688,24.688,0,0,1-3.475.6,12.928,12.928,0,0,1-4.063-.193,8.394,8.394,0,0,1-4-2.073,9.846,9.846,0,0,1-2.334-4.2,39.808,39.808,0,0,0-1.494-4.5,8.017,8.017,0,0,0-2.7-3.316,12.39,12.39,0,0,0-6.993-2.09,34.054,34.054,0,0,0-5.037.369l-1.368.185a2.055,2.055,0,0,1-.478,0,1.913,1.913,0,0,1,.462-.126l1.36-.26a28.316,28.316,0,0,1,5.037-.512,12.642,12.642,0,0,1,7.228,2.065,8.344,8.344,0,0,1,2.854,3.475,37.454,37.454,0,0,1,1.528,4.541,9.545,9.545,0,0,0,2.216,4.055,7.992,7.992,0,0,0,3.786,1.981,17.251,17.251,0,0,0,7.37-.311,6.523,6.523,0,0,0,2.569-1.133,3.534,3.534,0,0,0,1.184-1.721,2.946,2.946,0,0,0-.008-1.78Z" transform="translate(-63.894 -88.441)"/><path class="b" d="M120.938,152.814a13.6,13.6,0,0,0,2.3,8.151,7.555,7.555,0,0,0,7.513,3.131l-2.208-2.418a5.23,5.23,0,0,0,5.4-.327,19.576,19.576,0,0,1-12.281-9.511" transform="translate(-64.468 -91.582)"/><path class="b" d="M123.56,142.16a7.673,7.673,0,0,1,1.1,1.8,21.758,21.758,0,0,1,1.738,4.776,22,22,0,0,1,.613,5.037,7.606,7.606,0,0,1-.168,2.1,44.131,44.131,0,0,0-.839-7.051,45.551,45.551,0,0,0-2.443-6.657Z" transform="translate(-64.891 -90.028)"/><path class="b" d="M127.648,144.1a6.1,6.1,0,0,1,.386,1.754,28.8,28.8,0,0,1,.294,4.332,29.4,29.4,0,0,1-.32,4.329,6.641,6.641,0,0,1-.394,1.749c-.134,0,.277-2.728.277-6.086S127.514,144.117,127.648,144.1Z" transform="translate(-65.538 -90.34)"/><path class="f" d="M126.91,165" transform="translate(-65.429 -93.695)"/><path class="c" d="M125.668,139.3a5.993,5.993,0,0,1-.949.218c-.588.118-1.393.3-2.267.562s-1.679.537-2.208.755a6.6,6.6,0,0,1-.915.336,4.148,4.148,0,0,1,.839-.453,18.351,18.351,0,0,1,2.208-.839,18.148,18.148,0,0,1,2.292-.52,5.708,5.708,0,0,1,1-.059Z" transform="translate(-64.212 -89.569)"/><path class="c" d="M120.2,134.717a10.674,10.674,0,0,1-1.058.193,17.58,17.58,0,0,0-2.518.663,18.065,18.065,0,0,0-2.376,1.016,8.52,8.52,0,0,1-.957.5,1.614,1.614,0,0,1,.227-.176c.151-.1.386-.26.672-.428a14.127,14.127,0,0,1,2.376-1.075,13.583,13.583,0,0,1,2.518-.613,7.492,7.492,0,0,1,.789-.084C120.1,134.7,120.2,134.7,120.2,134.717Z" transform="translate(-63.242 -88.831)"/><path class="c" d="M111.68,133.27c0,.05-.974.378-2.174.839a16.265,16.265,0,0,0-1.5.68,3.955,3.955,0,0,1-.613.311,5.977,5.977,0,0,1,2.048-1.15c.6-.243,1.167-.428,1.57-.554A2.518,2.518,0,0,1,111.68,133.27Z" transform="translate(-62.295 -88.601)"/><path class="c" d="M125.183,147.209a1.931,1.931,0,0,1-.89.243,2.082,2.082,0,0,1-.923-.042,3.669,3.669,0,0,1,.907-.134,3.172,3.172,0,0,1,.907-.067Z" transform="translate(-64.861 -90.838)"/><path class="c" d="M127.69,148.887a1.2,1.2,0,0,1-.6.1c-.336,0-.6,0-.6-.067s.269-.092.6-.1S127.682,148.836,127.69,148.887Z" transform="translate(-65.362 -91.097)"/><path class="c" d="M129.6,146.831a1.83,1.83,0,0,1-.755,0,1.755,1.755,0,0,1-.73-.16,1.553,1.553,0,0,1,.747,0A1.679,1.679,0,0,1,129.6,146.831Z" transform="translate(-65.622 -90.745)"/><g class="g" transform="translate(60.257 54.63)"><path d="M127.129,156.774a26.863,26.863,0,0,0-1.5-10.073,1.452,1.452,0,0,1-.059-1.259.974.974,0,0,1,1.494.092,2.762,2.762,0,0,1,.437,1.679,1.108,1.108,0,0,1,.537-.932,10.72,10.72,0,0,1-.839,10.132" transform="translate(-125.452 -145.136)"/></g><rect class="b" width="25.385" height="12.382" rx="2.24" transform="translate(0 11.914) rotate(-27.99)"/><path class="c" d="M80.649,89.924l-.781-1.477a.42.42,0,0,0-.571-.16l-.269.143a.42.42,0,0,1-.562-.159l-1.561-2.879a.42.42,0,0,1,.185-.562l.269-.143a.42.42,0,0,0,.185-.554L77.3,83.62l-.688-1.293a1.326,1.326,0,0,0-1.78-.546L56.2,91.687a1.31,1.31,0,0,0-.546,1.78l4.038,7.605a1.31,1.31,0,0,0,1.78.546L80.1,91.7a1.31,1.31,0,0,0,.546-1.78Z" transform="translate(-53.964 -80.311)"/><path class="b" d="M83.222,93.211a.067.067,0,0,1-.084,0,.076.076,0,0,1,0-.084.059.059,0,1,1,.084.084Z" transform="translate(-58.4 -82.153)"/><path class="b" d="M82.981,93.331a.059.059,0,0,1-.084,0,.059.059,0,1,1,.084-.084.059.059,0,0,1,0,.084Z" transform="translate(-58.361 -82.173)"/><path class="b" d="M82.761,93.461a.067.067,0,0,1-.084,0,.059.059,0,1,1,.084-.084.067.067,0,0,1,0,.084Z" transform="translate(-58.325 -82.194)"/><path class="b" d="M80.208,91.986V91.91h.21l-.126.168v-.042Zm0,0,.05-.059H80.2Z" transform="translate(-57.93 -81.961)"/><path class="b" d="M80.376,92v.076a.109.109,0,0,1,0,.143.1.1,0,0,1-.134-.05l-.042-.076Zm-.092.151a.05.05,0,0,0,.076,0,.059.059,0,0,0,0-.084h0l-.109.059Z" transform="translate(-57.93 -81.975)"/><path class="b" d="M80.516,92.27v.076a.092.092,0,0,1,0,.134.084.084,0,0,1-.126-.05v-.076Zm-.1.143a.059.059,0,0,0,.084,0,.042.042,0,0,0,0-.076h0l-.1.059Z" transform="translate(-57.961 -82.019)"/><path class="b" d="M80.59,92.833l.1-.059h-.109l.059-.092-.1.05h0l.16-.092h0l-.067.118h.134l-.16.092Z" transform="translate(-57.985 -82.078)"/><path class="b" d="M80.728,92.888a.117.117,0,0,1,.134.185.115.115,0,1,1-.134-.185Zm.084.143a.067.067,0,0,0,0-.076.062.062,0,0,0-.109.059.067.067,0,0,0,.109.017Z" transform="translate(-58.005 -82.116)"/><path class="b" d="M80.84,93.293v-.05h-.05l.168-.092v.076a.063.063,0,0,1-.076.1v.067Zm.118-.109H80.9s.067.025.067,0Z" transform="translate(-58.025 -82.16)"/><path class="b" d="M80.987,93.5h0l-.067-.126.168-.092.067.126h0v-.092h0v.076h0v-.076h0Z" transform="translate(-58.046 -82.181)"/><path class="b" d="M81.132,93.672V93.63h0Z" transform="translate(-58.073 -82.237)"/><path class="b" d="M77.67,83.565a.235.235,0,0,1,.327.294h-.084a.134.134,0,0,0,0-.126.126.126,0,0,0-.185-.05.134.134,0,0,0-.059.185.168.168,0,0,0,.1.067v.084a.21.21,0,0,1-.151-.118.227.227,0,0,1,.05-.336Z" transform="translate(-57.507 -80.617)"/><path class="b" d="M78.036,84.319l-.168.092-.042-.076h0a.118.118,0,0,1-.092-.067.1.1,0,0,1,0-.151.145.145,0,0,1,.151.076v-.034a.252.252,0,0,0-.067-.067L77.952,84a.235.235,0,0,1,.1.1C78.136,84.2,78.12,84.277,78.036,84.319Zm-.126,0h0V84.26h-.059a.042.042,0,0,0,0,.067.059.059,0,0,0,.1-.05Z" transform="translate(-57.529 -80.691)"/><path class="b" d="M78.346,84.579H78.27a.092.092,0,0,0-.126,0l-.134.076v-.084l.285-.151.05.076h0a.092.092,0,0,1,0,.084Z" transform="translate(-57.578 -80.758)"/><path class="b" d="M78.662,84.965l-.4.218V85.1h0a.134.134,0,0,1-.084-.067.159.159,0,0,1,.067-.227.176.176,0,0,1,.235.059.168.168,0,0,1,0,.109l.143-.076Zm-.3,0c.05,0,.067-.076,0-.118a.083.083,0,1,0,0,.118Z" transform="translate(-57.601 -80.817)"/><path class="b" d="M78.347,85.231h.076a.185.185,0,0,0,0,.118c0,.042,0,.05.05.042s-.092-.176,0-.235.118,0,.168.084a.311.311,0,0,1,0,.126h-.076a.168.168,0,0,0,0-.092.043.043,0,0,0-.059-.042c-.017.008.1.176,0,.243s-.118,0-.168-.092A.252.252,0,0,1,78.347,85.231Z" transform="translate(-57.63 -80.873)"/><path class="b" d="M65.175,95.421l-.05-.1H65.2l.151.285h-.076l-.05-.1-.235.134-.05-.092Z" transform="translate(-55.48 -82.508)"/><path class="b" d="M65.23,95.726a.185.185,0,0,1,.26.092.193.193,0,0,1-.067.269.2.2,0,0,1-.269-.092.193.193,0,0,1,.076-.269Zm.143.269a.109.109,0,0,0,0-.143.092.092,0,0,0-.134,0,.1.1,0,0,0-.05.134.109.109,0,0,0,.185.008Z" transform="translate(-55.51 -82.57)"/><path class="b" d="M65.611,96.211l-.05-.1h.067l.16.285h-.076l-.05-.1-.252.134v-.092Z" transform="translate(-55.556 -82.635)"/><path class="b" d="M65.661,96.807l-.076-.134H65.51l-.05-.092h.395l.05.092-.243.26-.05-.092Zm.05-.059.084-.1H65.67Z" transform="translate(-55.564 -82.711)"/><path class="b" d="M66.039,96.86l.05.092-.252.126.084.16h-.076l-.126-.243Z" transform="translate(-55.605 -82.756)"/><path class="b" d="M62.981,95.423l-.1.05h0l.092-.05a.4.4,0,0,1,0-.252h.008a.344.344,0,0,0,0,.218l.227-.118c0-.109-.05-.218.059-.285a.193.193,0,0,1,.269.109l.1-.059h0l-.1.059a.336.336,0,0,1,.042.2h-.008a.428.428,0,0,0,0-.185l-.227.126c0,.109.05.227-.059.285A.21.21,0,0,1,62.981,95.423ZM63.3,95.2l.218-.118c-.059-.084-.126-.1-.176-.067a.169.169,0,0,0-.05.185Zm-.084.277c.067,0,.059-.109,0-.193l-.21.109c.084.092.151.109.2.084Z" transform="translate(-55.149 -82.451)"/><path class="b" d="M64.034,95.9l-.6.319v-.059l.554-.294L63.9,95.72h.059Z" transform="translate(-55.238 -82.573)"/><path class="b" d="M63.933,96.8c-.109.059-.218,0-.3-.143s-.059-.269.05-.327a.168.168,0,0,1,.21,0,.159.159,0,0,1,.084-.168c.1-.05.2,0,.277.126s.05.243-.05.294a.151.151,0,0,1-.185,0A.168.168,0,0,1,63.933,96.8Zm0-.067c.076,0,.084-.126,0-.235s-.143-.143-.218-.1-.084.126,0,.235S63.84,96.779,63.933,96.737Zm.076-.26c.05.092.126.126.193.092s.076-.118,0-.21-.118-.126-.185-.092-.084.118-.025.21Z" transform="translate(-55.262 -82.641)"/><path class="b" d="M64.2,96.988c.185-.109.361-.067.428.076a.312.312,0,0,1-.176.4.3.3,0,0,1-.437-.076A.281.281,0,0,1,64.2,96.988Zm.218.42c.168-.092.21-.21.16-.319s-.185-.126-.344,0-.218.21-.16.311.185.05.344-.034Z" transform="translate(-55.326 -82.766)"/><path class="b" d="M64.311,97.876h-.059v-.059a.05.05,0,0,1,.067,0,.042.042,0,0,1-.008.059Z" transform="translate(-55.347 -82.907)"/><path class="b" d="M64.635,98.358h-.059l-.227-.411h.042l.386.118a.243.243,0,0,0,.193,0c.067,0,.084-.109,0-.2a.243.243,0,0,0-.159-.134V97.67a.3.3,0,0,1,.2.168c.067.118.05.235-.059.285a.252.252,0,0,1-.235,0l-.319-.092Z" transform="translate(-55.385 -82.886)"/><path class="b" d="M64.961,98.409c.193-.1.361-.059.437.076s0,.3-.176.411a.3.3,0,0,1-.437-.076C64.709,98.686,64.793,98.518,64.961,98.409Zm.227.42c.16-.084.21-.21.151-.311s-.185-.134-.344,0-.21.2-.159.311.21.067.378,0Z" transform="translate(-55.451 -82.995)"/><rect class="f" width="8.772" height="2.3" rx="1.15" transform="translate(5.751 11.325) rotate(61.74)"/><g class="g" transform="translate(3.725 11.325)"><rect width="8.772" height="2.3" rx="1.15" transform="translate(2.026 0) rotate(61.74)"/></g><rect class="f" width="8.772" height="2.3" rx="1.15" transform="translate(5.598 11.024) rotate(61.74)"/><path class="h" d="M61.488,98.008a.2.2,0,0,1-.277-.118l-.059-.118-.143.084v-.076l.478-.252.1.185A.255.255,0,0,1,61.488,98.008Zm0-.076c.067,0,.084-.1,0-.185l-.059-.118-.218.118.059.109c.05.067.118.118.185.067Z" transform="translate(-54.849 -82.863)"/><path class="h" d="M61.545,98.609l-.143-.252H61.26V98.29h.6v.067l-.369.478V98.76Zm0-.05.176-.227h-.294Z" transform="translate(-54.889 -82.985)"/><path class="h" d="M61.848,98.978l-.168.092V99l.159-.092.21-.361.042.076-.168.294h.336v.067Z" transform="translate(-54.957 -83.027)"/><path class="f" d="M67.167,96.2l.076.1a.47.47,0,0,0,.311.143.428.428,0,0,0,.243,0l.269-.151.655-.353.789-.428.21-.118a.6.6,0,0,0,.193-.16.462.462,0,0,0,0-.487c-.344-.646-.73-1.343-1.125-2.082a.479.479,0,0,0-.512-.235.47.47,0,0,0-.134.059l-.134.067-.26.143-1.007.546-.47.252a.571.571,0,0,0-.193.151.554.554,0,0,0-.092.218.529.529,0,0,0,0,.227c0,.067.067.134.1.2l.21.378c.252.487.462.839.613,1.15l.168.311v.084h0v-.076l-.176-.311-.621-1.142-.21-.378a1.612,1.612,0,0,1-.1-.21.4.4,0,0,1,0-.243.453.453,0,0,1,.092-.227.487.487,0,0,1,.21-.159l.462-.26,1.007-.537.26-.143.134-.076a.428.428,0,0,1,.143-.059.52.52,0,0,1,.554.252c.395.739.772,1.435,1.125,2.082a.5.5,0,0,1,0,.52.554.554,0,0,1-.2.168l-.218.118-.789.428-.655.344a2.829,2.829,0,0,1-.269.143.4.4,0,0,1-.252.05.47.47,0,0,1-.311-.151A.436.436,0,0,1,67.167,96.2Z" transform="translate(-55.642 -82.038)"/><path class="f" d="M68.094,95.29h0v-.059L67.926,95l-.386-.7h0l.109-.076.789-.579h0l-.1-.193v-.05h0v.05l.1.185h0l-.781.579-.1.084h0c.151.277.285.52.378.705l.118.21v.059Z" transform="translate(-55.898 -82.202)"/><path class="f" d="M67.79,94.225h0v.05l.118.21.395.73h0l.437-.143A1.2,1.2,0,0,1,68.965,95h0l-.462-.839-.143-.252V93.83h0l.042.067.143.26.47.839h0l-.227.076-.428.151h0l-.395-.705-.118-.21V94.25h0Z" transform="translate(-55.938 -82.269)"/><path class="f" d="M67.366,94.9h0a.126.126,0,0,0,0-.067.092.092,0,0,0,0-.092.118.118,0,0,0-.118,0,.109.109,0,0,0-.059.109.126.126,0,0,0,.059.084h.1a.126.126,0,0,1-.076,0,.092.092,0,0,1-.067-.092.109.109,0,0,1,.059-.118.118.118,0,0,1,.134,0,.126.126,0,0,1,0,.1.1.1,0,0,1,0,.067Z" transform="translate(-55.841 -82.41)"/><path class="f" d="M67.775,95.662h0a.244.244,0,0,0,0-.067.118.118,0,0,0,0-.092.11.11,0,0,0-.168.109.109.109,0,0,0,.059.084h.067a.076.076,0,0,1-.076,0,.118.118,0,0,1,0-.21.109.109,0,0,1,.134,0,.1.1,0,0,1,0,.109.1.1,0,0,1,0,.067Z" transform="translate(-55.906 -82.531)"/><path class="f" d="M69.41,95.345a.319.319,0,1,1,.126-.437A.327.327,0,0,1,69.41,95.345Z" transform="translate(-56.122 -82.416)"/><path class="h" d="M69.428,95.094l-.218.109v-.05l.176-.092h0Z" transform="translate(-56.166 -82.467)"/><rect class="f" width="9.175" height="5.826" rx="1.6" transform="translate(18.081 4.086) rotate(61.74)"/><path class="h" d="M74.614,87.165a.169.169,0,0,1-.185-.1l-.109-.193.378-.2.1.185c.05.092,0,.16,0,.193a.1.1,0,0,1-.109,0,.109.109,0,0,1-.076.118Zm.067-.378-.092.05.05.084s.05.059.084,0,0,0,0-.084Zm-.109.285v-.1l-.05-.1-.092.05.05.1C74.513,87.073,74.538,87.09,74.572,87.073Z" transform="translate(-56.986 -81.12)"/><path class="h" d="M74.8,87.6l-.092-.176h-.1V87.33h.47v.084l-.285.378-.05-.092Zm.059-.067.109-.134h-.176Z" transform="translate(-57.033 -81.226)"/><path class="h" d="M75.429,88l-.378.2v-.076l.126-.311-.227.126-.05-.084.386-.21v.076l-.126.311.227-.126Z" transform="translate(-57.079 -81.277)"/><path class="h" d="M75.357,88.443h-.084l-.092.05-.05-.084.386-.21v.092l-.176.092.269.076.05.092-.252-.059-.118.277-.059-.1Z" transform="translate(-57.116 -81.365)"/><path class="h" d="M72.719,88.138v-.067l-.092.05h.092l-.109-.2h0l.327.059v.042l-.319-.059.076.151.084-.042H72.7v.067Z" transform="translate(-56.712 -81.32)"/><path class="h" d="M72.883,88.413a.15.15,0,0,1-.176-.218h0a.2.2,0,0,0,0,.134.092.092,0,0,0,.118.05.1.1,0,0,0,0-.134H73l-.05-.185h0l.118.227h-.176C72.95,88.329,72.95,88.387,72.883,88.413Z" transform="translate(-56.725 -81.343)"/><path class="h" d="M73.063,88.744a.15.15,0,0,1-.176-.218h0a.176.176,0,0,0,0,.126q.05.092.126.05a.138.138,0,0,0,0-.151v-.076L73.2,88.4l.1.193h0l-.084-.16H73.1v.05C73.147,88.652,73.122,88.719,73.063,88.744Z" transform="translate(-56.754 -81.397)"/><path class="h" d="M73.264,89.116a.118.118,0,0,1-.168-.059c-.05-.092,0-.176.092-.235a.176.176,0,0,1,.269.059.218.218,0,0,1,0,.092h0a.084.084,0,0,0,0-.076.143.143,0,0,0-.21-.05h0a.143.143,0,0,1,.118.076.126.126,0,0,1-.1.193Zm0,0a.084.084,0,0,0,0-.126c0-.059-.084-.076-.126-.05s-.059.067,0,.134a.084.084,0,0,0,.1.008Z" transform="translate(-56.786 -81.459)"/><path class="h" d="M73.642,90.082l.059-.143h.042l.076-.16h0l-.059.134.168.05h-.176l-.084.176Z" transform="translate(-56.862 -81.619)"/><path class="h" d="M73.812,90.393l.059-.143H73.72v-.042h.193l.076-.168h0l-.059.134H73.9l-.084.176Z" transform="translate(-56.89 -81.661)"/><path class="h" d="M73.982,90.721l.059-.143h.042l.076-.168h0l-.059.134h.151v.042h-.176l-.084.176Z" transform="translate(-56.917 -81.72)"/><path class="h" d="M74.152,91.032l.059-.143h.042l.076-.159h0l-.067.134h-.025l-.084.176Z" transform="translate(-56.944 -81.771)"/><path class="h" d="M74.734,92.131l.067-.143h.042l.076-.168h0l-.059.126h-.042l-.076.176Z" transform="translate(-57.039 -81.946)"/><path class="h" d="M74.9,92.441l.067-.143h.042l.076-.168h0l-.059.134h-.042l-.076.176Z" transform="translate(-57.066 -81.996)"/><path class="h" d="M75.074,92.753l.067-.143H74.99v-.042h.193l.076-.168h0l-.059.134h-.042l-.076.176Z" transform="translate(-57.094 -82.04)"/><path class="h" d="M75.244,93.072l.067-.134h.042l.076-.168h0l-.059.126h.143v.042h-.185l-.076.176Z" transform="translate(-57.121 -82.099)"/><path class="h" d="M76.143,93.871l-.353.193v-.042l.319-.168-.05-.084h0Z" transform="translate(-57.222 -82.26)"/><path class="h" d="M76.076,94.361a.126.126,0,0,1-.168-.076.252.252,0,0,1,0-.151h.042a.143.143,0,0,0,0,.126.084.084,0,0,0,.118.05.1.1,0,0,0,0-.126h.168L76.168,94h0l.118.227h-.176a.118.118,0,0,1-.034.134Z" transform="translate(-57.239 -82.296)"/><path class="h" d="M76.3,94.789v-.067l-.092.05h0l.092-.05-.109-.2h0l.327.059h0L76.2,94.52l.076.151h.008v.067Z" transform="translate(-57.286 -82.38)"/><path class="h" d="M76.394,95.129h0l-.134-.243h0l.218.067a.151.151,0,0,0,.109,0,.084.084,0,0,0,0-.118.134.134,0,0,0-.092-.076h0a.159.159,0,0,1,.118.092.109.109,0,0,1,0,.168.143.143,0,0,1-.134,0l-.185-.059Z" transform="translate(-57.298 -82.418)"/><path class="h" d="M71.469,88.128a.1.1,0,0,1,.134.042s0,.059,0,.084h0a.05.05,0,0,0,0-.05.059.059,0,0,0-.084,0,.05.05,0,0,0,0,.076.059.059,0,0,0,.042,0h0a.109.109,0,0,1-.067-.059.1.1,0,0,1-.025-.092Z" transform="translate(-56.528 -81.352)"/><path class="h" d="M71.58,88.5V88.42h.151l-.126.168h0Zm0,0,.05-.059h-.076Z" transform="translate(-56.538 -81.401)"/><path class="h" d="M71.66,88.713v-.05h-.05l.168-.092v.076a.063.063,0,0,1-.076.1v.067Zm.109-.109h-.008c.042,0,.025.025.008,0Z" transform="translate(-56.551 -81.425)"/><path class="h" d="M71.719,88.783h0a.159.159,0,0,0,0,.059h0v-.134c0-.034.067,0,.092.042a.159.159,0,0,1,0,.067h0a.118.118,0,0,0,0-.05V88.9c0,.034-.067,0-.092,0a.31.31,0,0,1,0-.118Z" transform="translate(-56.568 -81.445)"/><path class="h" d="M72.113,89.131l-.168.092h.076l-.034-.151H71.92l.168-.092h-.059v.076H72.1Z" transform="translate(-56.601 -81.491)"/><path class="h" d="M72.065,89.245a.1.1,0,0,1,.134,0,.109.109,0,0,1,0,.143.1.1,0,0,1-.134-.143Zm.076.143a.059.059,0,0,0,0-.084.067.067,0,0,0-.084,0,.05.05,0,0,0,0,.076.059.059,0,0,0,.084.008Z" transform="translate(-56.62 -81.529)"/><path class="h" d="M72.27,89.45h0l-.143.076.05.084h0l-.067-.126Z" transform="translate(-56.631 -81.566)"/><path class="h" d="M72.364,89.62V89.7a.092.092,0,0,1,0,.134.1.1,0,0,1-.134-.042v-.076Zm-.092.143a.059.059,0,1,0,.1-.05h0l-.1.059Z" transform="translate(-56.651 -81.593)"/><path class="h" d="M72.421,90.058h0l-.1-.076.168-.092.067.126h0v-.084h-.042l.042.076h0v-.076h-.042Z" transform="translate(-56.665 -81.637)"/><path class="h" d="M72.49,90.251v-.059h0l.168-.092v.076a.067.067,0,0,1,0,.1.05.05,0,0,1-.067,0v.059Zm.118-.109Z" transform="translate(-56.692 -81.67)"/><path class="h" d="M70.678,88.514h.076a.1.1,0,0,0,0,.084.05.05,0,0,0,.076,0l.159-.084-.042-.084h.059l.1.185-.2.109a.118.118,0,0,1-.185-.05A.134.134,0,0,1,70.678,88.514Z" transform="translate(-56.4 -81.402)"/><path class="h" d="M70.848,88.838a.05.05,0,0,1,.067,0,.048.048,0,1,1-.067.067A.059.059,0,0,1,70.848,88.838Z" transform="translate(-56.427 -81.466)"/><path class="h" d="M71.475,89.292l-.369.067-.05-.076.185-.193-.26.05v-.084l.269-.277v.076l-.185.193h.269v.067l-.185.193h.269Z" transform="translate(-56.45 -81.458)"/><path class="h" d="M71.529,89.43H71.6v.059a.042.042,0,0,1-.067,0A.059.059,0,0,1,71.529,89.43Zm-.067.05v.067l-.252.134v-.076Z" transform="translate(-56.487 -81.563)"/><path class="h" d="M71.652,89.59l.042.076-.344.176v-.067Z" transform="translate(-56.509 -81.588)"/><path class="h" d="M71.736,89.75v.076l-.336.185v-.076Z" transform="translate(-56.517 -81.614)"/><path class="h" d="M71.8,89.918a.042.042,0,0,1,.059,0,.05.05,0,0,1,0,.067.059.059,0,0,1-.067,0,.042.042,0,0,1,.008-.067Zm-.067.05v.067l-.243.134V90.1Z" transform="translate(-56.532 -81.639)"/><path class="h" d="M71.836,90.422l-.143.076V90.43h0a.088.088,0,0,1-.076-.059.2.2,0,0,1,0-.126c0-.017.092,0,.134.059v-.025a.226.226,0,0,0-.067-.059v-.05a.185.185,0,0,1,.084.092C71.937,90.321,71.937,90.38,71.836,90.422Zm-.1,0h0v-.05h-.059c-.017,0,0,0,0,.05s.025-.034.059-.042Z" transform="translate(-56.55 -81.682)"/><path class="h" d="M72.124,90.917l-.134.076v-.067l.134-.076a.059.059,0,0,0,0-.076.079.079,0,0,0-.1,0l-.118.067v-.076l.134-.067a.059.059,0,0,0,0-.084h-.092l-.118.067v-.067l.243-.134v.067h0a.112.112,0,0,1,.076.16.134.134,0,0,1,.084.067C72.216,90.849,72.2,90.917,72.124,90.917Z" transform="translate(-56.586 -81.731)"/><path class="h" d="M72.07,91.137h.067a.151.151,0,0,0,0,.1h.05c.05,0-.084-.151,0-.2s.1,0,.143.067a.26.26,0,0,1,0,.109h-.059a.1.1,0,0,0,0-.076h0s.076.143,0,.2-.1,0-.134-.076a.26.26,0,0,1-.067-.126Z" transform="translate(-56.625 -81.817)"/><path class="h" d="M74.039,94.494a.159.159,0,0,1,.235.05c.05.076,0,.168-.084.227a.2.2,0,0,1-.243-.05C73.9,94.67,73.93,94.553,74.039,94.494Zm.109.2c.067,0,.084-.084.067-.118s-.067-.05-.134,0-.092.084-.076.118.067.042.143,0Z" transform="translate(-56.923 -82.371)"/><path class="h" d="M74.322,95.158a.126.126,0,0,1-.176-.059.159.159,0,0,1,.084-.227.168.168,0,0,1,.26.067.227.227,0,0,1,0,.1h-.067a.2.2,0,0,0,0-.067.1.1,0,0,0-.143,0s.05,0,.076.067a.109.109,0,0,1-.034.118Zm0-.067a.059.059,0,0,0,0-.076s-.05-.05-.076,0,0,0,0,.084a.05.05,0,0,0,.034-.008Z" transform="translate(-56.955 -82.431)"/><path class="h" d="M74.692,95.22v.067l-.512.076V95.3Z" transform="translate(-56.964 -82.492)"/><path class="h" d="M74.563,95.719H74.5l-.126-.235h.05l.185.059h.076c.017,0,0,0,0-.076a.1.1,0,0,0-.067-.05V95.35a.151.151,0,0,1,.126.092v.168c0,.025-.059,0-.126,0H74.5Z" transform="translate(-56.994 -82.513)"/><path class="h" d="M74.792,96.105v-.05h-.067v-.067h.067L74.7,95.82h.336V95.9h-.269v.092h.059v.067h-.059v.05Z" transform="translate(-57.047 -82.589)"/><g class="i" transform="translate(19.014 9.673)"><path class="h" d="M77.1,92.6a.571.571,0,0,0,.084-.722.512.512,0,0,0-.168-.185.42.42,0,0,0-.562,0,.63.63,0,0,0-.126.478.646.646,0,0,0,.21.47.428.428,0,0,0,.478,0Z" transform="translate(-76.322 -91.581)"/></g><g class="i" transform="translate(16.456 4.179)"><path class="h" d="M79.1,92.754,75.042,85.2a.3.3,0,0,0-.411-.126l-1.352.772a2.518,2.518,0,0,0,.655,1.855,10.653,10.653,0,0,0,1.822,1.5,4,4,0,0,1,1.486,1.8,7.354,7.354,0,0,1,.151,2.233,4.2,4.2,0,0,0,.084.73l1.5-.839a.311.311,0,0,0,.126-.378Z" transform="translate(-73.274 -85.037)"/></g><path class="j" d="M69.265,106.174l3.408-2.77a7.412,7.412,0,0,0,2.7-4.835l.151-1.435-10.2-2.073s-.957,3.1,2.9,3.87c-3.417,1.477-4.693,4.575-5.624,7.924Z" transform="translate(-55.104 -82.467)"/><path class="k" d="M65.475,101.494a10.877,10.877,0,0,1,.89-.991,4.735,4.735,0,0,1,3.123-1.259h1.1l-1.033-.378-2.384-.839h.05a2.837,2.837,0,0,1-1.486-2.653,1.543,1.543,0,0,1,.05-.243l-.294.16c2.871.714,5.473,1.31,7.379,1.679.949.16,1.679.277,2.258.336a2.518,2.518,0,0,0,.839,0,29.383,29.383,0,0,0-3.022-.705c-1.88-.411-4.458-1.058-7.328-1.771L65.4,94.77l-.067.218a1.679,1.679,0,0,0-.076.327,2.863,2.863,0,0,0,.445,1.872,3.878,3.878,0,0,0,1.276,1.234h0l2.4.839.067-.386a4.793,4.793,0,0,0-3.291,1.494,2.627,2.627,0,0,0-.68,1.125Z" transform="translate(-55.528 -82.42)"/></g><g transform="translate(259.241 169.41)"><path class="f" d="M399.423,383.709a31.379,31.379,0,0,0-10.476-29.683s-2.434-.89-2.225,1.83c.126,1.629-1.435,3.929-2.737,2.93-2.258-1.738-1.545-5.28-2.518-7.958-1.133-3.14-4.474-4.81-7.555-6.145-5.641-2.476-11.375-4.869-17.435-5.969s-12.525-.839-18.057,1.906q2.015,4.055,4.021,8.1a2.829,2.829,0,0,0,3.593,1.8l7.337-.537c1.066-.076,2.451.05,2.753,1.066.353,1.158-1.033,2.023-2.166,2.426l-7.7,2.762a24.781,24.781,0,0,0,10.183,8.487,74.369,74.369,0,0,0,12.684,4.357,7.5,7.5,0,0,0,4.2.319c2.241-.722,3.794-3.526,6.128-3.182a9.78,9.78,0,0,1-3.61,6.623c9.075,3.559,15.4,7.916,23.5,10.913" transform="translate(-338.42 -266.101)"/><path class="b" d="M411.747,425.939a.7.7,0,0,0-.067-.235l-.151-.7c-.134-.638-.327-1.536-.562-2.678-.478-2.359-1.15-5.717-1.981-9.864-.411-2.082-.839-4.365-1.352-6.808-.235-1.226-.487-2.518-.747-3.8l-.386-1.981c-.1-.68-.193-1.368-.294-2.065-.839-5.524-1.847-11.685-4.541-17.561s-7.085-10.409-11.24-14.12a95.17,95.17,0,0,0-11.962-8.848c-3.576-2.283-6.548-4-8.6-5.2l-2.35-1.393-.613-.369c-.134-.084-.2-.134-.193-.143l.218.1.63.336,2.392,1.318c2.073,1.167,5.079,2.846,8.68,5.1a93.59,93.59,0,0,1,12.063,8.806,59.333,59.333,0,0,1,6.212,6.271,36.189,36.189,0,0,1,5.163,7.966c2.72,5.952,3.71,12.155,4.533,17.687.1.7.193,1.377.285,2.057s.26,1.335.378,1.99l.73,3.794c.462,2.451.9,4.734,1.293,6.825.772,4.147,1.4,7.555,1.847,9.889.2,1.142.361,2.04.478,2.686.05.294.084.52.118.705a1.067,1.067,0,0,1,.017.243Z" transform="translate(-342.962 -268.038)"/><path class="f" d="M429.757,308.532c-1.981,2.9-7.513,1.494-7.857-2.006s4.81-5.96,7.32-3.484a82.93,82.93,0,0,0-3.089-30.514,15.95,15.95,0,0,1-2.863,5.574c-1.419,1.553-3.7,2.518-5.675,1.771-2.661-1-3.45-4.651-2.342-7.27s3.509-4.432,5.8-6.12a28.609,28.609,0,0,0-17.746-14.153c-2.955,4.785-5.952,9.662-7.278,15.11s-.73,11.685,2.913,15.95c1.553,1.813,3.6,3.232,4.8,5.3s1.116,5.23-1,6.338c-2.518,1.31-5.3-1.158-6.716-3.584s-2.854-5.423-5.633-5.876a54.014,54.014,0,0,0,24.923,49.528l-.285-.269A77.59,77.59,0,0,0,429.757,308.532ZM417,287.075a13.382,13.382,0,0,1,5.163-2.955,1.981,1.981,0,0,1,2.225.588,2.921,2.921,0,0,1,.562,2.317,5.507,5.507,0,0,1-.982,2.233,7.371,7.371,0,0,1-2.98,2.628,4.583,4.583,0,0,1-3.9,0,2.678,2.678,0,0,1-1.561-2.183A3.66,3.66,0,0,1,417,287.075Z" transform="translate(-346.735 -252.33)"/><path class="b" d="M423.035,417.878a1.38,1.38,0,0,1,0-.3,7.6,7.6,0,0,0-.042-.9c0-.839-.076-1.973-.134-3.442-.118-3.022-.285-7.337-.5-12.667-.47-10.695-1.217-25.461-2.426-41.746s-2.594-31.009-3.761-41.645c-.562-5.322-1.091-9.62-1.452-12.592-.168-1.469-.3-2.619-.395-3.425l-.092-.89a1.725,1.725,0,0,1,0-.311,1.275,1.275,0,0,1,.067.3,7.723,7.723,0,0,0,.134.89c.109.839.269,1.948.47,3.408.411,2.972.982,7.261,1.587,12.592,1.251,10.628,2.711,25.352,3.9,41.645s1.906,31.06,2.3,41.763c.193,5.356.311,9.679.369,12.676,0,1.477,0,2.636.042,3.45v.89A1.223,1.223,0,0,1,423.035,417.878Z" transform="translate(-350.59 -259.977)"/><path class="p" d="M357.78,368.46l7.807,33.15h40.965l8.655-33.15Z" transform="translate(-316.68 -228.565)"/><path class="p" d="M402.72,450.17c0,.63,3.173,19.635,3.173,19.635h24.915l2.745-19.635Z" transform="translate(-348.743 -284.092)"/><path class="b" d="M436.495,458.248c0,.118-8.94.218-19.962.218s-19.962-.1-19.962-.218,8.932-.218,19.962-.218S436.495,458.122,436.495,458.248Z" transform="translate(-347.756 -285.354)"/><path class="b" d="M440.211,442.328c0,.118-10.544.218-23.5.218s-23.547-.1-23.547-.218,10.544-.218,23.547-.218S440.211,442.2,440.211,442.328Z" transform="translate(-347.208 -282.798)"/><path class="b" d="M438.523,447.828c0,.118-9.922.218-22.162.218s-22.162-.1-22.162-.218,9.922-.218,22.162-.218S438.523,447.7,438.523,447.828Z" transform="translate(-347.375 -283.681)"/><path class="b" d="M438.677,453.328c0,.118-9.57.218-21.364.218s-21.372-.1-21.372-.218,9.57-.218,21.372-.218S438.677,453.2,438.677,453.328Z" transform="translate(-347.655 -284.564)"/><path class="b" d="M441.209,436.957c0,.118-11.014.218-24.6.218S392,437.1,392,436.957s11.014-.227,24.6-.227S441.209,436.856,441.209,436.957Z" transform="translate(-347.022 -281.934)"/><path class="b" d="M441.975,432.588c0,.118-11.215.218-25.058.218s-25.058-.1-25.058-.218,11.215-.218,25.058-.218S441.975,432.462,441.975,432.588Z" transform="translate(-346.999 -281.234)"/></g><g transform="translate(56.579 -0.001)"><path class="h" d="M121.025,50.721a3.458,3.458,0,0,0,.478-.05l1.393-.1c.311,0,.655-.059,1.033-.05l1.242.05a9.74,9.74,0,0,1,1.452.076l1.679.227a26.451,26.451,0,0,1,16.722,9.855l.965,1.259c.3.445.579.915.839,1.385a26.865,26.865,0,0,1,1.587,2.963,28.332,28.332,0,0,1,2.309,10.611c0,.638,0,1.284-.05,1.931v.974a7.751,7.751,0,0,1-.134.974,25.653,25.653,0,0,1-2.25,7.773,26.938,26.938,0,0,1-11.752,12.491,26.191,26.191,0,0,1-8.73,2.863,25.847,25.847,0,0,1-9.461-.243c-.4-.084-.839-.176-1.2-.277h.168L104.849,111.2l-.437.277.118-.5,2.8-12.508.076.21A26.753,26.753,0,0,1,97.378,82.125,20.474,20.474,0,0,1,97,79.12V76.182a26.773,26.773,0,0,1,19.375-24.6l1.981-.5,1.469-.218.9-.118a2.074,2.074,0,0,1,.3,0l-.3.067-.89.1-1.461.243-1.956.529a27.6,27.6,0,0,0-5.146,2.157A26.862,26.862,0,0,0,99.946,65.823,26.342,26.342,0,0,0,97.428,76.19a10.359,10.359,0,0,0,0,1.444c.067.487.059.974.084,1.461a19.945,19.945,0,0,0,.353,2.963A26.275,26.275,0,0,0,107.779,98.3l.1.076v.134c-.9,4.013-1.83,8.193-2.787,12.508l-.327-.227,12.458-7.782h.176q.579.151,1.184.277a25.343,25.343,0,0,0,9.3.235,25.62,25.62,0,0,0,8.6-2.8,26.636,26.636,0,0,0,11.584-12.281,25.075,25.075,0,0,0,2.225-7.656c.042-.319.1-.638.134-.957l.05-.965c0-.638.084-1.268.059-1.9a26.739,26.739,0,0,0-.327-3.7,25.386,25.386,0,0,0-3.677-9.746c-.285-.462-.562-.932-.839-1.368l-.949-1.259a26.434,26.434,0,0,0-16.5-9.872l-1.629-.252c-.512-.059-1-.059-1.444-.092l-1.242-.067H122.9l-1.4.05A1.793,1.793,0,0,1,121.025,50.721Z" transform="translate(-97 -50.519)"/><path class="p" d="M89.338,17.65l-3.2,24.235h23.7l-3.45-24.235Z" transform="translate(-70.409 -2.833)"/><path class="h" d="M135.091,72.346a1.771,1.771,0,0,1-.134.705,6.657,6.657,0,0,1-.839,1.754A6.38,6.38,0,0,1,132,76.786a6.926,6.926,0,0,1-3.45.839,7.152,7.152,0,0,1-3.459-.839,5.717,5.717,0,0,1-2.1-2.015,6.245,6.245,0,0,1-.764-1.788c-.109-.453-.118-.705-.084-.714a10.611,10.611,0,0,0,1.108,2.334,5.591,5.591,0,0,0,2.031,1.83,7.009,7.009,0,0,0,3.265.714,6.716,6.716,0,0,0,3.249-.789,6.414,6.414,0,0,0,2.065-1.8,12.862,12.862,0,0,0,1.226-2.208Z" transform="translate(-101.034 -54.011)"/></g></g></svg>