<svg xmlns="http://www.w3.org/2000/svg" width="45.872" height="43.176" viewBox="0 0 45.872 43.176"><defs><style>.a{fill:#fff;}</style></defs><g transform="translate(0 0)"><path class="a" d="M54.823,48.344v0l.4.285V26.587L38.4,36.511Z" transform="translate(-9.348 -10.172)"/><path class="a" d="M12.348,17.47h-.411A3.944,3.944,0,0,0,8,21.408v2.552l4.348,2.561V17.47Z" transform="translate(-8 -9.768)"/><path class="a" d="M51.861,17.47H51.45v9.05L55.8,23.959V21.408A3.944,3.944,0,0,0,51.861,17.47Z" transform="translate(-9.927 -9.768)"/><path class="a" d="M52.357,50.291,32.612,36.062a2.864,2.864,0,0,0-3.352,0L9.514,50.291h0L8,51.382v1.407a.956.956,0,0,0,.956.956h43.96a.955.955,0,0,0,.956-.956V51.382l-1.513-1.091Z" transform="translate(-8 -10.568)"/><path class="a" d="M14.249,44.126l10.567-7.615L8,26.587V48.63l6.249-4.5Z" transform="translate(-8 -10.172)"/><path class="a" d="M27.629,18.6a.715.715,0,0,0-.315-.057,2.459,2.459,0,0,0-1.032.268,2.65,2.65,0,0,0-1.472,1.978c-.086.659.258,1.72.946,1.816a.875.875,0,0,0,.755-.3,5.6,5.6,0,0,0,1.281-3.5C27.734,18.645,27.667,18.607,27.629,18.6Z" transform="translate(-8.745 -9.815)"/><path class="a" d="M28.436,33.349a4.763,4.763,0,0,1,5.581,0l1.634,1.175L47.9,27.3V13.233a.946.946,0,0,0-.956-.956H39.235V10.366a.958.958,0,0,0-.956-.956H15.506a.958.958,0,0,0-.956.956V27.3L26.8,34.525Zm10.971-16.2h4.081a.956.956,0,1,1,0,1.911H39.407a.956.956,0,0,1,0-1.911Zm0,4.071h4.081a.956.956,0,1,1,0,1.911H39.407a.956.956,0,0,1,0-1.911ZM22.692,26.344A7.107,7.107,0,1,1,33,18.135a.472.472,0,0,1,.038.124.136.136,0,0,1,.019.057.21.21,0,0,1,.01.076,4.646,4.646,0,0,1-1.424,4.5,2.4,2.4,0,0,1-2.036.545,2.19,2.19,0,0,1-1.462-1.128,4.481,4.481,0,0,1-.793.984,2.79,2.79,0,0,1-1.94.822,2.444,2.444,0,0,1-.373-.029c-1.806-.248-2.791-2.236-2.59-3.937A4.566,4.566,0,0,1,25,16.683a3.749,3.749,0,0,1,2.982-.229,2.225,2.225,0,0,1,1.233,1.539.406.406,0,0,1,.019.105.428.428,0,0,1,.01.105,13.6,13.6,0,0,0,.248,1.883l.029.162a5.016,5.016,0,0,0,.277,1.089.433.433,0,0,0,.229.239.512.512,0,0,0,.4-.153,2.756,2.756,0,0,0,.774-2.647,5.187,5.187,0,1,0-3.622,6.393,5.887,5.887,0,0,0,1.051-.42.955.955,0,0,1,.889,1.692A7.242,7.242,0,0,1,28.092,27a6.887,6.887,0,0,1-1.911.268A7.059,7.059,0,0,1,22.692,26.344Z" transform="translate(-8.29 -9.41)"/></g></svg>