<svg xmlns="http://www.w3.org/2000/svg" xmlns:xlink="http://www.w3.org/1999/xlink" width="1920" height="816" viewBox="0 0 1920 816"><defs><style>.a{fill:url(#a);}.b{opacity:0.1;}.c,.d{fill:#4d9af6;}.c{opacity:0.51;}</style><linearGradient id="a" x1="0.5" y1="1" x2="0.5" y2="-0.295" gradientUnits="objectBoundingBox"><stop offset="0" stop-color="#1e365a"/><stop offset="1" stop-color="#022679"/></linearGradient></defs><g transform="translate(0 -80)"><rect class="a" width="1920" height="816" transform="translate(0 80)"/><g class="b" transform="translate(11.97 113)"><path class="c" d="M603.6,611.3c0-1.94-.08-3.86-.22-5.76l10.1-3.91a84.711,84.711,0,0,0-6.58-24.47l-10.71,1.64a75.057,75.057,0,0,0-5.81-10l6.79-8.41a86.38,86.38,0,0,0-18-17.91l-8.45,6.75a74.932,74.932,0,0,0-10-5.78l1.65-10.66a86.07,86.07,0,0,0-24.6-6.54l-3.92,10.05c-1.91-.14-3.85-.22-5.8-.22s-3.88.08-5.79.22l-3.93-10.05a86.16,86.16,0,0,0-24.6,6.54l1.65,10.66a75.442,75.442,0,0,0-10,5.78l-8.45-6.75a86.139,86.139,0,0,0-18,17.91l6.78,8.41a75,75,0,0,0-5.8,10l-10.72-1.64a84.7,84.7,0,0,0-6.57,24.47l10.1,3.91c-.15,1.9-.22,3.82-.22,5.76s.07,3.87.22,5.77l-10.1,3.9a84.85,84.85,0,0,0,6.57,24.48l10.72-1.65a75.109,75.109,0,0,0,5.8,10l-6.78,8.4a86.432,86.432,0,0,0,18,17.92l8.45-6.75a76.552,76.552,0,0,0,10,5.78l-1.65,10.65a85.508,85.508,0,0,0,24.6,6.54l3.93-10q2.87.21,5.79.21c2,0,3.89-.07,5.8-.21l3.92,10a85.421,85.421,0,0,0,24.6-6.54l-1.65-10.65a75.991,75.991,0,0,0,10-5.78l8.45,6.75a86.669,86.669,0,0,0,18-17.92l-6.79-8.4a75.166,75.166,0,0,0,5.81-10l10.71,1.65A84.862,84.862,0,0,0,613.48,621l-10.1-3.9C603.52,615.17,603.6,613.24,603.6,611.3Zm-75.6,58a58.021,58.021,0,1,1,0,.04Z" transform="translate(345.303 -133.5)"/><path class="d" d="M640.511,581.28c.12-23.365,27.762-42.253,61.787-42.22h279.87c34.182.033,61.957-18.937,62.093-42.41v-.45c.1-.912,1.208-1.618,2.541-1.618s2.44.705,2.541,1.618v.45c-.136,25.4-30.186,45.933-67.175,45.9H702.3c-31.249-.061-56.664,17.271-56.792,38.73C645.354,663.523,640.35,662.044,640.511,581.28Z" transform="translate(466.686 88.5)"/><path class="d" d="M505.37,726.34a1.344,1.344,0,0,1-.35,0c-52.65-10.72-90.86-57.36-90.86-110.9a1.75,1.75,0,1,1,3.49,0c0,51.89,37,97.1,88.06,107.48a1.75,1.75,0,0,1-.34,3.46Z" transform="translate(226.283 -0.5)"/><path class="d" d="M415.9,609.84a1.74,1.74,0,0,1-1.74-1.74v-1a1.75,1.75,0,0,1,3.49,0v1a1.74,1.74,0,0,1-1.75,1.74Zm0-6a1.74,1.74,0,0,1-1.74-1.74v-5a1.75,1.75,0,1,1,3.49,0v5a1.74,1.74,0,0,1-1.75,1.73Zm0-10a1.74,1.74,0,0,1-1.74-1.75v-5a1.75,1.75,0,0,1,3.49,0v5a1.75,1.75,0,0,1-1.75,1.78Zm-90.06-9.23a1.75,1.75,0,0,1-1.74-1.73v-.27a42.332,42.332,0,0,1,.29-4.92,1.75,1.75,0,0,1,3.47.42,37.349,37.349,0,0,0-.27,4.5v.25a1.74,1.74,0,0,1-1.74,1.75Zm90.06-.74a1.74,1.74,0,0,1-1.74-1.72,37.389,37.389,0,0,0-.36-4.74,1.742,1.742,0,1,1,3.45-.49,42.721,42.721,0,0,1,.4,5.19,1.74,1.74,0,0,1-1.73,1.76ZM327,574.78a1.591,1.591,0,0,1-.43-.06,1.72,1.72,0,0,1-1.26-2.11,39.268,39.268,0,0,1,1.6-5,1.742,1.742,0,0,1,3.24,1.28,38.523,38.523,0,0,0-1.46,4.53A1.75,1.75,0,0,1,327,574.78Zm87.48-.72a1.75,1.75,0,0,1-1.68-1.28,34.656,34.656,0,0,0-1.55-4.5,1.744,1.744,0,0,1,3.22-1.34,40.846,40.846,0,0,1,1.7,4.92,1.74,1.74,0,0,1-1.69,2.2Zm-83.83-8.53a1.83,1.83,0,0,1-.84-.21,1.74,1.74,0,0,1-.68-2.37,38.8,38.8,0,0,1,2.8-4.39,1.742,1.742,0,1,1,2.81,2.06,38.305,38.305,0,0,0-2.56,4,1.73,1.73,0,0,1-1.49.91Zm80-.63a1.75,1.75,0,0,1-1.51-.88,38.383,38.383,0,0,0-2.64-4,1.75,1.75,0,0,1,2.78-2.11,42.816,42.816,0,0,1,2.88,4.33,1.75,1.75,0,0,1-1.51,2.62Zm-74.14-7.39a1.78,1.78,0,0,1-1.2-.47,1.74,1.74,0,0,1-.06-2.47,38.567,38.567,0,0,1,3.8-3.54,1.745,1.745,0,0,1,2.21,2.7,38,38,0,0,0-3.48,3.24,1.75,1.75,0,0,1-1.22.54Zm68.12-.52a1.76,1.76,0,0,1-1.24-.52,38.064,38.064,0,0,0-3.54-3.18,1.744,1.744,0,1,1,2.16-2.74,42.4,42.4,0,0,1,3.87,3.47,1.75,1.75,0,0,1-1.25,3Zm-60.43-5.78a1.74,1.74,0,0,1-.93-3.22,41.872,41.872,0,0,1,4.56-2.48,1.75,1.75,0,0,1,1.47,3.17,36.007,36.007,0,0,0-4.18,2.27,1.74,1.74,0,0,1-.87.26Zm52.63-.38a1.72,1.72,0,0,1-.9-.25,37.476,37.476,0,0,0-4.22-2.19,1.742,1.742,0,1,1,1.4-3.19,39.564,39.564,0,0,1,4.62,2.39,1.74,1.74,0,0,1-.9,3.24ZM353.26,547a1.75,1.75,0,0,1-.53-3.41,39.928,39.928,0,0,1,5-1.26,1.744,1.744,0,0,1,.63,3.43,38.353,38.353,0,0,0-4.61,1.15,1.689,1.689,0,0,1-.49.09Zm34.53-.22a2.078,2.078,0,0,1-.5-.07,39,39,0,0,0-4.64-1.07,1.743,1.743,0,0,1,.56-3.44,41.375,41.375,0,0,1,5.07,1.16,1.75,1.75,0,0,1-.49,3.42ZM363,545.25a1.75,1.75,0,0,1-.09-3.49q1.14-.06,2.31-.06H368a1.75,1.75,0,1,1,0,3.49h-2.76c-.71,0-1.42,0-2.12.06Zm15,0h-5a1.75,1.75,0,1,1,0-3.49h5.04a1.74,1.74,0,1,1-.06,3.48Z" transform="translate(63.171 -35.5)"/><path class="d" d="M326.25,647.12a1.75,1.75,0,0,1-1.74-1.74l-.35-53.18a1.73,1.73,0,0,1,1.73-1.75h0a1.75,1.75,0,0,1,1.74,1.73l.35,53.18a1.76,1.76,0,0,1-1.74,1.76Z" transform="translate(152.442 -0.5)"/><path class="d" d="M284.57,698.07a1.75,1.75,0,0,1,0-3.49,42,42,0,0,0,4.76-.36,1.741,1.741,0,0,1,.47,3.45,44.476,44.476,0,0,1-5.16.4Zm-5-.12h-.14a46.5,46.5,0,0,1-5.13-.69,1.75,1.75,0,0,1,.66-3.43,39.694,39.694,0,0,0,4.74.64,1.741,1.741,0,0,1-.13,3.48Zm14.82-1.22a1.74,1.74,0,0,1-.43-3.43,38.242,38.242,0,0,0,4.55-1.46,1.75,1.75,0,0,1,1.26,3.26,44.99,44.99,0,0,1-4.94,1.58,1.65,1.65,0,0,1-.41.05Zm-24.58-.68a1.892,1.892,0,0,1-.53-.08,44.363,44.363,0,0,1-4.84-1.87,1.743,1.743,0,1,1,1.45-3.17,43.511,43.511,0,0,0,4.45,1.72,1.74,1.74,0,0,1-.53,3.4Zm33.86-2.9a1.75,1.75,0,0,1-.82-3.29,40.46,40.46,0,0,0,4.09-2.48,1.753,1.753,0,0,1,2,2.88,45.355,45.355,0,0,1-4.43,2.68,1.72,1.72,0,0,1-.81.21Zm-42.91-1.22a1.72,1.72,0,0,1-.9-.25,44.3,44.3,0,0,1-4.27-2.94,1.742,1.742,0,1,1,2.14-2.75,40.481,40.481,0,0,0,3.94,2.71,1.74,1.74,0,0,1-.91,3.23Zm51.1-4.43a1.74,1.74,0,0,1-1.15-3,41.445,41.445,0,0,0,3.4-3.36,1.75,1.75,0,0,1,2.59,2.34,45.277,45.277,0,0,1-3.69,3.64,1.73,1.73,0,0,1-1.12.38ZM253,685.83a1.72,1.72,0,0,1-1.23-.5,45.321,45.321,0,0,1-3.47-3.85,1.74,1.74,0,1,1,2.7-2.18,39.77,39.77,0,0,0,3.2,3.54,1.74,1.74,0,0,1,0,2.47A1.72,1.72,0,0,1,253,685.83Zm65.59-5.71a1.7,1.7,0,0,1-1-.32,1.75,1.75,0,0,1-.42-2.43,41.487,41.487,0,0,0,2.53-4,1.743,1.743,0,1,1,3.06,1.67,43.59,43.59,0,0,1-2.74,4.4,1.74,1.74,0,0,1-1.48.68Zm-71.81-2a1.73,1.73,0,0,1-1.48-.82,43.776,43.776,0,0,1-2.49-4.55,1.742,1.742,0,1,1,3.15-1.49,42.545,42.545,0,0,0,2.29,4.19,1.75,1.75,0,0,1-1.47,2.67Zm76.57-6.68a1.71,1.71,0,0,1-.65-.13,1.74,1.74,0,0,1-1-2.26,40.77,40.77,0,0,0,1.51-4.53,1.744,1.744,0,1,1,3.37.9,44.347,44.347,0,0,1-1.64,4.92,1.75,1.75,0,0,1-1.64,1.06Zm-80.82-2.32a1.73,1.73,0,0,1-1.65-1.19,43,43,0,0,1-1.35-5,1.75,1.75,0,1,1,3.42-.7,39.218,39.218,0,0,0,1.24,4.61A1.74,1.74,0,0,1,243,669a1.76,1.76,0,0,1-.52.08Zm83.4-7.28h-.25a1.74,1.74,0,0,1-1.48-2,39.85,39.85,0,0,0,.4-4.76,1.79,1.79,0,0,1,1.79-1.7,1.76,1.76,0,0,1,1.7,1.79,44.336,44.336,0,0,1-.44,5.16,1.74,1.74,0,0,1-1.77,1.47Z" transform="translate(100.345 -27.5)"/><path class="d" d="M240.32,655.74a1.74,1.74,0,0,1-1.74-1.75V591.2a1.75,1.75,0,0,1,3.49,0V654a1.75,1.75,0,0,1-1.75,1.74Z" transform="translate(0 -0.5)"/><path class="d" d="M240.32,584.39a1.74,1.74,0,0,1-1.74-1.75,37.521,37.521,0,0,0-.271-4.509,1.743,1.743,0,0,1,3.461-.411,40.361,40.361,0,0,1,.3,4.92,1.75,1.75,0,0,1-1.75,1.75Zm-79.6,0a1.75,1.75,0,0,1-1.75-1.75,40.59,40.59,0,0,1,.33-5.18,1.744,1.744,0,0,1,3.46.44,37.343,37.343,0,0,0-.3,4.74,1.74,1.74,0,0,1-1.74,1.75Zm78.41-9.61a1.75,1.75,0,0,1-1.69-1.32,37.785,37.785,0,0,0-1.46-4.52,1.742,1.742,0,0,1,3.24-1.28,38.594,38.594,0,0,1,1.6,5,1.75,1.75,0,0,1-1.26,2.12A2.1,2.1,0,0,1,239.13,574.78ZM162,574.53a2.279,2.279,0,0,1-.44,0,1.76,1.76,0,0,1-1.25-2.13,40.271,40.271,0,0,1,1.64-4.94,1.741,1.741,0,0,1,3.23,1.3,37.93,37.93,0,0,0-1.49,4.52,1.74,1.74,0,0,1-1.69,1.25Zm73.51-9a1.74,1.74,0,0,1-1.53-.9,36.749,36.749,0,0,0-2.56-4,1.75,1.75,0,0,1,2.82-2.06A41.82,41.82,0,0,1,237,563a1.75,1.75,0,0,1-.69,2.37,1.77,1.77,0,0,1-.83.17Zm-69.79-.23a1.74,1.74,0,0,1-1.52-2.6,39.6,39.6,0,0,1,2.83-4.36,1.744,1.744,0,1,1,2.8,2.08,35.814,35.814,0,0,0-2.59,4,1.74,1.74,0,0,1-1.55.89Zm63.93-7.79a1.73,1.73,0,0,1-1.27-.54,39.589,39.589,0,0,0-3.48-3.25,1.74,1.74,0,0,1-.25-2.45,1.76,1.76,0,0,1,2.46-.24,39.8,39.8,0,0,1,3.8,3.54,1.75,1.75,0,0,1-.07,2.47,1.69,1.69,0,0,1-1.22.48Zm-58-.19a1.75,1.75,0,0,1-1.26-3,42.475,42.475,0,0,1,3.83-3.52,1.742,1.742,0,0,1,2.19,2.71,38.152,38.152,0,0,0-3.5,3.22,1.73,1.73,0,0,1-1.3.6Zm50.32-6.11A1.76,1.76,0,0,1,221,551a38.308,38.308,0,0,0-4.18-2.27,1.743,1.743,0,1,1,1.47-3.16,39.522,39.522,0,0,1,4.57,2.48,1.74,1.74,0,0,1-.93,3.22Zm-42.59-.14a1.74,1.74,0,0,1-.92-3.23A41.928,41.928,0,0,1,183,545.4a1.75,1.75,0,1,1,1.44,3.18,36.7,36.7,0,0,0-4.19,2.24,1.68,1.68,0,0,1-.91.26Zm33.57-4a1.579,1.579,0,0,1-.52-.09,40.508,40.508,0,0,0-4.62-1.15,1.73,1.73,0,0,1-1.4-2,1.75,1.75,0,0,1,2-1.41,41.733,41.733,0,0,1,5,1.26,1.692,1.692,0,0,1-.5,3.32ZM188.37,547a1.74,1.74,0,0,1-.51-3.41,40.846,40.846,0,0,1,5-1.22,1.741,1.741,0,1,1,.6,3.43,38.4,38.4,0,0,0-4.62,1.12,1.882,1.882,0,0,1-.47.08Zm14.77-1.71H198.2a1.742,1.742,0,1,1-.17-3.48h2.85q1.17,0,2.31.06a1.75,1.75,0,0,1-.09,3.49Z" transform="translate(0 -0.5)"/><path class="d" d="M160.72,749.5a1.74,1.74,0,0,1-1.75-1.74V591.2a1.75,1.75,0,1,1,3.49,0V747.76A1.74,1.74,0,0,1,160.72,749.5Z" transform="translate(0 -0.5)"/><path class="d" d="M217.7,373.88a1.74,1.74,0,0,1-1.74-1.74v-5a1.75,1.75,0,0,1,3.49,0v5a1.74,1.74,0,0,1-1.75,1.74Zm0-10h-.08a1.74,1.74,0,0,1-1.66-1.82,39.1,39.1,0,0,1,.59-5.18,1.744,1.744,0,1,1,3.43.63,35.361,35.361,0,0,0-.53,4.71,1.76,1.76,0,0,1-1.71,1.7Zm1.78-9.78a1.73,1.73,0,0,1-.54-.08,1.75,1.75,0,0,1-1.11-2.2,36.8,36.8,0,0,1,1.95-4.84,1.744,1.744,0,1,1,3.14,1.52,35.52,35.52,0,0,0-1.78,4.4,1.73,1.73,0,0,1-1.62,1.24Zm4.33-8.93a1.79,1.79,0,0,1-1-.29,1.75,1.75,0,0,1-.49-2.42,39.787,39.787,0,0,1,3.17-4.14,1.743,1.743,0,1,1,2.62,2.3,36.125,36.125,0,0,0-2.88,3.77,1.77,1.77,0,0,1-1.38.82Zm6.56-7.47a1.74,1.74,0,0,1-1.15-3.06,39.708,39.708,0,0,1,4.14-3.16,1.75,1.75,0,1,1,1.93,2.91,35.209,35.209,0,0,0-3.78,2.88,1.73,1.73,0,0,1-1.1.47Zm8.28-5.48a1.76,1.76,0,0,1-1.57-1,1.74,1.74,0,0,1,.81-2.33,39.78,39.78,0,0,1,4.84-1.95,1.741,1.741,0,0,1,1.08,3.31,35.52,35.52,0,0,0-4.4,1.78,1.7,1.7,0,0,1-.72.23Zm9.44-3.1a1.74,1.74,0,0,1-.31-3.46,39,39,0,0,1,5.17-.6,1.742,1.742,0,0,1,.18,3.48,35.52,35.52,0,0,0-4.72.55,1.729,1.729,0,0,1-.28.07Zm24.88-.63h-5a1.74,1.74,0,0,1,0-3.48h5a1.74,1.74,0,0,1,0,3.48Zm-10,0h-5a1.74,1.74,0,0,1,0-3.48h5a1.74,1.74,0,0,1,0,3.48Z" transform="translate(21.6 -26.5)"/><path class="d" d="M774.23,328.53H277.67a1.74,1.74,0,0,1,0-3.48H774.23a1.74,1.74,0,0,1,0,3.48Z" transform="translate(144.607 -37.5)"/><path class="d" d="M1248.26,89.43h-95.79a1.75,1.75,0,1,1,0-3.49h95.79a1.75,1.75,0,0,1,0,3.49Z" transform="translate(632.152 -0.5)"/><path class="d" d="M535.82,507.88a1.74,1.74,0,0,1-1.74-1.75V482.82a49.69,49.69,0,0,0-49.77-49.5H235.05a1.75,1.75,0,1,1,0-3.49H484.31a53.18,53.18,0,0,1,53.26,53v23.31a1.75,1.75,0,0,1-1.75,1.74Z" transform="translate(155.883 32.5)"/><path class="d" d="M877.58,85.87h-2.43a1.74,1.74,0,0,1,0-3.48h2.43a1.74,1.74,0,1,1,0,3.48Zm-7.41,0h-5a1.74,1.74,0,0,1,0-3.48h5a1.74,1.74,0,0,1,0,3.48Zm-10,0h-1.46c-1.21,0-2.43,0-3.63-.11a1.743,1.743,0,0,1,.22-3.48c1.12.07,2.27.11,3.41.11h1.46a1.74,1.74,0,0,1,0,3.48Zm-9.93-.64a1.24,1.24,0,0,1-.27,0c-1.69-.26-3.38-.6-5-1a1.75,1.75,0,0,1,.85-3.39c1.55.39,3.14.71,4.73,1a1.75,1.75,0,0,1-.27,3.47Zm-9.65-2.42a1.69,1.69,0,0,1-.58-.1c-1.61-.56-3.21-1.2-4.77-1.91a1.75,1.75,0,0,1,1.45-3.18c1.46.67,3,1.27,4.47,1.8a1.74,1.74,0,0,1-.57,3.39Zm-9-4.13a1.69,1.69,0,0,1-.87-.23c-1.48-.84-2.94-1.77-4.34-2.75a1.745,1.745,0,1,1,2-2.86c1.31.92,2.68,1.79,4.07,2.58a1.74,1.74,0,0,1-.86,3.26ZM823.41,73a1.78,1.78,0,0,1-1.12-.41c-1.3-1.1-2.57-2.28-3.77-3.49A1.75,1.75,0,0,1,821,66.63c1.13,1.14,2.32,2.24,3.54,3.27a1.75,1.75,0,0,1-1.13,3.1Zm-7-7.09a1.72,1.72,0,0,1-1.35-.63C814,63.93,813,62.55,812,61.14a1.757,1.757,0,0,1,2.89-2c.9,1.32,1.87,2.62,2.89,3.86a1.74,1.74,0,0,1-1.35,2.85Zm-5.59-8.23a1.74,1.74,0,0,1-1.52-.9,49.551,49.551,0,0,1-2.28-4.62,1.744,1.744,0,0,1,3.2-1.39c.64,1.47,1.36,2.92,2.13,4.32a1.75,1.75,0,0,1-1.53,2.59Zm-4-9.12a1.77,1.77,0,0,1-1.66-1.2c-.53-1.62-1-3.28-1.38-5a1.744,1.744,0,0,1,3.4-.78c.36,1.56.79,3.12,1.3,4.64a1.75,1.75,0,0,1-1.66,2.29Zm-2.24-9.7a1.73,1.73,0,0,1-1.72-1.51c-.23-1.69-.38-3.41-.46-5.12a1.75,1.75,0,0,1,3.49-.14c.07,1.6.21,3.21.42,4.8a1.74,1.74,0,0,1-1.49,2Zm-.48-9.94a1.74,1.74,0,0,1-1.75-1.74v-5a1.75,1.75,0,0,1,3.49,0v5a1.74,1.74,0,0,1-1.7,1.72Zm0-10a1.75,1.75,0,0,1-1.75-1.75v-5a1.75,1.75,0,1,1,3.49,0v5a1.74,1.74,0,0,1-1.7,1.77Zm0-10a1.74,1.74,0,0,1-1.75-1.74v-5a1.75,1.75,0,0,1,3.49,0v5A1.74,1.74,0,0,1,804.14,9Z" transform="translate(432.43 -0.5)"/><path class="d" d="M36.67,468.39a1.75,1.75,0,0,1-1.75-1.75V296.92a46.2,46.2,0,0,1,46.26-46h.45a1.75,1.75,0,1,1,0,3.49h-.45a42.7,42.7,0,0,0-42.77,42.54V466.64a1.74,1.74,0,0,1-1.74,1.75Z" transform="translate(0 -0.5)"/><path class="d" d="M283.17,131.72a1.74,1.74,0,0,1-1.74-1.75V99.67C281.43,46.91,238.28,4,185.24,4h-1a1.75,1.75,0,0,1,0-3.49h1c55,0,99.68,44.49,99.68,99.17V130A1.75,1.75,0,0,1,283.17,131.72Z" transform="translate(26 -0.5)"/><path class="d" d="M39.73,747.55A1.74,1.74,0,0,1,38,745.81v-5a1.75,1.75,0,0,1,3.49,0v5a1.74,1.74,0,0,1-1.76,1.74Zm0-10A1.74,1.74,0,0,1,38,735.84v-5a1.75,1.75,0,1,1,3.49,0v5a1.74,1.74,0,0,1-1.76,1.74Zm0-10A1.74,1.74,0,0,1,38,725.87v-5a1.75,1.75,0,0,1,3.49,0v5a1.75,1.75,0,0,1-1.76,1.75Zm0-10A1.74,1.74,0,0,1,38,715.91v-5a1.75,1.75,0,0,1,3.49,0v5a1.74,1.74,0,0,1-1.76,1.74Zm0-10A1.74,1.74,0,0,1,38,705.94v-5a1.75,1.75,0,1,1,3.49,0v5a1.75,1.75,0,0,1-1.76,1.75Zm0-10A1.74,1.74,0,0,1,38,696v-5a1.75,1.75,0,0,1,3.49,0v5a1.74,1.74,0,0,1-1.76,1.72Zm0-10A1.74,1.74,0,0,1,38,686v-5a1.75,1.75,0,1,1,3.49,0v5a1.74,1.74,0,0,1-1.76,1.75Zm0-10A1.74,1.74,0,0,1,38,676v-5a1.75,1.75,0,0,1,3.49,0v5a1.75,1.75,0,0,1-1.76,1.79Zm0-10A1.74,1.74,0,0,1,38,666.08v-5a1.75,1.75,0,0,1,3.49,0v5a1.74,1.74,0,0,1-1.76,1.74Zm0-10A1.75,1.75,0,0,1,38,656.11v-5a1.75,1.75,0,1,1,3.49,0v5a1.75,1.75,0,0,1-1.76,1.75Zm0-10a1.74,1.74,0,0,1-1.73-1.4v-5a1.75,1.75,0,0,1,3.49,0v5a1.74,1.74,0,0,1-1.76,1.74Zm0-10A1.74,1.74,0,0,1,38,636.18v-5a1.75,1.75,0,1,1,3.49,0v5a1.74,1.74,0,0,1-1.76,1.74Z" transform="translate(0 -0.5)"/><path class="d" d="M389.85,66.55a38.141,38.141,0,0,1-4.14-.22,1.745,1.745,0,0,1,.37-3.47c1.25.14,2.51.18,3.78.2h1a1.75,1.75,0,0,1,0,3.49h-1Zm6-.36a1.74,1.74,0,0,1-.24-3.47,35.111,35.111,0,0,0,4.64-1,1.75,1.75,0,0,1,.95,3.36,38.839,38.839,0,0,1-5.1,1.07ZM381,65.49a1.84,1.84,0,0,1-.41,0,38.849,38.849,0,0,1-5-1.59,1.742,1.742,0,0,1,1.28-3.24,36,36,0,0,0,4.52,1.44,1.75,1.75,0,0,1-.42,3.44Zm24.41-2a1.74,1.74,0,0,1-.7-3.34,35.77,35.77,0,0,0,4.2-2.15,1.752,1.752,0,1,1,1.81,3,38.285,38.285,0,0,1-4.63,2.4,1.72,1.72,0,0,1-.69.09Zm-33.65-1.65a1.74,1.74,0,0,1-.85-.22,39.347,39.347,0,0,1-4.36-2.85,1.75,1.75,0,0,1,2.1-2.79,34.659,34.659,0,0,0,4,2.59,1.75,1.75,0,0,1-.86,3.27Zm42.14-3.51a1.74,1.74,0,0,1-1.1-3.1A35.388,35.388,0,0,0,416.27,52a1.744,1.744,0,1,1,2.54,2.39A38.775,38.775,0,0,1,415,57.94a1.7,1.7,0,0,1-1.11.39Zm-50.07-2.47a1.75,1.75,0,0,1-1.22-.5,37.538,37.538,0,0,1-3.45-3.91,1.743,1.743,0,0,1,2.76-2.13,35.372,35.372,0,0,0,3.14,3.56,1.74,1.74,0,0,1-1.23,3Zm56.88-4.75a1.75,1.75,0,0,1-1.41-2.76,35.634,35.634,0,0,0,2.49-4,1.742,1.742,0,1,1,3.08,1.63,39.851,39.851,0,0,1-2.74,4.44,1.75,1.75,0,0,1-1.43.69ZM357.77,48a1.73,1.73,0,0,1-1.52-.88,38.3,38.3,0,0,1-2.25-4.7,1.75,1.75,0,0,1,3.24-1.31,34.275,34.275,0,0,0,2.07,4.27,1.74,1.74,0,0,1-.65,2.38A1.68,1.68,0,0,1,357.77,48Zm67.57-5.66a1.81,1.81,0,0,1-.6-.11,1.74,1.74,0,0,1-1-2.23A34.839,34.839,0,0,0,425,35.43a1.745,1.745,0,1,1,3.41.74,39.77,39.77,0,0,1-1.44,5,1.75,1.75,0,0,1-1.63,1.16ZM354,38.77a1.74,1.74,0,0,1-1.69-1.31,38.678,38.678,0,0,1-.92-5.14,1.75,1.75,0,0,1,3.47-.38,33.2,33.2,0,0,0,.84,4.66,1.75,1.75,0,0,1-1.27,2.12A1.58,1.58,0,0,1,354,38.77Zm73.39-6.15h-.14a1.73,1.73,0,0,1-1.6-1.87c.06-.88.1-1.78.1-2.66v-2.2a1.74,1.74,0,1,1,3.48,0v2.19a25.217,25.217,0,0,1-.11,2.92,1.74,1.74,0,0,1-1.69,1.62ZM352.94,28.9a1.74,1.74,0,0,1-1.74-1.74v-5a1.74,1.74,0,1,1,3.48,0v5A1.74,1.74,0,0,1,352.94,28.9Zm74.59-6.25a1.74,1.74,0,0,1-1.74-1.74v-5a1.74,1.74,0,1,1,3.48,0v5a1.74,1.74,0,0,1-1.74,1.74Zm-74.59-3.71a1.74,1.74,0,0,1-1.74-1.75v-5a1.74,1.74,0,1,1,3.48,0v5a1.74,1.74,0,0,1-1.74,1.75Zm74.59-6.25a1.74,1.74,0,0,1-1.74-1.75V6a1.74,1.74,0,1,1,3.48,0v5a1.74,1.74,0,0,1-1.74,1.69ZM352.94,9a1.74,1.74,0,0,1-1.74-1.74v-5a1.74,1.74,0,1,1,3.48,0v5A1.74,1.74,0,0,1,352.94,9Z" transform="translate(189.45 -0.5)"/><path class="d" d="M543.88,131.72h-14.6a38.61,38.61,0,0,1-38.66-38.48v-91a1.74,1.74,0,1,1,3.48,0v91a35.13,35.13,0,0,0,35.18,35h14.6a35.13,35.13,0,0,0,35.18-35v-91a1.74,1.74,0,1,1,3.48,0v91A38.61,38.61,0,0,1,543.88,131.72Z" transform="translate(267.83 -0.5)"/><path class="d" d="M543.88,131.72h-14.6a38.61,38.61,0,0,1-38.66-38.48v-91a1.74,1.74,0,1,1,3.48,0v91a35.13,35.13,0,0,0,35.18,35h14.6a35.13,35.13,0,0,0,35.18-35v-91a1.74,1.74,0,1,1,3.48,0v91A38.61,38.61,0,0,1,543.88,131.72Z" transform="translate(1843.52 -59.97) rotate(90)"/><path class="d" d="M686.2,79.44a1.74,1.74,0,1,1-.08-3.48,35.4,35.4,0,0,0,4.71-.56,1.745,1.745,0,1,1,.64,3.43,39,39,0,0,1-5.18.61Zm-5,0h-.1a39,39,0,0,1-5.17-.62,1.745,1.745,0,1,1,.64-3.43,37.087,37.087,0,0,0,4.72.57,1.741,1.741,0,1,1-.09,3.48ZM696,77.62a1.74,1.74,0,0,1-.55-3.4,35.731,35.731,0,0,0,4.39-1.79,1.744,1.744,0,0,1,1.54,3.13,38.824,38.824,0,0,1-4.83,2,1.81,1.81,0,0,1-.55.06Zm-24.51,0a1.81,1.81,0,0,1-.55-.09,38.737,38.737,0,0,1-4.82-2,1.74,1.74,0,0,1-.8-2.33,1.76,1.76,0,0,1,2.34-.8A34.738,34.738,0,0,0,672,74.2a1.74,1.74,0,0,1-.55,3.4Zm33.44-4.35a1.74,1.74,0,0,1-1-3.19,36.51,36.51,0,0,0,3.76-2.9A1.74,1.74,0,0,1,710,69.77,38.31,38.31,0,0,1,705.87,73a1.76,1.76,0,0,1-.97.25Zm-42.35,0a1.72,1.72,0,0,1-1-.29,38.689,38.689,0,0,1-4.12-3.19,1.743,1.743,0,1,1,2.31-2.61,35,35,0,0,0,3.75,2.9,1.74,1.74,0,0,1-1,3.19Zm49.78-6.56a1.77,1.77,0,0,1-1.14-.42,1.74,1.74,0,0,1-.18-2.46A36.085,36.085,0,0,0,713.86,60a1.742,1.742,0,1,1,2.92,1.9,38.119,38.119,0,0,1-3.13,4.17,1.72,1.72,0,0,1-1.32.59Zm-57.21,0A1.75,1.75,0,0,1,653.8,66a38.353,38.353,0,0,1-3.12-4.17A1.74,1.74,0,0,1,653.6,60a36.2,36.2,0,0,0,2.85,3.8,1.75,1.75,0,0,1-1.33,2.88Zm62.62-8.29a1.78,1.78,0,0,1-.74-.17,1.75,1.75,0,0,1-.84-2.32,33.465,33.465,0,0,0,1.73-4.42,1.74,1.74,0,0,1,2.18-1.14,1.76,1.76,0,0,1,1.15,2.19,39.435,39.435,0,0,1-1.9,4.86,1.74,1.74,0,0,1-1.61.92Zm-68-.05a1.75,1.75,0,0,1-1.58-1,38.906,38.906,0,0,1-1.89-4.87,1.74,1.74,0,0,1,3.33-1,34.278,34.278,0,0,0,1.72,4.42,1.74,1.74,0,0,1-.84,2.32,1.63,1.63,0,0,1-.79.05Zm71-9.43h-.29a1.74,1.74,0,0,1-1.43-2,35.594,35.594,0,0,0,.47-4.72,1.71,1.71,0,0,1,1.79-1.69A1.74,1.74,0,0,1,723,42.32a37.391,37.391,0,0,1-.51,5.19,1.75,1.75,0,0,1-1.78,1.35Zm-74-.06a1.74,1.74,0,0,1-1.71-1.45,37.7,37.7,0,0,1-.51-5.19,1.75,1.75,0,1,1,3.49-.1,33.687,33.687,0,0,0,.46,4.71,1.76,1.76,0,0,1-1.44,2,1.37,1.37,0,0,1-.3-.05ZM721.23,39a1.74,1.74,0,0,1-1.75-1.74v-5a1.75,1.75,0,0,1,3.49,0v5a1.74,1.74,0,0,1-1.75,1.66Zm-75-.05a1.75,1.75,0,0,1-1.75-1.75v-5a1.75,1.75,0,0,1,3.49,0v5a1.74,1.74,0,0,1-1.7,1.67Zm75-9.91a1.75,1.75,0,0,1-1.75-1.75v-5a1.75,1.75,0,1,1,3.49,0v5A1.75,1.75,0,0,1,721.22,29Zm-75-.06a1.74,1.74,0,0,1-1.75-1.74v-5a1.75,1.75,0,0,1,3.49,0v5a1.74,1.74,0,0,1-1.7,1.66Zm75-9.91a1.74,1.74,0,0,1-1.75-1.74v-5a1.75,1.75,0,0,1,3.49,0v5A1.74,1.74,0,0,1,721.22,19Zm-75,0a1.75,1.75,0,0,1-1.75-1.75v-5a1.75,1.75,0,1,1,3.49,0v5a1.74,1.74,0,0,1-1.7,1.62Zm75-9.92a1.74,1.74,0,0,1-1.75-1.74v-5a1.75,1.75,0,1,1,3.49,0v5A1.74,1.74,0,0,1,721.22,9Zm-75,0a1.74,1.74,0,0,1-1.75-1.74v-5a1.75,1.75,0,0,1,3.49,0v5A1.74,1.74,0,0,1,646.27,9Z" transform="translate(347.801 -0.5)"/><path class="d" d="M712.7,743.48a1.74,1.74,0,0,1-1.74-1.74v-2.61a1.75,1.75,0,0,1,3.49,0v2.61A1.75,1.75,0,0,1,712.7,743.48Zm0-7.59a1.74,1.74,0,0,1-1.74-1.74v-5a1.75,1.75,0,1,1,3.49,0v5a1.75,1.75,0,0,1-1.75,1.74Zm0-10a1.74,1.74,0,0,1-1.74-1.75v-5a1.75,1.75,0,0,1,3.49,0v5a1.75,1.75,0,0,1-1.75,1.79Zm0-10a1.74,1.74,0,0,1-1.74-1.74v-5a1.75,1.75,0,0,1,3.49,0v5A1.75,1.75,0,0,1,712.7,716Zm0-10a1.74,1.74,0,0,1-1.74-1.74v-5a1.75,1.75,0,1,1,3.49,0v5A1.75,1.75,0,0,1,712.7,706Zm0-10a1.74,1.74,0,0,1-1.74-1.75v-5a1.75,1.75,0,0,1,3.49,0v5A1.75,1.75,0,0,1,712.7,696Zm0-10a1.74,1.74,0,0,1-1.74-1.74v-5a1.75,1.75,0,0,1,3.49,0v5a1.75,1.75,0,0,1-1.75,1.91Zm0-10a1.75,1.75,0,0,1-1.74-1.75v-5a1.75,1.75,0,1,1,3.49,0v5a1.76,1.76,0,0,1-1.75,1.96Zm0-10a1.74,1.74,0,0,1-1.74-1.74v-5a1.75,1.75,0,0,1,3.49,0v5a1.75,1.75,0,0,1-1.75,1.98Zm0-10a1.74,1.74,0,0,1-1.74-1.74v-5a1.75,1.75,0,1,1,3.49,0v5a1.75,1.75,0,0,1-1.75,2.01Zm0-10a1.74,1.74,0,0,1-1.74-1.75v-5a1.75,1.75,0,0,1,3.49,0v5a1.75,1.75,0,0,1-1.75,2.06Zm0-10a1.74,1.74,0,0,1-1.74-1.74v-5a1.75,1.75,0,0,1,3.49,0v5a1.75,1.75,0,0,1-1.75,2.08Zm0-10a1.75,1.75,0,0,1-1.74-1.75v-5a1.75,1.75,0,1,1,3.49,0v5a1.76,1.76,0,0,1-1.75,2.13Zm0-10a1.74,1.74,0,0,1-1.74-1.74v-5a1.75,1.75,0,0,1,3.49,0v5a1.75,1.75,0,0,1-1.75,2.15Zm0-10a1.74,1.74,0,0,1-1.74-1.74v-5a1.75,1.75,0,1,1,3.49,0v5a1.75,1.75,0,0,1-1.75,2.18Zm0-10a1.74,1.74,0,0,1-1.74-1.75v-5a1.75,1.75,0,0,1,3.49,0v5a1.75,1.75,0,0,1-1.75,2.23Z" transform="translate(276.602 -0.5)"/><path class="d" d="M810.13,749.5a1.74,1.74,0,0,1-1.74-1.74v-5a1.75,1.75,0,0,1,3.49,0v5a1.74,1.74,0,0,1-1.75,1.74Zm107.93-4a1.74,1.74,0,0,1-1.74-1.74v-5a1.74,1.74,0,1,1,3.48,0v5a1.74,1.74,0,0,1-1.74,1.7Zm-107.93-5.92a1.75,1.75,0,0,1-1.74-1.75v-5a1.75,1.75,0,1,1,3.49,0v5a1.75,1.75,0,0,1-1.75,1.71Zm107.93-4a1.74,1.74,0,0,1-1.74-1.75v-5a1.74,1.74,0,1,1,3.48,0v5a1.74,1.74,0,0,1-1.74,1.67Zm-107.93-5.93a1.74,1.74,0,0,1-1.74-1.74v-5a1.75,1.75,0,0,1,3.49,0v5a1.74,1.74,0,0,1-1.75,1.66Zm107.93-4a1.74,1.74,0,0,1-1.74-1.74v-5a1.74,1.74,0,1,1,3.48,0v5a1.74,1.74,0,0,1-1.74,1.62ZM810.13,719.6a1.74,1.74,0,0,1-1.74-1.74v-5a1.75,1.75,0,1,1,3.49,0v5a1.74,1.74,0,0,1-1.75,1.74Zm107.93-4a1.74,1.74,0,0,1-1.74-1.74v-5a1.74,1.74,0,1,1,3.48,0v5a1.74,1.74,0,0,1-1.74,1.7Zm-107.93-5.92a1.74,1.74,0,0,1-1.74-1.75v-5a1.75,1.75,0,0,1,3.49,0v5a1.75,1.75,0,0,1-1.75,1.71Zm107.93-4a1.74,1.74,0,0,1-1.74-1.75v-5a1.74,1.74,0,1,1,3.48,0v5a1.74,1.74,0,0,1-1.74,1.67Zm-107.93-5.93h0a1.74,1.74,0,0,1-1.74-1.74c0-1.72.08-3.44.24-5.14a1.743,1.743,0,0,1,3.47.33c-.14,1.58-.22,3.2-.22,4.81a1.74,1.74,0,0,1-1.75,1.66Zm107.77-4a1.74,1.74,0,0,1-1.73-1.62c-.12-1.59-.32-3.2-.59-4.77a1.74,1.74,0,1,1,3.43-.59c.29,1.68.51,3.39.64,5.1a1.75,1.75,0,0,1-1.61,1.87Zm-106.83-5.87h-.33a1.75,1.75,0,0,1-1.39-2c.32-1.68.73-3.36,1.2-5a1.75,1.75,0,0,1,3.35,1c-.44,1.53-.82,3.11-1.12,4.68a1.74,1.74,0,0,1-1.71,1.21Zm105.15-3.94a1.74,1.74,0,0,1-1.68-1.28c-.42-1.55-.92-3.09-1.48-4.59a1.75,1.75,0,0,1,3.27-1.22c.6,1.59,1.13,3.24,1.58,4.89a1.75,1.75,0,0,1-1.23,2.14,1.82,1.82,0,0,1-.46-.05Zm-102.38-5.62a1.811,1.811,0,0,1-.64-.12,1.73,1.73,0,0,1-1-2.26c.63-1.59,1.34-3.17,2.12-4.69a1.744,1.744,0,0,1,3.11,1.58c-.73,1.43-1.4,2.9-2,4.39a1.74,1.74,0,0,1-1.59.99Zm98.88-3.69a1.73,1.73,0,0,1-1.56-1c-.7-1.43-1.48-2.85-2.32-4.22a1.754,1.754,0,1,1,3-1.82c.89,1.46,1.72,3,2.47,4.51a1.75,1.75,0,0,1-.8,2.33,1.771,1.771,0,0,1-.79.09Zm-94.36-5.17a1.74,1.74,0,0,1-1.47-2.68,46.758,46.758,0,0,1,3-4.21,1.75,1.75,0,0,1,2.76,2.14,45.852,45.852,0,0,0-2.77,3.94,1.77,1.77,0,0,1-1.52.7ZM907.54,668a1.75,1.75,0,0,1-1.4-.7c-.95-1.28-2-2.53-3.06-3.72a1.75,1.75,0,1,1,2.59-2.34,48.7,48.7,0,0,1,3.27,4,1.74,1.74,0,0,1-.36,2.44,1.69,1.69,0,0,1-1.04.32Zm-83.08-4.54a1.7,1.7,0,0,1-1.19-.48,1.73,1.73,0,0,1-.08-2.46c1.16-1.25,2.4-2.45,3.68-3.59a1.75,1.75,0,0,1,2.32,2.61c-1.2,1.07-2.36,2.2-3.46,3.36a1.73,1.73,0,0,1-1.27.59Zm76.41-2.84a1.72,1.72,0,0,1-1.18-.46c-1.18-1.08-2.42-2.12-3.7-3.09a1.75,1.75,0,0,1,2.11-2.78,47.289,47.289,0,0,1,3.95,3.3,1.74,1.74,0,0,1,.1,2.46,1.71,1.71,0,0,1-1.28.6Zm-69-3.77a1.72,1.72,0,0,1-1.41-.71,1.75,1.75,0,0,1,.37-2.44,48.212,48.212,0,0,1,4.29-2.84,1.747,1.747,0,1,1,1.79,3c-1.37.82-2.72,1.72-4,2.67a1.8,1.8,0,0,1-1,.35Zm61-2.25a1.76,1.76,0,0,1-.93-.27c-1.35-.84-2.77-1.64-4.2-2.35a1.744,1.744,0,0,1,1.56-3.12c1.53.76,3,1.61,4.49,2.51a1.75,1.75,0,0,1-.92,3.23Zm-52.51-2.85a1.75,1.75,0,0,1-.75-3.32c1.54-.74,3.14-1.41,4.74-2a1.742,1.742,0,1,1,1.2,3.27,48.024,48.024,0,0,0-4.44,1.88,1.79,1.79,0,0,1-.67.2Zm43.61-1.61a1.71,1.71,0,0,1-.63-.11c-1.5-.58-3-1.1-4.57-1.54a1.741,1.741,0,1,1,.95-3.35c1.64.47,3.28,1,4.88,1.63a1.74,1.74,0,0,1-.63,3.37Zm-34.27-1.83a1.74,1.74,0,0,1-.45-3.43c1.65-.43,3.34-.8,5-1.08a1.743,1.743,0,0,1,.57,3.44c-1.58.26-3.16.6-4.7,1a1.745,1.745,0,0,1-.34.1Zm24.7-.88a1.73,1.73,0,0,1-.32,0c-1.58-.29-3.18-.51-4.77-.66a1.742,1.742,0,1,1,.31-3.47c1.7.15,3.41.39,5.09.7a1.74,1.74,0,0,1-.31,3.46Zm-14.89-.76a1.741,1.741,0,0,1-.13-3.48c1.36-.1,2.74-.15,4.1-.15h1a1.75,1.75,0,0,1,0,3.49h-1a35.11,35.11,0,0,0-3.84.14Z" transform="translate(448.866 -0.5)"/><path class="d" d="M810.13,749.5a1.74,1.74,0,0,1-1.74-1.74v-5a1.75,1.75,0,0,1,3.49,0v5a1.74,1.74,0,0,1-1.75,1.74Zm107.93-4a1.74,1.74,0,0,1-1.74-1.74v-5a1.74,1.74,0,1,1,3.48,0v5a1.74,1.74,0,0,1-1.74,1.7Zm-107.93-5.92a1.75,1.75,0,0,1-1.74-1.75v-5a1.75,1.75,0,1,1,3.49,0v5a1.75,1.75,0,0,1-1.75,1.71Zm107.93-4a1.74,1.74,0,0,1-1.74-1.75v-5a1.74,1.74,0,1,1,3.48,0v5a1.74,1.74,0,0,1-1.74,1.67Zm-107.93-5.93a1.74,1.74,0,0,1-1.74-1.74v-5a1.75,1.75,0,0,1,3.49,0v5a1.74,1.74,0,0,1-1.75,1.66Zm107.93-4a1.74,1.74,0,0,1-1.74-1.74v-5a1.74,1.74,0,1,1,3.48,0v5a1.74,1.74,0,0,1-1.74,1.62ZM810.13,719.6a1.74,1.74,0,0,1-1.74-1.74v-5a1.75,1.75,0,1,1,3.49,0v5a1.74,1.74,0,0,1-1.75,1.74Zm107.93-4a1.74,1.74,0,0,1-1.74-1.74v-5a1.74,1.74,0,1,1,3.48,0v5a1.74,1.74,0,0,1-1.74,1.7Zm-107.93-5.92a1.74,1.74,0,0,1-1.74-1.75v-5a1.75,1.75,0,0,1,3.49,0v5a1.75,1.75,0,0,1-1.75,1.71Zm107.93-4a1.74,1.74,0,0,1-1.74-1.75v-5a1.74,1.74,0,1,1,3.48,0v5a1.74,1.74,0,0,1-1.74,1.67Zm-107.93-5.93h0a1.74,1.74,0,0,1-1.74-1.74c0-1.72.08-3.44.24-5.14a1.743,1.743,0,0,1,3.47.33c-.14,1.58-.22,3.2-.22,4.81a1.74,1.74,0,0,1-1.75,1.66Zm107.77-4a1.74,1.74,0,0,1-1.73-1.62c-.12-1.59-.32-3.2-.59-4.77a1.74,1.74,0,1,1,3.43-.59c.29,1.68.51,3.39.64,5.1a1.75,1.75,0,0,1-1.61,1.87Zm-106.83-5.87h-.33a1.75,1.75,0,0,1-1.39-2c.32-1.68.73-3.36,1.2-5a1.75,1.75,0,0,1,3.35,1c-.44,1.53-.82,3.11-1.12,4.68a1.74,1.74,0,0,1-1.71,1.21Zm105.15-3.94a1.74,1.74,0,0,1-1.68-1.28c-.42-1.55-.92-3.09-1.48-4.59a1.75,1.75,0,0,1,3.27-1.22c.6,1.59,1.13,3.24,1.58,4.89a1.75,1.75,0,0,1-1.23,2.14,1.82,1.82,0,0,1-.46-.05Zm-102.38-5.62a1.811,1.811,0,0,1-.64-.12,1.73,1.73,0,0,1-1-2.26c.63-1.59,1.34-3.17,2.12-4.69a1.744,1.744,0,0,1,3.11,1.58c-.73,1.43-1.4,2.9-2,4.39a1.74,1.74,0,0,1-1.59.99Zm98.88-3.69a1.73,1.73,0,0,1-1.56-1c-.7-1.43-1.48-2.85-2.32-4.22a1.754,1.754,0,1,1,3-1.82c.89,1.46,1.72,3,2.47,4.51a1.75,1.75,0,0,1-.8,2.33,1.771,1.771,0,0,1-.79.09Zm-94.36-5.17a1.74,1.74,0,0,1-1.47-2.68,46.758,46.758,0,0,1,3-4.21,1.75,1.75,0,0,1,2.76,2.14,45.852,45.852,0,0,0-2.77,3.94,1.77,1.77,0,0,1-1.52.7ZM907.54,668a1.75,1.75,0,0,1-1.4-.7c-.95-1.28-2-2.53-3.06-3.72a1.75,1.75,0,1,1,2.59-2.34,48.7,48.7,0,0,1,3.27,4,1.74,1.74,0,0,1-.36,2.44,1.69,1.69,0,0,1-1.04.32Zm-83.08-4.54a1.7,1.7,0,0,1-1.19-.48,1.73,1.73,0,0,1-.08-2.46c1.16-1.25,2.4-2.45,3.68-3.59a1.75,1.75,0,0,1,2.32,2.61c-1.2,1.07-2.36,2.2-3.46,3.36a1.73,1.73,0,0,1-1.27.59Zm76.41-2.84a1.72,1.72,0,0,1-1.18-.46c-1.18-1.08-2.42-2.12-3.7-3.09a1.75,1.75,0,0,1,2.11-2.78,47.289,47.289,0,0,1,3.95,3.3,1.74,1.74,0,0,1,.1,2.46,1.71,1.71,0,0,1-1.28.6Zm-69-3.77a1.72,1.72,0,0,1-1.41-.71,1.75,1.75,0,0,1,.37-2.44,48.212,48.212,0,0,1,4.29-2.84,1.747,1.747,0,1,1,1.79,3c-1.37.82-2.72,1.72-4,2.67a1.8,1.8,0,0,1-1,.35Zm61-2.25a1.76,1.76,0,0,1-.93-.27c-1.35-.84-2.77-1.64-4.2-2.35a1.744,1.744,0,0,1,1.56-3.12c1.53.76,3,1.61,4.49,2.51a1.75,1.75,0,0,1-.92,3.23Zm-52.51-2.85a1.75,1.75,0,0,1-.75-3.32c1.54-.74,3.14-1.41,4.74-2a1.742,1.742,0,1,1,1.2,3.27,48.024,48.024,0,0,0-4.44,1.88,1.79,1.79,0,0,1-.67.2Zm43.61-1.61a1.71,1.71,0,0,1-.63-.11c-1.5-.58-3-1.1-4.57-1.54a1.741,1.741,0,1,1,.95-3.35c1.64.47,3.28,1,4.88,1.63a1.74,1.74,0,0,1-.63,3.37Zm-34.27-1.83a1.74,1.74,0,0,1-.45-3.43c1.65-.43,3.34-.8,5-1.08a1.743,1.743,0,0,1,.57,3.44c-1.58.26-3.16.6-4.7,1a1.745,1.745,0,0,1-.34.1Zm24.7-.88a1.73,1.73,0,0,1-.32,0c-1.58-.29-3.18-.51-4.77-.66a1.742,1.742,0,1,1,.31-3.47c1.7.15,3.41.39,5.09.7a1.74,1.74,0,0,1-.31,3.46Zm-14.89-.76a1.741,1.741,0,0,1-.13-3.48c1.36-.1,2.74-.15,4.1-.15h1a1.75,1.75,0,0,1,0,3.49h-1a35.11,35.11,0,0,0-3.84.14Z" transform="translate(1132.688 1114.863) rotate(-90)"/><ellipse class="d" cx="6" cy="5.96" rx="6" ry="5.96" transform="translate(30.67 460.18)"/><path class="d" d="M244.27,431.57a6.6,6.6,0,1,1-6.59-6.56,6.6,6.6,0,0,1,6.59,6.56Z" transform="translate(0 -0.5)"/><ellipse class="d" cx="6" cy="5.96" rx="6" ry="5.96" transform="translate(211.7 368.54)"/><path class="d" d="M45.73,632.54a6,6,0,1,1-6-6,6,6,0,0,1,6,6Z" transform="translate(0 -0.5)"/><ellipse class="d" cx="7.79" cy="7.75" rx="7.79" ry="7.75" transform="translate(777.409 716.34)"/><ellipse class="d" cx="6" cy="5.96" rx="6" ry="5.96" transform="translate(873.099 714.11)"/><ellipse class="d" cx="6" cy="5.96" rx="6" ry="5.96" transform="translate(1485.377 689.68)"/><path class="d" d="M925.51,496.2a6,6,0,1,1-6-6,6,6,0,0,1,6,6Z" transform="translate(466.502 -0.5)"/><ellipse class="d" cx="7.79" cy="7.75" rx="7.79" ry="7.75" transform="translate(1065.927 583.94)"/><ellipse class="d" cx="7.79" cy="7.75" rx="7.79" ry="7.75" transform="translate(1705.927 334.94)"/><ellipse class="d" cx="3.79" cy="3.75" rx="3.79" ry="3.75" transform="translate(1773.927 384.94)"/><ellipse class="d" cx="7.79" cy="7.75" rx="7.79" ry="7.75" transform="translate(1222.436 374.08)"/><ellipse class="d" cx="6" cy="5.96" rx="6" ry="5.96" transform="translate(419.578 116.38)"/><ellipse class="d" cx="6" cy="5.96" rx="6" ry="5.96" transform="translate(419.578 93.52)"/><path class="d" d="M885.37,84.13a7.79,7.79,0,1,1-7.79-7.75,7.79,7.79,0,0,1,7.79,7.75Z" transform="translate(445.463 -0.5)"/><ellipse class="d" cx="6" cy="5.96" rx="6" ry="5.96" transform="translate(1286.41 477.59)"/><path class="d" d="M987.5,749a1.74,1.74,0,0,1-1.75-1.74V612.5a1.75,1.75,0,0,1,3.49,0V747.26A1.74,1.74,0,0,1,987.5,749Z" transform="translate(632.957 -0.5)"/><path class="d" d="M1153.45,749.5a1.74,1.74,0,0,1-1.75-1.74v-103a1.75,1.75,0,1,1,3.49,0v103A1.74,1.74,0,0,1,1153.45,749.5Z" transform="translate(632.152 -0.5)"/><ellipse class="d" cx="7.79" cy="7.75" rx="7.79" ry="7.75" transform="translate(1777.812 638.01)"/><path class="d" d="M1152.47,93.65a6,6,0,1,1,6-6A6,6,0,0,1,1152.47,93.65Z" transform="translate(632.152 -0.5)"/><rect class="c" width="6.09" height="15.79" transform="translate(870.53 482.06)"/><path class="c" d="M538,604.22a4.82,4.82,0,0,0-4.79,4.78h0v4.94H538a4.86,4.86,0,0,0,0-9.72Z" transform="translate(345.772 -133.5)"/><path class="c" d="M554.26,605.17A25.75,25.75,0,1,0,517,628.5c0,.2-.06.4-.06.6v13.13a4.33,4.33,0,0,0,4.29,4.35h1.4v.47c0,2.34,2,1.83,4.45,1.83H530c2.45,0,4.45.51,4.45-1.83v-.47h1.39a4.33,4.33,0,0,0,4.3-4.35V629.1a2.041,2.041,0,0,0-.06-.6A26.16,26.16,0,0,0,554.26,605.17Zm-15.84,37.56a.6.6,0,0,1-.63.55H519.23a.6.6,0,0,1-.63-.55v-1a.6.6,0,0,1,.63-.55h18.56a.6.6,0,0,1,.63.55Zm0-4.93a.59.59,0,0,1-.63.55H519.23a.59.59,0,0,1-.63-.55v-1a.6.6,0,0,1,.63-.56h18.56a.6.6,0,0,1,.63.56Zm-.15-22.26h-5.11v15.79h4.63a.6.6,0,0,1,.63.55v1a.6.6,0,0,1-.63.55H519.23a.6.6,0,0,1-.63-.55v-1a.6.6,0,0,1,.63-.55h4.63V615.56H518.4a6.48,6.48,0,1,1,7.06-6.55h0v5h6.09V609h0a6.39,6.39,0,1,1,6.71,6.54Z" transform="translate(345.199 -133.5)"/><path class="c" d="M519.07,604.22a4.86,4.86,0,0,0,0,9.72h4.79V609h0a4.83,4.83,0,0,0-4.79-4.78Z" transform="translate(345.087 -133.5)"/><path class="d" d="M1089.22,87.25a4.7,4.7,0,1,0,3.86,3.84,4.7,4.7,0,0,0-3.86-3.84Z" transform="translate(632.152 -0.5)"/></g></g></svg>