<svg xmlns="http://www.w3.org/2000/svg" xmlns:xlink="http://www.w3.org/1999/xlink" width="137.543" height="110.914" viewBox="0 0 137.543 110.914"><defs><style>.a{fill:url(#a);}.b{fill:url(#b);}.c{fill:url(#c);}.d{fill:#f49512;}.e{fill:url(#d);}</style><linearGradient id="a" x1="0.06" y1="1.08" x2="1.073" y2="-0.176" gradientUnits="objectBoundingBox"><stop offset="0" stop-color="#f49512"/><stop offset="0.518" stop-color="#fcd257"/><stop offset="1" stop-color="#f49512"/></linearGradient><linearGradient id="b" x1="-1.47" y1="2.617" x2="4.243" y2="-3.667" gradientUnits="objectBoundingBox"><stop offset="0" stop-color="#f49512"/><stop offset="0.518" stop-color="#f49512"/><stop offset="1" stop-color="#f49512"/></linearGradient><linearGradient id="c" x1="-1.561" y1="2.817" x2="4.152" y2="-3.467" gradientUnits="objectBoundingBox"><stop offset="0" stop-color="#f49512"/><stop offset="0.518" stop-color="#febc61"/><stop offset="1" stop-color="#f49512"/></linearGradient><linearGradient id="d" x1="-2.129" y1="14.958" x2="3.584" y2="-16.459" xlink:href="#c"/></defs><g transform="translate(-7.976 -56)"><path class="a" d="M127.448,85.462A31.056,31.056,0,0,0,70.38,70.153a28.869,28.869,0,0,0-33.565,16.9,28.838,28.838,0,0,0-3.042,57.515,2.176,2.176,0,0,0,.829.161H48.688a28.84,28.84,0,0,0,56.123,0h11.868a2.225,2.225,0,0,0,.785-.141,31.061,31.061,0,0,0,9.985-59.128Zm-50.7,77.016a24.4,24.4,0,1,1,24.4-24.4,24.4,24.4,0,0,1-24.4,24.4Zm57.2-30.668a26.519,26.519,0,0,1-17.438,8.407,2.208,2.208,0,0,0-.433.078H105.5q.083-1.1.083-2.218a28.838,28.838,0,1,0-57.675,0q0,1.119.083,2.218H35.234a2.178,2.178,0,0,0-.449-.083A24.4,24.4,0,0,1,36.82,91.493c.435,0,.887.014,1.378.042a2.218,2.218,0,0,0,2.218-1.481,24.431,24.431,0,0,1,30.318-15.2,2.214,2.214,0,0,0,2.587-1.012,26.621,26.621,0,0,1,49.731,13.1,2.22,2.22,0,0,0,1.386,2.049,26.623,26.623,0,0,1,9.508,42.816Z" transform="translate(0)"/><path class="b" d="M186.475,303.355l-.15.15A14.663,14.663,0,0,1,200.4,292.88a2.44,2.44,0,1,0,0-4.88,19.549,19.549,0,0,0-19.256,16.334l-.979-.979a2.44,2.44,0,0,0-3.451,3.451l4.88,4.88a2.44,2.44,0,0,0,3.451,0l4.88-4.88a2.44,2.44,0,1,0-3.451-3.451Z" transform="translate(-122.438 -169.277)"/><path class="c" d="M274.126,345.046a2.445,2.445,0,0,1-3.453,0l-.979-.979A19.548,19.548,0,0,1,250.44,360.4a2.44,2.44,0,0,1,0-4.88A14.664,14.664,0,0,0,264.516,344.9l-.149.15a2.441,2.441,0,1,1-3.453-3.453l4.88-4.88a2.445,2.445,0,0,1,3.453,0l4.88,4.88A2.445,2.445,0,0,1,274.126,345.046Z" transform="translate(-174.903 -205.686)"/><path class="d" d="M99.52,384H82.44a2.44,2.44,0,1,0,0,4.88H99.52a2.44,2.44,0,1,0,0-4.88Z" transform="translate(-50.057 -238.046)"/><path class="e" d="M384.4,384H362.44a2.44,2.44,0,1,0,0,4.88H384.4a2.44,2.44,0,1,0,0-4.88Z" transform="translate(-258.404 -238.046)"/></g></svg>