<svg xmlns="http://www.w3.org/2000/svg" width="131.804" height="124.816" viewBox="0 0 131.804 124.816"><defs><style>.a{fill:#febc61;}</style></defs><g transform="translate(0)"><path class="a" d="M49.525,97.425a2.833,2.833,0,0,0,1.879-.774c5.691-5.636,13.15-8.232,23.371-8.232H75c1.989,0,4.089.11,6.188.166,9.393.387,20,.774,28.233-5.47l3.536,3.37a2.544,2.544,0,0,0,1.823.718,3.731,3.731,0,0,0,.774-.111,2.688,2.688,0,0,0,1.823-1.934l3.591-15.3a2.587,2.587,0,0,0-.774-2.542,2.638,2.638,0,0,0-2.6-.608l-15.028,4.531a2.688,2.688,0,0,0-1.823,1.934,2.587,2.587,0,0,0,.774,2.542l3.923,3.7c-6.63,4.531-15.47,4.2-24.034,3.868-2.155-.11-4.31-.166-6.354-.166h-.221c-11.713,0-20.332,3.094-27.073,9.779a2.686,2.686,0,0,0-.055,3.757A2.505,2.505,0,0,0,49.525,97.425Zm65.2-24.31-1.492,6.354-4.752-4.475Z" transform="translate(-25.372 -37.451)"/><path class="a" d="M91.935,62.1a2.806,2.806,0,0,0,.939-.166l2.818-1.05,1.05,2.818a2.681,2.681,0,0,0,2.486,1.713,2.806,2.806,0,0,0,.939-.166,2.613,2.613,0,0,0,1.547-3.426L100.664,59l2.818-1.05a2.613,2.613,0,0,0,1.547-3.426,2.658,2.658,0,0,0-3.426-1.547l-2.818,1.05-1.05-2.818a2.658,2.658,0,0,0-3.426-1.547,2.613,2.613,0,0,0-1.547,3.426l1.05,2.818L91,56.96a2.654,2.654,0,0,0,.939,5.138Z" transform="translate(-44.351 -29.369)"/><path class="a" d="M100.858,122.284A8.5,8.5,0,0,0,89.366,133a8.313,8.313,0,0,0,4.42,4.752,8.669,8.669,0,0,0,3.536.773,7.935,7.935,0,0,0,2.984-.553,8.313,8.313,0,0,0,4.752-4.42,8.59,8.59,0,0,0,.221-6.52A8.3,8.3,0,0,0,100.858,122.284Zm-.608,9.061A3.068,3.068,0,0,1,98.482,133a3.1,3.1,0,0,1-2.431-.111,3.068,3.068,0,0,1-1.658-1.768,3.1,3.1,0,0,1,.11-2.431,3.273,3.273,0,0,1,2.928-1.879,3.8,3.8,0,0,1,1.326.276,3.068,3.068,0,0,1,1.658,1.768A3.808,3.808,0,0,1,100.25,131.345Z" transform="translate(-44.163 -62.847)"/><path class="a" d="M168.443,45.307a2.642,2.642,0,0,0,2.1.995,2.717,2.717,0,0,0,1.658-.553l13.978-11.105a2.675,2.675,0,1,0-3.315-4.2l-11.934,9.5-3.978-4.917a2.671,2.671,0,1,0-4.144,3.37Z" transform="translate(-78.445 -19.947)"/><path class="a" d="M134.624,11.9H7.98A2.581,2.581,0,0,0,5.4,14.48a2.616,2.616,0,0,0,2.58,2.58h6.182V95.648a2.581,2.581,0,0,0,2.58,2.58h28.7l-10.912,35.1a2.563,2.563,0,0,0,1.72,3.225,1.959,1.959,0,0,0,.753.107,2.532,2.532,0,0,0,2.473-1.828l11.4-36.553H91.729l11.4,36.606a2.532,2.532,0,0,0,2.473,1.828,3.173,3.173,0,0,0,.753-.107,2.606,2.606,0,0,0,1.72-3.225l-10.912-35.1h28.7a2.581,2.581,0,0,0,2.58-2.58V17.114h6.182a2.581,2.581,0,0,0,2.58-2.58A2.663,2.663,0,0,0,134.624,11.9ZM123.282,93.068H19.322V17.114h103.96Z" transform="translate(-5.4 -11.9)"/></g></svg>