<svg xmlns="http://www.w3.org/2000/svg" width="122.541" height="122.817" viewBox="0 0 122.541 122.817"><defs><style>.a{fill:#febc61;}</style></defs><g transform="translate(0)"><g transform="translate(0 0)"><path class="a" d="M154.876,174.948h0l-7.044,0a5.743,5.743,0,0,0-3.627-3.626v-12.21a1.8,1.8,0,0,0-3.6,0v12.21a5.717,5.717,0,1,0,7.226,7.224l7.043,0a1.8,1.8,0,0,0,0-3.6Zm-12.47,3.923a2.12,2.12,0,1,1,2.12-2.12A2.122,2.122,0,0,1,142.406,178.87Z" transform="translate(-104.038 -119.579)"/><path class="a" d="M77.06,72.814a1.8,1.8,0,1,0-3.575-.41A34.754,34.754,0,1,1,43.719,33.953l.024,0A34.73,34.73,0,0,1,73.486,64.4a1.8,1.8,0,0,0,3.575-.409,38.162,38.162,0,0,0-6.932-17.981l2.363-2.363a4.613,4.613,0,0,0,0-6.528l-2.275-2.275a4.614,4.614,0,0,0-6.528,0l-2.368,2.368a38.26,38.26,0,0,0-15.6-6.587v-3.81a4.479,4.479,0,0,0,3.656-4.4V19.241A4.479,4.479,0,0,0,44.9,14.767H32.983a4.479,4.479,0,0,0-4.474,4.474v3.181a4.479,4.479,0,0,0,3.656,4.4v3.81a38.176,38.176,0,0,0-15.581,6.607L14.2,34.847a4.621,4.621,0,0,0-6.528,0L5.394,37.121a4.613,4.613,0,0,0,0,6.528l2.388,2.388A38.363,38.363,0,1,0,77.06,72.814ZM66.234,37.391a1.019,1.019,0,0,1,1.439,0l2.274,2.275a1.017,1.017,0,0,1,0,1.439l-2.07,2.07a38.435,38.435,0,0,0-3.716-3.712ZM32.107,19.241a.877.877,0,0,1,.876-.876H44.9a.877.877,0,0,1,.876.876v3.181a.877.877,0,0,1-.876.876H32.983a.877.877,0,0,1-.876-.876ZM35.764,26.9h6.359v3.265c-1.049-.086-2.109-.133-3.179-.133s-2.131.046-3.18.133ZM7.938,41.1a1.017,1.017,0,0,1,0-1.439l2.274-2.274a1.019,1.019,0,0,1,1.439,0l2.094,2.094A38.715,38.715,0,0,0,10.032,43.2Z" transform="translate(-0.575 -11.225)"/><path class="a" d="M223.891,67.876,218.438,56.43a3.449,3.449,0,0,1-.332-1.43l-.1-8.384C218,21,197.379.088,172.031,0h-.164a45.993,45.993,0,0,0-15.7,2.74A1.8,1.8,0,0,0,157.4,6.124,42.362,42.362,0,0,1,172.019,3.6C195.39,3.679,214.4,22.977,214.4,46.637l.1,8.406a7.072,7.072,0,0,0,.682,2.933l5.452,11.446a3.453,3.453,0,0,1-3.1,4.943h-.069a7.019,7.019,0,0,0-7.021,7.022V96.152a5.815,5.815,0,0,1-6.658,5.752l-12.762-1.872a6.384,6.384,0,0,0-7.309,6.315v2.244l-38.67-3.576v-2.937a1.8,1.8,0,0,0-3.6,0v2.6l-.7-.065a6.122,6.122,0,0,0-6.682,6.093v5.942a6.127,6.127,0,0,0,6.113,6.119l48.035.046h.006a6.115,6.115,0,0,0,6.118-6.119v-1.546a6.091,6.091,0,0,0-5.555-6.093l-1.465-.136v-2.576a2.785,2.785,0,0,1,3.188-2.755l12.762,1.872a9.415,9.415,0,0,0,10.778-9.312V81.388a3.422,3.422,0,0,1,3.475-3.424,7.055,7.055,0,0,0,6.369-10.089ZM190.74,115.152V116.7a2.519,2.519,0,0,1-2.52,2.521h0l-48.034-.046a2.524,2.524,0,0,1-2.518-2.521v-5.941a2.519,2.519,0,0,1,2.513-2.521c.243,0,48.039,4.431,48.273,4.453a2.51,2.51,0,0,1,2.289,2.51Z" transform="translate(-102.045 0)"/><path class="a" d="M64.873,112.5a30.185,30.185,0,1,0,30.185,30.185A30.223,30.223,0,0,0,64.873,112.5Zm25.3,31.984H91.4a26.478,26.478,0,0,1-6.505,15.677l-.854-.854a1.8,1.8,0,1,0-2.544,2.544l.855.855a26.476,26.476,0,0,1-15.677,6.505v-1.22a1.8,1.8,0,0,0-3.6,0v1.22A26.476,26.476,0,0,1,47.4,162.7l.854-.855a1.8,1.8,0,1,0-2.544-2.544l-.854.854a26.476,26.476,0,0,1-6.505-15.677h1.22a1.8,1.8,0,0,0,0-3.6h-1.22a26.477,26.477,0,0,1,6.505-15.676l.854.854a1.8,1.8,0,1,0,2.544-2.544l-.854-.855a26.476,26.476,0,0,1,15.677-6.505v1.22a1.8,1.8,0,0,0,3.6,0v-1.22a26.477,26.477,0,0,1,15.677,6.505l-.855.855a1.8,1.8,0,1,0,2.544,2.544l.854-.854A26.477,26.477,0,0,1,91.4,140.886h-1.22a1.8,1.8,0,0,0,0,3.6Z" transform="translate(-26.505 -85.514)"/></g></g></svg>