<svg xmlns="http://www.w3.org/2000/svg" width="158.945" height="109.653" viewBox="0 0 158.945 109.653"><defs><style>.a{fill:#febc61;}.b{fill:#1e365a;}</style></defs><path class="a" d="M273.306,256.63c.136-.247.266-.493.4-.752.017-.032.032-.067.049-.1.116-.229.232-.459.343-.69l.089-.185c.1-.2.192-.4.284-.609.044-.1.089-.192.131-.289.076-.17.15-.34.224-.51.057-.133.113-.269.168-.4s.113-.271.168-.407.136-.345.2-.518c.037-.1.076-.2.113-.3l.229-.631.067-.192c.084-.247.168-.493.247-.74a.354.354,0,0,1,.035-.106q.131-.4.247-.814v-.03c.047-.155.094-.311.138-.468l10.184-3.381V231.7l-10.172-3.391c-.044-.158-.091-.313-.138-.469v-.03q-.123-.412-.247-.814a.445.445,0,0,0-.034-.106c-.079-.247-.163-.493-.247-.74l-.067-.192-.229-.631c-.037-.1-.076-.2-.113-.3-.067-.173-.133-.345-.2-.518s-.111-.271-.168-.407-.111-.269-.168-.4c-.074-.17-.148-.34-.224-.51-.042-.1-.086-.192-.131-.289-.091-.2-.187-.407-.284-.609l-.089-.185c-.111-.232-.227-.461-.343-.69-.017-.032-.032-.067-.049-.1-.131-.247-.261-.493-.4-.752l-.015-.03c-.079-.143-.155-.286-.247-.427l4.794-9.59-9.765-9.765-9.59,4.8-.427-.234-.03-.015c-.247-.136-.493-.266-.752-.4l-.1-.049c-.229-.116-.459-.232-.69-.343l-.185-.089c-.2-.1-.4-.192-.609-.284l-.288-.131-.51-.224-.4-.168-.407-.168-.518-.2-.3-.113-.631-.229-.192-.067c-.247-.084-.493-.168-.74-.247l-.106-.035q-.4-.131-.814-.247h-.03l-.468-.138L246.919,192H233.11l-3.391,10.172-.469.138h-.03q-.412.121-.814.247l-.106.035c-.247.079-.493.163-.74.247l-.192.067-.631.229-.3.113-.518.2-.407.168-.4.168-.51.224-.288.131c-.2.091-.407.187-.609.284l-.185.089c-.232.111-.461.227-.69.343l-.1.049c-.247.131-.493.261-.752.4l-.03.015-.427.234-9.59-4.794-9.747,9.777,4.794,9.59c-.079.141-.155.284-.234.427l-.015.03c-.136.247-.266.493-.4.752l-.049.1c-.116.229-.232.459-.343.69l-.089.185c-.1.2-.192.4-.284.609-.044.1-.089.192-.131.289-.076.17-.15.34-.224.51-.057.133-.113.269-.168.4s-.113.271-.168.407-.136.345-.2.518c-.037.1-.076.2-.113.3l-.229.631-.067.192c-.084.247-.168.493-.247.74a.355.355,0,0,1-.035.106q-.131.4-.247.814v.03c-.047.155-.094.311-.138.469L193.41,231.7v13.809l10.172,3.391c.044.158.091.313.138.469v.03q.123.412.247.814a.443.443,0,0,0,.035.106c.079.247.163.493.247.74l.067.192.229.631c.037.1.076.2.113.3.067.173.133.345.2.518s.111.271.168.407.111.269.168.4c.074.17.148.34.224.51.042.1.086.192.131.288.091.2.187.407.284.609l.089.185c.111.232.227.461.343.69l.049.1c.131.247.261.493.4.752l.015.03c.079.143.155.286.234.427l-4.774,9.58,9.765,9.765,9.582-4.794.427.247.03.015c.247.136.493.266.752.4l.1.049c.229.116.459.232.69.343l.185.089c.2.1.4.192.609.284l.288.131.51.224.4.168.407.168.518.2.3.113.631.229.192.067c.247.084.493.168.74.247l.106.035q.4.128.814.247h.03l.469.138,3.381,10.172h13.809l3.391-10.172.468-.138h.03q.412-.121.814-.247l.106-.035c.247-.079.493-.163.74-.247l.192-.067.631-.229.3-.113.518-.2.407-.168.4-.168.51-.224.288-.131c.2-.091.407-.187.609-.284l.185-.089c.232-.111.461-.227.69-.343l.1-.049c.247-.131.493-.261.752-.4l.03-.015.427-.247,9.59,4.794,9.765-9.765-4.8-9.577c.079-.141.155-.284.247-.427Zm-33.289,7.619A25.645,25.645,0,1,1,265.662,238.6a25.645,25.645,0,0,1-25.645,25.645Z" transform="translate(-159.953 -191.09)"/><path class="b" d="M244.7,283.415H229.469l-3.452-10.356c-.281-.081-.557-.168-.833-.247h-.03a.271.271,0,0,0-.047-.015h-.032c-.247-.081-.493-.168-.74-.247l-.19-.067-.649-.247-.2-.076-.109-.042c-.185-.069-.362-.138-.538-.21s-.281-.113-.422-.173l-.407-.17c-.18-.079-.355-.153-.528-.232-.094-.039-.2-.089-.3-.136-.2-.089-.407-.187-.616-.288l-.19-.089c-.234-.113-.469-.232-.7-.35l-.032-.015-.1-.049c-.247-.123-.493-.247-.74-.39H218.6l-9.765,4.882L198.064,264.13l4.865-9.812-.012-.022c-.133-.247-.266-.493-.4-.755l-.037-.074-.017-.035c-.118-.234-.247-.471-.35-.708l-.089-.185c-.1-.212-.2-.422-.3-.634-.042-.091-.089-.192-.133-.3-.074-.163-.148-.335-.224-.508s-.121-.288-.178-.427-.113-.271-.17-.412c-.072-.178-.138-.355-.207-.53l-.044-.118-.074-.2c-.079-.21-.155-.422-.232-.634l-.072-.2c-.084-.247-.17-.493-.247-.74v-.032l-.015-.042v-.035c-.089-.274-.175-.552-.259-.833h0l-10.357-3.452V228.21l10.357-3.452c.084-.281.17-.56.259-.833v-.032l.015-.044v-.032c.081-.247.168-.493.247-.74l.067-.192c.081-.224.158-.436.247-.646.022-.067.049-.131.074-.195l.042-.113c.072-.182.138-.36.21-.538.057-.141.116-.279.173-.419s.111-.271.17-.409l.015-.03c.072-.165.143-.333.219-.493.039-.091.086-.195.133-.3.089-.2.19-.409.289-.619l.091-.187c.113-.247.232-.473.35-.708l.017-.032.044-.089c.128-.247.247-.493.39-.74l.012-.022-4.88-9.762,10.768-10.771,9.765,4.882.02-.012c.247-.133.493-.261.74-.39l.091-.044.032-.017c.247-.118.471-.247.71-.353l.182-.089c.212-.1.424-.2.636-.293.089-.042.192-.091.3-.136l.493-.215h.025c.145-.062.286-.121.424-.175s.271-.116.412-.17.353-.141.528-.207l.121-.047.195-.074.636-.229.2-.071c.247-.086.493-.173.74-.247h.032l.044-.012h.032c.276-.089.555-.175.833-.247h0l3.452-10.357H244.7l3.452,10.357c.281.081.56.168.836.247h.032l.044.012h.03c.247.081.493.168.752.247l.19.067.646.234.2.076.109.042c.185.069.36.138.538.21s.281.113.422.173l.407.17.528.232.3.136c.2.089.409.187.619.288l.187.089c.247.113.473.234.71.353h.022a.915.915,0,0,1,.1.049c.247.123.493.247.74.39l.022.012,9.757-4.9,10.771,10.771-4.87,9.772v.022c.136.247.266.493.4.752l.039.079.015.032c.123.247.247.473.353.708l.089.185c.1.212.2.422.3.634.042.091.089.192.133.3.074.165.15.338.224.513s.121.284.177.422l.17.414.207.528.044.118.074.2c.076.21.153.422.232.634l.069.2c.086.247.173.493.247.74v.032l.015.047v.03c.089.274.175.552.247.833h0l10.357,3.452v15.229l-10.357,3.452c-.084.281-.17.56-.247.833v.03l-.015.047v.032c-.081.247-.168.493-.247.74l-.067.192-.234.646-.074.2-.042.109-.21.538c-.057.141-.116.281-.175.422s-.111.269-.168.4c-.079.182-.155.355-.247.53-.039.094-.086.195-.136.3-.089.2-.187.409-.286.619l-.091.187c-.111.232-.227.464-.345.7l-.02.037a.914.914,0,0,1-.049.1c-.123.247-.247.493-.39.74v.022l4.88,9.762-10.768,10.8-9.762-4.882h-.022c-.247.136-.493.266-.752.4l-.076.037-.032.017c-.247.123-.476.247-.71.353l-.182.089c-.215.1-.424.2-.636.293l-.3.136-.51.224c-.145.062-.286.121-.424.175s-.271.116-.412.17-.353.141-.53.207l-.116.044-.2.076-.634.229-.2.072c-.247.086-.493.173-.74.247h-.032l-.047.017h-.03c-.276.089-.555.175-.836.247h0Zm-13.809-1.973h12.386l3.321-9.994.493-.141.412-.121.091-.027c.247-.076.51-.153.762-.234l.131-.042c.232-.076.466-.155.7-.247l.809-.291.165-.062.123-.047.493-.195.392-.163.4-.165.493-.217c.1-.042.187-.084.276-.126.21-.094.407-.187.6-.279l.18-.089c.222-.106.441-.217.661-.326l.079-.039h.022l.74-.387.2-.108.247-.136.456-.247,9.422,4.71,8.781-8.771-4.71-9.422.247-.456c.044-.079.089-.163.133-.247l.108-.2c.133-.247.261-.493.387-.74v-.025l.037-.074c.116-.229.224-.444.33-.663l.089-.185c.091-.192.183-.387.271-.584l.128-.281c.079-.175.15-.343.222-.508.052-.123.108-.247.16-.382s.113-.269.165-.4c.067-.17.133-.338.2-.508l.044-.116c.022-.054.042-.108.062-.165l.291-.809c.081-.232.16-.464.247-.7a.473.473,0,0,1,.042-.131q.123-.377.247-.762l.025-.089c.042-.138.081-.274.121-.412l.143-.493,9.992-3.331V229.63L272.71,226.3l-.143-.493c-.039-.141-.081-.281-.123-.419l-.022-.081q-.116-.385-.247-.762c-.015-.044-.03-.089-.042-.131-.076-.234-.155-.466-.247-.7l-.067-.195-.222-.614-.064-.163-.047-.126c-.062-.163-.128-.33-.195-.493s-.106-.261-.163-.392-.111-.269-.165-.4-.141-.325-.217-.493c-.042-.1-.084-.19-.126-.279-.094-.21-.185-.4-.279-.6l-.086-.182c-.108-.224-.219-.444-.33-.666l-.037-.072v-.022c-.126-.247-.247-.493-.387-.74l-.108-.2-.133-.247-.247-.456,4.71-9.417-8.761-8.759-9.42,4.71-.456-.247-.247-.133-.2-.111c-.247-.133-.493-.259-.74-.387l-.022-.012a.678.678,0,0,1-.074-.037c-.222-.111-.441-.222-.663-.328l-.187-.089c-.192-.091-.385-.185-.582-.274-.1-.047-.192-.089-.284-.126l-.493-.224-.382-.158-.4-.168-.508-.2-.116-.044-.165-.062-.806-.291c-.232-.081-.466-.16-.7-.247l-.133-.042c-.247-.081-.493-.158-.757-.247l-.054-.015-.451-.133-.493-.141-3.349-9.994H230.892L227.56,200.2l-.493.141c-.153.042-.3.089-.451.133l-.052.015c-.247.072-.493.15-.762.247l-.131.042c-.234.076-.466.158-.7.247l-.192.067-.621.212-.16.062-.128.047-.493.195-.392.163-.4.165h-.015l-.478.21-.279.126c-.21.094-.4.187-.6.279l-.182.089c-.224.108-.449.219-.671.333L220.3,203l-.022.012-.74.387-.2.111-.247.133-.456.247-9.422-4.71-8.759,8.778,4.71,9.422-.247.456-.133.247-.089.163h0l-.02.039c-.131.247-.247.481-.382.722l-.012.025c-.02.042-.035.069-.049.1-.1.2-.215.424-.323.651l-.089.185c-.091.192-.185.387-.271.584-.047.1-.089.19-.128.281-.076.168-.145.328-.215.493v.025c-.052.121-.106.247-.158.38s-.113.271-.165.4c-.069.168-.133.335-.2.506l-.047.118-.062.163c-.076.21-.153.417-.227.629l-.064.18c-.079.232-.16.464-.234.7a1.2,1.2,0,0,1-.044.133c-.079.247-.158.493-.232.757l-.017.054-.133.451-.141.493-9.994,3.331v12.388l9.994,3.331.141.493c.042.148.086.293.131.439l.017.062c.072.247.153.505.234.762l.044.131c.074.234.155.466.234.7l.291.809.062.163.049.126c.062.163.126.33.195.493l.16.392.165.395c.072.163.143.328.217.493l.126.279c.094.21.187.4.281.6l.086.182c.106.224.219.444.33.663l.037.074v.025c.128.247.247.493.39.74l.109.2.133.247.247.456-4.71,9.422,8.759,8.759,9.422-4.71.456.247.247.136.163.089h0l.039.02c.247.131.493.247.74.387h.022l.074.037c.224.113.444.222.663.328l.187.089c.19.091.385.185.582.274l.281.126.51.224.38.158.4.165c.168.069.338.133.493.2l.118.044.163.062.629.229.18.062c.232.079.464.16.7.247l.131.042c.247.081.505.16.762.234l.081.025.419.123.505.141Zm-11.663-12.687-.173.358.281-.567ZM203.795,217.8l.567.279-.207-.116Zm33.289,44.659a26.631,26.631,0,1,1,26.631-26.631A26.631,26.631,0,0,1,237.084,262.455Zm0-51.289a24.658,24.658,0,1,0,24.658,24.658A24.658,24.658,0,0,0,237.084,211.166Z" transform="translate(-157.023 -188.31)"/><path class="a" d="M117.449,280.8c.094-.173.185-.348.276-.523.012-.022.022-.047.035-.069.081-.16.16-.321.247-.493l.062-.128c.067-.141.133-.284.2-.424l.091-.2.155-.355.118-.281c.039-.094.079-.187.116-.284l.141-.36c.027-.069.054-.138.079-.207.054-.146.106-.291.16-.439l.047-.136c.057-.168.116-.338.17-.508a.289.289,0,0,1,.025-.074c.062-.187.118-.375.175-.567v-.02c.032-.109.067-.217.1-.325l7.084-2.362v-9.617l-7.084-2.36c-.03-.111-.064-.219-.1-.328v-.02c-.057-.19-.113-.38-.175-.567a.289.289,0,0,0-.025-.074c-.054-.17-.113-.34-.17-.508l-.047-.133-.16-.441c-.025-.069-.052-.138-.079-.207l-.141-.36c-.037-.094-.076-.19-.116-.284l-.118-.281-.155-.355c-.03-.067-.059-.133-.091-.2-.064-.143-.131-.284-.2-.424l-.062-.128c-.079-.163-.158-.323-.247-.481,0-.025-.022-.047-.035-.069-.091-.175-.182-.35-.276-.525v-.02c-.057-.1-.108-.2-.163-.3l3.339-6.678-6.813-6.793-6.678,3.339-.3-.163h-.02l-.525-.276-.067-.035-.493-.247-.131-.062-.424-.2-.2-.091-.355-.155-.281-.118-.284-.116-.36-.141-.207-.079-.441-.16-.133-.047c-.168-.057-.338-.116-.508-.17l-.074-.025-.567-.175h-.02c-.109-.032-.217-.067-.328-.1l-2.36-7.084H89.442l-2.362,7.084-.325.1h-.02c-.192.057-.38.116-.567.175l-.074.025c-.17.054-.34.113-.508.17l-.136.047-.439.16-.207.079-.36.141-.284.116-.281.118-.355.155-.2.091-.424.2-.128.062-.481.247-.069.035c-.175.091-.35.182-.523.276h-.02l-.3.163-6.68-3.339-6.791,6.8,3.339,6.677-.163.3v.02c-.1.175-.185.35-.276.525-.012.022-.022.044-.035.069l-.247.481-.062.128c-.067.141-.133.281-.2.424-.032.067-.062.133-.091.2-.054.118-.106.247-.158.355s-.079.187-.116.281-.079.19-.116.284-.1.247-.141.36c-.027.069-.054.138-.079.207-.054.148-.109.293-.16.441l-.047.133c-.059.168-.116.338-.173.508a.281.281,0,0,1-.022.074c-.062.187-.118.377-.175.567v.02l-.1.328-7.084,2.36v9.617l7.084,2.362.1.325v.02c.057.192.113.38.175.567a.418.418,0,0,0,.022.074c.057.17.113.34.173.508l.047.136c.052.148.106.293.16.439.025.069.052.138.079.207.044.121.091.247.141.36s.076.19.116.284.076.187.116.281.1.247.158.355l.091.2c.064.141.131.284.2.424l.062.128c.076.16.158.321.247.493,0,.022.022.047.035.069.091.175.18.35.276.523v.022l.163.3-3.339,6.67,6.8,6.8,6.68-3.339.3.163h.02c.173.1.348.185.523.276l.069.034c.16.081.321.163.481.247l.128.062c.143.067.284.136.424.2l.2.091.355.158.281.116.284.116c.118.049.247.1.36.141l.207.079.439.16.136.047.508.173.074.022c.187.062.375.121.567.178h.02l.325.1,2.362,7.082h9.617l2.36-7.084.328-.1h.02c.19-.057.38-.116.567-.178l.074-.022.508-.173.133-.047.441-.16.207-.079c.121-.044.247-.091.36-.141l.284-.116.281-.116.355-.158.2-.091c.143-.062.284-.131.424-.2l.131-.062c.16-.076.321-.158.493-.247l.067-.034c.175-.091.35-.18.525-.276h.02l.3-.163,6.677,3.339,6.8-6.8-3.349-6.677c.054-.1.106-.2.163-.3ZM94.27,286.1a17.868,17.868,0,1,0-.012,0Z" transform="translate(-60.804 -224.082)"/><path class="b" d="M96.708,298.643H85.661l-2.424-7.272-.444-.138-.074-.025c-.178-.057-.355-.116-.53-.178l-.587-.212-.138-.052-.079-.03-.38-.148-.3-.123-.286-.118-.372-.165-.212-.1-.432-.2-.133-.062c-.165-.079-.328-.163-.493-.247l-.03-.015-.069-.035-.395-.207-6.855,3.427-7.8-7.794,3.428-6.855-.2-.392a.512.512,0,0,1-.037-.074l-.022-.044q-.123-.247-.247-.473l-.062-.128c-.074-.16-.143-.3-.21-.451-.027-.059-.062-.133-.094-.207-.049-.113-.1-.234-.155-.358s-.086-.2-.126-.3-.081-.19-.121-.288l-.138-.355-.3-.831c-.062-.175-.121-.35-.178-.528l-.025-.076c-.047-.145-.094-.293-.138-.441l-7.272-2.424V259.683L65,257.259c.044-.148.091-.3.138-.441l.025-.076c.057-.175.116-.353.178-.528l.212-.587c.017-.049.035-.094.052-.138l.03-.079.148-.382c.039-.1.081-.2.123-.3l.121-.286.163-.372.091-.2c.062-.138.131-.281.2-.424l.071-.15c.076-.16.158-.318.247-.478l.022-.044.032-.067.207-.392-3.428-6.855,7.807-7.807,6.855,3.425.407-.212.059-.03.027-.012.493-.247.126-.059c.153-.074.3-.143.451-.21l.207-.1.345-.15.313-.131.288-.118.362-.143.1-.037.138-.052.587-.21c.178-.062.353-.123.53-.18l.076-.025.441-.138,2.419-7.267H96.708l2.424,7.269.441.138.076.025.528.178.589.212.136.052.079.03.382.15.3.121.286.121.375.163.21.1c.138.062.286.131.434.2l.133.064c.163.079.328.16.493.247l.03.015.069.035.392.2,6.855-3.425,7.807,7.807-3.425,6.855c.072.133.141.269.212.4a.262.262,0,0,0,.03.062l.02.037c.081.16.16.318.247.481l.059.128c.079.163.146.306.21.449.032.067.064.138.1.21.049.111.1.234.155.355s.086.2.126.3l.121.291.141.362.037.1.052.136.212.592c.059.173.121.35.178.525l.025.076c.047.145.094.293.138.441l7.259,2.419v11.04l-7.269,2.424c-.044.148-.091.3-.138.441l-.025.076c-.057.178-.118.353-.178.528l-.293.833c-.047.118-.091.247-.141.355s-.081.2-.121.3l-.121.286c-.054.128-.108.247-.163.372-.027.064-.062.138-.1.21-.059.136-.128.279-.2.424l-.069.143c-.074.158-.155.316-.234.473l-.027.052-.032.064-.2.395,3.425,6.855-7.807,7.807-6.855-3.427-.4.212-.062.032H103.6c-.163.081-.328.165-.493.247l-.128.062-.449.21-.21.094-.345.153-.311.128-.289.121-.372.146-.089.032-.136.052-.589.212c-.175.062-.353.121-.528.178l-.076.025-.441.138Zm-9.617-1.973h8.187l2.3-6.9.493-.143c.1-.027.207-.059.308-.089l.047-.015c.173-.049.343-.1.513-.158l.094-.03c.16-.052.321-.108.478-.163l.757-.276.34-.133.271-.111.274-.113.338-.15c.069-.03.131-.057.19-.086.148-.064.281-.128.414-.192l.126-.059c.155-.074.306-.15.459-.227l.054-.03c.18-.091.348-.18.518-.271l.762-.424,6.51,3.255,5.8-5.795-3.255-6.512.247-.456.1-.173.072-.133c.089-.163.173-.328.259-.493l.015-.027.027-.054v-.015c.074-.145.145-.291.217-.439l.062-.131c.067-.136.128-.266.187-.4l.086-.195c.057-.123.106-.247.155-.353s.074-.173.108-.259.079-.19.113-.279.089-.222.131-.333l.281-.764c.054-.16.108-.318.16-.478a.3.3,0,0,1,.032-.1c.054-.17.106-.34.158-.513l.012-.044c.034-.111.064-.21.091-.311l.143-.493,6.9-2.3v-8.2l-6.9-2.3-.143-.493c-.03-.1-.059-.207-.091-.308l-.012-.044c-.052-.173-.1-.345-.158-.513-.012-.032-.022-.067-.032-.1-.052-.158-.106-.318-.16-.476l-.276-.757-.133-.34-.111-.269c-.039-.1-.076-.187-.116-.274s-.1-.224-.148-.338c-.03-.071-.057-.128-.084-.187-.067-.148-.128-.276-.187-.4l-.069-.141c-.072-.15-.145-.3-.219-.446,0-.017-.022-.042-.035-.069-.094-.178-.18-.345-.271-.513L113.4,253l-.1-.175-.247-.456,3.255-6.51-5.8-5.8-6.51,3.255-.762-.424-.508-.266-.067-.032c-.155-.079-.3-.155-.454-.227l-.131-.062-.4-.187-.192-.086-.345-.153-.269-.111-.276-.116-.343-.131-.759-.279-.473-.16-.1-.032-.51-.158-.047-.012-.308-.091-.493-.143-2.3-6.9H87.088l-2.3,6.9-.493.143-.308.091-.044.012-.515.158-.1.032-.476.16-.759.279-.34.131-.269.111-.274.116-.338.148-.192.086-.414.192-.126.062-.456.227-.057.027c-.178.094-.348.18-.515.271l-.762.424-6.512-3.255-5.8,5.787,3.255,6.51-.247.456-.1.175-.072.133c-.091.168-.18.335-.266.505l-.035.067c-.081.163-.155.308-.224.454l-.064.131-.185.4c-.035.079-.062.136-.086.195l-.158.355c-.035.081-.072.17-.106.259l-.116.276-.133.343-.276.757c-.054.158-.111.318-.16.476l-.032.1c-.054.168-.108.34-.16.513v.044c-.03.1-.062.2-.091.308l-.141.493-6.9,2.3v8.2l6.9,2.3.141.493.089.3.015.057c.049.158.1.335.16.513a.368.368,0,0,0,.032.1c.052.16.106.318.16.476l.276.759.133.34.111.269.113.274c.049.108.1.224.15.338.03.072.059.131.086.192.064.143.126.274.187.4l.064.138c.072.148.145.293.219.439v.015l.03.059v.022c.084.165.17.33.247.493l.072.133.1.173.247.456-3.235,6.527,5.795,5.795,6.512-3.255.762.424c.168.091.338.18.508.266l.064.034c.155.079.306.153.456.224l.131.064c.128.062.264.126.4.185.074.034.133.062.195.086.121.057.232.1.343.153l.271.113.276.113.35.136.74.274c.158.054.318.111.478.163l.094.03c.168.054.34.109.513.158l.047.015.306.089.506.143Zm4.1-12.628a25.944,25.944,0,1,1,0,.01Zm0-35.723a15.1,15.1,0,1,1,0,.02Z" transform="translate(-57.73 -221.046)"/><path class="b" d="M308.385,574.877H238.848a4.438,4.438,0,1,1,0-8.877H334.77a.986.986,0,1,1,0,1.973H238.848a2.466,2.466,0,0,0,0,4.932h69.537a.986.986,0,1,1,0,1.973Z" transform="translate(-190.843 -472.868)"/><path class="b" d="M356.275,626.973H311.4a.986.986,0,1,1,0-1.973h44.878a.986.986,0,1,1,0,1.973Z" transform="translate(-248.103 -517.319)"/><path class="a" d="M493.26,251.74l2.984,3.852L492.2,265.815l3.171,8.48,9.585,2.774v13.4L493.9,293.918s-9.681-3.894-11.355-14.7,1.137-17.508,3.529-20.5A63.626,63.626,0,0,1,493.26,251.74Z" transform="translate(-377.408 -236.099)"/><path class="b" d="M460.148,106.624l-2.086-3.287,12.083-3.085V89.212l-9.708-3.238L456.4,76.23l4.577-9.153-2.658-2.656,3.119-2.111,4.039,4.037-5.013,10.026L463.208,83l10.635,3.543v16.578Z" transform="translate(-343.849 -47.022)"/><path class="b" d="M625.435,496.081a4.986,4.986,0,0,1-4.685-3.262L610.014,463.51a4.984,4.984,0,0,1,2.959-6.384l2.14-.784A4.981,4.981,0,0,1,621.5,459.3l10.746,29.309a4.984,4.984,0,0,1-2.959,6.382l-2.14.787A4.989,4.989,0,0,1,625.435,496.081ZM616.822,458a3.015,3.015,0,0,0-1.028.182l-2.143.8a3,3,0,0,0-1.783,3.849l10.736,29.3a3,3,0,0,0,3.849,1.783l2.143-.784a3,3,0,0,0,1.783-3.852l-10.734-29.314A3.011,3.011,0,0,0,616.822,458Z" transform="translate(-473.601 -390.02)"/><path class="b" d="M603.947,431.342l-2.047-5.58,7.01-2.572,2.047,5.58Zm.493-4.409.69,1.881,3.307-1.213-.688-1.874Z" transform="translate(-467.716 -365.272)"/><path class="b" d="M502.748,283.819a26.011,26.011,0,0,1-15.1-47.2l.264-.182a26.011,26.011,0,1,1,25.5,45.1h0c-.575.247-1.149.493-1.706.7s-1.159.4-1.726.567a25.894,25.894,0,0,1-7.227,1.023ZM488.6,238.359A24.042,24.042,0,0,0,509.409,280.9c.535-.155,1.075-.333,1.608-.528s1.048-.4,1.578-.641a24.04,24.04,0,1,0-23.81-41.505Z" transform="translate(-373.41 -221.076)"/><path class="b" d="M597.384,279.641a.986.986,0,0,1-.986-.986,17.231,17.231,0,0,0-17.212-17.212.986.986,0,1,1,0-1.973,19.207,19.207,0,0,1,19.184,19.184A.987.987,0,0,1,597.384,279.641Z" transform="translate(-449.86 -241.923)"/></svg>