<svg xmlns="http://www.w3.org/2000/svg" width="92.125" height="108.382" viewBox="0 0 92.125 108.382"><defs><style>.a{fill:#ed4a19;}.a,.b{fill-rule:evenodd;}.b{fill:#ef5a27;}</style></defs><path class="a" d="M79.932,87.463V35.224L46.062,14.3,12.193,35.224V87.463L0,79.932V28.45L46.062,0,92.125,28.45V79.932Zm-40.643,5.9,6.774,4.183,6.774-4.183V32.794l14.9,9.2v53L46.062,108.382,24.386,94.994V42l14.9-9.2Z"/><path class="b" d="M79.932,35.224,46.062,14.3,12.193,35.224v.04L0,28.451,46.062,0,92.125,28.451,79.932,35.264ZM67.739,42.078l-14.9,8.328V32.793L67.739,42Zm-28.45,8.328-14.9-8.328V42l14.9-9.205Z"/></svg>