<svg xmlns="http://www.w3.org/2000/svg" width="103.859" height="107" viewBox="0 0 103.859 107"><defs><style>.a{fill:#26221d;}</style></defs><g transform="translate(477.953 -124)"><path class="a" d="M76.62,105.217A1.783,1.783,0,0,1,74.837,107H15.964a8.922,8.922,0,0,1-8.882-9.7L12.51,35.775a8.869,8.869,0,0,1,8.882-8.133H26.9V18.5a18.5,18.5,0,0,1,37,0v9.14h5.506a1.783,1.783,0,1,1,0,3.567H63.9v8.025a1.783,1.783,0,1,1-3.567,0V31.208H36.93a1.783,1.783,0,1,1,0-3.567H60.336V18.5a14.935,14.935,0,0,0-29.871,0V39.233a1.783,1.783,0,1,1-3.567,0V31.208H21.393a5.321,5.321,0,0,0-5.329,4.88L10.635,97.613a5.345,5.345,0,0,0,5.329,5.82H74.837A1.783,1.783,0,0,1,76.62,105.217Zm32.287-32.044-5.924,4.763.823,7.558a5.35,5.35,0,0,1-5.9,5.9l-7.558-.821L85.589,96.5a5.35,5.35,0,0,1-8.34,0l-4.763-5.925-7.557.823a5.35,5.35,0,0,1-5.9-5.9l.822-7.558-5.926-4.762a5.35,5.35,0,0,1,0-8.34l5.925-4.763-.823-7.558a5.35,5.35,0,0,1,5.9-5.9l7.558.821,4.762-5.926a5.349,5.349,0,0,1,8.34,0l4.763,5.925,7.557-.823a5.35,5.35,0,0,1,5.9,5.9l-.822,7.558,5.926,4.762h0a5.35,5.35,0,0,1,0,8.34Zm-2.235-5.56-6.687-5.374a1.783,1.783,0,0,1-.656-1.583l.927-8.529a1.783,1.783,0,0,0-1.966-1.966l-8.528.929a1.783,1.783,0,0,1-1.583-.655L82.8,43.749a1.783,1.783,0,0,0-2.78,0L74.65,50.436a1.783,1.783,0,0,1-1.583.656l-8.529-.927a1.783,1.783,0,0,0-1.965,1.966l.929,8.529a1.784,1.784,0,0,1-.655,1.583L56.16,67.617a1.783,1.783,0,0,0,0,2.78l6.687,5.374a1.783,1.783,0,0,1,.656,1.583l-.927,8.529a1.783,1.783,0,0,0,1.966,1.966l8.528-.929a1.784,1.784,0,0,1,1.583.655l5.375,6.686a1.783,1.783,0,0,0,2.78,0l5.374-6.687a1.784,1.784,0,0,1,1.583-.656l8.529.927a1.783,1.783,0,0,0,1.965-1.966l-.929-8.529a1.784,1.784,0,0,1,.655-1.583l6.686-5.375a1.783,1.783,0,0,0,0-2.78ZM89.016,61.6a1.783,1.783,0,0,0-2.522,0L73.119,74.976A1.783,1.783,0,0,0,75.641,77.5L89.016,64.124A1.783,1.783,0,0,0,89.016,61.6Zm2.306,14.19A3.121,3.121,0,1,1,88.2,72.671,3.124,3.124,0,0,1,91.321,75.792Zm-2.675,0a.446.446,0,1,0-.446.446A.446.446,0,0,0,88.646,75.792ZM71.7,62.417a3.121,3.121,0,1,1,3.121,3.121A3.124,3.124,0,0,1,71.7,62.417Zm2.675,0a.446.446,0,1,0,.446-.446A.446.446,0,0,0,74.38,62.417Z" transform="translate(-485 124)"/></g></svg>