<svg xmlns="http://www.w3.org/2000/svg" width="124.809" height="124.816" viewBox="0 0 124.809 124.816"><defs><style>.a{fill:#febc61;}</style></defs><path class="a" d="M96.215,52.966a2.961,2.961,0,0,0-1.684,4.211,41.509,41.509,0,0,1,2.948,16A45.481,45.481,0,1,1,52,27.7,56.084,56.084,0,0,1,66.316,29.8,3.066,3.066,0,1,0,68,23.909a50.906,50.906,0,0,0-16-2.527,51.8,51.8,0,1,0,51.8,51.8,55.47,55.47,0,0,0-3.369-18.529C100.005,53.387,97.9,52.545,96.215,52.966ZM52,62.652a3.322,3.322,0,0,0,3.369-3.369A3.1,3.1,0,0,0,52,55.914,16.845,16.845,0,1,0,68.842,72.758a3.322,3.322,0,0,0-3.369-3.369c-2.106,0-2.948,2.106-2.948,3.79A10.528,10.528,0,1,1,52,62.652ZM67.579,46.228c.842-1.684,0-3.369-1.684-4.211A31.733,31.733,0,0,0,52,39.069,34.329,34.329,0,0,0,17.466,73.179a34.532,34.532,0,1,0,69.063,0,30.512,30.512,0,0,0-2.948-13.9c-.842-1.684-2.527-2.527-4.211-1.684a3.449,3.449,0,0,0-1.684,4.211,27.8,27.8,0,0,1,2.527,11.37A28.215,28.215,0,1,1,52,44.965a25.073,25.073,0,0,1,11.37,2.527A3.274,3.274,0,0,0,67.579,46.228Zm57.272-21.056a2.669,2.669,0,0,0-2.527-2.106l-17.266-2.948L102.111,2.853A2.669,2.669,0,0,0,100.005.326a3.275,3.275,0,0,0-3.369.842L76,21.8a2.6,2.6,0,0,0-.842,2.948l3.369,17.687L52,68.968h-.421A4.632,4.632,0,1,0,56.209,73.6h0L83.16,46.649l17.266,3.369h.421a3.217,3.217,0,0,0,2.106-.842l8.528-8.528,12.107-12.107A2.822,2.822,0,0,0,124.851,25.172ZM81.9,24.751l15.16-15.16,2.106,11.791L84.424,36.121ZM100.426,43.28l-11.37-2.106L103.8,26.435l11.37,2.106Z" transform="translate(-0.2 -0.161)"/></svg>