<svg xmlns="http://www.w3.org/2000/svg" width="194.07" height="97.431" viewBox="0 0 194.07 97.431"><defs><style>.a{fill:#1e365a;}.b{fill:#febc61;}</style></defs><path class="a" d="M579.96,258.131H540.167l.389-1.169a10.138,10.138,0,0,0-.033-4.185,2.042,2.042,0,0,0-1.089-1.333c-2.077-1.311-6.911-1.813-12.132-.258-4.134,1.226-7.967.829-10.253-1.062a4.03,4.03,0,0,1-1.648-3.466c.2-1.986-1.215-8.98-1.777-11.508l-.156-.7.329-.151-.737-.056.222-5.8a.973.973,0,0,0-.855-1l-3.164-.371a3.555,3.555,0,0,1-2.733-5.207,98.006,98.006,0,0,1,5.463-9.5c2.259-2.906,2.059-8.906,1.915-13.29-.04-1.193-.078-2.319-.064-3.281.093-7.425,1.6-12.428,5.2-17.271,6.929-9.331,19.086-16.191,30.971-17.495,10.239-1.111,20.365.653,28.512,5,9.582,5.11,16.357,13.7,19.592,24.851,6,20.661-11.43,45.269-16.915,52.318a5.945,5.945,0,0,0-1.244,3.639Zm-37.5-1.777h35.721v-9.517a7.735,7.735,0,0,1,1.616-4.731c5.355-6.888,22.379-30.881,16.614-50.731-6.98-24.04-28.436-30.527-46.209-28.581-11.239,1.233-23.187,7.971-29.734,16.788-3.355,4.514-4.759,9.217-4.848,16.233-.013.922.024,2.028.062,3.2.164,4.912.367,11.026-2.286,14.44a91.322,91.322,0,0,0-5.3,9.24,1.777,1.777,0,0,0,1.368,2.6l3.164.373a2.759,2.759,0,0,1,2.422,2.833l-.158,4.092,5.925.444-5.312,2.415c.5,2.319,1.886,9.071,1.657,11.366a2.339,2.339,0,0,0,1.013,1.917c.706.584,3.332,2.295,8.613.729,5.136-1.522,10.721-1.333,13.581.444a3.792,3.792,0,0,1,1.9,2.559A14.584,14.584,0,0,1,542.462,256.354Z" transform="translate(-405.286 -160.699)"/><path class="a" d="M110.225,258.124H71.667V246.829a5.945,5.945,0,0,0-1.24-3.648c-5.485-7.049-22.916-31.653-16.917-52.318,3.232-11.137,10.006-19.73,19.583-24.842,8.147-4.348,18.273-6.123,28.512-5A42.806,42.806,0,0,1,132.2,179.749c3.688,5.687,4.581,10.872,4.887,17.906.029.667.044,1.382.062,2.144.091,4.066.222,9.637,2.488,12.559a97.532,97.532,0,0,1,5.463,9.5,3.555,3.555,0,0,1-2.73,5.194l-3.164.371a.978.978,0,0,0-.855,1l.222,5.8-.74.056.329.151-.156.7c-.562,2.528-1.975,9.522-1.777,11.508a4.054,4.054,0,0,1-1.648,3.466c-2.284,1.891-6.118,2.288-10.25,1.062-5.223-1.555-10.057-1.042-12.134.258a2.1,2.1,0,0,0-1.089,1.333,9.606,9.606,0,0,0-.022,4.2l.36,1.155Zm-36.781-1.777h35.719a14.59,14.59,0,0,1,.187-3.87,3.818,3.818,0,0,1,1.9-2.559c2.861-1.788,8.442-1.975,13.581-.444,5.283,1.566,7.929-.162,8.613-.729a2.371,2.371,0,0,0,1.013-1.917c-.222-2.295,1.157-9.046,1.657-11.366l-5.312-2.415,5.925-.444-.158-4.092a2.759,2.759,0,0,1,2.424-2.833l3.161-.373a1.777,1.777,0,0,0,1.364-2.617,92.14,92.14,0,0,0-5.3-9.24c-2.633-3.386-2.759-9.055-2.861-13.609-.018-.753-.033-1.464-.06-2.108-.291-6.887-1.111-11.641-4.594-17.015a40.958,40.958,0,0,0-29.294-17.928c-17.759-1.946-39.224,4.541-46.209,28.581-5.776,19.857,11.257,43.85,16.611,50.73a7.738,7.738,0,0,1,1.62,4.732Z" transform="translate(-52.271 -160.692)"/><path class="b" d="M124.207,311.42h0a.653.653,0,0,1,.264-.487,2.268,2.268,0,0,1,1.6-.056l.444-1.531a3.757,3.757,0,0,0-2.935.287,2.067,2.067,0,0,0-.511.52h0a5.535,5.535,0,0,0-6.945.136l1.022,1.22c2.39-2.017,4.887-.2,5.581.389.589,3.295,4.983,4.847,5.174,4.912l.518-1.506S124.455,313.877,124.207,311.42Z" transform="translate(-101.935 -276.042)"/><path class="b" d="M179.348,251.572c.8,1.229,3.555,5.007,6.9,4.728l.136,1.6h-.511c-4.783,0-7.971-5.525-8.084-5.776v-.064a32.512,32.512,0,0,0-5.923,2.9l-.311.191-.375-.1c-2.39-.749-6.1-1.333-7.031-.311-.422.455-.167,1.364.111,2.051l-1.475.613c-.666-1.6-.613-2.87.184-3.739,1.793-1.962,6.7-.726,8.346-.24,11.863-7.1,16.982-2.719,17.2-2.528l-.533.6-.535.6.535-.6-.527.6s-2.495-2.033-8.075-.527Z" transform="translate(-137.877 -229.683)"/><path class="b" d="M280.016,210.717a7.38,7.38,0,0,1,.16,5.39l-1.515-.5c.844-2.528.176-4.832-1.986-6.84A13.229,13.229,0,0,0,273,206.372l.582-1.482A12.936,12.936,0,0,1,279.034,209l.129-.136a3.013,3.013,0,0,1,1.8-1.069c2.39-.462,5.039,1.848,5.332,2.113l-1.06,1.2c-.646-.573-2.63-2-4-1.737a1.637,1.637,0,0,0-1.146.989A1.731,1.731,0,0,0,280.016,210.717Z" transform="translate(-223.963 -195.071)"/><path class="b" d="M149.6,206.614a4.783,4.783,0,0,0-1.835-5.11c-.222-4.967-4.568-7.287-6.027-7.973-.749-4.463-6.378-5.31-8.187-5.461-1.037-1.866-4.29-2.128-5.581-2.159-.911-1.062-3.024-.686-4.234-.351-2.695-3.877-9.806-1.937-11.432-1.435-3.988-1.875-7.591.542-8.549,1.275-2.184.142-5.214,2.222-6.049,2.79a11.264,11.264,0,0,0-8.22,4.465,11.423,11.423,0,0,0-1.731,3.412c-2.666.644-3.714,3.523-4.632,5.914-.558,1.493-1.133,3.039-1.922,3.51-2.666,1.593-1.9,5.723-1.635,6.807a6.42,6.42,0,0,0,1.044,5.4,11.3,11.3,0,0,0,2.117,2.706,2.5,2.5,0,0,0,2.93.473,8.371,8.371,0,0,1,2.584-.282,32.852,32.852,0,0,1,7.176.964h.3c7.271-1.038,9.377,3.532,9.464,3.723l1.811.318c1.06.153,2.313,1.38,3.714,2.753,2.528,2.468,5.669,5.083,9.433,4.874,3.332-.184,7.307,0,9.917-2.49a5.934,5.934,0,0,0,1.817-4.179h.064a16.953,16.953,0,0,0,2.7.222c3.7,0,5.452-1.451,6-2,5.676-1.931,7.109-5.11,7.429-6.107a5.956,5.956,0,0,0,2.444-4.783A7.8,7.8,0,0,0,149.6,206.614Zm-.638,6.887-.071.2v.207a4.05,4.05,0,0,1-1.4,3.11l-.056-.04a3.519,3.519,0,0,0-1.491-.933c-1.6-.493-3.508,0-5.776,1.555l.889,1.333c1.808-1.2,3.332-1.673,4.385-1.355a1.915,1.915,0,0,1,1.02.742c-.287.8-1.6,3.381-6.578,5.023l-.238.089-.153.191s-1.928,2.39-7.684,1.333h-.089a5.247,5.247,0,0,0-1.226-2.444h.175a7.1,7.1,0,0,0,3.4-.989c2-1.2,3.188-3.428,3.595-6.649v-.16a4.561,4.561,0,0,0,2.815-2.535,6.472,6.472,0,0,0-.375-4.783l.16-.08a6.3,6.3,0,0,0,2.71-4.545l-1.6-.118a5.064,5.064,0,0,1-2.119,3.443h-.071c-1.046-.726-4.074-3.246-2.393-7.176l-1.466-.631c-1.971,4.594,1.111,7.973,3.188,9.282.3.566,1.164,2.488.567,3.985a2.819,2.819,0,0,1-1.46,1.451l-.182.073a6.48,6.48,0,0,0-2.393-3.508c-1.962-1.4-4.783-1.6-8.275-.444l.478,1.522c3.021-.949,5.332-.878,6.865.222a5.432,5.432,0,0,1,2,3.754c-.327,2.666-1.266,4.585-2.806,5.51a7.173,7.173,0,0,1-5.238.493h-.129a17.692,17.692,0,0,0-6.129-1.362c-.8-3.637-2.233-6-4.259-7.04a5.258,5.258,0,0,0-4.177-.222c-3.712-.153-7.967-5.749-7.967-5.8l-1.275.957c.176.222,3.754,4.959,7.684,6.154a10.637,10.637,0,0,0-1.793,5.805l1.6.1c.238-3.939,1.808-5.405,2.128-5.652l.16-.073a3.7,3.7,0,0,1,2.966.136c1.657.846,2.888,3.11,3.555,6.547l.127.644h.666c.087,0,9.128.064,9.128,5.31a4.781,4.781,0,0,1-.742,2.759,25.461,25.461,0,0,1-7.5-.7v-.118a9.506,9.506,0,0,0-.949-4.33l-1.426.709a8.153,8.153,0,0,1,.784,3.19v.047a7.318,7.318,0,0,1-4.785-4.783l-1.537.415c1.673,6.265,9.511,7.176,13.329,7.238h.08c-2.495,1.189-6.22,1.111-9.024.933-2.617-.175-4.785-2.319-6.754-4.21s-3.6-3.523-5.51-3.188c-.924-1.484-3.85-4.976-10.664-4.059-1.355-.327-8.124-1.851-11.312-.3-.8-.711-3.986-3.843-3.332-6.563h.049c1-.271,2.815-1.346,4.385-5.485l-1.491-.567c-1.146,2.83-2.313,3.874-2.948,4.25-.222-1.235-.424-3.659,1.02-4.519,1.269-.8,1.913-2.488,2.6-4.321s1.444-3.859,2.821-4.65a8.946,8.946,0,0,0,4,7.678l.933-1.291a7.236,7.236,0,0,1-3.237-7.36,9.564,9.564,0,0,1,7.653-6.976v.049c-.686,2.295-1.6,7.031,1.6,9.775l1.044-1.2c-1.922-1.666-1.875-4.474-1.484-6.563a6.825,6.825,0,0,1,2.393,1.6l1.149-1.164a7.951,7.951,0,0,0-3.11-1.953,9.279,9.279,0,0,1,.311-.942v-.047c1.442-1.029,3.986-2.5,5.381-2.444h.32l.238-.207c.144-.129,3.555-3.006,7.216-1.157.127.24.511,1.3-.422,4.552a5.019,5.019,0,0,0-1.953,6.643l1.451-.666c-.144-.327-1.315-3.126,1.306-4.592a3.084,3.084,0,0,1,2.393,2.981l1.6-.142a4.725,4.725,0,0,0-3.141-4.259,9.673,9.673,0,0,0,.4-4.7c2.2-.589,7.653-1.691,9.233,1.4l.311.606.653-.222c1.555-.518,3.055-.542,3.15-.287l.191.542h.573c1.389,0,4.345.311,4.681,1.537l.151.567h.591c.071,0,6.887.28,7.231,4.528l.047.52.5.167c.222.08,5.43,1.931,5.43,7.04v.444l.367.222a3.447,3.447,0,0,1,1.6,3.381c-.666.24-1.6,1.164-2.848,5.134l1.515.487a14.241,14.241,0,0,1,1.642-3.866,6.374,6.374,0,0,1,.475,5.8Z" transform="translate(-73.265 -178.196)"/><path class="b" d="M804.9,315.3l.518,1.506c.191-.064,4.586-1.617,5.174-4.912.7-.589,3.19-2.406,5.583-.389l1.02-1.22a5.535,5.535,0,0,0-6.945-.135h0a2.068,2.068,0,0,0-.511-.52,3.753,3.753,0,0,0-2.933-.287l.444,1.531a2.262,2.262,0,0,1,1.593.056.646.646,0,0,1,.264.487h0C808.863,313.877,804.9,315.3,804.9,315.3Z" transform="translate(-637.697 -276.042)"/><path class="b" d="M705.3,251.587c-5.581-1.506-8.078.526-8.078.526l-.526-.6.535.6-.535-.6-.533-.6c.222-.191,5.332-4.568,17.2,2.528,1.642-.487,6.554-1.722,8.346.24.8.869.853,2.144.184,3.739l-1.475-.613c.28-.686.535-1.6.111-2.051-.933-1.029-4.639-.444-7.031.311l-.375.1-.311-.191a32.437,32.437,0,0,0-5.923-2.9v.064c-.111.247-3.3,5.776-8.084,5.776h-.511l.135-1.6c3.348.28,6.107-3.5,6.9-4.728Z" transform="translate(-553.115 -229.698)"/><path class="b" d="M649.636,210.351a1.644,1.644,0,0,0-1.149-.989c-1.355-.264-3.332,1.164-3.988,1.737l-1.06-1.2c.3-.264,2.95-2.575,5.332-2.113a3.019,3.019,0,0,1,1.8,1.069l.127.135a12.929,12.929,0,0,1,5.454-4.105l.582,1.482a13.275,13.275,0,0,0-3.668,2.393c-2.162,2-2.83,4.312-1.986,6.84l-1.515.5a7.39,7.39,0,0,1,.16-5.39,1.723,1.723,0,0,0-.091-.367Z" transform="translate(-512.107 -195.071)"/><path class="b" d="M574.643,213.844c-.04.666.047,2.741,2.444,4.783.32,1,1.755,4.177,7.431,6.107.542.558,2.295,2,6,2a16.944,16.944,0,0,0,2.7-.222h.064a5.943,5.943,0,0,0,1.817,4.179c2.61,2.486,6.6,2.306,9.917,2.49,3.777.209,6.9-2.406,9.433-4.874,1.4-1.373,2.655-2.6,3.714-2.753l1.811-.318c.089-.191,2.193-4.761,9.464-3.723h.3a32.88,32.88,0,0,1,7.176-.964,8.371,8.371,0,0,1,2.584.282,2.5,2.5,0,0,0,2.93-.473,10.973,10.973,0,0,0,2.117-2.706,6.42,6.42,0,0,0,1.044-5.4c.262-1.084,1.029-5.214-1.635-6.807-.789-.471-1.364-2.017-1.922-3.51-.924-2.382-1.975-5.27-4.639-5.914a11.175,11.175,0,0,0-9.957-7.878c-.838-.558-3.868-2.648-6.052-2.79-.958-.733-4.561-3.15-8.546-1.275-1.626-.5-8.74-2.444-11.435,1.435-1.211-.335-3.332-.711-4.221.351-1.293.031-4.545.293-5.581,2.159-1.811.151-7.44,1-8.189,5.461-1.46.686-5.8,3.006-6.027,7.973a4.788,4.788,0,0,0-1.835,5.11A7.8,7.8,0,0,0,574.643,213.844Zm2.017-6.187a14.237,14.237,0,0,1,1.642,3.866l1.515-.487c-1.251-3.97-2.177-4.887-2.846-5.134a3.421,3.421,0,0,1,1.6-3.381l.367-.222v-.444c0-5.11,5.205-6.96,5.43-7.04l.493-.167.049-.52c.351-4.248,7.158-4.528,7.231-4.528h.589l.151-.567c.335-1.226,3.295-1.537,4.681-1.537h.573l.193-.542c.1-.255,1.6-.222,3.148.287l.653.222.311-.606c1.58-3.095,7.034-2,9.233-1.4a9.889,9.889,0,0,0,.4,4.7,4.719,4.719,0,0,0-3.141,4.259l1.593.142a3.083,3.083,0,0,1,2.393-2.99c2.624,1.466,1.451,4.265,1.308,4.592l1.451.666a5.016,5.016,0,0,0-1.955-6.643c-.931-3.252-.549-4.312-.422-4.552,3.668-1.848,7.071,1.029,7.216,1.157l.24.207h.318c1.4-.049,3.939,1.42,5.383,2.444v.047c.08.209.191.535.311.942a7.918,7.918,0,0,0-3.11,1.953l1.146,1.164a6.824,6.824,0,0,1,2.4-1.6c.391,2.088.444,4.887-1.482,6.563l1.044,1.2c3.188-2.744,2.279-7.48,1.593-9.775v-.049a9.571,9.571,0,0,1,7.656,6.976,7.241,7.241,0,0,1-3.237,7.36l.931,1.291a8.942,8.942,0,0,0,4-7.678c1.38.791,2.137,2.815,2.821,4.65s1.333,3.523,2.6,4.321c1.444.86,1.237,3.283,1.022,4.519-.631-.367-1.8-1.411-2.95-4.241l-1.491.566c1.571,4.139,3.379,5.214,4.383,5.485h.049c.646,2.719-2.544,5.852-3.332,6.563-3.188-1.555-9.957-.024-11.312.3-6.8-.918-9.726,2.575-10.664,4.059-1.9-.335-3.539,1.3-5.51,3.188s-4.137,4.034-6.751,4.21c-2.8.184-6.529.255-9.026-.933h.08c3.819-.062,11.657-.973,13.33-7.238l-1.54-.415c-.646,2.444-2.575,3.908-4.783,4.783V227.6a8.114,8.114,0,0,1,.8-3.19L604,223.706a9.507,9.507,0,0,0-.949,4.33v.118a25.461,25.461,0,0,1-7.5.7,4.781,4.781,0,0,1-.742-2.759c0-5.245,9.042-5.31,9.129-5.31h.666l.129-.644c.666-3.437,1.888-5.7,3.555-6.547a3.7,3.7,0,0,1,2.966-.136l.16.073c.318.247,1.888,1.713,2.128,5.652l1.593-.1a10.637,10.637,0,0,0-1.793-5.8c3.93-1.2,7.511-5.923,7.687-6.154l-1.277-.957c0,.056-4.257,5.645-7.971,5.789a5.263,5.263,0,0,0-4.179.222c-2.024,1.035-3.459,3.4-4.257,7.04a17.706,17.706,0,0,0-6.132,1.362h-.129a7.173,7.173,0,0,1-5.245-.5c-1.54-.924-2.479-2.837-2.806-5.51a5.432,5.432,0,0,1,2-3.754c1.54-1.093,3.843-1.164,6.865-.222l.478-1.522c-3.49-1.149-6.314-.958-8.275.444a6.464,6.464,0,0,0-2.39,3.508l-.184-.073a2.828,2.828,0,0,1-1.46-1.451c-.6-1.5.271-3.419.566-3.986,2.073-1.309,5.159-4.688,3.19-9.282l-1.477.653c1.684,3.93-1.346,6.443-2.39,7.176h-.073a5.064,5.064,0,0,1-2.119-3.443l-1.6.118a6.305,6.305,0,0,0,2.71,4.545l.16.08a6.472,6.472,0,0,0-.375,4.783,4.574,4.574,0,0,0,2.815,2.535v.16c.407,3.221,1.6,5.454,3.6,6.649a7.083,7.083,0,0,0,3.412.946h.176a5.249,5.249,0,0,0-1.226,2.444h-.087c-5.758,1.069-7.687-1.333-7.687-1.333l-.151-.191-.24-.089c-4.983-1.642-6.289-4.221-6.578-5.023a1.911,1.911,0,0,1,1.022-.742c1.06-.318,2.575.153,4.385,1.355l.889-1.333c-2.273-1.555-4.185-2.042-5.776-1.555a3.52,3.52,0,0,0-1.491.933l-.055.04a4.033,4.033,0,0,1-1.4-3.11v-.207l-.073-.2A6.374,6.374,0,0,1,576.66,207.657Z" transform="translate(-458.194 -178.162)"/></svg>