<svg xmlns="http://www.w3.org/2000/svg" width="106.269" height="107" viewBox="0 0 106.269 107"><defs><style>.a{fill:#26221d;}</style></defs><g transform="translate(-1.75)"><path class="a" d="M105.278,32.1H87.06V26.964a3.811,3.811,0,0,0-3.807-3.807H80.378V19.446a3.087,3.087,0,0,0-3.084-3.084H75.633V1.567a1.567,1.567,0,1,0-3.135,0V16.362H68.921V7.391a1.567,1.567,0,1,0-3.135,0v8.971h-23.1A3.087,3.087,0,0,0,39.6,19.446v3.707l-2.875,0a3.811,3.811,0,0,0-3.807,3.807v7.955l-11.416,5.2a1.567,1.567,0,1,0,1.3,2.852l10.116-4.611V53.434H15.734a2.583,2.583,0,0,0-2.58,2.58v5.871a2.583,2.583,0,0,0,2.58,2.58H32.921v6H15.734a2.586,2.586,0,0,0-2.58,2.586v5.865a2.586,2.586,0,0,0,2.58,2.586H32.921v6H15.734a2.583,2.583,0,0,0-2.58,2.58v5.871a2.583,2.583,0,0,0,2.58,2.58H32.921v5.331H4.885v-52c0-.619.555-.977,2.223-1.74l9.08-4.138a1.567,1.567,0,0,0-1.3-2.852L5.853,47.249l-.048.022c-1.711.782-4.055,1.854-4.055,4.591v52.593A2.545,2.545,0,0,0,4.289,107H105.278a2.746,2.746,0,0,0,2.74-2.746V34.836a2.743,2.743,0,0,0-2.74-2.74ZM87.06,45.675h8.565v4.768H87.06Zm0,17.037h8.565v4.762H87.06Zm0,17.032h8.565v4.762H87.06ZM16.288,61.331V56.569H32.921v4.762Zm0,17.037V73.6H32.921v4.768Zm0,17.031V90.638H32.921V95.4ZM36.056,26.963a.681.681,0,0,1,.674-.672l19.945-.03a1.567,1.567,0,0,0,0-3.135h0l-13.933.021V19.5H77.243v3.66H63.936a1.567,1.567,0,0,0,0,3.135H83.254a.681.681,0,0,1,.672.672v76.9H71.64V88.233h3.3a1.567,1.567,0,0,0,0-3.135h-29.9a1.567,1.567,0,1,0,0,3.135h3.3v15.632H36.056v-76.9Zm15.42,61.269h6.947v15.632H51.476Zm10.082,15.632V88.233h6.948v15.632Zm43.326,0H87.06V87.64h9.113a2.586,2.586,0,0,0,2.586-2.58V79.189a2.586,2.586,0,0,0-2.586-2.58H87.06v-6h9.113a2.586,2.586,0,0,0,2.586-2.58V62.158a2.586,2.586,0,0,0-2.586-2.58H87.06v-6h9.113a2.589,2.589,0,0,0,2.586-2.586V45.127a2.589,2.589,0,0,0-2.586-2.586H87.06V35.231h17.824Z"/><path class="a" d="M201.431,165.52h9.722a2.255,2.255,0,0,0,2.253-2.253v-7.405a2.255,2.255,0,0,0-2.253-2.253h-9.722a2.256,2.256,0,0,0-2.253,2.253v7.405A2.255,2.255,0,0,0,201.431,165.52Zm1-8.659h7.723v5.407H202.43Z" transform="translate(-156.397 -121.651)"/><path class="a" d="M298.317,165.52h9.722a2.256,2.256,0,0,0,2.253-2.253v-7.405a2.255,2.255,0,0,0-2.253-2.253h-9.722a2.256,2.256,0,0,0-2.253,2.253v7.405A2.255,2.255,0,0,0,298.317,165.52Zm1-8.659h7.723v5.407h-7.723Z" transform="translate(-233.148 -121.651)"/><path class="a" d="M201.431,244.211h9.722a2.255,2.255,0,0,0,2.253-2.253v-7.4a2.258,2.258,0,0,0-2.253-2.259h-9.722a2.259,2.259,0,0,0-2.253,2.259v7.4A2.255,2.255,0,0,0,201.431,244.211Zm1-8.659h7.723v5.407H202.43Z" transform="translate(-156.397 -183.971)"/><path class="a" d="M298.317,244.211h9.722a2.255,2.255,0,0,0,2.253-2.253v-7.4a2.258,2.258,0,0,0-2.253-2.259h-9.722a2.258,2.258,0,0,0-2.253,2.259v7.4A2.255,2.255,0,0,0,298.317,244.211Zm1-8.659h7.723v5.407h-7.723Z" transform="translate(-233.148 -183.971)"/><path class="a" d="M201.431,322.929h9.722a2.255,2.255,0,0,0,2.253-2.253v-7.405a2.255,2.255,0,0,0-2.253-2.253h-9.722a2.256,2.256,0,0,0-2.253,2.253v7.405A2.255,2.255,0,0,0,201.431,322.929Zm1-8.659h7.723v5.407H202.43Z" transform="translate(-156.397 -246.312)"/><path class="a" d="M298.317,322.929h9.722a2.255,2.255,0,0,0,2.253-2.253v-7.405a2.255,2.255,0,0,0-2.253-2.253h-9.722a2.256,2.256,0,0,0-2.253,2.253v7.405A2.255,2.255,0,0,0,298.317,322.929Zm1-8.659h7.723v5.407h-7.723Z" transform="translate(-233.148 -246.312)"/></g></svg>