<svg xmlns="http://www.w3.org/2000/svg" width="424" height="56.167" viewBox="0 0 424 56.167"><defs><style>.a{fill:#f49512;}.b{fill:#3c516f;}</style></defs><g transform="translate(-280 -12)"><g transform="translate(-1142 297)"><path class="a" d="M695.717,778.6a7.716,7.716,0,0,0-3.467,4.166,30.5,30.5,0,0,0-.73,7.463v33.134h9.514V797.845h6.6v-7.611h-6.6v-1.246a6.7,6.7,0,0,1,.655-3.412,2.9,2.9,0,0,1,2.657-1.049q1.38,0,3.478.164v-7.545a32.816,32.816,0,0,0-4.527-.365A13.744,13.744,0,0,0,695.717,778.6Z" transform="translate(788.785 -1055.853)"/><path class="a" d="M1007.254,860.688a43.567,43.567,0,0,0-8.394-1.732q-3.808-.487-4.708-1.193a2.278,2.278,0,0,1-.9-1.89q0-2.992,4.927-2.991,5.217,0,6.463,4.494l7.116-1.9a12.88,12.88,0,0,0-4.821-6.627,15.105,15.105,0,0,0-8.394-2.066q-6.628,0-10.3,3.084a9.757,9.757,0,0,0-3.673,7.806,8.9,8.9,0,0,0,3.164,7.268q3.164,2.606,13.187,3.837,3.708.422,3.706,2.724a2.622,2.622,0,0,1-1.673,2.35,8.848,8.848,0,0,1-4.1.872q-6.332,0-7.348-4.461l-8.235,1.213q2.461,9.81,15.123,9.81,6.989,0,10.876-3.215a10.312,10.312,0,0,0,3.887-8.334,9.942,9.942,0,0,0-1.591-5.741A8.643,8.643,0,0,0,1007.254,860.688Z" transform="translate(550.272 -1113.079)"/><path class="a" d="M1185.44,811.383v-7.611h-11.313V793.34h-9.777V826.8q0,6.135,2.555,8.48t8.66,2.347a41.537,41.537,0,0,0,6.135-.73v-7.242q-1.766.132-3.1.131-2.906,0-3.691-.885t-.783-3.509v-14.01Z" transform="translate(402.234 -1069.391)"/><path class="a" d="M803.463,887.654A15.51,15.51,0,0,1,792,883.145,15.9,15.9,0,0,1,803.3,856c4.927,0,8.857,1.442,11.66,4.284s4.232,6.83,4.232,11.837v14.842h-9.87V873.009a7.5,7.5,0,0,0-1.535-4.892,5.329,5.329,0,0,0-4.323-1.982,6.021,6.021,0,0,0-5.958,5.956,5.784,5.784,0,0,0,1.62,4.184,5.541,5.541,0,0,0,4.109,1.673,6.838,6.838,0,0,0,1.785-.233v9.841a13.349,13.349,0,0,1-1.557.1Z" transform="translate(710.368 -1120.617)"/><path class="b" d="M1328.684,836.67v14.313q-2.87,0-3.941,1.071t-1.361,4.232q-.947,10.5-8.138,14.821-3.814,2.252-10.824,2.252h-1.888V858.974h.617q3.27,0,4.668-1.361t1.617-4.777a33.643,33.643,0,0,1,1.036-7.81,11.327,11.327,0,0,1,3.032-4.463q4-3.887,11.078-3.887Z" transform="translate(289.269 -1104.814)"/><path class="b" d="M1477.4,829.7a17.949,17.949,0,0,1,13.2,5.54,18.789,18.789,0,0,1-.073,26.645,19.162,19.162,0,0,1-26.935-.018,18.117,18.117,0,0,1-5.594-13.35,17.917,17.917,0,0,1,5.594-13.385A19.06,19.06,0,0,1,1477.4,829.7Zm-.365,13.4a4.959,4.959,0,0,0-3.706,1.58,5.619,5.619,0,0,0,.018,7.719,5.093,5.093,0,0,0,7.41,0,5.62,5.62,0,0,0,.018-7.719,5,5,0,0,0-3.739-1.58Z" transform="translate(162.168 -1099.116)"/><path class="b" d="M1711.466,760.63v49.584H1697.88V760.63Z" transform="translate(-33.94 -1042.65)"/><path class="b" d="M1815.93,836.67h13.585v20.452q0,3.088,2.58,3.087,2.54,0,2.542-3.087V836.67h13.585v20.2a16.469,16.469,0,0,1-4.686,11.9,16.313,16.313,0,0,1-23.937-.781q-3.67-4.392-3.669-12.206Z" transform="translate(-130.449 -1104.814)"/><path class="b" d="M2041.7,760.63V774.5h6.1v14.355h-6.1q0,4.325,1.363,5.958t4.994,1.642v14.275c-.7.026-1.224.036-1.562.036a18.462,18.462,0,0,1-8.7-2.142,17.61,17.61,0,0,1-6.556-5.812q-3.126-4.686-3.124-12.423V760.645Z" transform="translate(-303.912 -1042.65)"/><path class="b" d="M2186.245,761.463v36.216H2172.66V761.463Zm-6.751-16.165a6.658,6.658,0,0,1,4.774,1.953,6.438,6.438,0,0,1,.1,9.244,7.454,7.454,0,0,1-9.771,0,6.438,6.438,0,0,1,.1-9.244,6.652,6.652,0,0,1,4.792-1.953Z" transform="translate(-422.085 -1030.114)"/><path class="b" d="M2298.159,829.7a17.954,17.954,0,0,1,13.2,5.54,18.789,18.789,0,0,1-.073,26.645,19.162,19.162,0,0,1-26.935-.018,18.1,18.1,0,0,1-5.594-13.35,17.916,17.916,0,0,1,5.594-13.385A19.059,19.059,0,0,1,2298.159,829.7Zm-.365,13.4a4.961,4.961,0,0,0-3.706,1.58,5.62,5.62,0,0,0,.018,7.719,5.093,5.093,0,0,0,7.411,0,5.62,5.62,0,0,0,.018-7.719,5,5,0,0,0-3.739-1.58Z" transform="translate(-508.825 -1099.116)"/><path class="b" d="M2550.933,866.68h-13.584V846.229q0-3.124-2.579-3.124-2.544,0-2.544,3.124V866.68H2518.64v-20.2a16.519,16.519,0,0,1,4.687-11.932,16.315,16.315,0,0,1,23.938.781q3.668,4.4,3.667,12.242Z" transform="translate(-704.933 -1099.116)"/><path class="b" d="M424.968,795.231a2.631,2.631,0,0,0-2.423,1.611,24.569,24.569,0,0,1-5.277-1.115,24.764,24.764,0,0,0,.285-3.029,6.98,6.98,0,0,0-.157-1.974c-.547-2.155-2.555-3.423-4.024-4.348-.168-.106-.611-.389-.65-.575a1.425,1.425,0,0,1,0-.259V785.2A2.3,2.3,0,0,0,410.9,783a3.877,3.877,0,0,1-.538-.23,2.435,2.435,0,0,1-1.352-1.25,6.318,6.318,0,0,1-.307-1.3,4.043,4.043,0,0,0-.989-2.515,2.042,2.042,0,0,0-2.035-.431c-1.5.535-2.29,2.863-2.945,5.609A24.491,24.491,0,0,1,400.4,773.1c2.177-1.144,3.078-3.732,3.679-5.461a3.415,3.415,0,0,1,.566-1.155c.566-.6,1.575-.516,3.045-.316.279.038.547.075.821.1a6.351,6.351,0,0,0,3.735-.609A4.124,4.124,0,0,0,414.5,762.3a6.126,6.126,0,0,0-.047-.912,4.113,4.113,0,0,1-.036-.681.772.772,0,0,1,.137-.409,1.4,1.4,0,0,1,.4.115,2.656,2.656,0,0,0,1.182.215,2.327,2.327,0,0,0,1.425-.73,4.525,4.525,0,0,0,1.3-3.9,7.842,7.842,0,0,0-.885-2.338,9.872,9.872,0,0,1-.586-1.294,5.665,5.665,0,0,1,.593-3.573,24.489,24.489,0,0,1,4.232-.856,2.644,2.644,0,1,0-.069-1.807,26.382,26.382,0,0,0,.328,52.494,2.622,2.622,0,1,0,2.5-3.409Zm-.332-49.122a.828.828,0,1,1-.828.828A.828.828,0,0,1,424.636,746.109Zm-8.85,3.467a5.958,5.958,0,0,0-.1,3.381,11.486,11.486,0,0,0,.688,1.538,6.361,6.361,0,0,1,.712,1.8,2.737,2.737,0,0,1-.774,2.328c-.215.214-.316.214-.316.214a2.387,2.387,0,0,1-.418-.117,2.479,2.479,0,0,0-1.369-.182,2.143,2.143,0,0,0-1.576,2.051,5.7,5.7,0,0,0,.042.989,4.537,4.537,0,0,1,.038.642,2.357,2.357,0,0,1-1.3,1.856,4.8,4.8,0,0,1-2.7.405c-.25-.027-.507-.062-.766-.1-1.5-.2-3.359-.456-4.6.87a4.775,4.775,0,0,0-.952,1.8,10.424,10.424,0,0,1-1.945,3.8,24.6,24.6,0,0,1,15.341-21.282Zm-11.748,35.7c.049-.21.1-.458.171-.759.285-1.29,1.151-5.219,2.077-5.549.078-.029.274.113.279.113a5.466,5.466,0,0,1,.365,1.447,6.726,6.726,0,0,0,.485,1.825,4.132,4.132,0,0,0,2.117,2.007,5.486,5.486,0,0,0,.745.321c.626.232.628.259.644.595v.2a2.383,2.383,0,0,0,1.489,2.412c1.569.993,2.9,1.923,3.244,3.285a5.252,5.252,0,0,1,.1,1.471,22.892,22.892,0,0,1-.219,2.447A24.568,24.568,0,0,1,404.039,785.281Zm20.93,13.406a.828.828,0,1,1,.827-.828A.828.828,0,0,1,424.968,798.687Z" transform="translate(1023.419 -1029.297)"/><path class="b" d="M478.658,875.43a2.626,2.626,0,0,0-2.46,1.728H437.59v1.8H476.2a2.624,2.624,0,1,0,2.46-3.527Zm0,3.454a.828.828,0,1,1,.827-.827A.829.829,0,0,1,478.658,878.884Z" transform="translate(991.528 -1136.502)"/><path class="b" d="M498.677,906.357a2.622,2.622,0,0,0-2.46,1.728H485.161v-4.179H489.1a2.628,2.628,0,1,0,0-1.8H471.82v1.8h11.54v5.978h12.854a2.624,2.624,0,1,0,2.463-3.527Zm-7.117-4.179a.828.828,0,1,1-.828.828A.828.828,0,0,1,491.56,902.178Zm7.117,7.635a.828.828,0,1,1,.827-.828A.829.829,0,0,1,498.677,909.813Z" transform="translate(963.544 -1156.898)"/><path class="b" d="M495.554,821.977l-3.522,5.053h-6.3v1.8h19.143a2.628,2.628,0,1,0,0-1.8H494.226l2.268-3.254h14.4a2.628,2.628,0,1,0,0-1.8Zm11.777,5.124a.828.828,0,1,1-.829.828A.828.828,0,0,1,507.331,827.1Zm6.022-5.053a.828.828,0,1,1-.827.828A.828.828,0,0,1,513.353,822.048Z" transform="translate(952.172 -1091.39)"/><path class="b" d="M493.6,951.506a2.622,2.622,0,0,0-2.458,1.728h-5.474L482.1,947.72H476.37v1.8h4.744l3.582,5.514h6.454a2.624,2.624,0,1,0,2.458-3.527Zm0,3.454a.827.827,0,1,1,.586-.241A.829.829,0,0,1,493.6,954.961Z" transform="translate(959.824 -1195.6)"/><path class="b" d="M527.46,794.487v1.8h8.211a2.628,2.628,0,1,0,0-1.8Zm10.662.071a.828.828,0,1,1-.828.828A.828.828,0,0,1,538.122,794.558Z" transform="translate(918.057 -1068.916)"/></g></g></svg>