<svg xmlns="http://www.w3.org/2000/svg" width="437" height="57.889" viewBox="0 0 437 57.889"><defs><style>.a{fill:#f49512;}.b{fill:#fff;}</style></defs><path class="a" d="M695.846,778.661a7.952,7.952,0,0,0-3.573,4.294,31.435,31.435,0,0,0-.752,7.692V824.8h9.806V798.491h6.8v-7.844h-6.806v-1.285a6.907,6.907,0,0,1,.675-3.517q.675-1.081,2.738-1.081,1.422,0,3.585.169v-7.777a33.833,33.833,0,0,0-4.666-.376A14.166,14.166,0,0,0,695.846,778.661Z" transform="translate(-631.427 -770.671)"/><path class="a" d="M1007.99,861.115a44.892,44.892,0,0,0-8.651-1.785q-3.925-.5-4.852-1.23a2.349,2.349,0,0,1-.929-1.948q0-3.084,5.078-3.082,5.377,0,6.661,4.632l7.335-1.962a13.275,13.275,0,0,0-4.969-6.831,15.569,15.569,0,0,0-8.651-2.129q-6.831,0-10.616,3.178A10.056,10.056,0,0,0,984.609,858a9.167,9.167,0,0,0,3.261,7.491q3.261,2.686,13.592,3.955,3.822.435,3.82,2.808a2.7,2.7,0,0,1-1.725,2.422,9.12,9.12,0,0,1-4.226.9q-6.526,0-7.573-4.6l-8.488,1.251q2.537,10.111,15.587,10.111,7.2,0,11.209-3.314a10.628,10.628,0,0,0,4.006-8.589,10.246,10.246,0,0,0-1.64-5.917A8.907,8.907,0,0,0,1007.99,861.115Z" transform="translate(-868.308 -827.506)"/><path class="a" d="M1186.087,811.936v-7.844h-11.66V793.34H1164.35v34.488q0,6.323,2.633,8.74t8.926,2.419a42.809,42.809,0,0,0,6.323-.752v-7.464q-1.821.135-3.2.135-3,0-3.8-.912t-.807-3.617v-14.44Z" transform="translate(-1015.333 -784.117)"/><path class="a" d="M803.954,888.624a15.985,15.985,0,0,1-11.813-4.647A16.392,16.392,0,0,1,803.785,856c5.078,0,9.129,1.486,12.018,4.416s4.361,7.039,4.361,12.2v15.3H809.991V873.53a7.729,7.729,0,0,0-1.582-5.042,5.493,5.493,0,0,0-4.455-2.042,6.206,6.206,0,0,0-6.14,6.139,5.961,5.961,0,0,0,1.67,4.312,5.711,5.711,0,0,0,4.235,1.725,7.038,7.038,0,0,0,1.839-.241v10.143a13.765,13.765,0,0,1-1.6.1Z" transform="translate(-709.308 -834.992)"/><path class="b" d="M1329.486,836.67v14.752q-2.958,0-4.062,1.1t-1.4,4.361q-.976,10.822-8.388,15.275-3.931,2.321-11.156,2.321h-1.946V859.658h.636q3.37,0,4.811-1.4t1.666-4.924a34.67,34.67,0,0,1,1.068-8.049,11.674,11.674,0,0,1,3.125-4.6q4.119-4.006,11.418-4.006Z" transform="translate(-1127.525 -819.297)"/><path class="b" d="M1477.994,829.7a18.5,18.5,0,0,1,13.609,5.71,19.365,19.365,0,0,1-.075,27.462,19.75,19.75,0,0,1-27.761-.019A18.672,18.672,0,0,1,1458,849.094a18.467,18.467,0,0,1,5.766-13.795A19.644,19.644,0,0,1,1477.994,829.7Zm-.376,13.816a5.111,5.111,0,0,0-3.82,1.629,5.792,5.792,0,0,0,.019,7.955,5.249,5.249,0,0,0,7.637,0,5.792,5.792,0,0,0,.019-7.955,5.156,5.156,0,0,0-3.854-1.629Z" transform="translate(-1253.756 -813.638)"/><path class="b" d="M1711.882,760.63v51.1h-14v-51.1Z" transform="translate(-1448.522 -757.558)"/><path class="b" d="M1815.93,836.67h14v21.079q0,3.182,2.659,3.182,2.618,0,2.62-3.182V836.67h14v20.815a16.973,16.973,0,0,1-4.829,12.262,16.813,16.813,0,0,1-24.671-.8q-3.782-4.527-3.782-12.58Z" transform="translate(-1544.371 -819.297)"/><path class="b" d="M2042.118,760.63v14.293h6.283v14.8h-6.289q0,4.457,1.4,6.14t5.147,1.693v14.713c-.724.026-1.262.038-1.61.038a19.027,19.027,0,0,1-8.967-2.208,18.151,18.151,0,0,1-6.757-5.99q-3.222-4.83-3.22-12.8V760.645Z" transform="translate(-1716.646 -757.558)"/><path class="b" d="M2186.662,761.959v37.326h-14V761.959ZM2179.7,745.3a6.861,6.861,0,0,1,4.92,2.012,6.634,6.634,0,0,1,.1,9.528,7.682,7.682,0,0,1-10.071,0,6.634,6.634,0,0,1,.1-9.528,6.855,6.855,0,0,1,4.939-2.012Z" transform="translate(-1834.011 -745.109)"/><path class="b" d="M2298.754,829.7a18.5,18.5,0,0,1,13.609,5.71,19.365,19.365,0,0,1-.075,27.462,19.749,19.749,0,0,1-27.76-.019,18.658,18.658,0,0,1-5.766-13.759,18.466,18.466,0,0,1,5.766-13.795A19.643,19.643,0,0,1,2298.754,829.7Zm-.376,13.816a5.113,5.113,0,0,0-3.82,1.629,5.793,5.793,0,0,0,.019,7.955,5.249,5.249,0,0,0,7.638,0,5.793,5.793,0,0,0,.019-7.955,5.154,5.154,0,0,0-3.854-1.629Z" transform="translate(-1920.157 -813.638)"/><path class="b" d="M2551.923,867.814h-14V846.735q0-3.22-2.657-3.22-2.622,0-2.622,3.22v21.079h-14V847a17.025,17.025,0,0,1,4.83-12.3,16.815,16.815,0,0,1,24.673.8q3.78,4.531,3.78,12.618Z" transform="translate(-2114.923 -813.638)"/><path class="b" d="M425.777,796.793a2.712,2.712,0,0,0-2.5,1.661,25.329,25.329,0,0,1-5.439-1.149,25.53,25.53,0,0,0,.293-3.122,7.2,7.2,0,0,0-.162-2.035c-.564-2.221-2.633-3.528-4.147-4.482-.173-.109-.63-.4-.669-.592a1.479,1.479,0,0,1,0-.267v-.352a2.375,2.375,0,0,0-1.881-2.27,4,4,0,0,1-.555-.237,2.509,2.509,0,0,1-1.394-1.288,6.512,6.512,0,0,1-.316-1.335,4.166,4.166,0,0,0-1.019-2.592,2.1,2.1,0,0,0-2.1-.444c-1.546.551-2.36,2.951-3.035,5.781a25.241,25.241,0,0,1-2.405-10.084c2.244-1.179,3.173-3.846,3.791-5.629a3.521,3.521,0,0,1,.583-1.19c.583-.623,1.623-.532,3.139-.325.288.04.564.077.846.107a6.546,6.546,0,0,0,3.85-.628,4.251,4.251,0,0,0,2.321-3.468,6.314,6.314,0,0,0-.049-.94,4.238,4.238,0,0,1-.038-.7.8.8,0,0,1,.141-.421,1.438,1.438,0,0,1,.414.118,2.739,2.739,0,0,0,1.219.222,2.4,2.4,0,0,0,1.469-.752,4.664,4.664,0,0,0,1.335-4.019,8.081,8.081,0,0,0-.912-2.409,10.17,10.17,0,0,1-.6-1.333,5.839,5.839,0,0,1,.611-3.682,25.247,25.247,0,0,1,4.361-.882,2.725,2.725,0,1,0-.072-1.862,27.191,27.191,0,0,0,.339,54.1,2.7,2.7,0,1,0,2.573-3.513Zm-.342-50.628a.854.854,0,1,1-.854.854A.854.854,0,0,1,425.435,746.165Zm-9.121,3.573a6.141,6.141,0,0,0-.107,3.485,11.837,11.837,0,0,0,.709,1.585,6.556,6.556,0,0,1,.733,1.858,2.821,2.821,0,0,1-.8,2.4c-.222.22-.325.22-.325.22a2.474,2.474,0,0,1-.431-.12,2.556,2.556,0,0,0-1.411-.188,2.209,2.209,0,0,0-1.625,2.114,5.879,5.879,0,0,0,.043,1.019,4.679,4.679,0,0,1,.039.662,2.43,2.43,0,0,1-1.343,1.913,4.952,4.952,0,0,1-2.778.417c-.258-.028-.523-.064-.79-.1-1.544-.209-3.462-.47-4.743.9a4.921,4.921,0,0,0-.982,1.851,10.743,10.743,0,0,1-2,3.919,25.353,25.353,0,0,1,15.811-21.935Zm-12.108,36.8c.051-.216.107-.472.177-.782.293-1.33,1.187-5.379,2.14-5.719.081-.03.282.117.288.117a5.631,5.631,0,0,1,.376,1.491,6.932,6.932,0,0,0,.5,1.881,4.258,4.258,0,0,0,2.182,2.069,5.643,5.643,0,0,0,.767.331c.645.239.647.267.664.613v.209a2.456,2.456,0,0,0,1.535,2.486c1.617,1.023,2.985,1.982,3.344,3.385a5.411,5.411,0,0,1,.105,1.516,23.6,23.6,0,0,1-.226,2.522A25.322,25.322,0,0,1,404.206,786.538Zm21.571,13.817a.854.854,0,1,1,.852-.854A.854.854,0,0,1,425.777,800.355Z" transform="translate(-398.581 -744.297)"/><path class="b" d="M479.917,875.43a2.707,2.707,0,0,0-2.535,1.781H437.59v1.854h39.792a2.7,2.7,0,1,0,2.535-3.635Zm0,3.56a.854.854,0,1,1,.852-.852A.854.854,0,0,1,479.917,878.99Z" transform="translate(-430.254 -850.768)"/><path class="b" d="M499.5,906.54a2.7,2.7,0,0,0-2.535,1.781h-11.4v-4.307h4.059a2.708,2.708,0,1,0,0-1.854H471.82v1.854h11.893v6.161h13.248a2.7,2.7,0,1,0,2.539-3.635Zm-7.335-4.307a.854.854,0,1,1-.854.854A.854.854,0,0,1,492.165,902.233ZM499.5,910.1a.854.854,0,1,1,.852-.854A.854.854,0,0,1,499.5,910.1Z" transform="translate(-458.046 -871.024)"/><path class="b" d="M495.856,822.03l-3.63,5.208h-6.5v1.854h19.73a2.708,2.708,0,1,0,0-1.854H494.486l2.338-3.353h14.842a2.708,2.708,0,1,0,0-1.854Zm12.138,5.281a.854.854,0,1,1-.854.854A.854.854,0,0,1,507.994,827.311ZM514.2,822.1a.854.854,0,1,1-.852.854A.854.854,0,0,1,514.2,822.1Z" transform="translate(-469.34 -805.965)"/><path class="b" d="M494.127,951.622a2.7,2.7,0,0,0-2.533,1.781h-5.642l-3.68-5.683h-5.9v1.854h4.89l3.692,5.683H491.6a2.7,2.7,0,1,0,2.533-3.635Zm0,3.56a.852.852,0,1,1,.6-.249A.854.854,0,0,1,494.127,955.183Z" transform="translate(-461.74 -909.462)"/><path class="b" d="M527.46,794.54v1.854h8.463a2.708,2.708,0,1,0,0-1.854Zm10.989.073a.854.854,0,1,1-.854.854A.854.854,0,0,1,538.449,794.613Z" transform="translate(-503.222 -783.644)"/></svg>