<svg xmlns="http://www.w3.org/2000/svg" width="104.862" height="106.999" viewBox="0 0 104.862 106.999"><defs><style>.a{fill:#26221d;}</style></defs><g transform="translate(-0.089 -0.001)"><path class="a" d="M2.058,29.558a4.329,4.329,0,0,0-.068.64v4.4a4.364,4.364,0,0,0,2.832,4.073v6.477A4.072,4.072,0,0,0,8.7,49.2V86.619a4.073,4.073,0,0,0-3.878,4.053v6.457a4.413,4.413,0,0,0-2.832,4.111v4.306A1.455,1.455,0,0,0,3.445,107H101.53a1.455,1.455,0,0,0,1.454-1.454v-4.306a4.412,4.412,0,0,0-2.831-4.111v-6.5a4.072,4.072,0,0,0-3.878-4.053V49.2a4.072,4.072,0,0,0,3.878-4.053V38.672a4.364,4.364,0,0,0,2.831-4.073V30.227a4.228,4.228,0,0,0-.068-.64,1.448,1.448,0,0,0,1.174-2.647L53.156.169a1.455,1.455,0,0,0-1.358,0L.865,26.91a1.454,1.454,0,0,0,1.192,2.647ZM7.73,41.193v-2.24H24.5v2.221Zm37.349,8.019V86.619A4.073,4.073,0,0,0,41.2,90.672v6.186H27.393V90.672a4.073,4.073,0,0,0-3.878-4.053V49.2a4.072,4.072,0,0,0,3.878-4.053v-6.2H41.181V45.14A4.074,4.074,0,0,0,45.06,49.2Zm-.97-8.019v-2.24H60.884v2.221Zm37.35,8.019V86.619a4.073,4.073,0,0,0-3.879,4.053v6.186H63.773V90.672a4.073,4.073,0,0,0-3.878-4.053V49.2a4.072,4.072,0,0,0,3.878-4.053v-6.2H77.561V45.14A4.073,4.073,0,0,0,81.44,49.2Zm-.97-8.019v-2.24H97.263v2.221ZM97.263,94.638v2.22H80.47v-2.22Zm-36.379,0v2.22H44.091v-2.22ZM46.514,46.322h-1.26a1.163,1.163,0,0,1-1.163-1.163V44.1H60.864v1.057A1.163,1.163,0,0,1,59.7,46.322ZM57,49.231V86.6H47.969V49.231ZM46.514,89.509H59.7a1.163,1.163,0,0,1,1.163,1.163v1.057H44.091V90.672a1.163,1.163,0,0,1,1.163-1.163ZM24.485,94.638v2.22H7.711v-2.22ZM7.711,45.188V44.1H24.485v1.057a1.163,1.163,0,0,1-1.164,1.163H8.845a1.163,1.163,0,0,1-1.134-1.173Zm12.9,4.072V86.6H11.589V49.231ZM7.711,90.7a1.163,1.163,0,0,1,1.163-1.164H23.321A1.163,1.163,0,0,1,24.485,90.7v1.057H7.711Zm92.365,10.6v2.85H4.88V101.3a1.5,1.5,0,0,1,1.5-1.5h92.19a1.5,1.5,0,0,1,1.5,1.474ZM97.244,90.7v1.057H80.47V90.7a1.163,1.163,0,0,1,1.163-1.164H96.11a1.164,1.164,0,0,1,1.134,1.134Zm-12.9-4.073v-37.4h9.027V86.6Zm12.9-41.441a1.163,1.163,0,0,1-1.163,1.163H81.643a1.163,1.163,0,0,1-1.163-1.163V44.1H97.254ZM52.477,3.078,95.79,25.844H9.165ZM4.88,30.227a1.455,1.455,0,0,1,1.454-1.454H98.621a1.454,1.454,0,0,1,1.454,1.454v4.4a1.454,1.454,0,0,1-1.454,1.454H6.334A1.455,1.455,0,0,1,4.88,34.629Zm0,0" transform="translate(0)"/></g></svg>