<svg xmlns="http://www.w3.org/2000/svg" xmlns:xlink="http://www.w3.org/1999/xlink" width="520.479" height="325.304" viewBox="0 0 520.479 325.304"><defs><style>.a{fill:#d08b73;}.b{fill:#ee5f43;}.c{fill:#4485f4;}.ba,.bq,.d{fill:#034c8a;}.av,.e{fill:#bc6c56;}.f{fill:#38aae3;}.g{fill:#faae26;}.h{fill:#434e84;}.i{fill:#12a189;}.j{fill:#5ddde6;}.k,.l{fill:#a5def6;}.l{opacity:0.47;}.m{opacity:0.3;}.n{fill:#4385f4;}.aa,.ab,.ac,.ad,.ai,.aj,.az,.bi,.bp,.bt,.by,.o,.p,.q,.r,.s,.t,.u,.v,.y,.z{fill:none;}.o,.p,.q,.r,.s,.t,.u{stroke:#0254a9;}.aa,.ab,.ac,.ad,.ai,.aj,.az,.ba,.bi,.bp,.bq,.by,.o,.p,.q,.r,.s,.t,.u,.v,.y,.z{stroke-linecap:round;}.aa,.ab,.ac,.ad,.ai,.aj,.az,.ba,.bi,.bp,.bq,.by,.o,.p,.q,.r,.s,.t,.u,.z{stroke-linejoin:round;}.o{stroke-width:0.774px;}.p{stroke-width:1.896px;}.q{stroke-width:1.721px;}.r{stroke-width:2.726px;}.s{stroke-width:3.217px;}.t{stroke-width:1.992px;}.u{stroke-width:2.403px;}.v,.y{stroke:#363a69;}.bt,.v,.y{stroke-miterlimit:10;}.v{stroke-width:1.221px;}.w{fill:#3ca3a4;}.x{fill:#f8ad26;}.y{stroke-width:1.541px;}.aa,.ab,.ac,.ad,.z{stroke:#148b7a;}.z{stroke-width:0.411px;}.aa{stroke-width:0.59px;}.ab{stroke-width:0.423px;}.ac{stroke-width:0.434px;}.ad{stroke-width:0.443px;}.ae{fill:#ee5e43;}.af,.bx{fill:#c4422b;}.ag{fill:#bec6c4;}.ah{fill:#fefefe;}.ai,.aj{stroke:#baccc6;}.ai{stroke-width:1.428px;}.aj{stroke-width:2.038px;}.ak{fill:#0254a9;}.al{fill:#fabb49;}.am{fill:#d38309;}.an{fill:#13b5a0;}.ao{fill:#148a77;}.ap{clip-path:url(#a);}.aq{clip-path:url(#b);}.ar{fill:#282e5b;}.as{clip-path:url(#c);}.at{clip-path:url(#d);}.au{clip-path:url(#e);}.av,.bl,.bx{opacity:0.5;mix-blend-mode:multiply;isolation:isolate;}.aw{clip-path:url(#f);}.ax{fill:#363a68;}.ay{fill:#346ec1;}.az,.ba,.bp,.bq,.bt{stroke:#034c8a;}.az{stroke-width:3.443px;}.ba{stroke-width:0.973px;}.bb{clip-path:url(#g);}.bc{clip-path:url(#h);}.bd{clip-path:url(#i);}.be{fill:#ff6b6b;}.bf{clip-path:url(#j);}.bg{clip-path:url(#k);}.bh{clip-path:url(#l);}.bi{stroke:#282e5b;stroke-width:0.93px;}.bj{clip-path:url(#m);}.bk{clip-path:url(#n);}.bm{clip-path:url(#o);}.bn{clip-path:url(#p);}.bo{clip-path:url(#q);}.bp{stroke-width:3.053px;}.bq{stroke-width:1.033px;}.br{clip-path:url(#r);}.bs{clip-path:url(#s);}.bt{stroke-width:0.903px;}.bu{clip-path:url(#t);}.bv{clip-path:url(#u);}.bw{clip-path:url(#v);}.by{stroke:#434e84;stroke-width:4.287px;}</style><clipPath id="a"><path class="a" d="M256.873,230.57q.151.66.25,1.329a17.016,17.016,0,0,1,.187,2.887c-.022.887-.219,1.777-.193,2.665a3.33,3.33,0,0,0,.58,1.442,15.737,15.737,0,0,1,1.12,2.277c.13.394.2.942-.267,1.121-.508.2-1.444-.086-1.636.614-.1.357.043.754-.085,1.1-.088.239-.3.3-.477.47a.84.84,0,0,0-.244.555,4.7,4.7,0,0,1-.151,1.254c-.139.377-.41.548-.623.869a1.59,1.59,0,0,0-.162.867c-.014.889-.021,1.879-1.079,2.118a5.738,5.738,0,0,1-1.889-.07,9.322,9.322,0,0,0-2.4-.167,1.436,1.436,0,0,0-.925.54,6.291,6.291,0,0,0-1.071,1.788,25.579,25.579,0,0,0,1.216,5.033c.695,1.461-2.193,2.083-2.193,2.083l-7.566-3.436-2.671-4.123,1.776-4.581a7.648,7.648,0,0,0,.53-2.289l.389-15.077,10.185-3.606,7.439,4.264Z" transform="translate(-236.597 -226.238)"/></clipPath><clipPath id="b"><path class="b" d="M234.97,280.073a29.7,29.7,0,0,1-2.338-8.864,22.867,22.867,0,0,1,.815-8.735c.421-1.4,1.176-2.638,1.472-4.079L237,252.756a43.91,43.91,0,0,0,7.212,5.8,7.874,7.874,0,0,0,3.577,1.206c.191.011.349.013.456.012l8.791,10.155a7.852,7.852,0,0,1,1.991,2.249,8.93,8.93,0,0,1,.977,4.979c-.074,1.053-.278,2.092-.348,3.145a11.8,11.8,0,0,0,.2,2.761c.355,2.084.7,4.155.921,6.258.238,2.273,1.242,15.34,1.39,16.532.147,1.164.313,2.113.433,2.74A14.665,14.665,0,0,1,256,310.842c-3.479.265-7.425-.86-9.358.016a1.715,1.715,0,0,1-1.31.139c-.28-.154-.271-.7-.307-.95-.077-.525-.141-1.05-.223-1.573a1.487,1.487,0,0,0-.118-.515c-.09-.149-.17-.165-.331-.1-.261.1-1.832,1.788-2.1,2-.689.55-2.939-.385-9.355-6.129a8.355,8.355,0,0,0,2.422-1.8,7.688,7.688,0,0,0,.884-1.148,2.387,2.387,0,0,1,.969-1.105,2.727,2.727,0,0,0,.912-.9c.217-.337.229-.755.434-1.079.162-.257.5-.329.742-.487a2.255,2.255,0,0,0,.7-.828Z" transform="translate(-232.52 -252.756)"/></clipPath><clipPath id="c"><path class="c" d="M378.27,314s-4.31,13.794-4.6,17.529-4.267,28.177-4.756,30.423c-2.411,11.072-5.014,35.44-5.014,35.44l1.724,2.242-1.724,3.351v4.3a23.412,23.412,0,0,1,4.095-.755c1.293,0,4.849,1.508,4.849,1.508s3.843-10.56,3.843-12.141,1.724-2.3,1.58-3.448-.558-4.167.009-5.46a124.32,124.32,0,0,0,3.3-15.8c.216-3.018,3.665-12.5,3.665-12.5s4.095-12.069,4.741-13.794,1.671-10.776,5.685-10.776,10.479,12.931,11.558,17.672,7.975,28.018,9.052,29.743,5.173,7.543,5.173,7.543l-1.6,6.27,1.091,8.586s.7,4.448.812,5.417,3.692,0,3.692,0,6.669-1.415,7.746-1.954,1.186-2.91.97-3.664a15.908,15.908,0,0,1-.862-3.018c0-.755-4.639-31.375-5.07-33.745s-4.02-10.684-4.811-14.141a96.436,96.436,0,0,1-1.541-14.184c0-2.586-.431-5.388-.431-6.466s-6.035-20.044-6.035-20.044Z" transform="translate(-363.902 -312.131)"/></clipPath><clipPath id="d"><path class="d" d="M382.907,241.52c-1.255.7-1.487.609-5.568,2.083a37.5,37.5,0,0,0-4.2,1.617c-2.3,2.05-.861,5.441-2.011,10.812-.6,2.8-2.793,5.443-2.586,6.61s3.791,1.036,6.609,1.005c3.131-.033,3.627-.76,4.455-.287,3.312,1.893-3.079,14.432-2.586,27.443.047,1.234.257,5.163,0,10.561-.117,2.462-.3,4.483-.431,5.819a109.769,109.769,0,0,0,20.259,3.449c8.472.626,12.321-.108,15.734-1.94a20.263,20.263,0,0,0,5.819-4.741,13.628,13.628,0,0,1-1.293-5.389c-.041-1.791.335-2.464.215-4.741a24.623,24.623,0,0,0-.646-4.095c-.7-3.249-1.134-4.413-1.509-6.035-.452-1.959-2.105-9.127,1.509-14.225a10.863,10.863,0,0,1,1.077-1.293c.623.383,1.149,1.545,1.868,1.15s1.7-7.868,2.658-10.13A16.048,16.048,0,0,0,424,253.3a8.064,8.064,0,0,0-3.449-7.9c-.566-.442-1.716-1.322-6.465-3.449-1.621-.726-2.432-1.089-3.233-1.365a26.055,26.055,0,0,0-5.388-1.221c-7.645-.955-9.418,1.134-14.907,0a7.863,7.863,0,0,0-3.843-.071C385.14,239.706,384.947,240.387,382.907,241.52Z" transform="translate(-368.524 -239.08)"/></clipPath><clipPath id="e"><path class="e" d="M400.226,226.775l-1.868,12.069h10.776q-.861-6.179-1.724-12.357Z" transform="translate(-398.358 -226.487)"/></clipPath><clipPath id="f"><path class="e" d="M369.787,266.239c-.432,2.953.6,10.464.773,15.912a5.7,5.7,0,0,0,4.741,6.179c3.462.925,13.68,1.847,27.443,2.3l9.627-4.6c3.071-3.236,4.621-6.787,3.5-8.534-1.441-2.245-7.113-1.232-10.684.919a13.955,13.955,0,0,0-5.317,6.035c-3.227-.66-6.693-1.5-10.345-2.586-3.2-.948-6.169-1.971-8.908-3.018a33.6,33.6,0,0,0,.413-6.456,24.654,24.654,0,0,0-.632-5.49C376.84,265.9,371.889,265.645,369.787,266.239Z" transform="translate(-369.683 -265.922)"/></clipPath><clipPath id="g"><path class="f" d="M460.515,402.834c.594-3.9,1.34-7.656.988-11.62-.4-4.465-.748-8.893-.826-13.378-.039-2.245-.047-4.49-.048-6.736a43.176,43.176,0,0,1,.194-5.907,6.777,6.777,0,0,1,2.494-4.7c2.345-1.754,5.658-1.744,8.446-1.783,1.042-.014,2.084,0,3.127,0l-.036.288h.037a.28.28,0,0,0,.267-.376c.064,0,.123.01.189.005,11.443-.836,22.87-1.86,34.3-2.893a2.824,2.824,0,0,0,2.444-1.643,64.539,64.539,0,0,1,11.7,9.386c-.068.3-.141.607-.224.907-.062.228-.182.5-.293.785a3.6,3.6,0,0,0-.178.613l.22-.03c.189,2.207.029,5.4-1.751,7.013-1.953,1.763-5.2,1.806-7.652,1.958-4.433.276-8.895.167-13.331.062-4.647-.11-9.3-.276-13.937-.521-2.142-.114-4.284-.282-6.416-.527a37.779,37.779,0,0,1-6.056-1.013c-.326-.094-.957-.337-.957-.337a48.573,48.573,0,0,1,.615,11.735,124.528,124.528,0,0,1-2.083,12.725,30.149,30.149,0,0,0-.661,5.677,19.408,19.408,0,0,0,.211,2.487c.022.156.086.388.142.636a1.773,1.773,0,0,1,.025,1.069c-.135.26-.544.321-.8.376a15.417,15.417,0,0,1-2.628.252,23.442,23.442,0,0,1-5.862-.428,6.683,6.683,0,0,1-1.046-.279,1.365,1.365,0,0,1-.749-.586C459.932,405.2,460.384,403.694,460.515,402.834Z" transform="translate(-460.185 -354.093)"/></clipPath><clipPath id="h"><path class="a" d="M517.72,299.786a84.167,84.167,0,0,0-8.836,5.467l0-.014a.287.287,0,0,0-.208-.369.372.372,0,0,1-.035-.162,2.928,2.928,0,0,1,.082-.53c.276-1.337.631-2.7.962-4.039a4.882,4.882,0,0,1,.715-1.758,3.6,3.6,0,0,1,.5-.541c.1-.091.221-.161.347-.271a.7.7,0,0,0,.257-.537l-.006-.1h0a2.691,2.691,0,0,0-.692-1.364,2.024,2.024,0,0,0-1.47-.729c-.368.027-.348.194-.984.4a2.1,2.1,0,0,1-1.481.095,1.639,1.639,0,0,1-.677-.611,2.743,2.743,0,0,1-.242-.372,3.476,3.476,0,0,1-.354-1.1,28.552,28.552,0,0,0-2.114-5.047,1.3,1.3,0,0,0-.793-.467,2.573,2.573,0,0,1-.675-.167.414.414,0,0,1-.216-.189.664.664,0,0,1-.069-.318,1.5,1.5,0,0,1,.143-.6c.238-.539.8-.987,1.105-1.715a5.766,5.766,0,0,0,.206-1.926c.074-1.154.384-2.351.513-3.574a25.136,25.136,0,0,1,.675-3.97c.134-.491.311-.974.5-1.464l.017-.136a5.753,5.753,0,0,1-.049-.691c0-.393-.01-.712.218-.872,4.261-3.007,25.9-4.922,17.079,16.97a5.381,5.381,0,0,0-.21,1.021,1.459,1.459,0,0,1-.285.736l-.058.052a.285.285,0,0,0-.376.272,10.754,10.754,0,0,0,.076,1.251c.008.056.01.2.022.342a.958.958,0,0,0,.128.467.619.619,0,0,0,.169.18.446.446,0,0,0,.248.072c.085,0,.124-.01.192-.01h.028a.759.759,0,0,1,.592.232,2.888,2.888,0,0,1,.587,1.232,6.249,6.249,0,0,1,.19,1.5c0,.085,0,.167-.007.242,0,.118-.048.265-.068.456-.007.072-.011.135-.012.2a1,1,0,0,0,.01.1,11.4,11.4,0,0,0-2.571,1.019A27.99,27.99,0,0,0,517.72,299.786Z" transform="translate(-501.738 -270.311)"/></clipPath><clipPath id="i"><path class="g" d="M529.739,356.482a10.5,10.5,0,0,0,.266-1.838l0-.178c.006-1.286-.623-2.411-.919-3.808-.548-2.657,1.232,3.5-.123-19.042v-.022c.009-4.268,3.887-7.411-.277-19.471a54.334,54.334,0,0,0-2.859-6.825c-.545-1.076-1.135-2.132-1.761-3.165-.083-.139-.009-.54-.059-.646-.036-.075-.189.149-.2.061-.893.222-2.311-.5-3.136-.061a32.322,32.322,0,0,0-3.374,1.132c-3.073,1.48-5.093,4.884-7.975,6.75-1.233,3.762-5.58,6.7-3.868,15.462a83.45,83.45,0,0,1,1.54,9.031c.069.816.131,1.651.131,2.49,0,.426-.016.852-.056,1.277a23.566,23.566,0,0,1-.571,2.557c-.13.638-.223,1.288-.3,1.943-.029.226-.318,2.868-.343,3.1,1.376.248,3.005-1.876,4.347-1.526C517.67,345.65,524.194,351.072,529.739,356.482Zm-10.524-38.951.031-.036a1.159,1.159,0,0,1,.184.278A1.3,1.3,0,0,1,519.215,317.531Z" transform="translate(-505.064 -301.344)"/></clipPath><clipPath id="j"><path class="g" d="M524.37,301.509a43.918,43.918,0,0,1,4.515,9.329,33.486,33.486,0,0,1,2.41,10.315,19.239,19.239,0,0,1-.37,4.375c-.319,1.61-.953,3.152-1.218,4.769a20.291,20.291,0,0,0,.029,4.224c.085,1.749.3,3.484.448,5.23a51.16,51.16,0,0,1,.17,5.333,15.277,15.277,0,0,1-.481,4.057c-.543,1.811.761,3.35.786,5.17a11.97,11.97,0,0,1-.662,3.711c-1.241,3.9-4.236-1.979-13.728-1.988-6.72-.008-5.2-5.143-8.493-4.959l9.641-8.631Z" transform="translate(-507.776 -301.509)"/></clipPath><clipPath id="k"><path class="a" d="M594.482,419.506s.4,4.9.53,6.092,1.325,2.516,1.325,4.767-12.846,4.371-12.846,4.371h-8.74l2.119-5.43s6.753-2.782,7.813-3.973,1.8-6.886,1.8-6.886Z" transform="translate(-574.75 -418.447)"/></clipPath><clipPath id="l"><path class="h" d="M596.694,313.23s3.575,7.946,3.178,10.991-2.913,7.946-3.178,13.64-2.781,15.362-2.781,17.083.4,10.462.4,10.462,3.774,4.9,4.37,14.236,1.223,26.618,1.223,26.618a34.062,34.062,0,0,1-5.99,1.192c-1.788,0-8.74-1.987-8.74-1.987s.6-16.884,0-19.466-2.384-8.542-2.582-10.329-2.782-3.378-2.782-5.364-1.986-16.09-2.979-16.885-4.148-17.083-3.961-18.672.625.993-.09-3.775,0-7.151,0-7.151l.222-2.291s6.61-10.23,9.126-10.423S596.694,313.23,596.694,313.23Z" transform="translate(-572.46 -311.1)"/></clipPath><clipPath id="m"><path class="a" d="M590.892,247.4q-1.176-1.332-2.209-2.593a6.276,6.276,0,0,1-1.233-1.937,5.216,5.216,0,0,1-.311-1.611,4.192,4.192,0,0,1-.769-.863,4.546,4.546,0,0,1-.672-1.729c-.162-.746-.76-1.783-2.714-3.018.042-.306.408-3.3-1.4-4.842a4.158,4.158,0,0,0-1.622-.811c-2.913-.747-3.859,2.312-1.749,4.38a5.946,5.946,0,0,1,.723,7.635c-.794,1.251-1.236,2.2-1.592,2.6a7.132,7.132,0,0,1-.7.705,22.087,22.087,0,0,1-3.842,1.7c1.87-.767,4.156,1.157,5.091,3.2.962,2.1-.073,3.865.672,4.515C579.441,255.5,582.41,254.4,590.892,247.4Z" transform="translate(-572.802 -229.886)"/></clipPath><clipPath id="n"><path class="a" d="M597.551,269.661l5.761,18.672s1.788,2.88,1.192,4.27-5.562,7.45-5.562,7.45-12.25,12.977-13.309,13.772-1.059,4.9-1.258,5.761-3.311,3.245-4.237,3.575-4.768-4.37-4.834-4.966.53-2.318.331-2.848-2.318.464-2.649-.529a2.355,2.355,0,0,1,1.722-2.516c.794,0,5.032.265,5.694-.265s13.376-20.923,12.978-22.512-2.384-2.583-3.179-4.371-5.164-14.3-5.164-14.3Z" transform="translate(-572.931 -269.661)"/></clipPath><clipPath id="o"><path class="i" d="M163.028,293.867a16.216,16.216,0,0,0-1.693,3.421c-.6,1.458-1.144,2.94-1.65,4.435a71.383,71.383,0,0,0-2.488,9.224c-1.306,6.714-1.569,13.561-1.99,20.372-.2,3.21-.428,6.417-.651,9.625a15.145,15.145,0,0,0,.986,7.249c.331.738.965,1.93,1.956,1.6a3.483,3.483,0,0,0,1.263-1,19.158,19.158,0,0,1,2.643-2.608c2.3-1.652,5.31-2.368,8-3.1,3.129-.848,6.324-1.3,9.466-2.061a17.978,17.978,0,0,0,1.963-.6c.549-5.193,1.081-10.387,1.769-15.553a38.476,38.476,0,0,0-1.02-15.925,29.949,29.949,0,0,0-3.387-7.518c-1.542-2.427-3.7-4.61-5.473-6.9l-8.511-1.834Z" transform="translate(-154.497 -292.694)"/></clipPath><clipPath id="p"><path class="a" d="M173.709,334.853a22.092,22.092,0,0,0,1.821,6.178,7.815,7.815,0,0,0,1.731,2.6,16.191,16.191,0,0,0,4.631,2.741c5.644,2.527,3.64,1.79,7.274,3a171.99,171.99,0,0,0,18.13,4.668c2.6,2.74,4.707,3.323,5.522,3.483a17.913,17.913,0,0,0,2.906.357,18.12,18.12,0,0,1,2.483.106c1.25.216,2.344.926,3.564,1.244,1.092.284,2.413-.05,2.594-1.349a1.883,1.883,0,0,0-.667-1.546,13.8,13.8,0,0,0-4.544-3.033c-2.953-.984-6.268-2.039-9.978-3.095a115.309,115.309,0,0,0-15.474-8.978c-1.945-.9-5.908-2.516-8.621-6.6a19.715,19.715,0,0,1-1.448-2.514Z" transform="translate(-173.709 -332.126)"/></clipPath><clipPath id="q"><path class="a" d="M176.741,292.526a6.355,6.355,0,0,1,1.675-2.369,8.55,8.55,0,0,1,3.341-1.441c.768-.237,1.487-.474,1.543-1.367.005-.078,1.042-5.964,1.107-6.042.3-.356.979-.3,1.375-.436,2.23-.79-.7-3.976-1.232-4.813-.467-.736-.112-1.182-.125-2a4.162,4.162,0,0,0-.448-1.392,4.994,4.994,0,0,1-.259-1.628c-.017-.377-.065-.746-.114-1.121-.639.338-.429-.08-1.122-.066-.789.016-1,.733-1.227,1.383a6.59,6.59,0,0,1-1.592,2.848,4.49,4.49,0,0,0-1.633,2.38c-.069.351.239,4.162-1.159,3.224-.695-.466-.637-2.074-.758-2.733a3.573,3.573,0,0,0-1.3-2.021c-.836-.819-1-2.379-2.556-1.962-2.059.55-1.065,3-.72,4.318a5.169,5.169,0,0,0,1.188,2.514,1.5,1.5,0,0,0,1.694.092,1.624,1.624,0,0,0-.1.171c-.389.744.064,1.458.082,2.1.029,1.065-1.149,1.91-1.7,2.3a5.145,5.145,0,0,1-3.519.87A4.684,4.684,0,0,1,165.5,287.3Z" transform="translate(-165.495 -269.852)"/></clipPath><clipPath id="r"><path class="h" d="M287.855,343.652s-8.485,3.96-11.6,8.342-4.241,3.96-5.656,5.8a4.683,4.683,0,0,0-.707,5.515c.99,2.262,1.555,41.573,1.555,41.573v5.374a18.8,18.8,0,0,1,4.843-.849c1.556.141,5.763.849,7.318,1.131s.99-4.808.99-4.808l1.272-4.1s1.132-26.726,1.98-28.988,7.918-6.222,7.918-6.222,0-1.131,7.636,0,14.989-2.545,16.685-.565,1.98,11.878,1.98,17.252.565,9.05,0,12.16,1.131,11.313,1.414,12.444a9.068,9.068,0,0,1,.188,2.448,8.13,8.13,0,0,1,4.337-1.034c2.828,0,7.636-.283,7.636-.283s-1.98-6.5,0-10.747,2.828-20.079,2.828-24.6,1.98-13.292,0-16.686-20.928-13.15-20.928-13.15Z" transform="translate(-269.311 -343.652)"/></clipPath><clipPath id="s"><path class="c" d="M296.271,286.184c-8.415,3.406-18.637,5.835-21.127,15.615-.611,2.4-.925,4.869-1.573,7.26-.445,1.644-2.173,4.286-1.362,5.991,1.094,2.3,6.82,2.994,9,3.162l15.06,24.463,19.513-4.666L327.1,316.516l3.535-1.061s2.121.212,2.121-.919c0-2.756-1.215-5.878-1.835-8.538-.911-3.906-1.288-8.871-3.044-12.441-2.03-4.126-7.3-4.28-11.293-5.246q-4.493-1.089-9-2.127Z" transform="translate(-271.995 -286.184)"/></clipPath><clipPath id="t"><path class="a" d="M298.339,286.007c-.213.052,0,5.366,0,5.836a4.222,4.222,0,0,0,.278,2.146,6.03,6.03,0,0,0,4.581,3.322,9.972,9.972,0,0,0,10.982-4.94V282.19Z" transform="translate(-298.244 -282.19)"/></clipPath><clipPath id="u"><path class="a" d="M324.226,322.1s2.069-3.147,4.613-3.358a51.236,51.236,0,0,1,7,.23l-2.7,16.915s.848,1.909.212,2.864-3.818,2.121-3.818,2.121l-17.286,10.075h-1.485l-.848-2.015-2.333-.424-1.8,2.439h-2.121v-6.151l3.287-2.015,2.439,1.591s11.454-7.094,12.939-9.061l1.484-1.968Z" transform="translate(-303.652 -318.682)"/></clipPath><clipPath id="v"><path class="e" d="M286.647,321.937l.424,11.348L299.8,344.951V351.1h2.121l1.8-2.439,2.333.424.848,2.015s2.652.636,2.863,1.378-1.485,6.151-2.333,6.364-6.787-.531-6.787-.531l-5.2-3.5s.212-6.363,0-7.317-14.742-6.894-16.121-8.59c-.576-.71-.861-2.067-1.591-4.666a110.624,110.624,0,0,1-3.146-14.247c1.116-.286,3.006.016,4.525-.055C282.513,319.78,284.861,321.269,286.647,321.937Z" transform="translate(-274.592 -319.867)"/></clipPath></defs><g transform="translate(-1120.521 -114.822)"><g transform="translate(1155.863 114.822)"><g transform="translate(0 0)"><path class="j" d="M523.221,388.757c11.446-12.635,23.732-30.744,21.844-51.181-1.893-20.5-18.15-25.838-23.024-47.635-7.544-33.738,13.344-48.353,14.965-79,2.91-55-58.469-119.784-117.423-126.633-35.606-4.136-40.609,16.312-85.19,13.814-54.9-3.075-64.646-35.054-103.609-31.083-44.459,4.532-90.876,52.2-90.945,95.55-.071,44.707,49.173,64.734,39.141,99-6.63,22.649-32.086,21.451-46.048,48.351-13.257,25.54,7.919,64.829,19,78.81Z" transform="translate(-125.263 -66.702)"/><ellipse class="j" cx="17.053" cy="17.053" rx="17.053" ry="17.053" transform="translate(2.965 5.604)"/><ellipse class="k" cx="17.053" cy="17.053" rx="17.053" ry="17.053" transform="translate(9.621 167.038)"/><circle class="l" cx="9.339" cy="9.339" r="9.339" transform="translate(47.099 50.749) rotate(-45)"/><path class="l" d="M593.2,304.93a9.971,9.971,0,1,1,9.971,9.971A9.971,9.971,0,0,1,593.2,304.93Z" transform="translate(-186.874 -96.978)"/><circle class="l" cx="6.986" cy="6.986" r="6.986" transform="translate(403.436 185.678) rotate(-45)"/><circle class="k" cx="7.157" cy="7.157" r="7.157" transform="translate(0 60.088) rotate(-45)"/><circle class="k" cx="7.157" cy="7.157" r="7.157" transform="translate(192.372 17.413) rotate(-45)"/><ellipse class="k" cx="7.157" cy="7.157" rx="7.157" ry="7.157" transform="translate(344.075 30.488) rotate(-80.783)"/><g class="m" transform="translate(27.724 9.433)"><g transform="translate(82.251 286.655)"><path class="n" d="M316.72,422.073a8.379,8.379,0,0,0-.042-3.524,9.649,9.649,0,0,0-1.311-3.115,10.988,10.988,0,0,0-2.194-2.488,11.389,11.389,0,0,0-1.406-1,13.382,13.382,0,0,0-1.4-.742,20.738,20.738,0,0,0-5.312-1.483l-2.191-.334-2.2-.3a128.082,128.082,0,0,0-20.14-.96c-12.449.391-28.974,2.749-28.994,5.514-.021,2.739,16.156,5.574,28.966,6.168a119.711,119.711,0,0,0,19.977-.753c1.457-.177,2.958-.388,4.2-.592a16.773,16.773,0,0,1,3.335-.291,5.944,5.944,0,0,1,1.429.231,4.85,4.85,0,0,1,1.324.639,3.893,3.893,0,0,1,1.689,2.471Z" transform="translate(-251.53 -408.07)"/><path class="o" d="M315.329,422.309a6.1,6.1,0,0,0-.591-2.712,7.19,7.19,0,0,0-1.463-2.037,7.751,7.751,0,0,0-1.93-1.4,9.514,9.514,0,0,0-2.091-.767,17.934,17.934,0,0,0-3.984-.424l-3.7-.025-14.74-.087-29.478-.173" transform="translate(-252.303 -408.947)"/><line class="o" x1="3.024" y2="2.771" transform="translate(14.972 5.815)"/><line class="o" x1="2.332" y1="3.676" transform="translate(19.15 2.159)"/><line class="o" x1="2.21" y2="3.269" transform="translate(26.853 5.879)"/><line class="o" x1="3.232" y1="3.864" transform="translate(31.299 2.047)"/><line class="o" x1="3.218" y2="4.01" transform="translate(37.414 5.947)"/><line class="o" x1="2.693" y1="2.691" transform="translate(47.823 3.314)"/></g><g transform="translate(16.405 261.658)"><path class="n" d="M336.194,430.954c-.485-2.179-5.071-7.8-6.314-9.862a28.347,28.347,0,0,0-4.663-5.676,52.621,52.621,0,0,0-9.845-7.081c-2.818-1.643-5.767-3.351-8.888-5.008-3.135-1.625-6.386-3.328-9.835-4.888q-2.577-1.19-5.261-2.374-2.7-1.139-5.5-2.259-2.8-1.136-5.725-2.173c-1.948-.7-3.927-1.4-5.942-2.065a209.821,209.821,0,0,0-25.9-6.629c-15.406-2.867-33.589-4.243-47.858-3.482-14.285.685-24.583,3.181-24.844,6.522-.269,3.382,9.179,7.392,22.191,11.746,13.038,4.313,29.63,9.185,44.335,13.169,16.885,4.527,32.5,7.968,46.576,10.642,3.522.657,6.921,1.322,10.247,1.866,3.284.6,6.536,1.147,9.566,1.61a41.88,41.88,0,0,1,8.035,1.839,14.681,14.681,0,0,1,3.384,1.737,10.515,10.515,0,0,1,2.679,2.732Z" transform="translate(-175.615 -379.249)"/><path class="p" d="M329.018,430.028a16.583,16.583,0,0,0-1.431-2.652c-.279-.415-.591-.81-.889-1.21-.33-.394-.678-.784-1.023-1.164a22.518,22.518,0,0,0-4.46-3.528,48.351,48.351,0,0,0-8.949-4.066q-8.537-3.15-17.15-6.009-17.235-5.693-34.76-10.119a502.513,502.513,0,0,0-70.7-12.582" transform="translate(-177.476 -380.503)"/><path class="p" d="M224.33,393.6c-2.792,1.847-5.557,3.721-8.287,5.592" transform="translate(-180.977 -381.152)"/><path class="p" d="M234.616,393.8q-2-4.913-4.114-9.843" transform="translate(-182.895 -379.874)"/><path class="p" d="M255.1,399.612c-2.325,2.2-4.643,4.476-6.925,6.721" transform="translate(-185.238 -381.95)"/><path class="p" d="M270.312,401.512c-1.813-3.681-3.663-7.413-5.592-11.063" transform="translate(-187.434 -380.735)"/><path class="p" d="M286.28,407.68q-5.112,3.644-10.122,7.444" transform="translate(-188.951 -383.02)"/><path class="p" d="M313.937,414.713c-1.406-2.8-2.866-5.537-4.337-8.325" transform="translate(-193.386 -382.849)"/></g><g transform="translate(242.436 247.916)"><path class="n" d="M441.317,426.013c8.558-3.5,18.928-7.75,30.688-12.689,11.767-4.967,24.972-10.471,39.444-16.884,12.15-5.4,26.564-11.49,38.177-16.532,11.572-5.065,20.287-9.266,19.805-12.358-.454-2.949-10.117-4.651-23.425-4.009-1.66.085-3.379.179-5.14.321-1.753.177-3.552.377-5.385.6-3.675.4-7.439,1.1-11.258,1.8-1.914.331-3.808.811-5.714,1.243-1.9.455-3.81.887-5.686,1.407s-3.733,1.074-5.567,1.628l-2.73.842-2.66.929q-3.022,1.072-5.948,2.187-2.9,1.193-5.692,2.426l-2.769,1.236c-.907.432-1.8.881-2.689,1.324q-2.662,1.332-5.217,2.684c-1.7.916-3.335,1.894-4.95,2.842-1.606.97-3.2,1.88-4.713,2.9q-2.279,1.5-4.45,3L463.3,392.4l-2.06,1.551a145.546,145.546,0,0,0-25.025,23.974Z" transform="translate(-436.211 -363.406)"/><path class="q" d="M439.541,422.487a302.155,302.155,0,0,1,119.044-52.276" transform="translate(-436.653 -364.308)"/><path class="q" d="M544.242,377.165c1.553-2.62,3.142-5.3,4.8-7.859" transform="translate(-450.54 -364.188)"/><path class="q" d="M535.66,381.076l3.742,3.036,3.688,3.132" transform="translate(-449.402 -365.749)"/><path class="q" d="M517.3,386.392l.957-4.31,1.027-4.269" transform="translate(-446.967 -365.317)"/><path class="q" d="M504.352,393.111c3.361,1.651,6.641,3.276,9.9,5.068" transform="translate(-445.249 -367.346)"/><path class="q" d="M490.206,397.991c.785-3.738,1.666-7.417,2.592-11.165" transform="translate(-443.373 -366.512)"/><path class="q" d="M468.069,411.7c2.73.72,5.39,1.384,8.078,2.2" transform="translate(-440.437 -369.812)"/></g><g transform="translate(0 80.633)"><path class="n" d="M336.419,321.219c-7.476-13.14-20.666-36.066-33.723-53.106a314.081,314.081,0,0,0-50.362-52.3c-2.158-1.806-4.487-3.543-6.8-5.328-2.334-1.767-4.676-3.565-7.111-5.3q-3.679-2.581-7.426-5.117l-3.745-2.514-3.837-2.393q-3.838-2.369-7.644-4.628c-2.537-1.5-5.147-2.857-7.666-4.216-2.541-1.336-5-2.667-7.484-3.849s-4.933-2.277-7.3-3.316l-3.492-1.507-1.7-.713-1.708-.637q-3.383-1.246-6.478-2.264c-2.058-.676-4.012-1.27-5.845-1.775-1.867-.456-3.619-.82-5.228-1.1-6.443-1.108-10.67-.769-11.833,1.374-1.151,2.123.716,5.947,4.639,10.773.973,1.222,2.114,2.441,3.3,3.832s2.5,2.821,3.9,4.306,2.913,3.018,4.509,4.587c1.568,1.612,3.194,3.31,4.912,5.012s3.512,3.43,5.345,5.218q2.707,2.746,5.591,5.548c3.881,3.661,7.763,7.679,11.841,11.541l1.527,1.459,1.5,1.5,3.035,2.991c2.023,2,4.106,3.92,6.122,5.921s4.042,3.969,6.065,5.9l3.024,2.874,2.964,2.874c2.26,2.172,4.529,4.284,6.786,6.363q3.34,3.182,6.68,6.218l3.338,3q1.655,1.507,3.287,3,3.286,2.961,6.559,5.783c4.316,3.829,8.619,7.461,12.837,10.98,4.2,3.55,8.393,6.862,12.447,10.117a512.522,512.522,0,0,0,44.03,31.36Z" transform="translate(-156.7 -170.541)"/><path class="r" d="M333.629,321.951c-23.71-25.22-52.471-52.325-77.876-75.86-12.7-11.763-25.768-23.079-39.315-33.663a419.772,419.772,0,0,0-42.176-29.122" transform="translate(-159.03 -172.234)"/><path class="r" d="M214.949,212.5c-4.785.5-9.458.972-14.206,1.671" transform="translate(-162.542 -176.107)"/><path class="r" d="M228.217,218.792l.777-7.657c.238-2.554.426-5.085.619-7.649" transform="translate(-166.186 -174.911)"/><path class="r" d="M249.695,240.823l-6.671,1.816-6.674,1.918" transform="translate(-167.265 -179.863)"/><path class="r" d="M268.215,252.967c.243-5.9.5-11.888.565-17.821" transform="translate(-171.492 -179.11)"/><path class="r" d="M283.463,272.765c-5.978.755-11.984,1.611-17.915,2.477" transform="translate(-171.138 -184.1)"/><path class="r" d="M314.582,299.228c.023-4.472.071-8.977.041-13.462" transform="translate(-177.642 -185.825)"/></g><g transform="translate(89.367)"><path class="n" d="M395.195,305.22a397.153,397.153,0,0,0-11.511-64.6,395.355,395.355,0,0,0-12.368-38.581c-2.544-6.683-5.276-13.421-8.371-20.346-1.507-3.448-3.189-6.945-4.863-10.445q-2.585-5.26-5.414-10.571a260.766,260.766,0,0,0-23.2-35.947,176.751,176.751,0,0,0-28.684-29.706c-2.377-2-4.88-3.744-7.242-5.388-1.184-.821-2.337-1.614-3.478-2.363q-1.776-1.071-3.467-2.043T283.31,83.4l-1.576-.841c-.533-.257-1.068-.5-1.588-.73q-3.13-1.4-5.829-2.385a30.3,30.3,0,0,0-5.031-1.393,22.683,22.683,0,0,0-4.068-.467c-2.356-.023-3.984.538-4.815,1.713s-.858,2.913-.263,5.095a23.283,23.283,0,0,0,1.352,3.581c.3.648.638,1.307,1,2.008q.509,1.088,1.112,2.244c.8,1.539,1.727,3.16,2.761,4.848.984,1.749,2.029,3.625,3.193,5.529,1.2,1.866,2.315,4,3.573,6.1.618,1.069,1.284,2.117,1.919,3.234l1.913,3.44c5.249,9.255,10.858,20.025,16.309,31.529,5.478,11.473,10.768,23.714,15.9,35.362l4.412,9.953,4.431,9.789c2.971,6.47,5.977,12.827,8.976,18.947C333,233.21,339.032,244.7,344.96,255.4c11.857,21.386,23.246,39.655,32.962,54.409Z" transform="translate(-259.734 -77.577)"/><path class="s" d="M388.456,308.9q-20.013-58.345-45.2-114.312c-8.367-18.627-17.45-36.94-28-54.129a258,258,0,0,0-17.22-24.576L295.7,113l-1.166-1.443c-.394-.476-.814-.93-1.22-1.4l-4.9-5.53-5.127-5.267c-.831-.9-1.754-1.7-2.642-2.532l-2.676-2.481" transform="translate(-262.153 -79.802)"/><path class="s" d="M313.892,139.851c-2.7-.69-5.507-1.258-8.224-1.828-2.743-.551-5.417-1.1-8.149-1.543" transform="translate(-264.745 -85.39)"/><path class="s" d="M325.073,151.876c2.717-5.339,5.4-10.825,7.824-16.4" transform="translate(-268.4 -85.257)"/><path class="s" d="M339.639,185.923c-5.411-.719-10.852-1.34-16.228-1.9" transform="translate(-268.18 -91.696)"/><path class="s" d="M353.241,207c3.021-6.308,5.917-12.667,8.789-19.137" transform="translate(-272.136 -92.205)"/><path class="s" d="M361.846,235.881q-10.313-2.826-20.623-5.482" transform="translate(-270.542 -97.848)"/><path class="s" d="M382.972,278.445q3.126-7.294,6.163-14.656" transform="translate(-276.08 -102.277)"/></g><g transform="translate(63.595 198.518)"><path class="n" d="M369.431,420c-6.762-8.643-24.332-29.057-34.925-40.167A371.046,371.046,0,0,0,296.41,345c-25.028-19.827-61.157-43.133-65.86-37.76-4.636,5.281,22.049,38.11,46.391,60.681a278.187,278.187,0,0,0,41,31.522c13.031,8.207,24.8,16.892,34.8,21.3Z" transform="translate(-230.021 -306.453)"/><path class="t" d="M363.327,419.927c-39.611-31.216-83.53-69.12-121.652-102.4" transform="translate(-231.567 -307.922)"/><line class="t" x1="10.561" y2="0.343" transform="translate(24.697 31.489)"/><line class="t" y1="11.093" x2="1.584" transform="translate(42.048 26.27)"/><line class="t" x1="9.785" y2="2.743" transform="translate(47.068 50.091)"/><line class="t" y1="12.961" x2="0.038" transform="translate(67.575 46.26)"/><line class="t" x1="12.977" y2="2.638" transform="translate(66.6 69.344)"/><line class="t" x1="0.997" y1="9.734" transform="translate(98.155 75.835)"/></g><g transform="translate(204.09 150.116)"><path class="n" d="M404.749,414.613c8.317-10,18.3-22.246,29.325-36.476,11.015-14.26,23.2-30.385,35.946-48.694,10.695-15.383,23.25-33.46,33-48.275,9.7-14.81,16.416-26.5,13.444-29.684-2.855-3.062-15.244,2.528-30.178,13.327-1.86,1.351-3.78,2.762-5.715,4.252q-2.864,2.277-5.818,4.725c-3.968,3.22-7.859,6.809-11.8,10.454-1.985,1.808-3.864,3.746-5.781,5.651-1.9,1.923-3.813,3.834-5.642,5.806s-3.616,3.967-5.373,5.948l-2.6,2.967-2.478,3.005q-2.8,3.435-5.463,6.85-2.59,3.471-5.033,6.917l-2.41,3.433c-.776,1.154-1.526,2.315-2.274,3.466q-2.235,3.458-4.335,6.865c-1.385,2.282-2.672,4.587-3.946,6.845-1.253,2.275-2.521,4.485-3.641,6.748q-1.706,3.376-3.289,6.673-.783,1.65-1.554,3.274l-1.434,3.275c-7.558,17.312-13.083,38.6-15.693,51.5Z" transform="translate(-392 -250.65)"/><path class="u" d="M398,415.239a583.672,583.672,0,0,1,48.223-81.018,543.844,543.844,0,0,1,59.365-70.177" transform="translate(-392.796 -252.426)"/><path class="u" d="M490.184,296.309c-.133-4.249-.269-8.571-.271-12.827" transform="translate(-404.987 -255.005)"/><path class="u" d="M482.119,307.844l6.684.819,6.69.937" transform="translate(-403.953 -258.236)"/><path class="u" d="M464.6,327.38l-1.989-5.824-1.9-5.825" transform="translate(-401.113 -259.282)"/><path class="u" d="M453.6,344.789c5.208-.427,10.325-.832,15.52-1.074" transform="translate(-400.17 -262.994)"/><path class="u" d="M440.521,360.582c-1.675-5.06-3.227-10.117-4.777-15.264" transform="translate(-397.802 -263.207)"/><path class="u" d="M422.7,392.4c3.813-1,7.531-2.007,11.355-2.894" transform="translate(-396.072 -269.068)"/></g></g></g></g><g transform="translate(1122.664 159.857)"><g transform="translate(0 0)"><g transform="translate(394.358 155.899)"><path class="b" d="M563.906,349.393l-.293.141c-3.047,1.457-4.667,1.213-7.636-.157a31.088,31.088,0,0,1-7.654-4.763,15.991,15.991,0,0,1-5.558-9.759,3.475,3.475,0,0,1,.409-2.481,2.787,2.787,0,0,1,3.22-.669,9.754,9.754,0,0,1,2.841,2.073,3.207,3.207,0,0,0,1.253.8,1.174,1.174,0,0,0,1.324-.441c.4-.7-.282-1.5-.9-2.011-1.424-1.187-2.761-1.874-4.255-2.926a14.05,14.05,0,0,1-4.641-4.985,7.358,7.358,0,0,1-.189-6.621,4.034,4.034,0,0,1,1.363-1.555,4.862,4.862,0,0,1,3.6-.368,34.658,34.658,0,0,0,3.61.848c2.91.3,4.053-1.745,3.995-4.423-.039-1.795-.618-3.54-.723-5.333-.182-3.156,1.376-6.519,4.234-7.869s6.851-.057,7.874,2.934c1.112,3.251-1.426,6.9.253,10.008a9.489,9.489,0,0,0,2.753,3c1.6.987,3.893-.173,5.751-.088a1.675,1.675,0,0,1,1.15.371,1.575,1.575,0,0,1,.359.828,6.878,6.878,0,0,1-2.081,6.271c-1.923,1.75-5.259,2.643-6.077,5.385-.508,1.7-.287,5.946,2.422,5.516,1.016-.162,1.7-1.167,2.671-1.5a2.711,2.711,0,0,1,3.127,1.546,4.753,4.753,0,0,1-.089,3.712,15.563,15.563,0,0,1-3.567,4.814C569.582,344.684,567.7,347.524,563.906,349.393Z" transform="translate(-541.127 -298.365)"/><line class="v" y2="110.63" transform="translate(18.749 11.46)"/><path class="v" d="M569.241,324.79l-7.67,7.67-7.671-7.67" transform="translate(-542.822 -301.87)"/><path class="v" d="M569.241,342.552l-7.67,7.671-7.671-7.671" transform="translate(-542.822 -304.226)"/></g><g transform="translate(408.696 207.899)"><path class="w" d="M578.076,404.056l-.263.127c-2.731,1.306-4.182,1.088-6.845-.14a27.936,27.936,0,0,1-6.86-4.269,14.325,14.325,0,0,1-4.981-8.748,3.11,3.11,0,0,1,.365-2.223,2.5,2.5,0,0,1,2.887-.6,8.725,8.725,0,0,1,2.547,1.858,2.9,2.9,0,0,0,1.123.719,1.052,1.052,0,0,0,1.187-.4c.355-.625-.252-1.343-.8-1.8-1.277-1.063-2.474-1.679-3.814-2.622a12.613,12.613,0,0,1-4.161-4.468,6.6,6.6,0,0,1-.169-5.935,3.615,3.615,0,0,1,1.222-1.394,4.355,4.355,0,0,1,3.226-.33,30.97,30.97,0,0,0,3.236.76c2.608.271,3.633-1.564,3.581-3.964-.035-1.609-.554-3.173-.647-4.78A7.343,7.343,0,0,1,572.7,358.8c2.563-1.21,6.142-.051,7.059,2.63,1,2.914-1.278,6.187.226,8.972a8.515,8.515,0,0,0,2.468,2.693c1.43.885,3.49-.155,5.156-.079a1.508,1.508,0,0,1,1.031.332,1.42,1.42,0,0,1,.321.743,6.161,6.161,0,0,1-1.865,5.62c-1.723,1.569-4.713,2.37-5.446,4.826-.455,1.526-.258,5.33,2.17,4.945.911-.146,1.52-1.046,2.395-1.342a2.428,2.428,0,0,1,2.8,1.385,4.254,4.254,0,0,1-.081,3.327,13.93,13.93,0,0,1-3.2,4.315C583.164,399.835,581.472,402.381,578.076,404.056Z" transform="translate(-557.658 -358.317)"/><line class="v" y2="59.13" transform="translate(16.806 10.272)"/><path class="v" d="M582.858,382l-6.875,6.875L569.107,382" transform="translate(-559.177 -361.459)"/><path class="v" d="M582.858,397.924l-6.875,6.875-6.875-6.875" transform="translate(-559.177 -363.571)"/></g><g transform="translate(7.41 204.858)"><path class="x" d="M122.153,415.629c-.115.057-.232.113-.349.169-3.633,1.736-5.562,1.446-9.1-.187a37.119,37.119,0,0,1-9.122-5.677A19.06,19.06,0,0,1,96.957,398.3a4.139,4.139,0,0,1,.487-2.956,3.32,3.32,0,0,1,3.838-.8,11.612,11.612,0,0,1,3.387,2.469,3.827,3.827,0,0,0,1.493.957,1.4,1.4,0,0,0,1.578-.526c.472-.829-.336-1.785-1.069-2.4-1.7-1.414-3.291-2.232-5.071-3.486a16.77,16.77,0,0,1-5.533-5.941,8.772,8.772,0,0,1-.225-7.892,4.8,4.8,0,0,1,1.625-1.853,5.787,5.787,0,0,1,4.289-.439,41.333,41.333,0,0,0,4.3,1.01c3.468.361,4.83-2.079,4.762-5.271-.046-2.139-.737-4.219-.861-6.355-.217-3.762,1.639-7.77,5.046-9.379s8.167-.069,9.386,3.5c1.324,3.874-1.7,8.226.3,11.929a11.318,11.318,0,0,0,3.281,3.581c1.9,1.176,4.64-.206,6.856-.1a2,2,0,0,1,1.371.442,1.884,1.884,0,0,1,.427.988,8.193,8.193,0,0,1-2.48,7.473c-2.292,2.087-6.267,3.151-7.242,6.418-.605,2.029-.343,7.087,2.887,6.575,1.211-.193,2.022-1.39,3.183-1.784A3.23,3.23,0,0,1,136.7,396.3a5.657,5.657,0,0,1-.107,4.424,18.549,18.549,0,0,1-4.25,5.738C128.919,410.017,126.671,413.4,122.153,415.629Z" transform="translate(-95.005 -354.811)"/><line class="y" y2="59.608" transform="translate(22.347 13.659)"/><path class="y" d="M128.513,386.306l-9.142,9.142-9.142-9.142" transform="translate(-97.024 -358.988)"/><path class="y" d="M128.513,407.476l-9.142,9.142-9.142-9.142" transform="translate(-97.024 -361.797)"/></g><g transform="translate(438.833 195.546)"><g transform="translate(2.987 29.731)"><path class="w" d="M632.259,391.618a35.167,35.167,0,0,0-7.683-3.94,67.254,67.254,0,0,0-11.146-2.951c-7.173-1.346-17.6-2.061-17.581-3.608.008-.721,2.5-1.534,6.1-2.133a46.918,46.918,0,0,1,12.579-.368,29.68,29.68,0,0,1,12.484,4.36,21.321,21.321,0,0,1,6.832,7Z" transform="translate(-595.848 -378.352)"/><path class="z" d="M633.461,391.078c-3.971-4.308-9.684-7-15.617-8.356-5.979-1.362-12.23-1.449-18.359-1.34" transform="translate(-596.33 -378.75)"/><line class="z" x1="1.814" y1="1.541" transform="translate(9.45 1.151)"/><path class="z" d="M611.1,381.6q-.829.915-1.618,1.849" transform="translate(-597.657 -378.784)"/><path class="z" d="M616.621,381.91c-.35-.644-.715-1.28-1.092-1.913" transform="translate(-598.458 -378.571)"/><path class="z" d="M620.286,382.932c-.827.513-1.618,1.041-2.39,1.6" transform="translate(-598.772 -378.96)"/><path class="z" d="M624.66,383.7c-.386-.877-.809-1.756-1.27-2.622" transform="translate(-599.501 -378.714)"/><path class="z" d="M630.951,386.879c-.725.157-1.418.308-2.112.514" transform="translate(-600.224 -379.483)"/></g><g transform="translate(0 7.719)"><path class="w" d="M635.856,389.023a31.921,31.921,0,0,1-5.275-4.669c-1.685-1.825-3.284-3.854-4.88-5.821a55.541,55.541,0,0,0-5.137-5.634,65.352,65.352,0,0,0-6.611-5.41,128.191,128.191,0,0,0-14.039-8.437c-4.458-2.369-7.8-4.233-7.491-5.271.288-.977,4.157-1.121,9.433-.141A52.955,52.955,0,0,1,610.468,356a47.185,47.185,0,0,1,8.655,4.227,37.391,37.391,0,0,1,7.909,6.653,34.476,34.476,0,0,1,5.082,7.558c1.214,2.441,2.152,4.678,3.07,6.7a44.535,44.535,0,0,0,2.848,5.428Z" transform="translate(-592.404 -352.974)"/><path class="aa" d="M637.5,387.917c-3.312-3.364-5.467-7.3-7.816-10.959-.589-.917-1.2-1.813-1.826-2.7s-1.339-1.7-2.017-2.548a45.037,45.037,0,0,0-4.683-4.572,55.524,55.524,0,0,0-11.177-7.084,86.879,86.879,0,0,0-12.451-4.8" transform="translate(-593.084 -353.278)"/><path class="aa" d="M609.939,359.542c-.513-1.027-1.062-2.024-1.633-3.029" transform="translate(-594.513 -353.444)"/><path class="aa" d="M612.979,361.585c-1.08.5-2.119,1-3.156,1.56" transform="translate(-594.714 -354.117)"/><path class="aa" d="M620.211,365.087c-.057-1.056-.147-2.116-.276-3.162" transform="translate(-596.055 -354.162)"/><path class="aa" d="M624.152,368.959c-1.368.087-2.762.318-4.066.53" transform="translate(-596.076 -355.095)"/><path class="aa" d="M629.3,372.634a36.779,36.779,0,0,0,.185-4.195" transform="translate(-597.298 -355.026)"/><path class="aa" d="M634.826,381.213c-1.013-.328-2.021-.647-3.023-.916" transform="translate(-597.63 -356.598)"/></g><g transform="translate(37.873)"><path class="w" d="M639.58,384.991c-.883-5.346-2.018-12.992-2.713-22.261-.292-3.9-.6-8.464-.738-12.111s-.076-6.375.671-6.537c.722-.158,2.085,2.244,3.378,5.775a64.374,64.374,0,0,1,3.056,12.354,57.742,57.742,0,0,1-1.305,22.738Z" transform="translate(-636.069 -344.075)"/><path class="ab" d="M641.02,385.313a149.9,149.9,0,0,0-3.2-37.57" transform="translate(-636.301 -344.561)"/><line class="ab" y1="2.132" x2="1.199" transform="translate(3.037 9.258)"/><path class="ab" d="M639.615,359.574q-1.1-.634-2.207-1.242" transform="translate(-636.246 -345.966)"/><line class="ab" y1="1.566" x2="1.629" transform="translate(3.973 16.878)"/><path class="ab" d="M640.687,369.073c-.761-.65-1.513-1.291-2.287-1.918" transform="translate(-636.378 -347.136)"/><line class="ab" y1="2.148" x2="2.065" transform="translate(4.592 23.687)"/><line class="ab" x1="1.499" y1="1.721" transform="translate(3.326 30.43)"/></g><g transform="translate(44.14 2.033)"><path class="w" d="M643.294,386.9a91.293,91.293,0,0,1,4.258-23.159c2.526-7.837,7.053-17.806,8.531-17.3,1.452.494-.232,11.129-2.275,19.293a101.629,101.629,0,0,1-8.147,21.638Z" transform="translate(-643.294 -346.419)"/><path class="ac" d="M644.736,387.489q4.917-18.816,10.625-37.359" transform="translate(-643.485 -346.911)"/><line class="ac" y1="1.414" x2="2.057" transform="translate(9.408 9.959)"/><line class="ac" x1="1.519" y1="2.116" transform="translate(7.237 11.457)"/><line class="ac" y1="0.832" x2="2.16" transform="translate(7.358 17.533)"/><line class="ac" x1="1.473" y1="2.705" transform="translate(4.892 19.123)"/><line class="ac" y1="1.363" x2="2.734" transform="translate(5.274 24.334)"/><line class="ac" x1="0.971" y1="2.153" transform="translate(2.572 29.825)"/></g><g transform="translate(39.13 29.07)"><path class="w" d="M637.518,395.011a25.8,25.8,0,0,1,7.692-8.428,43.494,43.494,0,0,1,12.663-6.421,46.393,46.393,0,0,1,6.659-1.525,51.51,51.51,0,0,1,6.386-.512,42.956,42.956,0,0,0,4.668-.355c1.2-.168,2.028-.313,2.253.025.207.312-.225,1.149-1.335,2.077a15.935,15.935,0,0,1-4.8,2.494c-1.949.668-3.925,1.307-5.863,1.969-2.011.686-4.045,1.457-5.944,2.2-4.356,1.706-8.3,3.388-11.8,4.968a38.44,38.44,0,0,0-8.566,4.916Z" transform="translate(-637.518 -377.59)"/><path class="ad" d="M638.825,395.9a28.77,28.77,0,0,1,7.857-6.484,66,66,0,0,1,8.88-4.462,66.977,66.977,0,0,1,9.361-3.063c1.589-.4,3.183-.711,4.8-.995a35.255,35.255,0,0,0,4.968-1.114" transform="translate(-637.691 -377.881)"/><path class="ad" d="M670.254,381.894c.759.384,1.5.755,2.231,1.164" transform="translate(-641.86 -378.161)"/><path class="ad" d="M667.657,382.163c.34-.817.7-1.625,1.082-2.433" transform="translate(-641.516 -377.874)"/><path class="ad" d="M662.074,384.239c.655.437,1.3.884,1.932,1.332" transform="translate(-640.775 -378.472)"/><path class="ad" d="M658.122,385.3c.408-.967.85-1.919,1.313-2.882" transform="translate(-640.251 -378.231)"/><path class="ad" d="M653.8,387.681c.962.378,1.919.8,2.847,1.213" transform="translate(-639.678 -378.929)"/><path class="ad" d="M647.051,391.048c.263-.763.544-1.532.843-2.289" transform="translate(-638.782 -379.072)"/></g><path class="ae" d="M6.955,0H27.623a7.353,7.353,0,0,1,7.353,7.353V24.911A18.879,18.879,0,0,1,16.1,43.79h0A16.1,16.1,0,0,1,0,27.694V6.955A6.955,6.955,0,0,1,6.955,0Z" transform="translate(23.978 38.816)"/><path class="af" d="M625.736,421.1V393.8a4.976,4.976,0,0,1,4.976-4.976h-5.687a4.977,4.977,0,0,0-4.976,4.976v27.3a11.516,11.516,0,0,0,11.516,11.516h5.687A11.516,11.516,0,0,1,625.736,421.1Z" transform="translate(-596.071 -350.011)"/><rect class="ae" width="42.683" height="7.988" rx="3.004" transform="translate(19.758 37.186)"/></g><g transform="translate(274.637 57.547)"><rect class="ag" width="125.705" height="90.417" rx="8.272"/><rect class="ah" width="119.949" height="86.45" rx="8.272" transform="translate(2.878 1.984)"/><g transform="translate(55.126 65.862)"><line class="ai" x2="23.758"/><line class="ai" x2="23.758" transform="translate(0 3.449)"/><line class="ai" x2="23.758" transform="translate(0 6.897)"/><line class="ai" x2="23.758" transform="translate(0 10.346)"/><line class="ai" x2="9.214" transform="translate(0 13.795)"/></g><g transform="translate(35.269 18.631)"><line class="aj" x2="33.918"/><line class="aj" x2="33.918" transform="translate(0 4.923)"/><line class="aj" x2="33.918" transform="translate(0 9.847)"/><line class="aj" x2="33.918" transform="translate(0 14.77)"/><line class="aj" x2="13.154" transform="translate(0 19.694)"/></g><g transform="translate(79.861 21.769)"><path class="f" d="M500.189,218.09h3.173a4.318,4.318,0,0,0,.1-.929v-7.09h-8.293v11.436h3.946a4.329,4.329,0,0,0,1.072-.139Z" transform="translate(-495.171 -210.071)"/><path class="ak" d="M500.956,222.595a4.345,4.345,0,0,0,3.173-3.279h-3.173Z" transform="translate(-495.938 -211.297)"/></g><g transform="translate(88.591 45.13)"><path class="al" d="M516.006,254.217h6.811a9.319,9.319,0,0,0,.219-1.995V237h-17.8v24.548h8.47a9.315,9.315,0,0,0,2.3-.3Z" transform="translate(-505.236 -237.004)"/><path class="am" d="M517.653,263.887a9.329,9.329,0,0,0,6.811-7.038h-6.811Z" transform="translate(-506.883 -239.636)"/></g><g transform="translate(93.866 9.495)"><path class="al" d="M522.088,213.133H528.9a9.336,9.336,0,0,0,.219-1.995V195.919h-17.8v24.549h8.47a9.315,9.315,0,0,0,2.3-.3Z" transform="translate(-511.318 -195.919)"/><path class="am" d="M523.735,222.8a9.332,9.332,0,0,0,6.811-7.038h-6.811Z" transform="translate(-512.965 -198.551)"/></g></g><g transform="translate(71.249)"><g transform="translate(349.041 20.716)"><path class="an" d="M632.451,182.966H584.023l-13,8.443V155.555c0-7.205,6.7-13.046,14.964-13.046h46.462c8.263,0,14.963,5.841,14.963,13.046V169.92C647.413,177.125,640.714,182.966,632.451,182.966Z" transform="translate(-571.025 -142.509)"/><rect class="ao" width="47.531" height="4.47" rx="1.446" transform="translate(13.894 9.851)"/><rect class="ao" width="47.531" height="4.47" rx="1.446" transform="translate(13.894 17.928)"/><rect class="ao" width="28.596" height="4.47" rx="1.446" transform="translate(13.894 25.996)"/></g><g transform="translate(0 29.788)"><path class="an" d="M185.461,198.535H212.3l14.64,9.51V167.661c0-8.115-7.546-14.693-16.854-14.693H185.461c-9.309,0-16.854,6.578-16.854,14.693v16.181C168.607,191.957,176.152,198.535,185.461,198.535Z" transform="translate(-168.607 -152.968)"/><path class="ah" d="M201.584,190.939a3.738,3.738,0,1,1,.083,0ZM199.3,181.3l-.914-18.813h6.562l-.913,18.813Z" transform="translate(-172.496 -154.231)"/></g><g transform="translate(204.734)"><path class="n" d="M446.129,164.193H419.29L404.65,173.7V133.319c0-8.115,7.546-14.694,16.854-14.694h24.625c9.308,0,16.854,6.579,16.854,14.694V149.5C462.983,157.614,455.437,164.193,446.129,164.193Z" transform="translate(-404.65 -118.625)"/><path class="ah" d="M422.3,157.421a.7.7,0,0,1,.018-.166c.807-1.6-.513-2.366-1.3-3.344a.511.511,0,0,0-.5-.133c-.25.024-.5.07-.748.09-.978.078-.983.077-1.389-.8a12.348,12.348,0,0,1-.736-2.133c-.088-.346-.055-.629.287-.76,1.2-.461,1.359-1.4,1.4-2.547a1.538,1.538,0,0,0-.758-1.579c-.181-.113-.332-.274-.507-.4a.482.482,0,0,1-.18-.611,11.946,11.946,0,0,1,1.272-2.723.451.451,0,0,1,.586-.238c1.225.516,2.083.031,2.923-.873a1.5,1.5,0,0,0,.539-1.416c-.193-1.238-.147-1.25,1.026-1.761a12.594,12.594,0,0,1,1.889-.62c.327-.084.576-.038.721.272a2.238,2.238,0,0,0,2.328,1.4,1.977,1.977,0,0,0,1.926-.844c.515-.77.573-.731,1.449-.4a15.242,15.242,0,0,1,1.984.958c.393.219.569.491.405.91a2.144,2.144,0,0,0,.619,2.449,1.978,1.978,0,0,0,2.216.755c.534-.146.784.081.991.536a13.051,13.051,0,0,1,.873,2.481c.07.3.049.557-.252.673-1.239.476-1.442,1.427-1.436,2.635a1.463,1.463,0,0,0,.712,1.49c.184.107.33.276.507.4a.5.5,0,0,1,.213.647,12.418,12.418,0,0,1-1.235,2.681.52.52,0,0,1-.677.271c-1.125-.449-1.884-.036-2.761.754a1.926,1.926,0,0,0-.568,2.083.768.768,0,0,1-.523.958,12.773,12.773,0,0,1-2.48.877c-.326.075-.588.05-.719-.269-.487-1.182-1.4-1.367-2.589-1.435-.916-.052-1.238.4-1.667.932-.539.664-.536.659-1.33.376a11.331,11.331,0,0,1-2.22-1.082C422.418,157.789,422.2,157.664,422.3,157.421Zm6.342-14.56a5.543,5.543,0,1,0,5.548,5.552A5.432,5.432,0,0,0,428.646,142.861Z" transform="translate(-406.37 -121.111)"/><path class="ah" d="M443.355,142.877a.538.538,0,0,1,.014-.124c.605-1.2-.385-1.777-.974-2.511a.383.383,0,0,0-.374-.1c-.187.018-.373.053-.56.068-.736.059-.739.059-1.043-.6a9.262,9.262,0,0,1-.553-1.6c-.066-.26-.041-.473.216-.571.9-.346,1.021-1.05,1.051-1.913a1.155,1.155,0,0,0-.569-1.186c-.136-.084-.249-.206-.381-.3a.361.361,0,0,1-.134-.458,8.948,8.948,0,0,1,.955-2.045.34.34,0,0,1,.441-.179,1.79,1.79,0,0,0,2.194-.656,1.128,1.128,0,0,0,.405-1.064c-.145-.929-.112-.938.77-1.322a9.43,9.43,0,0,1,1.419-.466c.245-.063.433-.029.541.2a1.682,1.682,0,0,0,1.749,1.054,1.483,1.483,0,0,0,1.446-.634c.387-.578.429-.549,1.088-.3a11.267,11.267,0,0,1,1.49.719c.3.164.428.369.3.683a1.61,1.61,0,0,0,.465,1.839,1.486,1.486,0,0,0,1.664.567c.4-.109.589.061.745.4a9.845,9.845,0,0,1,.655,1.864c.053.228.037.418-.19.5-.93.358-1.082,1.072-1.078,1.979a1.1,1.1,0,0,0,.535,1.119c.138.081.248.207.381.3a.378.378,0,0,1,.16.486,9.368,9.368,0,0,1-.927,2.014.39.39,0,0,1-.509.2,1.8,1.8,0,0,0-2.073.566,1.447,1.447,0,0,0-.427,1.564.576.576,0,0,1-.393.72,9.654,9.654,0,0,1-1.863.659c-.245.056-.441.037-.539-.2-.366-.888-1.05-1.027-1.945-1.077a1.328,1.328,0,0,0-1.252.7c-.405.5-.4.5-1,.283a8.525,8.525,0,0,1-1.668-.813C443.441,143.154,443.281,143.06,443.355,142.877Zm4.764-10.935a4.162,4.162,0,1,0,4.167,4.169A4.08,4.08,0,0,0,448.119,131.942Z" transform="translate(-409.317 -119.844)"/></g><g transform="translate(116.123 45.166)"><path class="n" d="M343.967,216.266H317.128l-14.64,9.509V185.392c0-8.116,7.546-14.694,16.854-14.694h24.625c9.308,0,16.854,6.578,16.854,14.694v16.18C360.821,209.687,353.275,216.266,343.967,216.266Z" transform="translate(-302.488 -170.698)"/><path class="g" d="M333.882,179.587l4.512,9.143,10.09,1.466-7.3,7.117,1.724,10.049-9.024-4.744-9.025,4.744,1.724-10.049-7.3-7.117,10.09-1.466Z" transform="translate(-304.715 -171.877)"/></g></g><g transform="translate(0 75.462)"><g transform="translate(49.601)"><g transform="translate(71.628 9.726)"><path class="e" d="M252.971,271.686a4.193,4.193,0,0,0,1.116-2.741,4.3,4.3,0,0,0-.52-2.316,4.666,4.666,0,0,0-1.9-1.792,4.461,4.461,0,0,0-2.582-.439,7.461,7.461,0,0,0-3.655,1.458,4.579,4.579,0,0,0-1.53,2.182,8.111,8.111,0,0,0-.3,4.077,8.435,8.435,0,0,0,.723,1.866c.408.859.823,1.716,1.262,2.56.868,1.668,1.858,3.263,2.816,4.881a19.05,19.05,0,0,1,1.176,2.2,12.857,12.857,0,0,0,.871,1.948,2.621,2.621,0,0,0,1,.928c.721.386,1.466.684,2.163,1.121,1.544.968,3.046,1.987,4.662,2.838a26.232,26.232,0,0,0,4.716,1.869,36.444,36.444,0,0,0,5.136,1.226c1.078.175,2.091.384,3.484.511a31.062,31.062,0,0,0,4.215.1l6.944-3.314q.182-1.583.365-3.168l-2.24-3.107-1.658-.376-5.165,2.558-1.462,2-2.437.146a35.307,35.307,0,0,1-4.629-2.972,45,45,0,0,0-4.249-3.159c-1.344-.83-2.094-1.249-2.094-1.249a14.737,14.737,0,0,1-2.136-1.215,5.671,5.671,0,0,1-1.7-2.685c-.361-.913-.729-1.824-1.076-2.743-.317-.845-.695-1.654-1.043-2.487-.526-1.262-1.3-2.919-2.278-4.9Z" transform="translate(-228.516 -223.144)"/><path class="d" d="M265.283,417.724a10.964,10.964,0,0,0-3.433-.351,11.841,11.841,0,0,1-4.45-1.3,27.332,27.332,0,0,1-4.123-2.632,19.023,19.023,0,0,1-1.87-1.547,1.569,1.569,0,0,0-.707-.507,2.133,2.133,0,0,0-.332-.049c.428-.256.193-.777.069-1.172-.272-.873-.588-1.733-.827-2.616-.173-.644-.19-1.287-.315-1.936-.185-.965-.9-1.86-.8-2.871a2.075,2.075,0,0,0,.042-.73c-.072-.274-.318-.466-.391-.735a6.5,6.5,0,0,1-.015-1.344c-.036-1-.085-2.006-.128-3.009-.077-1.8-.112-3.589-.059-5.387.049-1.7.16-3.4.354-5.084.232-2.015.458-4.012.553-6.039a18.288,18.288,0,0,1,.243-2.4,16.044,16.044,0,0,0,.151-2.31,5.642,5.642,0,0,1,.332-1.693c.274-.781.448-1.584.7-2.371a14.253,14.253,0,0,1,.818-1.692,9.849,9.849,0,0,0,.689-2.191,29.717,29.717,0,0,0,.368-5.368,25.87,25.87,0,0,1,.849-5.047c.46-1.991,1.02-3.958,1.545-5.932.433-1.63.871-3.26,1.248-4.9a49.2,49.2,0,0,0,.924-5.143c.238-1.975.51-3.953.677-5.936.077-.907.088-1.819.159-2.727.059-.768.231-1.519.3-2.285a20.754,20.754,0,0,0-.059-2.141,7.687,7.687,0,0,1,.539-2.508,10.219,10.219,0,0,1,.559-1.279,5.717,5.717,0,0,0,.62-1.246,23.881,23.881,0,0,0,.5-2.612,20.306,20.306,0,0,0,.158-2.492l-21.04-6.3c-.586.679-1.137,1.384-1.662,2.112a22.552,22.552,0,0,0-2.854,4.877,13.114,13.114,0,0,0-.892,5.406,24.985,24.985,0,0,0,1.23,5.9c.3.987.622,1.968.941,2.949a11.522,11.522,0,0,0,.851,2.225c.18.31.484.526.658.831a1.338,1.338,0,0,1,.1.727c-.036,1.3.708,2.4.837,3.666a4.526,4.526,0,0,1-.148,1.26,4.342,4.342,0,0,0,.137,1.382,15.728,15.728,0,0,1,.086,2.475c-.009,1.1-.027,2.2-.023,3.307.007,2.022.016,4.045.1,6.066.052,1.247.116,2.5.156,3.744a11.428,11.428,0,0,1-.132,2.409,7.433,7.433,0,0,0-.245,1.929,4.745,4.745,0,0,1-.13,1.578,8.319,8.319,0,0,0-.359,1.962,10.056,10.056,0,0,0,.224,1.417,9.592,9.592,0,0,1-.061,1.705c-.039.965.01,1.929-.062,2.893-.154,2.011-.5,4.007-.705,6.015a58.652,58.652,0,0,0-.357,6.169,42.429,42.429,0,0,0,.506,6.059c.3,2.018.7,4.021.914,6.051.24,2.249.344,4.515.494,6.771.128,1.909.447,3.8.584,5.707.074,1.036.087,2.075.132,3.112a4.115,4.115,0,0,0,.256,1.564c-.4.087-.549.526-.66.868a20.012,20.012,0,0,0-.748,4.867,12.884,12.884,0,0,0-.023,2.187,1.156,1.156,0,0,0,.167.551c.348.493,1.24.571,1.762.641a30.6,30.6,0,0,0,4.1.167l7.137,0a89.074,89.074,0,0,0,10.027-.252,13.273,13.273,0,0,0,4.406-1.138c.482-.24.929-.532.975-1.108A2.912,2.912,0,0,0,265.283,417.724Z" transform="translate(-227.223 -229.44)"/><g transform="translate(8.992 8.151)"><path class="a" d="M256.873,230.57q.151.66.25,1.329a17.016,17.016,0,0,1,.187,2.887c-.022.887-.219,1.777-.193,2.665a3.33,3.33,0,0,0,.58,1.442,15.737,15.737,0,0,1,1.12,2.277c.13.394.2.942-.267,1.121-.508.2-1.444-.086-1.636.614-.1.357.043.754-.085,1.1-.088.239-.3.3-.477.47a.84.84,0,0,0-.244.555,4.7,4.7,0,0,1-.151,1.254c-.139.377-.41.548-.623.869a1.59,1.59,0,0,0-.162.867c-.014.889-.021,1.879-1.079,2.118a5.738,5.738,0,0,1-1.889-.07,9.322,9.322,0,0,0-2.4-.167,1.436,1.436,0,0,0-.925.54,6.291,6.291,0,0,0-1.071,1.788,25.579,25.579,0,0,0,1.216,5.033c.695,1.461-2.193,2.083-2.193,2.083l-7.566-3.436-2.671-4.123,1.776-4.581a7.648,7.648,0,0,0,.53-2.289l.389-15.077,10.185-3.606,7.439,4.264Z" transform="translate(-236.597 -226.238)"/><g class="ap"><path class="e" d="M251.77,252.692s-4.385-1.956-5.646-5.976c.074,3.18,3.838,8.406,3.838,8.406Z" transform="translate(-237.861 -228.954)"/></g></g><path class="f" d="M254.333,318.137a20.1,20.1,0,0,1-.158,2.492,24.122,24.122,0,0,1-.5,2.613,5.718,5.718,0,0,1-.62,1.245,10.344,10.344,0,0,0-.559,1.279,7.688,7.688,0,0,0-.539,2.508,20.5,20.5,0,0,1,.059,2.142c-.074.766-.245,1.517-.3,2.285-.069.908-.082,1.82-.158,2.727-.168,1.983-.441,3.961-.678,5.936a49.2,49.2,0,0,1-.924,5.143c-.377,1.644-.815,3.274-1.248,4.9-.525,1.974-1.085,3.941-1.545,5.932a25.933,25.933,0,0,0-.849,5.047,29.717,29.717,0,0,1-.368,5.368,9.912,9.912,0,0,1-.689,2.191,14.2,14.2,0,0,0-.818,1.693c-.252.787-.425,1.589-.7,2.37a5.643,5.643,0,0,0-.332,1.693,16.054,16.054,0,0,1-.151,2.31,18.288,18.288,0,0,0-.243,2.4c-.1,2.026-.321,4.024-.553,6.039-.194,1.687-.3,3.386-.354,5.084-.053,1.8-.018,3.591.059,5.387.043,1,.092,2.005.128,3.009a6.443,6.443,0,0,0,.016,1.344c.072.269.318.461.389.735a2.054,2.054,0,0,1-.041.73c-.1,1.011.615,1.906.8,2.871.125.649.142,1.292.316,1.936.238.883.553,1.743.826,2.616.127.4.376.942-.1,1.192l-2.423,3.9c-1.613.78-8.208-1.162-8.208-1.162a4.1,4.1,0,0,1-.257-1.564c-.045-1.037-.058-2.076-.132-3.112-.136-1.908-.456-3.8-.584-5.707-.15-2.256-.254-4.521-.494-6.771-.218-2.03-.613-4.032-.914-6.051a42.437,42.437,0,0,1-.506-6.058,58.673,58.673,0,0,1,.357-6.17c.2-2.008.552-4,.705-6.015.073-.964.023-1.928.062-2.893a9.591,9.591,0,0,0,.061-1.705,10.055,10.055,0,0,1-.224-1.417,8.323,8.323,0,0,1,.359-1.962,4.723,4.723,0,0,0,.13-1.578,7.433,7.433,0,0,1,.245-1.929,11.426,11.426,0,0,0,.132-2.409c-.04-1.248-.1-2.5-.156-3.743-.084-2.021-.093-4.045-.1-6.066,0-1.1.016-2.2.024-3.307a15.838,15.838,0,0,0-.087-2.475,4.339,4.339,0,0,1-.137-1.382,4.5,4.5,0,0,0,.148-1.26c-.129-1.267-.873-2.364-.837-3.666a1.338,1.338,0,0,0-.1-.727c-.174-.305-.479-.52-.658-.831a11.524,11.524,0,0,1-.851-2.225c-.319-.981-.642-1.962-.94-2.949a24.9,24.9,0,0,1-1.231-5.9,13.115,13.115,0,0,1,.892-5.406,22.589,22.589,0,0,1,2.854-4.877c.525-.728,1.076-1.433,1.662-2.111Z" transform="translate(-226.448 -229.44)"/><g transform="translate(5.456 31.152)"><path class="b" d="M234.97,280.073a29.7,29.7,0,0,1-2.338-8.864,22.867,22.867,0,0,1,.815-8.735c.421-1.4,1.176-2.638,1.472-4.079L237,252.756a43.91,43.91,0,0,0,7.212,5.8,7.874,7.874,0,0,0,3.577,1.206c.191.011.349.013.456.012l8.791,10.155a7.852,7.852,0,0,1,1.991,2.249,8.93,8.93,0,0,1,.977,4.979c-.074,1.053-.278,2.092-.348,3.145a11.8,11.8,0,0,0,.2,2.761c.355,2.084.7,4.155.921,6.258.238,2.273,1.242,15.34,1.39,16.532.147,1.164.313,2.113.433,2.74A14.665,14.665,0,0,1,256,310.842c-3.479.265-7.425-.86-9.358.016a1.715,1.715,0,0,1-1.31.139c-.28-.154-.271-.7-.307-.95-.077-.525-.141-1.05-.223-1.573a1.487,1.487,0,0,0-.118-.515c-.09-.149-.17-.165-.331-.1-.261.1-1.832,1.788-2.1,2-.689.55-2.939-.385-9.355-6.129a8.355,8.355,0,0,0,2.422-1.8,7.688,7.688,0,0,0,.884-1.148,2.387,2.387,0,0,1,.969-1.105,2.727,2.727,0,0,0,.912-.9c.217-.337.229-.755.434-1.079.162-.257.5-.329.742-.487a2.255,2.255,0,0,0,.7-.828Z" transform="translate(-232.52 -252.756)"/><g class="aq"><path class="af" d="M248.1,272.217s-3,11.841-2.7,12.645,3.363,17.469,3.363,17.469l-9.5-19.662L244.738,272Z" transform="translate(-233.414 -255.308)"/></g></g><path class="ar" d="M234.562,429.314c-.4.085-.549.526-.661.868a19.97,19.97,0,0,0-.748,4.867,12.8,12.8,0,0,0-.022,2.188,1.146,1.146,0,0,0,.167.551c.348.493,1.241.571,1.762.641a30.609,30.609,0,0,0,4.1.167l7.138,0a89.081,89.081,0,0,0,10.027-.252,13.3,13.3,0,0,0,4.406-1.138c.482-.241.929-.532.975-1.108a2.91,2.91,0,0,0-1.568-3.154,10.96,10.96,0,0,0-3.433-.351,11.833,11.833,0,0,1-4.449-1.3,27.3,27.3,0,0,1-4.123-2.632,18.9,18.9,0,0,1-1.87-1.547,1.561,1.561,0,0,0-.707-.506c-1.76-.413-2.4,1.6-3.424,2.5a4.345,4.345,0,0,1-2.358.954,7.223,7.223,0,0,1-2.224-.09c-.768-.144-1.494-.435-2.254-.607A1.723,1.723,0,0,0,234.562,429.314Z" transform="translate(-227.14 -244.656)"/><path class="a" d="M243.9,275.486a4.8,4.8,0,0,0,2.624-2.311,5.456,5.456,0,0,0,.7-2.821,6.134,6.134,0,0,0-1.006-3.07,5.445,5.445,0,0,0-2.442-2.008,8.312,8.312,0,0,0-4.568-.587,5.091,5.091,0,0,0-2.754,1.46,9.82,9.82,0,0,0-2.493,4.246,10.933,10.933,0,0,0-.249,2.453c-.037,1.174-.065,2.35-.062,3.526.007,2.325.18,4.643.307,6.966a25.007,25.007,0,0,1,.044,3.08,16.865,16.865,0,0,0-.141,2.63,3.444,3.444,0,0,0,.537,1.6c.54.847,1.153,1.612,1.641,2.5,1.083,1.966,2.095,3.963,3.314,5.844a37.725,37.725,0,0,0,3.887,4.827c1.562,1.722,3.087,3.5,4.775,5.091,1.612,1.515,3.327,2.926,5.07,4.265a12.048,12.048,0,0,0,4.253,1.757,13.956,13.956,0,0,0,7.128-.24,8.358,8.358,0,0,0,2.058-4.914,8.68,8.68,0,0,0-.579-3.745,14.3,14.3,0,0,1-4.844-1.608q-.312-.172-.606-.352a8.715,8.715,0,0,1,2.472-1.148c.844-.236,1.463-.261,1.684-.749a1.559,1.559,0,0,0-.293-1.4,2.474,2.474,0,0,0-2.764-.65l-8.01,4.868c-.114-.1-.283-.258-.481-.457-1.711-1.72-2.148-3.441-3.39-5.823-1.078-2.069-2.038-4.2-3.115-6.273-.463-.891-.957-1.76-1.5-2.6a18.885,18.885,0,0,1-1.564-2.586,7.441,7.441,0,0,1-.321-3.92c.115-1.2.219-2.412.354-3.614.122-1.1.164-2.206.249-3.316a61.615,61.615,0,0,0,.26-6.663Z" transform="translate(-227.214 -223.173)"/><path class="d" d="M255.145,231.271c-2.711,2.39-4.442,2.629-5.562,2.294-1.274-.38-2.421-1.7-3.267-1.252a1.27,1.27,0,0,0-.557.834,4.144,4.144,0,0,1,.487,2.086c-.036.917-.409,2.2-.9,2.225-.835.051-1.384-3.192-2.085-3.129-.6.054-.521,2.46-1.294,5.426-.618,2.37-1.57,6.026-4.532,7.8-.408.244-3.29,1.907-5.924.543a5.353,5.353,0,0,1-2.85-4.241,5.492,5.492,0,0,1,1.27-3.9,6.35,6.35,0,0,1-3.217-3.327c-.087-.216-1.153-2.975.209-5.006.991-1.478,2.318-1.2,2.711-2.434.417-1.306-.979-1.917-1.043-3.894-.083-2.6,2.238-4.423,2.364-4.519a6.113,6.113,0,0,1,2.99-1.181,7.372,7.372,0,0,1,5.006,1.251,5.9,5.9,0,0,1,2.155-2.989,6.251,6.251,0,0,1,4.658-.9,5.471,5.471,0,0,1,3.476,1.6,4.8,4.8,0,0,1,1.043,1.878,6.644,6.644,0,0,1,3.406-2.017,5.768,5.768,0,0,1,4.1.417,6.174,6.174,0,0,1,2.85,4.588c.221,2.053-.847,2.331-.765,4.52.111,2.916,2.068,4.02,1.391,5.283-.548,1.022-2.4,1.374-3.824.834A3.931,3.931,0,0,1,255.145,231.271Z" transform="translate(-226.23 -216.84)"/><path class="a" d="M246.662,238.472c-.031-.095-.079-.232-.144-.393a4,4,0,0,0-.286-.622,2.887,2.887,0,0,0-1.693-1.364,1.672,1.672,0,0,0-1.736.768c-.564.962-.073,2.47.383,3.374.43.854,1.226,2.052,2.249,2.276a1.443,1.443,0,0,0,1.335-.423,1.144,1.144,0,0,0,.124-.866Q246.779,239.847,246.662,238.472Z" transform="translate(-228.395 -219.389)"/><path class="e" d="M245.215,239.833c-.062-.706-.886-.3-.978-.912s.686-.494.646-1.022-1.535-.424-1.272,1.338S245.268,240.434,245.215,239.833Z" transform="translate(-228.532 -219.596)"/></g><g transform="translate(182.957)"><path class="ar" d="M432.649,425.854c0,1.293,2.443,9.052,2.443,9.052h11.925s1.006-2.586.719-3.592-4.129-3.88-4.363-4.455-3.155-8.047-3.155-8.047S432.649,424.561,432.649,425.854Z" transform="translate(-364.939 -233.904)"/><path class="ar" d="M364.174,418.731a60.764,60.764,0,0,1-2.694,7.22c-.862,1.4-5.819,4.957-6.035,5.388s-.861,4.418-.861,4.418h16.488s.754-6.035.754-7.328-.539-4.849-.539-4.849l-.431-4.2Z" transform="translate(-354.584 -233.893)"/><g transform="translate(8.082 92.377)"><path class="c" d="M378.27,314s-4.31,13.794-4.6,17.529-4.267,28.177-4.756,30.423c-2.411,11.072-5.014,35.44-5.014,35.44l1.724,2.242-1.724,3.351v4.3a23.412,23.412,0,0,1,4.095-.755c1.293,0,4.849,1.508,4.849,1.508s3.843-10.56,3.843-12.141,1.724-2.3,1.58-3.448-.558-4.167.009-5.46a124.32,124.32,0,0,0,3.3-15.8c.216-3.018,3.665-12.5,3.665-12.5s4.095-12.069,4.741-13.794,1.671-10.776,5.685-10.776,10.479,12.931,11.558,17.672,7.975,28.018,9.052,29.743,5.173,7.543,5.173,7.543l-1.6,6.27,1.091,8.586s.7,4.448.812,5.417,3.692,0,3.692,0,6.669-1.415,7.746-1.954,1.186-2.91.97-3.664a15.908,15.908,0,0,1-.862-3.018c0-.755-4.639-31.375-5.07-33.745s-4.02-10.684-4.811-14.141a96.436,96.436,0,0,1-1.541-14.184c0-2.586-.431-5.388-.431-6.466s-6.035-20.044-6.035-20.044Z" transform="translate(-363.902 -312.131)"/><g class="as"><path class="ar" d="M392.229,334.867c2.326,1.485,5.335,2.052,8.385,2.589C396.332,343.973,394.959,338.1,392.229,334.867Z" transform="translate(-367.659 -315.147)"/><path class="ar" d="M381.411,406.555l-5.747,1.15,3.592,3.592Z" transform="translate(-365.462 -324.655)"/><path class="ar" d="M425.4,396.988l6.681,4.634-5.6-1.293Z" transform="translate(-372.059 -323.387)"/></g></g><g transform="translate(12.091 29.016)"><path class="d" d="M382.907,241.52c-1.255.7-1.487.609-5.568,2.083a37.5,37.5,0,0,0-4.2,1.617c-2.3,2.05-.861,5.441-2.011,10.812-.6,2.8-2.793,5.443-2.586,6.61s3.791,1.036,6.609,1.005c3.131-.033,3.627-.76,4.455-.287,3.312,1.893-3.079,14.432-2.586,27.443.047,1.234.257,5.163,0,10.561-.117,2.462-.3,4.483-.431,5.819a109.769,109.769,0,0,0,20.259,3.449c8.472.626,12.321-.108,15.734-1.94a20.263,20.263,0,0,0,5.819-4.741,13.628,13.628,0,0,1-1.293-5.389c-.041-1.791.335-2.464.215-4.741a24.623,24.623,0,0,0-.646-4.095c-.7-3.249-1.134-4.413-1.509-6.035-.452-1.959-2.105-9.127,1.509-14.225a10.863,10.863,0,0,1,1.077-1.293c.623.383,1.149,1.545,1.868,1.15s1.7-7.868,2.658-10.13A16.048,16.048,0,0,0,424,253.3a8.064,8.064,0,0,0-3.449-7.9c-.566-.442-1.716-1.322-6.465-3.449-1.621-.726-2.432-1.089-3.233-1.365a26.055,26.055,0,0,0-5.388-1.221c-7.645-.955-9.418,1.134-14.907,0a7.863,7.863,0,0,0-3.843-.071C385.14,239.706,384.947,240.387,382.907,241.52Z" transform="translate(-368.524 -239.08)"/><g class="at"><path class="ar" d="M382.3,254.98s.539,5.861.539,9.86c0,1.58-1.487.086-1.618.778-.469,2.453-1.028,3.97-2.082,5.024C382.561,272.724,387.557,264.756,382.3,254.98Z" transform="translate(-369.933 -241.189)"/><path class="ar" d="M415.6,264.085s3.612-8.327,4.043-9.62-7.041,8.478-7.041,8.478Z" transform="translate(-374.371 -241.105)"/></g></g><g transform="translate(37.968 18.093)"><path class="e" d="M400.226,226.775l-1.868,12.069h10.776q-.861-6.179-1.724-12.357Z" transform="translate(-398.358 -226.487)"/><g class="au"><path class="av" d="M396.329,231.457l14.978,1.114s-1.76,5.5-7.489,5.5-7.49-6.037-7.49-6.037" transform="translate(-398.089 -227.146)"/></g></g><path class="e" d="M389.5,239.1a12.478,12.478,0,0,0,24.139,1.292A36.333,36.333,0,0,0,389.5,239.1Z" transform="translate(-359.215 -209.871)"/><path class="ar" d="M396.122,220.631q-.271-4.742-.539-9.484a9.714,9.714,0,0,1,17.673.324q-.323,4.9-.647,9.806Z" transform="translate(-360.022 -205.627)"/><path class="av" d="M394.407,237.92l-.149,4.131,3.556,2.856,1.344,3.578,3.039,10.059-2.505-14.83-3.479-2.765-1.426-4.841Z" transform="translate(-359.846 -209.67)"/><g transform="translate(13.096 52.298)"><path class="e" d="M369.787,266.239c-.432,2.953.6,10.464.773,15.912a5.7,5.7,0,0,0,4.741,6.179c3.462.925,13.68,1.847,27.443,2.3l9.627-4.6c3.071-3.236,4.621-6.787,3.5-8.534-1.441-2.245-7.113-1.232-10.684.919a13.955,13.955,0,0,0-5.317,6.035c-3.227-.66-6.693-1.5-10.345-2.586-3.2-.948-6.169-1.971-8.908-3.018a33.6,33.6,0,0,0,.413-6.456,24.654,24.654,0,0,0-.632-5.49C376.84,265.9,371.889,265.645,369.787,266.239Z" transform="translate(-369.683 -265.922)"/><g class="aw"><rect class="av" width="14.117" height="4.957" transform="translate(-1.458 -2.378)"/><path class="av" d="M406.157,281.247s3.469,3.686,7.3,3.253,9.324-6.288,9.324-6.288l-5.855-1.084Z" transform="translate(-374.521 -267.408)"/></g></g><path class="e" d="M411.28,213.6q.143,3.035.285,6.072a1.742,1.742,0,0,1,1.367.178c.756.53.618,1.723.539,2.407a2.165,2.165,0,0,1-.611,1.545,1.815,1.815,0,0,1-1.186.4,12.053,12.053,0,0,1-2.335,5.675c-.978,1.277-2.9,3.79-5.5,3.664-2.363-.115-3.928-2.358-5.065-3.987a13.6,13.6,0,0,1-2.264-5.711,1.238,1.238,0,0,1-.97-.216c-.187-.167-.295-.427-.215-1.832.1-1.806.32-2.083.458-2.222a1.807,1.807,0,0,1,1.159-.472l1.077-6.574a9.62,9.62,0,0,1,5.738-2.223A10.014,10.014,0,0,1,411.28,213.6Z" transform="translate(-359.985 -206.246)"/><path class="av" d="M401,243.323c.349,2.457.731,2.93,1.065,5.119,1.866-.919,4.038-.4,6.15-1.579-1.26-2.854-1.494-3.271-1.851-4.347.214-1.882.472-3.392.67-4.438s.337-1.608.5-2.658a34.666,34.666,0,0,0,.377-3.556l-1.293.269-1.455,2.209c-.692-.827-1.48-1.7-2.371-2.586-.864-.86-1.71-1.625-2.514-2.3l-1.521,1.52c.18,1.545,2.691,3.56,2.871,5.1C403.215,237.638,399.423,241.766,401,243.323Z" transform="translate(-360.444 -208.788)"/><path class="e" d="M414.912,262.062c1.415.915,2.51,1.112,4.6,2.443a21.815,21.815,0,0,1,2.514,1.867c-.889,5.013-4.031,8.992-8.194,10.169a10.455,10.455,0,0,1-5.8-.11,6.15,6.15,0,0,1-1.534-.854,7.888,7.888,0,0,1-2.65-4.607c-.72-2.984-2.453-12.561-4.311-25.647l-4.742-4.67-.539-4.633,4.562-4.562c.8.674,1.651,1.438,2.514,2.3.891.889,1.678,1.76,2.371,2.586l1.455-2.209,1.293-.269a34.636,34.636,0,0,1-.377,3.556c-.166,1.05-.3,1.613-.5,2.658s-.456,2.556-.67,4.438c.655,1.975,2.992,8.77,6.418,13.666A12.685,12.685,0,0,0,414.912,262.062Z" transform="translate(-359.846 -209.053)"/></g><g transform="translate(265.88 51.758)"><g transform="translate(18.967 78.348)"><path class="ax" d="M485.461,381.949c.145.025.291.039.438.055l-.475.186-.029-.235A.211.211,0,0,1,485.461,381.949Z" transform="translate(-473.824 -359.121)"/><path class="ax" d="M477.9,435.226a.725.725,0,0,1,.16-.21,5.019,5.019,0,0,1,.539-.408,34.449,34.449,0,0,0,3.142-2.941c.113-.114.337-.207.528-.39a1.236,1.236,0,0,0,.3-.575,5.9,5.9,0,0,0,.121-.589,11.95,11.95,0,0,0-.082-3.334c-.213-1.889-.845-7.021-.9-7.7-.012-.131-.007-.345-.006-.566a2.971,2.971,0,0,0-.056-.667l-.042-.127a5.477,5.477,0,0,0,.909.028,19.023,19.023,0,0,0,4.856-.8,12.558,12.558,0,0,0,2.086-.732c.2-.1.516-.228.573-.474a1.574,1.574,0,0,0-.239-.893,4.388,4.388,0,0,0,.4.241c.342.177.7.322.941.45a4.934,4.934,0,0,1,1.028.682,4.024,4.024,0,0,1,.945,1.4,6.778,6.778,0,0,1,.375,1.116c.469,1.906.123,3.888.341,5.993.176,1.674.442,3.343.748,4.994.08.431.259,1.323.259,1.323.041.166.165.539.239.842.02.079.035.152.044.209v.011c-.02.007-.03.012-.054.019-.111.036-.26.078-.4.112-.087.022-.171.04-.239.052l-.017,0-.012-.042c-.025-.1-.049-.24-.068-.361s-.032-.218-.049-.291c-.47-1.91-1.434-5.729-1.434-5.729-.034-.133-.08-.559-.174-.945a2.517,2.517,0,0,0-.156-.467.8.8,0,0,0-.311-.368.487.487,0,0,0-.357-.047,2.272,2.272,0,0,0-.968.667,8.068,8.068,0,0,0-.707.854,5.358,5.358,0,0,0-.766,1.612,31.366,31.366,0,0,0-.69,4.584,2.88,2.88,0,0,1-.53,1.549,4.279,4.279,0,0,1-1.958.926c-.514.15-1.034.286-1.557.414-1.178.287-2.373.53-3.561.8l-.036.009c-.239.059-.6.175-1.017.276a5.724,5.724,0,0,1-1.061.17,1.531,1.531,0,0,1-.826-.146.611.611,0,0,1-.272-.329l-.011-.034A.243.243,0,0,1,477.9,435.226Z" transform="translate(-472.827 -363.484)"/><path class="ax" d="M479.555,406.786c-.315-3.394-.476-6.7-1.573-9.956-1.236-3.672-2.428-7.321-3.409-11.074-.491-1.878-.957-3.763-1.417-5.648a38.634,38.634,0,0,1-1.05-5,5.91,5.91,0,0,1,1.067-4.441c1.549-1.938,4.245-2.586,6.5-3.171.845-.219,1.695-.415,2.543-.62l.03.249.03-.007a.238.238,0,0,0,.169-.158.255.255,0,0,0-.029-.211c.052-.014.1-.016.155-.033,9.136-2.969,18.221-6.093,27.3-9.224a2.367,2.367,0,0,0,1.651-1.864,54.39,54.39,0,0,1,11.436,5.566c.007.269.009.538,0,.807,0,.2-.045.457-.078.717a3.137,3.137,0,0,0-.019.55l.173-.068c.6,1.815,1.129,4.533.01,6.237-1.227,1.867-3.856,2.545-5.823,3.161-3.549,1.109-7.2,1.9-10.831,2.692-3.8.827-7.617,1.61-11.442,2.323-1.766.33-3.542.612-5.326.829a30.737,30.737,0,0,1-5.134.349c-2.331-.114.224-1.326,2.054,9.642a110.777,110.777,0,0,1,.908,11.1,26.99,26.99,0,0,0,.624,4.9,17.536,17.536,0,0,0,.681,2.047c.049.127.148.308.245.506a1.573,1.573,0,0,1,.239.893c-.057.245-.377.377-.573.474a12.553,12.553,0,0,1-2.086.732,19.026,19.026,0,0,1-4.856.8,5.486,5.486,0,0,1-.909-.028,1.149,1.149,0,0,1-.729-.343C479.564,408.887,479.624,407.534,479.555,406.786Z" transform="translate(-472.055 -355.63)"/></g><rect class="ay" width="38.427" height="7.339" rx="2.029" transform="translate(69.967 102.377) rotate(180)"/><path class="ay" d="M540.47,342.008c0-6.245-.161-12.41.077-18.627a67.043,67.043,0,0,0-.474-12.339c-.265-1.795-1.467-9.991-5.026-8.446-.687.3-.994,1.272-1.11,1.729q.237,18.842.473,37.683a2.746,2.746,0,0,0,2.449,2.967h1.161A2.746,2.746,0,0,0,540.47,342.008Z" transform="translate(-461.296 -270.221)"/><path class="az" d="M535.309,323.69v39.432A11.976,11.976,0,0,1,523.333,375.1h-29.5" transform="translate(-455.977 -273.045)"/><rect class="ba" width="2.989" height="42.826" transform="translate(54.665 145.203) rotate(180)"/><rect class="ba" width="7.771" height="14.645" transform="translate(57.056 136.592) rotate(180)"/><path class="ba" d="M481.326,432.828a47.19,47.19,0,0,1,52.324,0V430.4a48.7,48.7,0,0,0-52.324,0Z" transform="translate(-454.318 -286.188)"/><path class="ba" d="M537.794,433.853a3.346,3.346,0,1,1,3.346,3.345A3.346,3.346,0,0,1,537.794,433.853Z" transform="translate(-461.808 -287.213)"/><path class="ba" d="M477.468,433.853a3.346,3.346,0,1,1,3.346,3.345A3.346,3.346,0,0,1,477.468,433.853Z" transform="translate(-453.806 -287.213)"/><path class="ba" d="M507.846,433.882a3.16,3.16,0,1,1,3.16,3.16A3.16,3.16,0,0,1,507.846,433.882Z" transform="translate(-457.835 -287.242)"/><path class="ax" d="M498.388,438.65Z" transform="translate(-456.581 -288.294)"/><g transform="translate(0.297 77.015)"><path class="a" d="M450.6,433.19a.854.854,0,0,1,.245-.192,6.164,6.164,0,0,1,.741-.311,41.463,41.463,0,0,0,4.478-2.446c.163-.1.449-.141.723-.294a1.436,1.436,0,0,0,.511-.564,6.652,6.652,0,0,0,.307-.629,13.445,13.445,0,0,0,.847-3.77c.287-2.181,1-8.122,1.127-8.906.023-.151.09-.389.154-.638a3.409,3.409,0,0,0,.124-.765l-.013-.154a6.692,6.692,0,0,0,1.046.279,23.441,23.441,0,0,0,5.862.428,15.408,15.408,0,0,0,2.628-.252c.255-.055.664-.115.8-.375a1.773,1.773,0,0,0-.025-1.069,4.933,4.933,0,0,0,.4.382c.346.292.719.553.964.764a5.772,5.772,0,0,1,1,1.047,4.556,4.556,0,0,1,.7,1.829,7.671,7.671,0,0,1,.12,1.357c0,2.27-.957,4.4-1.3,6.828-.269,1.929-.431,3.878-.544,5.817-.03.507-.073,1.559-.073,1.559,0,.2.04.65.039,1.011,0,.094,0,.18-.009.247l0,.013-.068.007c-.139.01-.324.016-.5.016-.108,0-.21,0-.291-.007l-.021,0,0-.049c0-.124.011-.285.023-.424s.024-.254.025-.34c-.005-2.275-.044-6.831-.044-6.831,0-.159.065-.65.066-1.109a2.757,2.757,0,0,0-.049-.566.908.908,0,0,0-.258-.5.6.6,0,0,0-.4-.15,2.77,2.77,0,0,0-1.312.485,9.724,9.724,0,0,0-1.062.767,6.229,6.229,0,0,0-1.345,1.6,35.729,35.729,0,0,0-2.1,4.962,3.316,3.316,0,0,1-1.053,1.6,5.261,5.261,0,0,1-2.534.506c-.638.029-1.28.039-1.923.039-1.448,0-2.9-.054-4.359-.072h-.045c-.294,0-.751.031-1.258.031a7.016,7.016,0,0,1-1.279-.1,1.862,1.862,0,0,1-.917-.389.7.7,0,0,1-.225-.444l0-.042A.277.277,0,0,1,450.6,433.19Z" transform="translate(-450.53 -361.977)"/><g transform="translate(8.374)"><path class="f" d="M460.515,402.834c.594-3.9,1.34-7.656.988-11.62-.4-4.465-.748-8.893-.826-13.378-.039-2.245-.047-4.49-.048-6.736a43.176,43.176,0,0,1,.194-5.907,6.777,6.777,0,0,1,2.494-4.7c2.345-1.754,5.658-1.744,8.446-1.783,1.042-.014,2.084,0,3.127,0l-.036.288h.037a.28.28,0,0,0,.267-.376c.064,0,.123.01.189.005,11.443-.836,22.87-1.86,34.3-2.893a2.824,2.824,0,0,0,2.444-1.643,64.539,64.539,0,0,1,11.7,9.386c-.068.3-.141.607-.224.907-.062.228-.182.5-.293.785a3.6,3.6,0,0,0-.178.613l.22-.03c.189,2.207.029,5.4-1.751,7.013-1.953,1.763-5.2,1.806-7.652,1.958-4.433.276-8.895.167-13.331.062-4.647-.11-9.3-.276-13.937-.521-2.142-.114-4.284-.282-6.416-.527a37.779,37.779,0,0,1-6.056-1.013c-.326-.094-.957-.337-.957-.337a48.573,48.573,0,0,1,.615,11.735,124.528,124.528,0,0,1-2.083,12.725,30.149,30.149,0,0,0-.661,5.677,19.408,19.408,0,0,0,.211,2.487c.022.156.086.388.142.636a1.773,1.773,0,0,1,.025,1.069c-.135.26-.544.321-.8.376a15.417,15.417,0,0,1-2.628.252,23.442,23.442,0,0,1-5.862-.428,6.683,6.683,0,0,1-1.046-.279,1.365,1.365,0,0,1-.749-.586C459.932,405.2,460.384,403.694,460.515,402.834Z" transform="translate(-460.185 -354.093)"/><g class="bb"><path class="d" d="M469.85,371.2l7.093,5.165v3.856S470.4,375.128,469.85,371.2Z" transform="translate(-461.467 -356.362)"/></g></g></g><g transform="translate(44.713 4.346)"><path class="a" d="M517.72,299.786a84.167,84.167,0,0,0-8.836,5.467l0-.014a.287.287,0,0,0-.208-.369.372.372,0,0,1-.035-.162,2.928,2.928,0,0,1,.082-.53c.276-1.337.631-2.7.962-4.039a4.882,4.882,0,0,1,.715-1.758,3.6,3.6,0,0,1,.5-.541c.1-.091.221-.161.347-.271a.7.7,0,0,0,.257-.537l-.006-.1h0a2.691,2.691,0,0,0-.692-1.364,2.024,2.024,0,0,0-1.47-.729c-.368.027-.348.194-.984.4a2.1,2.1,0,0,1-1.481.095,1.639,1.639,0,0,1-.677-.611,2.743,2.743,0,0,1-.242-.372,3.476,3.476,0,0,1-.354-1.1,28.552,28.552,0,0,0-2.114-5.047,1.3,1.3,0,0,0-.793-.467,2.573,2.573,0,0,1-.675-.167.414.414,0,0,1-.216-.189.664.664,0,0,1-.069-.318,1.5,1.5,0,0,1,.143-.6c.238-.539.8-.987,1.105-1.715a5.766,5.766,0,0,0,.206-1.926c.074-1.154.384-2.351.513-3.574a25.136,25.136,0,0,1,.675-3.97c.134-.491.311-.974.5-1.464l.017-.136a5.753,5.753,0,0,1-.049-.691c0-.393-.01-.712.218-.872,4.261-3.007,25.9-4.922,17.079,16.97a5.381,5.381,0,0,0-.21,1.021,1.459,1.459,0,0,1-.285.736l-.058.052a.285.285,0,0,0-.376.272,10.754,10.754,0,0,0,.076,1.251c.008.056.01.2.022.342a.958.958,0,0,0,.128.467.619.619,0,0,0,.169.18.446.446,0,0,0,.248.072c.085,0,.124-.01.192-.01h.028a.759.759,0,0,1,.592.232,2.888,2.888,0,0,1,.587,1.232,6.249,6.249,0,0,1,.19,1.5c0,.085,0,.167-.007.242,0,.118-.048.265-.068.456-.007.072-.011.135-.012.2a1,1,0,0,0,.01.1,11.4,11.4,0,0,0-2.571,1.019A27.99,27.99,0,0,0,517.72,299.786Z" transform="translate(-501.738 -270.311)"/><g class="bc"><path class="e" d="M510.192,297.79s3.771-2.147,5.108-4.3l1.336-2.158L512,299.362Z" transform="translate(-502.859 -273.098)"/></g></g><path class="a" d="M521.41,319.965a1.159,1.159,0,0,1,.184.278,1.3,1.3,0,0,1-.215-.242Z" transform="translate(-459.63 -272.551)"/><g transform="translate(47.597 31.263)"><path class="g" d="M529.739,356.482a10.5,10.5,0,0,0,.266-1.838l0-.178c.006-1.286-.623-2.411-.919-3.808-.548-2.657,1.232,3.5-.123-19.042v-.022c.009-4.268,3.887-7.411-.277-19.471a54.334,54.334,0,0,0-2.859-6.825c-.545-1.076-1.135-2.132-1.761-3.165-.083-.139-.009-.54-.059-.646-.036-.075-.189.149-.2.061-.893.222-2.311-.5-3.136-.061a32.322,32.322,0,0,0-3.374,1.132c-3.073,1.48-5.093,4.884-7.975,6.75-1.233,3.762-5.58,6.7-3.868,15.462a83.45,83.45,0,0,1,1.54,9.031c.069.816.131,1.651.131,2.49,0,.426-.016.852-.056,1.277a23.566,23.566,0,0,1-.571,2.557c-.13.638-.223,1.288-.3,1.943-.029.226-.318,2.868-.343,3.1,1.376.248,3.005-1.876,4.347-1.526C517.67,345.65,524.194,351.072,529.739,356.482Zm-10.524-38.951.031-.036a1.159,1.159,0,0,1,.184.278A1.3,1.3,0,0,1,519.215,317.531Z" transform="translate(-505.064 -301.344)"/><g class="bd"><path class="am" d="M516.8,320.123s-4.315,11.937-4.958,18-.368,7.438-.368,7.438l6.795-3.122Z" transform="translate(-505.906 -303.835)"/></g></g><path class="be" d="M475.166,438.08Z" transform="translate(-453.501 -288.218)"/><path class="be" d="M513,301.005Z" transform="translate(-458.519 -270.036)"/><g transform="translate(49.95 31.406)"><path class="g" d="M524.37,301.509a43.918,43.918,0,0,1,4.515,9.329,33.486,33.486,0,0,1,2.41,10.315,19.239,19.239,0,0,1-.37,4.375c-.319,1.61-.953,3.152-1.218,4.769a20.291,20.291,0,0,0,.029,4.224c.085,1.749.3,3.484.448,5.23a51.16,51.16,0,0,1,.17,5.333,15.277,15.277,0,0,1-.481,4.057c-.543,1.811.761,3.35.786,5.17a11.97,11.97,0,0,1-.662,3.711c-1.241,3.9-4.236-1.979-13.728-1.988-6.72-.008-5.2-5.143-8.493-4.959l9.641-8.631Z" transform="translate(-507.776 -301.509)"/><g class="bf"><path class="am" d="M526.746,322.452s-.551,24.884-1.1,26.721-17.455,4.793-17.455,4.793l14.516-10.4Z" transform="translate(-507.831 -304.287)"/></g></g><path class="ar" d="M469.45,414.862a15.876,15.876,0,0,1-.676,2.111,37.482,37.482,0,0,1-3.284,5.4c-1.234,1.884-2.372,3.835-3.626,5.7a3.632,3.632,0,0,1-2.544,1.862,5.424,5.424,0,0,1-1.641-.032c-.333-.057-.672-.277-1-.3a1.512,1.512,0,0,0-.781.276c-.892.486-1.711,1.1-2.6,1.592-.775.432-1.609.7-2.407,1.077-.249.119-.6.268-.688.56-.127.431.323.879.657,1.063,1.01.555,2.528.325,3.629.338a52.729,52.729,0,0,0,7.092-.056,2.969,2.969,0,0,0,2.056-.885c.948-1.154,1.27-2.887,1.813-4.236a9.341,9.341,0,0,1,1.885-3.2,6.322,6.322,0,0,1,2.291-1.418c.3-.108.437-.2.578.11a5.427,5.427,0,0,1,.039,1.9c.016,1.1.043,6.609.044,7,0,.159-.078.564,0,.7.1.182-.033.073.266.128a2.875,2.875,0,0,0,1,0c.193-.136.095-1.252.1-1.56q.057-1.638.194-3.272a35.777,35.777,0,0,1,.845-6.286,15.1,15.1,0,0,0,.88-4.855,6.338,6.338,0,0,0-.65-2.751,12.673,12.673,0,0,0-2.965-2.98Z" transform="translate(-450.188 -284.872)"/><path class="am" d="M521.59,296.924a36.044,36.044,0,0,0-6.538,2.245,10.272,10.272,0,0,0-3.758,2.4c-.94,1.14-1.03,2.829-1.361,4.2-.089.368-1.087,2.734-.233,2.893.75.14,1.832-1.136,2.249-1.528a25.287,25.287,0,0,1,5.542-4.227,12.416,12.416,0,0,1,4.928-1.573c.682-.039,1.92.21,2.237-.633a4.8,4.8,0,0,0-.369-2.955,1.328,1.328,0,0,0-1.57-1.035A10.562,10.562,0,0,0,521.59,296.924Z" transform="translate(-458.036 -269.464)"/><path class="ar" d="M517.662,284.855a25.435,25.435,0,0,1,.79,3.892c.629,5.141-.8,6.6.367,8.677,1.56,2.77,4.9,1.585,6.427,4.5,1.12,2.131-.361,3.341.735,5.784,1.062,2.367,3.921,4.512,6.451,4.064,3.367-.6,5.611-5.7,4.66-9.205-1.045-3.857-5.438-3.9-6.428-8.264-.571-2.522.8-2.926.092-5.784-.821-3.316-2.869-3.6-3.572-6.869-.513-2.383.507-2.551.266-5.62-.114-1.45-.456-5.811-3.747-8.074a8.289,8.289,0,0,0-5.475-1.3,9.506,9.506,0,0,0-7.9-.821,9.123,9.123,0,0,0-5.09,5.2c-.452,1.063-1.1,3.173-.489,3.58.154.1.269.018.54.055.989.135,1.4,1.542,2.077,2.564a7.187,7.187,0,0,0,2.737,2.2c2.28,1.094,4.81.249,5.846-.171Z" transform="translate(-457.391 -265.3)"/><path class="a" d="M516.081,286.943a1.386,1.386,0,0,0,1.7,1.109c.937-.214,1.542-1.252,1.935-2.043a6.16,6.16,0,0,0,.768-3.393,1.789,1.789,0,0,0-3-1.288Z" transform="translate(-458.928 -267.361)"/><path class="e" d="M518.118,282.834c-.2.751.8.639.67,1.3s-.892.254-1.046.814,1.427,1.007,1.809-.909S518.285,282.2,518.118,282.834Z" transform="translate(-459.147 -267.573)"/><path class="g" d="M513.619,318.822c-.224.9-.51,2.156-.769,3.671a59.073,59.073,0,0,0-.735,8.447c-.076,2.606-.075,5.968.184,9.917-2.612,1.563-4.9,2.742-6.645,3.585a59.887,59.887,0,0,1-6.433,2.74,43.962,43.962,0,0,1-6.488,1.659c-.738.147-.771.606-.632,1.28.322,1.558,1.154,2.98,1.259,4.587.047.707-.029,1.443.847,1.514,1.508.121,3.216-.71,4.614-1.161q3.628-1.168,7.227-2.432c2.265-.8,4.512-1.651,6.747-2.53s4.523-1.678,6.675-2.725c2.365-1.151,2.962-3.528,3.4-5.967.348-1.929.523-3.88.7-5.829q.476-5.121.951-10.242c.18-1.932.4-3.867.418-5.808a30.64,30.64,0,0,0-.858-7.155Z" transform="translate(-455.738 -271.544)"/><path class="a" d="M490.05,354.809c-6.915-.37-2.69-3.867-10.893,1.05-.318.191-3.969,3.233-.785,2.652,5.372-.978,6.438.6,9.736,1.2a9.259,9.259,0,0,0,3.217-.075Z" transform="translate(-453.754 -276.967)"/></g><g transform="translate(363.651 8.75)"><g transform="translate(2.558 175.842)"><g transform="translate(7.712)"><path class="a" d="M594.482,419.506s.4,4.9.53,6.092,1.325,2.516,1.325,4.767-12.846,4.371-12.846,4.371h-8.74l2.119-5.43s6.753-2.782,7.813-3.973,1.8-6.886,1.8-6.886Z" transform="translate(-574.75 -418.447)"/><g class="bg"><path class="e" d="M584.459,421.438s6.25,1.489,7.761,1.417,6.754,0,6.754,0l-2.046-5.619-17.711-.705Z" transform="translate(-575.343 -418.193)"/></g></g><path class="ar" d="M595.368,428.4a1.728,1.728,0,0,0-2.726-.959,35.192,35.192,0,0,1-3.748,2.615c-1.39.7-7.213.266-9.5.266s-3.708.133-3.708.133-6.787,2.516-8.277,2.615a1.6,1.6,0,0,0-.993,2.815c1.093.96,28.306.86,28.306.86s2.285-1.589,1.789-3.675C596.251,431.964,595.767,430,595.368,428.4Z" transform="translate(-565.859 -419.592)"/></g><g transform="translate(8.284 82.733)"><path class="h" d="M596.694,313.23s3.575,7.946,3.178,10.991-2.913,7.946-3.178,13.64-2.781,15.362-2.781,17.083.4,10.462.4,10.462,3.774,4.9,4.37,14.236,1.223,26.618,1.223,26.618a34.062,34.062,0,0,1-5.99,1.192c-1.788,0-8.74-1.987-8.74-1.987s.6-16.884,0-19.466-2.384-8.542-2.582-10.329-2.782-3.378-2.782-5.364-1.986-16.09-2.979-16.885-4.148-17.083-3.961-18.672.625.993-.09-3.775,0-7.151,0-7.151l.222-2.291s6.61-10.23,9.126-10.423S596.694,313.23,596.694,313.23Z" transform="translate(-572.46 -311.1)"/><g class="bh"><path class="bi" d="M575.165,325.358s4.826,8.053,11.892,8.72" transform="translate(-572.819 -312.991)"/><path class="bi" d="M589.382,322.4s-1.483,25.469-1.111,31.012,5.748,24.885,6.017,26.638,3.834,30.317,3.834,30.317" transform="translate(-574.549 -312.599)"/><path class="bi" d="M600.341,318.993,595.57,320.4l-12.23,1.546-16.867,4.637" transform="translate(-571.666 -312.147)"/></g></g><path class="an" d="M589.6,248.36s-12.857,7.682-14.578,11.39-2.782,11.124-1.854,13.243.265,15.626.265,15.626l-.4,25.294s9.535-3.443,15.23-4.5,10.859-2.119,10.859-2.119-3.575-9.535-3.841-17.215,1.854-21.719.53-27.545S589.6,248.36,589.6,248.36Z" transform="translate(-564.225 -220.045)"/><path class="ar" d="M584.654,241.287c9.073-9.943-.224-20.111-4.162-24.683-2.832-3.288-16.279,3.554-16.816,4.181-.859,1-1.174,2.979,0,3.6s2.44.819,3.6,1.435c1.491,1.217,3.047,2.384,4.581,3.556-.318,1.108,1.644,2.474,2.4,4.419.74,1.9,4.124,1.027,4.124-2.115C578.388,230.751,583.66,241.713,584.654,241.287Z" transform="translate(-562.91 -215.715)"/><path class="a" d="M565.5,226.313a23.4,23.4,0,0,0-.872,4.228c-.079,1.33.47,1.333.87,2.614s-1.245,3.141-1.138,4.368a.864.864,0,0,0,.151.4c.524.814,2.055.629,2.406.58.984,2.171,1.985,4.336,2.953,6.515a2.426,2.426,0,0,0,1.022,1.2c1.5.806,3.569-.688,4.241-1.172a9.278,9.278,0,0,0,3.365-4.977,10.1,10.1,0,0,0-.345-6.294l-2.75,1.163a25.49,25.49,0,0,0-1.846-4.094,1.887,1.887,0,0,0-.713-.769c-.725-.389-1.482.074-2.005-.841-.7-1.224-1.265-3.41-2.576-3.358S566.649,226.266,565.5,226.313Z" transform="translate(-563.102 -217.062)"/><g transform="translate(8.58 12.291)"><path class="a" d="M590.892,247.4q-1.176-1.332-2.209-2.593a6.276,6.276,0,0,1-1.233-1.937,5.216,5.216,0,0,1-.311-1.611,4.192,4.192,0,0,1-.769-.863,4.546,4.546,0,0,1-.672-1.729c-.162-.746-.76-1.783-2.714-3.018.042-.306.408-3.3-1.4-4.842a4.158,4.158,0,0,0-1.622-.811c-2.913-.747-3.859,2.312-1.749,4.38a5.946,5.946,0,0,1,.723,7.635c-.794,1.251-1.236,2.2-1.592,2.6a7.132,7.132,0,0,1-.7.705,22.087,22.087,0,0,1-3.842,1.7c1.87-.767,4.156,1.157,5.091,3.2.962,2.1-.073,3.865.672,4.515C579.441,255.5,582.41,254.4,590.892,247.4Z" transform="translate(-572.802 -229.886)"/><g class="bj"><path class="e" d="M573.052,247.624l6.76-7.567-3.38,10.893-4.942-2.923Z" transform="translate(-572.628 -231.235)"/></g></g><path class="ao" d="M584.2,265.38l9.533,20.884c-2.1.3-10.452-11.865-9.533-14.247C585.011,269.925,584.2,265.38,584.2,265.38Z" transform="translate(-565.725 -222.302)"/><g transform="translate(8.692 46.791)"><path class="a" d="M597.551,269.661l5.761,18.672s1.788,2.88,1.192,4.27-5.562,7.45-5.562,7.45-12.25,12.977-13.309,13.772-1.059,4.9-1.258,5.761-3.311,3.245-4.237,3.575-4.768-4.37-4.834-4.966.53-2.318.331-2.848-2.318.464-2.649-.529a2.355,2.355,0,0,1,1.722-2.516c.794,0,5.032.265,5.694-.265s13.376-20.923,12.978-22.512-2.384-2.583-3.179-4.371-5.164-14.3-5.164-14.3Z" transform="translate(-572.931 -269.661)"/><g class="bk"><path class="e" d="M589.378,277.556s4.409-3.526,5.719-3.929,6.039,1.237,6.039,1.237l-1.4-4.361s-4.738-1.008-6.451,0a50.4,50.4,0,0,0-5.3,4.279Z" transform="translate(-574.928 -269.713)"/></g></g><path class="an" d="M590.221,247.9s6.887,5.827,8.21,10.329,1.325,12.183,1.325,12.183-2.979-2.251-4.37-1.854a29.258,29.258,0,0,0-6.357,3.278,5.985,5.985,0,0,1-1.589,1.092l-6.158-8.045s-4.3-5.6-3.641-6.787S580.686,252.142,590.221,247.9Z" transform="translate(-564.855 -219.984)"/><g class="bl" transform="translate(14.428 13.612)"><path class="b" d="M581.975,233.727c-.049-.086.246-.252.262-.543a1.3,1.3,0,0,0-.747-1.021,1.278,1.278,0,0,0-1.288.086c-.3.273-.605.458-.651.362-.033-.081.06-.266.315-.678a1.579,1.579,0,0,1,1.907-.358,1.533,1.533,0,0,1,.91,1.73.718.718,0,0,1-.47.448C582.07,233.781,581.992,233.769,581.975,233.727Z" transform="translate(-579.545 -231.409)"/></g></g><g transform="translate(0 45.065)"><g transform="translate(9.41)"><path class="ar" d="M206.843,421.28c-.087-1.185-1.021-2.071-1.644-2.977a17.342,17.342,0,0,1-2.7-5.524,22.9,22.9,0,0,1-.744-4.884c-.042-.989.1-1.972.065-2.956a2.115,2.115,0,0,0-.145-.886c-.131-.229-.531-.21-.62-.335-.068-.094-.011-.025-.011-.025.791-.883,1.528-1.806,2.3-2.7.35.156.637.314,1.009.459a6.291,6.291,0,0,0,2.577.656c1.663-.087,2.851-1.944,3.741-2.966A75.476,75.476,0,0,0,222.6,381.3c1.621-3.488,2.259-6.771,3.142-10.4.4-1.653.88-3.157,1.342-4.764a10.65,10.65,0,0,0,.463-2.525,8.7,8.7,0,0,0-.664-3.141c-11.96-8.7-23.919-14.794-38.5-18.348-6.041.331-16.248,2.181-20.556,5.165s-3.9,5.49-4.635,8.8-.047,4.934.739,7.641a10.363,10.363,0,0,0,3.281,5.079,7.13,7.13,0,0,0,4.527,1.26,41.675,41.675,0,0,0,9.043-1.051,183.88,183.88,0,0,1,19.243-2.934c1.534-.121,2.956.058,4.394-.028s2.667-.317,4.048-.442a5.521,5.521,0,0,1,3,.222,1.372,1.372,0,0,1,.729.762,1.315,1.315,0,0,1-.022.626,6.73,6.73,0,0,1-.675,1.867c-.581,1.367-1,2.608-1.679,3.978a39.913,39.913,0,0,1-4.745,7.5,54.815,54.815,0,0,1-6.169,6.819,42.383,42.383,0,0,0-6.181,6.078c-.426.58.014,1.233-.294,1.836-.006.012-.013,0-.013,0q-.824.826-1.642,1.655c-.054-.074-.076-.167-.134-.239a1.261,1.261,0,0,0-1.434-.6,13.849,13.849,0,0,0-4.162,1.742c-1.372.776-3.054,1.586-4.019,2.917a1.58,1.58,0,0,0-.245,1.7,10.036,10.036,0,0,0,2.238,2.675c2.044,2.073,4.048,4.026,6.082,6.111,3.1,3.174,6.12,6.43,9.507,9.342a19.365,19.365,0,0,0,4.259,2.887,3.275,3.275,0,0,0,2.225.409A2.442,2.442,0,0,0,206.843,421.28Z" transform="translate(-155.609 -268.797)"/><path class="e" d="M169.858,317.748a22.123,22.123,0,0,0,2.385,5.983,7.806,7.806,0,0,0,1.965,2.433,16.163,16.163,0,0,0,4.863,2.3c2.482.846,5.011,1.561,7.52,2.315,4.034,1.212,6.1,1.658,6.681,1.771a34.4,34.4,0,0,0,11.056.264,10.5,10.5,0,0,0,2.832,2.517,10.307,10.307,0,0,0,3.736,1.377,12.7,12.7,0,0,0,2.926.088,18.153,18.153,0,0,1,2.483-.124c1.265.1,2.419.705,3.664.908,1.114.182,2.4-.272,2.458-1.582.011-.24-.052-.473-.807-1.478-.592-.788-1.119-1.41-1.5-1.842-1.652-.371-2.965-.723-3.787-.952-4.532-1.263-7.131-2.083-11.64-3.063h0c-.292-.052-.736-.134-1.27-.253-5.336-1.183-7.1-3.076-13.667-6.465-4.407-2.277-6.366-2.847-8.595-5.461a16.09,16.09,0,0,1-1.676-2.37Z" transform="translate(-156.535 -265.082)"/><path class="ar" d="M168.827,287.939c-.688-.06-.507-.213-2.632-.864a10.994,10.994,0,0,1-3.218-1.241,3.247,3.247,0,0,1-.929-1.751,4.3,4.3,0,0,1-3.765-6.968,8.077,8.077,0,0,1-.582-5.668,8.188,8.188,0,0,1,4.107-4.986,6.139,6.139,0,0,1,1.922-5.287,5.834,5.834,0,0,1,6.248-.8,5.587,5.587,0,0,1,5.607-2.724,5.764,5.764,0,0,1,4.005,3.044,7.022,7.022,0,0,1,3.949,3.223c1.446,2.793.559,6.676-2.387,9.341a40.707,40.707,0,0,1-2.328,4.766,34.572,34.572,0,0,1-3.779,5.434C172.8,286.037,170.988,288.124,168.827,287.939Z" transform="translate(-154.884 -257.583)"/><path class="a" d="M234.946,421.14c-.25-1.136-.465-2.277-.661-3.424l-8.33-1.523-3.564,4.462.814,6.353,13.354-.188Z" transform="translate(-163.503 -278.622)"/><path class="ak" d="M155.414,357.472a12.388,12.388,0,0,0,.576,7.274,12.58,12.58,0,0,0,3.3,5.158,9.91,9.91,0,0,0,4.724,1.687,55.833,55.833,0,0,0,9.368.561c6.831-.053,13.6-.552,20.433-.156a35.282,35.282,0,0,0,4.854.1c1.524-.121,3.026-.431,4.546-.591a13.355,13.355,0,0,1,3.519-.041,1.251,1.251,0,0,1,1.045.572,2.043,2.043,0,0,1,.121.674c.082.814.13,1.631.2,2.445.159,1.785.339,3.567.525,5.35.359,3.443.843,6.866,1.324,10.295.468,3.338.966,6.673,1.238,10.034.236,2.914.13,6.106.958,8.94.227.775.585,1.586,1.5,1.589a14.719,14.719,0,0,0,3.2-.743c1.75-.409,3.5-.81,5.245-1.258a38.478,38.478,0,0,0,4.3-1.311,6.511,6.511,0,0,0,2.188-1.179c1.079-1.035.441-3.136.277-4.393-.9-6.863-1.784-13.72-2.926-20.546-.606-3.618-1.282-7.234-1.754-10.874-.214-1.657-.292-3.307-.407-4.973a8.586,8.586,0,0,0-.492-2.531,12.614,12.614,0,0,0-1.766-2.966l-40.378-14.5s-16.646,0-20.878,3.1A13.111,13.111,0,0,0,155.414,357.472Z" transform="translate(-154.581 -269.324)"/><path class="ar" d="M221.97,423.717a1.088,1.088,0,0,0-1.4.568,11.989,11.989,0,0,0-1.209,4.3,17.252,17.252,0,0,0-.275,5.113,1.712,1.712,0,0,0,.973,1.5,9.737,9.737,0,0,0,3.537.319q4.334.026,8.668.046c4.4.023,8.873.251,13.259-.134a17.78,17.78,0,0,0,4.973-1,3.689,3.689,0,0,0,1.86-1.349,2.869,2.869,0,0,0-.527-3.345c-.829-.8-2.136-.827-3.2-1a24.423,24.423,0,0,1-5.993-1.83,18.081,18.081,0,0,1-4.381-2.667c-.776-.656-1.464-1.413-2.251-2.057a2.457,2.457,0,0,0-.808-.515c-.849-.236-1.174,1.031-1.489,1.568a3.927,3.927,0,0,1-1.553,1.485c-2.418,1.316-4.9.854-7.37-.033C223.857,424.354,222.926,423.973,221.97,423.717Z" transform="translate(-163.051 -279.344)"/><g transform="translate(0 30.453)"><path class="i" d="M163.028,293.867a16.216,16.216,0,0,0-1.693,3.421c-.6,1.458-1.144,2.94-1.65,4.435a71.383,71.383,0,0,0-2.488,9.224c-1.306,6.714-1.569,13.561-1.99,20.372-.2,3.21-.428,6.417-.651,9.625a15.145,15.145,0,0,0,.986,7.249c.331.738.965,1.93,1.956,1.6a3.483,3.483,0,0,0,1.263-1,19.158,19.158,0,0,1,2.643-2.608c2.3-1.652,5.31-2.368,8-3.1,3.129-.848,6.324-1.3,9.466-2.061a17.978,17.978,0,0,0,1.963-.6c.549-5.193,1.081-10.387,1.769-15.553a38.476,38.476,0,0,0-1.02-15.925,29.949,29.949,0,0,0-3.387-7.518c-1.542-2.427-3.7-4.61-5.473-6.9l-8.511-1.834Z" transform="translate(-154.497 -292.694)"/><g class="bm"><path class="ao" d="M163.479,311.022c.031,3.154.1,3.156.241,6.306.157,3.39.065,6.868,1.012,10.16.878,3.05,2.92,6.614,6.49,6.638.883.006,4.26-.342,4.436-1.254.055-.284-.464-1.08-.578-1.344l-6.211-14.461a5.047,5.047,0,0,0-.264-.614Z" transform="translate(-155.688 -295.125)"/></g></g><g transform="translate(16.664 64.655)"><path class="a" d="M173.709,334.853a22.092,22.092,0,0,0,1.821,6.178,7.815,7.815,0,0,0,1.731,2.6,16.191,16.191,0,0,0,4.631,2.741c5.644,2.527,3.64,1.79,7.274,3a171.99,171.99,0,0,0,18.13,4.668c2.6,2.74,4.707,3.323,5.522,3.483a17.913,17.913,0,0,0,2.906.357,18.12,18.12,0,0,1,2.483.106c1.25.216,2.344.926,3.564,1.244,1.092.284,2.413-.05,2.594-1.349a1.883,1.883,0,0,0-.667-1.546,13.8,13.8,0,0,0-4.544-3.033c-2.953-.984-6.268-2.039-9.978-3.095a115.309,115.309,0,0,0-15.474-8.978c-1.945-.9-5.908-2.516-8.621-6.6a19.715,19.715,0,0,1-1.448-2.514Z" transform="translate(-173.709 -332.126)"/><g class="bn"><path class="e" d="M172.259,337.238s4.938-2.4,6.631-2.492,7.947-.658,7.947-.658l-3.245-4.42-11.05,3.785Z" transform="translate(-173.517 -331.8)"/></g></g><g transform="translate(9.539 10.641)"><path class="a" d="M176.741,292.526a6.355,6.355,0,0,1,1.675-2.369,8.55,8.55,0,0,1,3.341-1.441c.768-.237,1.487-.474,1.543-1.367.005-.078,1.042-5.964,1.107-6.042.3-.356.979-.3,1.375-.436,2.23-.79-.7-3.976-1.232-4.813-.467-.736-.112-1.182-.125-2a4.162,4.162,0,0,0-.448-1.392,4.994,4.994,0,0,1-.259-1.628c-.017-.377-.065-.746-.114-1.121-.639.338-.429-.08-1.122-.066-.789.016-1,.733-1.227,1.383a6.59,6.59,0,0,1-1.592,2.848,4.49,4.49,0,0,0-1.633,2.38c-.069.351.239,4.162-1.159,3.224-.695-.466-.637-2.074-.758-2.733a3.573,3.573,0,0,0-1.3-2.021c-.836-.819-1-2.379-2.556-1.962-2.059.55-1.065,3-.72,4.318a5.169,5.169,0,0,0,1.188,2.514,1.5,1.5,0,0,0,1.694.092,1.624,1.624,0,0,0-.1.171c-.389.744.064,1.458.082,2.1.029,1.065-1.149,1.91-1.7,2.3a5.145,5.145,0,0,1-3.519.87A4.684,4.684,0,0,1,165.5,287.3Z" transform="translate(-165.495 -269.852)"/><g class="bo"><path class="e" d="M183.946,290.9c.33.461-5.339.362-7.919-3.032.907,2.54,5.643,6.725,5.643,6.725Z" transform="translate(-166.892 -272.241)"/></g></g><path class="ao" d="M162.219,294.064c-.818-.232.717-2.379.912-2.648a3.468,3.468,0,0,1,2.508-1.582,7.779,7.779,0,0,1,3.961.8,34.247,34.247,0,0,1,6.077,4.066,16.336,16.336,0,0,1,4.128,4.022,4.746,4.746,0,0,1,.54,1.252,6.881,6.881,0,0,1,.166.948,4.209,4.209,0,0,1,.131,1.351c-.113.422-.325.13-.559-.125-.813-.887-1.468-1.924-2.207-2.871a17.024,17.024,0,0,0-5.006-4.263,11.041,11.041,0,0,0-4.692-1.6c-1.888-.137-3.635.547-5.49.664A1.7,1.7,0,0,1,162.219,294.064Z" transform="translate(-155.49 -261.858)"/><path class="i" d="M163.443,309.048c1.448,5.182,2.665,10.434,4.163,15.6a14.8,14.8,0,0,0,2.177,5.1,4.546,4.546,0,0,0,1.933,1.311,3.909,3.909,0,0,0,.925.362c1,.208,1.715-.338,2.821-.847,1.956-.9,2.085-.276,4.233-1.234a8.777,8.777,0,0,1,2.313-.981c.5-.084.938-.082,1.142-.395.282-.43-.1-1.134-.192-1.322a42.8,42.8,0,0,0-1.1-6.716c-1.056-5.124-1.736-10.383-3.561-15.313-.232-.628-.487-1.246-.752-1.861Z" transform="translate(-155.684 -263.575)"/><path class="e" d="M175.019,277.91c-.18-.9-.916-.365-1.109-1.148s.587-.65.459-1.326-1.573-.507-1.017,1.747S175.172,278.679,175.019,277.91Z" transform="translate(-156.981 -259.905)"/></g><g transform="translate(0 38.874)"><rect class="ay" width="38.427" height="7.339" rx="2.029" transform="translate(12.711 62.856)"/><path class="ay" d="M147.664,342.008c0-6.245.16-12.41-.078-18.627a67.125,67.125,0,0,1,.474-12.339c.265-1.795,1.467-9.991,5.026-8.446.687.3.994,1.272,1.11,1.729q-.237,18.842-.473,37.683a2.746,2.746,0,0,1-2.449,2.967h-1.161A2.746,2.746,0,0,1,147.664,342.008Z" transform="translate(-144.16 -302.403)"/><path class="az" d="M147.505,323.69v39.432A11.976,11.976,0,0,0,159.482,375.1h29.5" transform="translate(-144.16 -305.226)"/><rect class="ba" width="2.989" height="42.826" transform="translate(28.013 70.196)"/><rect class="ba" width="7.771" height="14.645" transform="translate(25.622 89.765)"/><path class="ba" d="M199.829,432.828a47.19,47.19,0,0,0-52.324,0V430.4a48.7,48.7,0,0,1,52.324,0Z" transform="translate(-144.16 -318.369)"/><path class="ba" d="M150.34,433.853a3.346,3.346,0,1,0-3.346,3.345A3.346,3.346,0,0,0,150.34,433.853Z" transform="translate(-143.648 -319.395)"/><path class="ba" d="M210.666,433.853a3.346,3.346,0,1,0-3.346,3.345A3.347,3.347,0,0,0,210.666,433.853Z" transform="translate(-151.65 -319.395)"/><path class="ba" d="M180.345,433.882a3.16,3.16,0,1,0-3.16,3.16A3.16,3.16,0,0,0,180.345,433.882Z" transform="translate(-147.677 -319.423)"/></g></g><g transform="translate(106.328 43.359)"><g transform="translate(7.02 98.029)"><rect class="ay" width="38.427" height="7.339" rx="2.029" transform="translate(48.722 7.339) rotate(180)"/><path class="bp" d="M324.626,376.482H286.2" transform="translate(-275.903 -369.676)"/><rect class="bq" width="2.989" height="48.235" transform="translate(31.003 55.574) rotate(180)"/><rect class="ba" width="7.771" height="14.645" transform="translate(33.394 46.963) rotate(180)"/><path class="ba" d="M278.187,432.828a47.19,47.19,0,0,1,52.324,0V430.4a48.7,48.7,0,0,0-52.324,0Z" transform="translate(-274.841 -375.817)"/><path class="ba" d="M334.655,433.853A3.346,3.346,0,1,1,338,437.2,3.346,3.346,0,0,1,334.655,433.853Z" transform="translate(-282.331 -376.842)"/><path class="ba" d="M274.329,433.853a3.346,3.346,0,1,1,3.346,3.345A3.346,3.346,0,0,1,274.329,433.853Z" transform="translate(-274.329 -376.842)"/><path class="ba" d="M304.707,433.882a3.16,3.16,0,1,1,3.16,3.16A3.16,3.16,0,0,1,304.707,433.882Z" transform="translate(-278.358 -376.871)"/></g><path class="ar" d="M332.522,417.015s-3.11,9.05-3.534,13.01.565,5.939,1.768,5.939,12.938-.947,12.938-.947,1.979-3.154,1.979-3.719-2.4-6.363-2.4-8.2-1.7-6.08-1.7-6.08Z" transform="translate(-274.546 -277.024)"/><path class="ar" d="M272.6,417.015v7.211s-6.364,5.94-6.364,7.919,2.609,3.547,4.447,3.264,11.15.259,12-.589,1.089-11.159,1.089-11.159l-1.414-6.646Z" transform="translate(-266.236 -277.024)"/><g transform="translate(2.667 76.359)"><path class="h" d="M287.855,343.652s-8.485,3.96-11.6,8.342-4.241,3.96-5.656,5.8a4.683,4.683,0,0,0-.707,5.515c.99,2.262,1.555,41.573,1.555,41.573v5.374a18.8,18.8,0,0,1,4.843-.849c1.556.141,5.763.849,7.318,1.131s.99-4.808.99-4.808l1.272-4.1s1.132-26.726,1.98-28.988,7.918-6.222,7.918-6.222,0-1.131,7.636,0,14.989-2.545,16.685-.565,1.98,11.878,1.98,17.252.565,9.05,0,12.16,1.131,11.313,1.414,12.444a9.068,9.068,0,0,1,.188,2.448,8.13,8.13,0,0,1,4.337-1.034c2.828,0,7.636-.283,7.636-.283s-1.98-6.5,0-10.747,2.828-20.079,2.828-24.6,1.98-13.292,0-16.686-20.928-13.15-20.928-13.15Z" transform="translate(-269.311 -343.652)"/><g class="br"><path class="ar" d="M297.775,369.9s-9.616,5.869-12.585,5.869,3.394.637,3.951,6.455C289.456,385.495,297.775,369.9,297.775,369.9Z" transform="translate(-271.313 -347.133)"/><path class="ar" d="M295.906,411.755s-9.616,2.227-12.585,2.227,3.393.241,3.951,2.449C287.587,417.672,295.906,411.755,295.906,411.755Z" transform="translate(-271.065 -352.685)"/><path class="ar" d="M326.436,368.643S332.042,372,335.012,372s-5.654,1.995-5.654,5.282S326.436,368.643,326.436,368.643Z" transform="translate(-276.888 -346.967)"/><path class="ar" d="M326.436,406.4s5.606,3.352,8.576,3.352-5.654,1.995-5.654,5.283S326.436,406.4,326.436,406.4Z" transform="translate(-276.888 -351.975)"/></g></g><g transform="translate(4.995 26.513)"><path class="c" d="M296.271,286.184c-8.415,3.406-18.637,5.835-21.127,15.615-.611,2.4-.925,4.869-1.573,7.26-.445,1.644-2.173,4.286-1.362,5.991,1.094,2.3,6.82,2.994,9,3.162l15.06,24.463,19.513-4.666L327.1,316.516l3.535-1.061s2.121.212,2.121-.919c0-2.756-1.215-5.878-1.835-8.538-.911-3.906-1.288-8.871-3.044-12.441-2.03-4.126-7.3-4.28-11.293-5.246q-4.493-1.089-9-2.127Z" transform="translate(-271.995 -286.184)"/><g class="bs"><path class="d" d="M288.414,320.267s.9.34,1.22-.848a63.063,63.063,0,0,0,1.538-11.843c-.141-2.4,1,10.322.005,14.14a14.39,14.39,0,0,1-3.258,6.08Z" transform="translate(-274.107 -288.982)"/><path class="d" d="M326.21,320.369a.994.994,0,0,1-.743-.8c-.4-2.335-1.742-10.371-1.621-12.419.141-2.4-1,10.322-.005,14.141a14.4,14.4,0,0,0,3.258,6.08l-.249-6.844Z" transform="translate(-278.817 -288.926)"/><ellipse class="bt" cx="10.456" cy="9.333" rx="10.456" ry="9.333" transform="translate(19.767 -4.879)"/></g></g><g transform="translate(27.762 23.049)"><path class="a" d="M298.339,286.007c-.213.052,0,5.366,0,5.836a4.222,4.222,0,0,0,.278,2.146,6.03,6.03,0,0,0,4.581,3.322,9.972,9.972,0,0,0,10.982-4.94V282.19Z" transform="translate(-298.244 -282.19)"/><g class="bu"><path class="e" d="M296.8,290.956c3.182,2.122,5.814,2.97,9.217,2.652s10.019-6.745,10.019-6.745l-1.313-4.673L296.8,284.7Z" transform="translate(-298.053 -282.19)"/></g></g><path class="ax" d="M293.769,261.979s-.283,12.868,0,16.686,4.525,8.2,7.212,8.625,5.8,1.839,7.353,0,5.516-4.234,6.222-7.349-.283-11.882,0-12.872-.707-8.2-2.263-9.616-6.087-1.838-8.063-1.838S295.042,256.606,293.769,261.979Z" transform="translate(-269.871 -255.616)"/><path class="a" d="M297.016,267.053s-1.414,6.222-1.272,8.2.141,5.8,1.838,5.656,3.535-4.242,6.788-4.242,4.665,3.394,6.787,3.253,2.545-2.546,2.686-6.505-3.11-10.464-5.091-10.464-1.278,1.98-3.962,1.98-2.825-1.98-4.663-1.98S297.016,267.053,297.016,267.053Z" transform="translate(-270.149 -256.589)"/><g transform="translate(32.453 54.701)"><path class="a" d="M324.226,322.1s2.069-3.147,4.613-3.358a51.236,51.236,0,0,1,7,.23l-2.7,16.915s.848,1.909.212,2.864-3.818,2.121-3.818,2.121l-17.286,10.075h-1.485l-.848-2.015-2.333-.424-1.8,2.439h-2.121v-6.151l3.287-2.015,2.439,1.591s11.454-7.094,12.939-9.061l1.484-1.968Z" transform="translate(-303.652 -318.682)"/><g class="bv"><path class="e" d="M324,325.77s3.677-4.1,7.353-4.384,9.474-.141,9.474-.141l.566-4.384-11.736-1.414-7.451,6.928Z" transform="translate(-306.113 -318.253)"/></g></g><g transform="translate(7.248 55.729)"><path class="e" d="M286.647,321.937l.424,11.348L299.8,344.951V351.1h2.121l1.8-2.439,2.333.424.848,2.015s2.652.636,2.863,1.378-1.485,6.151-2.333,6.364-6.787-.531-6.787-.531l-5.2-3.5s.212-6.363,0-7.317-14.742-6.894-16.121-8.59c-.576-.71-.861-2.067-1.591-4.666a110.624,110.624,0,0,1-3.146-14.247c1.116-.286,3.006.016,4.525-.055C282.513,319.78,284.861,321.269,286.647,321.937Z" transform="translate(-274.592 -319.867)"/><g class="bw"><path class="av" d="M274.225,319.268v3.11a60.047,60.047,0,0,1,6.646-.565c1.2.141,6.505,1.98,6.505,1.98l1.272-2.828S275.69,318.788,274.225,319.268Z" transform="translate(-274.543 -319.778)"/></g></g></g><g transform="translate(59.828 116.883)"><rect class="af" width="237.111" height="8.299" rx="3.601"/><path class="bx" d="M446.614,347.385H215.749a3.123,3.123,0,0,1-3.123-3.123v1.812a3.123,3.123,0,0,0,3.123,3.123H446.614a3.123,3.123,0,0,0,3.123-3.123v-1.812A3.123,3.123,0,0,1,446.614,347.385Z" transform="translate(-212.626 -340.899)"/><path class="h" d="M439.813,349.952l.963,1.66a5.571,5.571,0,0,0,4.819,2.776H456.49l-.447-4.436Z" transform="translate(-242.76 -341.653)"/><path class="ar" d="M458.972,354.388l7.273,72.246h3.216V349.952H458.526Z" transform="translate(-245.242 -341.653)"/><path class="h" d="M239.582,354.388h10.895a5.571,5.571,0,0,0,4.819-2.776l.963-1.66h-16.23Z" transform="translate(-216.201 -341.653)"/><path class="ar" d="M227.489,349.952v76.682H230.7l7.719-76.682Z" transform="translate(-214.597 -341.653)"/></g><g transform="translate(72.72 83.856)"><path class="h" d="M281.319,333H255.843l9.436-30.7h25.476Z" transform="translate(-231.249 -302.307)"/><path class="ar" d="M283.767,333H258.29l9.436-30.7H293.2Z" transform="translate(-231.574 -302.307)"/><rect class="h" width="46.767" height="3.247" transform="translate(0 29.779)"/><rect class="ar" width="26.899" height="3.247" transform="translate(23.384 29.779)"/><path class="ag" d="M281.163,320.109c.371-1.7-.125-3.333-1.108-3.657s-2.081.79-2.453,2.486.125,3.334,1.108,3.658S280.791,321.806,281.163,320.109Z" transform="translate(-234.119 -304.176)"/></g><g transform="translate(154.743 83.856)"><rect class="h" width="38.815" height="30.697"/><rect class="ar" width="40.808" height="30.697" transform="translate(1.242)"/><rect class="ar" width="39.387" height="2.33" transform="translate(1.395 30.697)"/><path class="ag" d="M348.968,319.534A3.069,3.069,0,1,0,345.9,322.6,3.069,3.069,0,0,0,348.968,319.534Z" transform="translate(-324.811 -304.185)"/></g><g transform="translate(230.624 83.856)"><path class="h" d="M421.423,333H446.9l-9.436-30.7H411.987Z" transform="translate(-409.864 -302.307)"/><path class="ar" d="M418.975,333h25.476l-9.436-30.7H409.539Z" transform="translate(-409.539 -302.307)"/><rect class="h" width="46.767" height="3.247" transform="translate(61.628 33.027) rotate(180)"/><rect class="ar" width="26.899" height="3.247" transform="translate(38.245 33.027) rotate(180)"/><path class="ag" d="M426.336,320.109c-.371-1.7.124-3.333,1.107-3.657s2.082.79,2.453,2.486-.124,3.334-1.108,3.658S426.707,321.806,426.336,320.109Z" transform="translate(-411.751 -304.176)"/></g></g><line class="by" x2="499.599" transform="translate(0 202.663)"/></g></g></g></g></svg>