<svg xmlns="http://www.w3.org/2000/svg" width="138.139" height="146.042" viewBox="0 0 138.139 146.042"><defs><style>.a{fill:#1e365a;}.b{fill:none;}.c{fill:#febc61;}.d{fill:#fff;}</style></defs><path class="a" d="M363.469,417.643h-.032a1.28,1.28,0,0,1-1.248-1.309,16.737,16.737,0,0,1,6.658-13,1.28,1.28,0,0,1,1.545,2.041,14.187,14.187,0,0,0-5.634,11.013A1.28,1.28,0,0,1,363.469,417.643Z" transform="translate(-275.745 -316.996)"/><path class="a" d="M282.686,464.017h-4.278a9.851,9.851,0,0,1-9.838-9.839V444.34h23.955v9.839A9.851,9.851,0,0,1,282.686,464.017ZM271.13,446.9v7.279a7.285,7.285,0,0,0,7.279,7.279h4.278a7.285,7.285,0,0,0,7.279-7.279V446.9Z" transform="translate(-212.08 -345.056)"/><path class="a" d="M247.05,283.181H223.095V280.7a21.648,21.648,0,0,0-8.239-17.181,33.374,33.374,0,1,1,53.592-26.956h0a33.176,33.176,0,0,1-12.529,26.453,22.662,22.662,0,0,0-8.869,17.7Zm-21.4-2.56h18.839a25.2,25.2,0,0,1,9.845-19.61,30.808,30.808,0,1,0-37.917.486A24.227,24.227,0,0,1,225.655,280.621Z" transform="translate(-166.605 -181.337)"/><path class="a" d="M263.164,229.662a1.28,1.28,0,0,1-.64-2.387,26.875,26.875,0,0,1,13.454-3.615H276a1.28,1.28,0,1,1,0,2.56h-.026a24.288,24.288,0,0,0-12.158,3.27,1.28,1.28,0,0,1-.653.173Z" transform="translate(-207.535 -194.983)"/><path class="a" d="M223.04,272.721h0a1.28,1.28,0,0,1-1.28-1.28,27.071,27.071,0,0,1,5.759-16.669,1.28,1.28,0,0,1,2.012,1.584,24.5,24.5,0,0,0-5.225,15.086,1.28,1.28,0,0,1-1.267,1.28Z" transform="translate(-180.246 -215.808)"/><path class="a" d="M303.28,167.9a1.28,1.28,0,0,1-1.28-1.28V158.06a1.28,1.28,0,0,1,2.56,0v8.559A1.28,1.28,0,0,1,303.28,167.9Z" transform="translate(-234.814 -149.501)"/><path class="a" d="M205.282,208.465a1.261,1.261,0,0,1-.9-.378l-6.057-6.053a1.281,1.281,0,0,1,1.811-1.811l6.053,6.073a1.28,1.28,0,0,1-.905,2.185Z" transform="translate(-164.053 -178.789)"/><path class="a" d="M164.718,306.47H156.16a1.28,1.28,0,0,1,0-2.56h8.559a1.28,1.28,0,1,1,0,2.56Z" transform="translate(-134.765 -249.557)"/><path class="a" d="M432.218,306.47H423.66a1.28,1.28,0,0,1,0-2.56h8.559a1.28,1.28,0,0,1,0,2.56Z" transform="translate(-316.678 -249.557)"/><path class="a" d="M388.414,208.451a1.28,1.28,0,0,1-.9-2.185l6.053-6.063a1.281,1.281,0,0,1,1.811,1.811l-6.044,6.06A1.28,1.28,0,0,1,388.414,208.451Z" transform="translate(-292.711 -178.776)"/><path class="a" d="M291.245,466.96h-21.4a1.28,1.28,0,0,1,0-2.56h21.4a1.28,1.28,0,0,1,0,2.56Z" transform="translate(-212.08 -358.698)"/><rect class="b" width="136.936" height="136.936"/><path class="c" d="M78.71,227.952l4.77-11.662,4.77,11.662v54.219H78.71Z" transform="translate(-53.527 -147.088)"/><path class="a" d="M178.821,410.309h-12.1V354.561l6.05-14.791,6.05,14.791Zm-9.541-2.56h6.981V355.06l-3.491-8.533-3.491,8.533Z" transform="translate(-142.816 -273.943)"/><path class="d" d="M170.72,557.24h9.541v3.052c0,3.481-2.137,6.3-4.77,6.3h0c-2.633,0-4.77-2.822-4.77-6.3Z" transform="translate(-145.537 -421.834)"/><path class="a" d="M172.77,565.155c-3.334,0-6.05-3.4-6.05-7.583V553.24h12.1v4.332C178.821,561.754,176.107,565.155,172.77,565.155ZM169.28,555.8v1.773c0,2.723,1.6,5.023,3.491,5.023s3.491-2.3,3.491-5.023V555.8Z" transform="translate(-142.816 -419.114)"/><rect class="a" width="9.541" height="2.56" transform="translate(25.183 79.584)"/><path class="d" d="M89.356,229.477H81.78l3.766-9.8Z" transform="translate(-55.614 -149.393)"/><rect class="a" width="4.406" height="2.56" transform="translate(27.877 72.469)"/><path class="c" d="M458.141,372.789V402.4a5.439,5.439,0,0,1-5.439,5.439H434.589a5.439,5.439,0,0,1-5.439-5.439V378.445l9.918-11.105h13.646A5.439,5.439,0,0,1,458.141,372.789Z" transform="translate(-321.282 -292.692)"/><path class="a" d="M449.972,406.424h-18.1a6.738,6.738,0,0,1-6.719-6.719v-24.47l10.613-11.9h14.219a6.719,6.719,0,0,1,6.719,6.719v29.608a6.738,6.738,0,0,1-6.729,6.757Zm-22.272-30.2v23.465a4.175,4.175,0,0,0,4.159,4.159h18.1a4.159,4.159,0,0,0,4.159-4.159V370.069a4.159,4.159,0,0,0-4.159-4.159H436.9Z" transform="translate(-318.562 -289.972)"/><path class="d" d="M429.12,378.445h6.613a3.292,3.292,0,0,0,3.292-3.289V367.34" transform="translate(-321.262 -292.692)"/><path class="a" d="M435.733,379.725H429.12v-2.56h6.613a2.012,2.012,0,0,0,2.013-2.009V367.34h2.56v7.816A4.575,4.575,0,0,1,435.733,379.725Z" transform="translate(-321.262 -292.692)"/><line class="c" x2="12.443" transform="translate(112.811 92.952)"/><path class="a" d="M454.323,423.11H441.88a1.28,1.28,0,1,1,0-2.56h12.443a1.28,1.28,0,1,1,0,2.56Z" transform="translate(-329.068 -328.878)"/><line class="c" x2="3.891" transform="translate(129.18 92.952)"/><path class="a" d="M496.93,423.11H493.04a1.28,1.28,0,1,1,0-2.56h3.891a1.28,1.28,0,0,1,0,2.56Z" transform="translate(-363.86 -328.878)"/><line class="c" x2="7.714" transform="translate(112.811 99.121)"/><path class="a" d="M449.594,442.4H441.88a1.28,1.28,0,1,1,0-2.56h7.714a1.28,1.28,0,1,1,0,2.56Z" transform="translate(-329.068 -341.996)"/><line class="c" x2="7.816" transform="translate(125.254 99.121)"/><path class="a" d="M488.586,442.4H480.77a1.28,1.28,0,1,1,0-2.56h7.816a1.28,1.28,0,1,1,0,2.56Z" transform="translate(-355.516 -341.996)"/><line class="c" x1="12.545" transform="translate(120.525 106.115)"/><path class="a" d="M478.535,464.26H465.99a1.28,1.28,0,0,1,0-2.56h12.545a1.28,1.28,0,1,1,0,2.56Z" transform="translate(-345.464 -356.862)"/><line class="c" x1="3.855" transform="translate(112.811 106.115)"/><path class="a" d="M445.769,464.26H441.93a1.28,1.28,0,1,1,0-2.56h3.839a1.28,1.28,0,0,1,0,2.56Z" transform="translate(-329.102 -356.862)"/><path class="a" d="M316.436,530.179a2.385,2.385,0,1,0,2.387,2.384A2.557,2.557,0,0,0,316.436,530.179Zm7.3,4.921v-9.24a4.9,4.9,0,0,0-4.77-4.771H253.08a4.71,4.71,0,0,0-4.77,4.771V535.1a4.962,4.962,0,0,0,1.341,3.427,4.2,4.2,0,0,0,3.43,1.344H318.97a4.595,4.595,0,0,0,4.77-4.77Zm-4.918,1.638h-65.59A1.654,1.654,0,0,1,251.6,535.1v-9.24a1.654,1.654,0,0,1,1.638-1.641H258.3V527.2a1.526,1.526,0,0,0,1.488,1.491,1.654,1.654,0,0,0,1.641-1.641v-2.982h8.639v2.979a1.526,1.526,0,0,0,1.491,1.491A1.654,1.654,0,0,0,273.2,526.9v-2.982h8.639V526.9a1.532,1.532,0,0,0,1.491,1.491,1.654,1.654,0,0,0,1.641-1.641v-2.982h8.639v2.982a1.531,1.531,0,0,0,1.491,1.491,1.654,1.654,0,0,0,1.641-1.638V523.62h8.639V526.6a1.532,1.532,0,0,0,1.491,1.491,1.654,1.654,0,0,0,1.641-1.641V523.47h10.434a1.526,1.526,0,0,1,1.491,1.491V535.1a1.6,1.6,0,0,1-.445,1.043A1.558,1.558,0,0,1,318.823,536.738Z" transform="translate(-198.301 -397.249)"/><path class="c" d="M202.668,120.88l-11.816,18.432,8.715,8.072L186.811,161.21l6.418-12.795-10.7-9.464Z" transform="translate(-124.129 -82.204)"/></svg>