<svg xmlns="http://www.w3.org/2000/svg" width="32" height="32" viewBox="0 0 32 32"><defs><style>.a{fill:#fff;}</style></defs><path class="a" d="M-89.948,161.2h-21.9a5.046,5.046,0,0,0-5.048,5.04v21.92a5.046,5.046,0,0,0,5.048,5.04h21.9a5.046,5.046,0,0,0,5.048-5.04V166.24A5.077,5.077,0,0,0-89.948,161.2Zm-3.429,3.709h4a.725.725,0,0,1,.714.666v4.042a.732.732,0,0,1-.714.713h-4a.725.725,0,0,1-.714-.666v-4.042A.731.731,0,0,1-93.376,164.909Zm-12.476,9.51a5.012,5.012,0,0,1,.333-.523,5.6,5.6,0,0,1,4.571-2.33,5.6,5.6,0,0,1,4.571,2.33,3.2,3.2,0,0,1,.333.523,5.412,5.412,0,0,1,.714,2.758,5.625,5.625,0,0,1-5.619,5.611,5.625,5.625,0,0,1-5.619-5.611A5.933,5.933,0,0,1-105.852,174.418Zm17.81,12.553a3.036,3.036,0,0,1-3.048,3.043h-19.667a3.067,3.067,0,0,1-3.048-3.043V173.9h4.762a6.926,6.926,0,0,0-.333.9,7.971,7.971,0,0,0-.333,2.377,8.763,8.763,0,0,0,8.762,8.749,8.763,8.763,0,0,0,8.762-8.749,9.876,9.876,0,0,0-.333-2.377,6.926,6.926,0,0,0-.333-.9h4.762v13.076Z" transform="translate(116.9 -161.2)"/></svg>