<svg xmlns="http://www.w3.org/2000/svg" width="94.359" height="128" viewBox="0 0 94.359 128"><defs><style>.a{fill:#5382a1;}.b{fill:#fc8c48;}</style></defs><g transform="translate(-86.447 -26)"><g transform="translate(86.447 26)"><path class="a" d="M181.676,286.9a40.431,40.431,0,0,1,5.85-3.125s-9.675,1.75-19.3,2.55c-11.775.975-24.424,1.175-30.774.325-15.025-2,8.25-7.525,8.25-7.525s-9.025-.6-20.15,4.75C112.428,290.223,158.052,293.123,181.676,286.9Z" transform="translate(-112.992 -208.674)"/><path class="b" d="M212.576,96.2c-4.75-10.675-20.775-20.05,0-36.449C238.5,39.3,225.2,26,225.2,26c5.375,21.125-18.9,27.525-27.675,40.649C191.551,75.624,200.451,85.249,212.576,96.2Z" transform="translate(-165.24 -26)"/><path class="b" d="M285.505,119.975c.025,0-43.8,10.95-22.874,35.049,6.175,7.1-1.625,13.5-1.625,13.5s15.675-8.1,8.475-18.225C262.756,140.85,257.606,136.15,285.505,119.975Z" transform="translate(-209.52 -93.825)"/><path class="a" d="M352.742,299.348a3.038,3.038,0,0,1-.5.65c32.074-8.425,20.274-29.725,4.949-24.324a4.328,4.328,0,0,0-2.049,1.575,17.548,17.548,0,0,1,2.75-.75c7.749-1.625,18.874,10.375-5.15,22.85Z" transform="translate(-278.282 -205.575)"/><path class="a" d="M172.707,416.175s3.625,2.975-3.975,5.3c-14.475,4.375-60.2,5.7-72.9.175-4.575-1.975,4-4.75,6.7-5.325a18.144,18.144,0,0,1,4.425-.5c-5.075-3.575-32.824,7.025-14.1,10.051,51.049,8.3,93.1-3.725,79.849-9.7Z" transform="translate(-86.447 -306.827)"/><path class="a" d="M179.605,381.776c-19.675,5.5,11.975,16.85,37.024,6.125a46.445,46.445,0,0,1-7.049-3.45c-11.175,2.125-16.35,2.275-26.5,1.125-8.375-.95-3.475-3.8-3.475-3.8Z" transform="translate(-149.245 -282.778)"/><path class="a" d="M205.814,449.845c-19.674,3.7-43.949,3.275-58.324.9,0-.025,2.95,2.425,18.1,3.4,23.049,1.475,58.449-.825,59.274-11.725,0,0-1.6,4.125-19.05,7.425Z" transform="translate(-130.504 -326.547)"/><path class="a" d="M203.8,334.651c-14.8,2.85-23.375,2.775-34.2,1.65-8.375-.875-2.9-4.925-2.9-4.925-21.7,7.2,12.05,15.35,42.374,6.475A15.094,15.094,0,0,1,203.8,334.651Z" transform="translate(-139.394 -246.402)"/></g></g></svg>