<svg xmlns="http://www.w3.org/2000/svg" width="32" height="32" viewBox="0 0 32 32"><defs><style>.a{fill:#fff;}.b{fill:#1e365a;}</style></defs><rect class="a" width="32" height="32" rx="4"/><g transform="translate(6.135 5.333)"><path class="b" d="M48.4,37.047V45.3H43.828V37.6c0-1.934-.66-3.254-2.316-3.254a2.516,2.516,0,0,0-2.346,1.75,3.417,3.417,0,0,0-.151,1.166V45.3H34.441s.061-13.044,0-14.394h4.574v2.04c-.009.016-.022.032-.03.047h.03v-.047a4.514,4.514,0,0,1,4.122-2.378c3.009,0,5.265,2.057,5.265,6.478ZM29.656,23.969a2.488,2.488,0,1,0-.06,4.974h.03a2.489,2.489,0,1,0,.03-4.974ZM27.34,45.3h4.572V30.908H27.34Z" transform="translate(-27.068 -23.969)"/></g></svg>