<svg xmlns="http://www.w3.org/2000/svg" width="150.605" height="107.934" viewBox="0 0 150.605 107.934"><defs><style>.a{fill:#26221d;}</style></defs><g transform="translate(0 -72.533)"><g transform="translate(20.081 150.346)"><g transform="translate(0 0)"><path class="a" d="M83.328,337.067a15.061,15.061,0,1,0,15.061,15.061A15.076,15.076,0,0,0,83.328,337.067Zm0,25.1a10.04,10.04,0,1,1,10.04-10.04A10.05,10.05,0,0,1,83.328,362.168Z" transform="translate(-68.267 -337.067)"/></g></g><g transform="translate(105.424 150.346)"><g transform="translate(0 0)"><path class="a" d="M373.461,337.067a15.061,15.061,0,1,0,15.061,15.061A15.076,15.076,0,0,0,373.461,337.067Zm0,25.1a10.04,10.04,0,1,1,10.04-10.04A10.05,10.05,0,0,1,373.461,362.168Z" transform="translate(-358.4 -337.067)"/></g></g><g transform="translate(95.384 100.144)"><g transform="translate(0 0)"><path class="a" d="M379.09,202.694,356.5,167.552a2.511,2.511,0,0,0-2.111-1.152H326.777a2.509,2.509,0,0,0-2.51,2.51v62.752a2.508,2.508,0,0,0,2.51,2.51h10.04v-5.02h-7.53V171.42h23.73l21.451,33.369v24.363H361.918v5.02h15.061a2.508,2.508,0,0,0,2.51-2.51V204.051A2.5,2.5,0,0,0,379.09,202.694Z" transform="translate(-324.267 -166.4)"/></g></g><g transform="translate(105.424 110.184)"><path class="a" d="M363.421,223.124V205.553H383.5v-5.02H360.911a2.509,2.509,0,0,0-2.51,2.51v22.591a2.508,2.508,0,0,0,2.51,2.51h37.651v-5.02H363.421Z" transform="translate(-358.401 -200.533)"/></g><g transform="translate(0 82.574)"><g transform="translate(0 0)"><path class="a" d="M97.893,106.667H2.51A2.511,2.511,0,0,0,0,109.177V189.5a2.509,2.509,0,0,0,2.51,2.51H22.591v-5.02H5.02v-75.3H95.384v75.3H47.692v5.02h50.2a2.508,2.508,0,0,0,2.51-2.51V109.177A2.509,2.509,0,0,0,97.893,106.667Z" transform="translate(0 -106.667)"/></g></g><g transform="translate(2.51 152.856)"><rect class="a" width="15.061" height="5.02"/></g><g transform="translate(52.712 152.856)"><rect class="a" width="42.672" height="5.02"/></g><g transform="translate(138.055 152.856)"><rect class="a" width="10.04" height="5.02"/></g><g transform="translate(10.04 92.614)"><rect class="a" width="87.853" height="5.02"/></g><g transform="translate(32.631 162.896)"><g transform="translate(0 0)"><rect class="a" width="5.02" height="5.02"/></g></g><g transform="translate(117.974 162.896)"><g transform="translate(0 0)"><rect class="a" width="5.02" height="5.02"/></g></g><g transform="translate(10.04 72.533)"><rect class="a" width="35.141" height="5.02"/></g><g transform="translate(0 72.533)"><rect class="a" width="5.02" height="5.02"/></g></g></svg>