<svg xmlns="http://www.w3.org/2000/svg" width="160" height="90" viewBox="0 0 160 90"><defs><style>.a{fill:#ffc107;}.b{fill:#f44336;}.c{fill:#fafafa;}.d{fill:#455a64;}</style></defs><g transform="translate(0 -112)"><g transform="translate(0 122.327)"><path class="a" d="M41.307,149.163A5.165,5.165,0,0,0,36.144,144H5.163a5.163,5.163,0,1,0,0,10.327h30.98A5.165,5.165,0,0,0,41.307,149.163Z" transform="translate(0 -144)"/><path class="a" d="M57.817,208H37.163a5.163,5.163,0,1,0,0,10.327H57.817a5.163,5.163,0,1,0,0-10.327Z" transform="translate(-21.673 -187.346)"/><path class="a" d="M79.49,272H69.163a5.163,5.163,0,0,0,0,10.327H79.49a5.163,5.163,0,0,0,0-10.327Z" transform="translate(-43.346 -230.693)"/></g><path class="b" d="M381.228,204.326l-15.49-25.817a5.152,5.152,0,0,0-4.43-2.509H325.163A5.165,5.165,0,0,0,320,181.163V232.8a5.165,5.165,0,0,0,5.163,5.163H376.8a5.165,5.165,0,0,0,5.163-5.163V206.98A5.086,5.086,0,0,0,381.228,204.326Z" transform="translate(-221.961 -46.288)"/><path class="c" d="M384,208h17.731l12.392,20.654H384Z" transform="translate(-265.307 -66.28)"/><path class="a" d="M173.451,112H101.163A5.076,5.076,0,0,0,96,116.98v69.714a5.076,5.076,0,0,0,5.163,4.98h77.451V116.98A5.076,5.076,0,0,0,173.451,112Z" transform="translate(-66.98)"/><circle class="c" cx="10" cy="10" r="10" transform="translate(124.771 177.059)"/><path class="d" d="M399.49,334.98a15.49,15.49,0,1,1,15.49-15.49A15.509,15.509,0,0,1,399.49,334.98Zm0-20.654a5.163,5.163,0,1,0,5.163,5.163A5.179,5.179,0,0,0,399.49,314.327Z" transform="translate(-265.307 -132.98)"/><path class="b" d="M178.614,324.654H101.163A5.165,5.165,0,0,1,96,319.49V304h82.614Z" transform="translate(-66.98 -132.98)"/><ellipse class="c" cx="11" cy="10" rx="11" ry="10" transform="translate(53.956 177.059)"/><path class="d" d="M175.49,334.98a15.49,15.49,0,1,1,15.49-15.49A15.509,15.509,0,0,1,175.49,334.98Zm0-20.654a5.163,5.163,0,1,0,5.163,5.163A5.172,5.172,0,0,0,175.49,314.327Z" transform="translate(-110.377 -132.98)"/></g></svg>