<svg xmlns="http://www.w3.org/2000/svg" xmlns:xlink="http://www.w3.org/1999/xlink" width="33" height="20" viewBox="0 0 33 20"><defs><style>.a{fill:#fff;}.b{clip-path:url(#a);}.c{fill:#ce1126;}.d{fill:#007a3d;}</style><clipPath id="a"><rect class="a" width="33" height="20" transform="translate(0 0.445)"/></clipPath></defs><g class="b" transform="translate(0 -0.445)"><g transform="translate(0.514 -0.376)"><path class="c" d="M0,0H31.822V20.449H0Z"/><path class="a" d="M0,7.333H31.822V20.966H0Z" transform="translate(0 -0.517)"/><path d="M0,14.667H31.822v6.816H0Z" transform="translate(0 -1.034)"/><g transform="translate(9.569 8.208)"><path class="d" d="M19.4,9.593a.384.384,0,0,1-.108-.079c-.024-.033-.01-.034.09-.008a.412.412,0,0,0,.41-.065l.1-.082.119.059a.387.387,0,0,0,.155.049.331.331,0,0,0,.155-.191c0-.057.045-.042.069.02a.22.22,0,0,1-.144.292.343.343,0,0,1-.206-.021c-.111-.037-.13-.037-.186,0a.435.435,0,0,1-.456.022Zm.444-.391a.584.584,0,0,1-.079-.305c.015-.043.031-.052.071-.039.071.021.087.069.077.229-.008.13-.028.165-.069.116Zm-5.227-.144c-.014.1.18.341.268.385-.06.026-.134.014-.188.043-.306.295-1.422,1.344-1.626,1.595.6.011,1.273-.008,1.84-.033,0-.4.389-.416.649-.56.134.2.47.188.512.494V12.3H10.916a.752.752,0,0,1-.957.56c.156-.157.418-.211.513-.428a1.43,1.43,0,0,0-.312-1.038,1.882,1.882,0,0,0,.551-.279c-.181.531.472.473.956.461.015-.18.008-.393-.137-.42a1.33,1.33,0,0,0,.513-.329v.716l3.572-.007c0-.224.062-.584-.122-.584s-.008.461-.145.461H12.591l0-.457c.116-.112.1-.1.9-.873.08-.077.64-.565,1.13-1.023Zm6.9-.02a2.479,2.479,0,0,0,.581.3c-.027.094-.114.131-.137.23v2.008c.263.056.319-.088.444-.165.034.321.247.637.239.888H21.516V9.036Zm-1.5,1.076.41-.347v1.753h.3l-.009-1.966a2.566,2.566,0,0,0,.413-.4v3.139H18.533c-.038-.652-.045-1.326.743-1.181v-.266c-.023-.045-.067.011-.077-.048.125-.121.167-.152.506-.437l.006,1.157h.3s0-1.36,0-1.405ZM19.041,11.5c.055.08.244.079.235-.056C19.246,11.334,19,11.376,19.041,11.5Z" transform="translate(-9.96 -8.852)"/><ellipse class="d" cx="0.158" cy="0.152" rx="0.158" ry="0.152" transform="translate(1.428 3.663)"/><path class="d" d="M16.665,9.055a2.5,2.5,0,0,0,.581.3c-.027.094-.114.131-.137.23V11.59c.263.056.319-.088.444-.165.034.322.247.636.239.888H16.664V9.054Z" transform="translate(-10.199 -8.866)"/></g></g></g></svg>