<svg xmlns="http://www.w3.org/2000/svg" width="95.5" height="95.5" viewBox="0 0 95.5 95.5"><defs><style>.a{fill:#aab2bd;}.b{fill:#8cc152;}.c{fill:#69d6f4;}.d{fill:#b4dd7f;}.e{fill:#fcd770;}</style></defs><g transform="translate(-1 -1)"><path class="a" d="M55.3,8.662v3.331H2V8.662A6.66,6.66,0,0,1,8.662,2H48.633A6.66,6.66,0,0,1,55.3,8.662Z" transform="translate(0.665 0.665)"/><path class="a" d="M55.3,57.4v3.331a6.66,6.66,0,0,1-6.662,6.662H8.662A6.66,6.66,0,0,1,2,60.728V54.067H38.64l.8-.167A6.67,6.67,0,0,0,45.3,57.4Z" transform="translate(0.665 27.444)"/><path class="b" d="M83.957,35.324h-53.3a6.662,6.662,0,0,1,0-13.324H77.3a6.662,6.662,0,0,1,6.662,6.662Z" transform="translate(7.547 10.957)"/><path class="c" d="M55.345,14.017A16.974,16.974,0,0,0,50.3,25.962a15.705,15.705,0,0,0,.283,2.949l-.283.045h-5c-3.681,0-6.662,2.679-6.662,5.987V73.859a5.55,5.55,0,0,0,.8,2.844l-.8.15H2V8H55.3v5.987Z" transform="translate(0.665 4.658)"/><path class="d" d="M87.288,62.64V69.3a6.66,6.66,0,0,1-6.662,6.662H30.662A6.662,6.662,0,0,1,24,69.3V26a6.653,6.653,0,0,0,6.662,6.662H80.626a6.66,6.66,0,0,1,6.662,6.662v6.662H65.637a8.327,8.327,0,0,0,0,16.655Z" transform="translate(7.547 8.877)"/><path class="b" d="M73.979,38V54.655H52.327a8.327,8.327,0,1,1,0-16.655Z" transform="translate(20.856 19.101)"/><path class="e" d="M50.986,44.64H39.944a19.96,19.96,0,0,1-8.66-13.374A19.384,19.384,0,0,1,31,27.986,19.986,19.986,0,1,1,62.028,44.64Z" transform="translate(12.205 4.658)"/><path d="M15,57h9.993v3.331H15Z" transform="translate(7.377 29.507)"/><path d="M93.372,45.669h.048V39.508a7.71,7.71,0,0,0-7.7-7.7h-.1c.04-.513.1-1.021.1-1.54A19.994,19.994,0,0,0,53.371,14.515V8.7a7.71,7.71,0,0,0-7.7-7.7H8.7A7.71,7.71,0,0,0,1,8.7V88.8a7.71,7.71,0,0,0,7.7,7.7H45.669a7.71,7.71,0,0,0,7.7-7.7v-1.54H88.8a7.71,7.71,0,0,0,7.7-7.7V51.831A7.674,7.674,0,0,0,93.372,45.669ZM85.718,34.887a4.627,4.627,0,0,1,4.621,4.621v4.777a7.694,7.694,0,0,0-1.54-.156H80.1a19.932,19.932,0,0,0,5.062-9.242ZM65.694,13.323a16.923,16.923,0,0,1,9.7,30.806H67.234v-3.3a6.148,6.148,0,0,0-1.54-12.1,3.081,3.081,0,1,1,3.081-3.081h3.081A6.156,6.156,0,0,0,67.234,19.7V16.4H64.153v3.3a6.148,6.148,0,0,0,1.54,12.1,3.081,3.081,0,1,1-3.081,3.081H59.532a6.156,6.156,0,0,0,4.621,5.943v3.3H56a16.923,16.923,0,0,1,9.7-30.806ZM35.043,81.1H4.081V13.323H50.29v4.167a19.929,19.929,0,0,0-4.621,12.777c0,.519.055,1.027.1,1.54H42.589a7.71,7.71,0,0,0-7.7,7.7V79.556A7.694,7.694,0,0,0,35.043,81.1Zm7.546-46.21h3.637a19.958,19.958,0,0,0,1.009,3.081H42.589v3.081H48.75V40.87a19.871,19.871,0,0,0,2.537,3.259h-8.7a4.621,4.621,0,0,1,0-9.242ZM8.7,4.081H45.669A4.627,4.627,0,0,1,50.29,8.7v1.54H4.081V8.7A4.627,4.627,0,0,1,8.7,4.081ZM50.29,88.8a4.627,4.627,0,0,1-4.621,4.621H8.7A4.627,4.627,0,0,1,4.081,88.8V84.177H36.427V84.13a7.674,7.674,0,0,0,6.161,3.128h7.7ZM88.8,84.177H42.589a4.627,4.627,0,0,1-4.621-4.621V45.666a7.671,7.671,0,0,0,4.621,1.543H88.8a4.627,4.627,0,0,1,4.621,4.621v4.621H74.935a9.242,9.242,0,0,0,0,18.484H93.419v4.621A4.627,4.627,0,0,1,88.8,84.177Zm4.621-24.645V71.855H74.935a6.161,6.161,0,0,1,0-12.323Z"/><path d="M47,42h3.331v3.331H47Z" transform="translate(24.663 21.982)"/></g></svg>