<svg xmlns="http://www.w3.org/2000/svg" width="120" height="120" viewBox="0 0 120 120"><defs><style>.a{fill:#ffe854;}.b{fill:#3e4a68;}.c{fill:#303a59;}.d{fill:#ebf0f3;}.e{fill:#ceddf7;}.f{fill:#ff3345;}.g{fill:#e32828;}.h{fill:#aac5ee;}.i{fill:#232d47;}.j{fill:#0c99e6;}.k{fill:#9c68e1;}</style></defs><g transform="translate(0)"><g transform="translate(0)"><path class="a" d="M18.991,103.793h82.018a60,60,0,1,0-82.018,0Z" transform="translate(0)"/></g><g transform="translate(18.984)"><path class="b" d="M85.688,107.754A60.049,60.049,0,0,1,81,103.793V9.375A9.375,9.375,0,0,1,90.375,0h63.281a9.375,9.375,0,0,1,9.375,9.375v94.418a60.052,60.052,0,0,1-4.687,3.961Z" transform="translate(-81)"/></g><g transform="translate(18.984 71.719)"><path class="c" d="M85.688,342.035h72.656a60.048,60.048,0,0,0,4.688-3.961V306a2.344,2.344,0,0,1-4.687,0H85.688A2.344,2.344,0,0,1,81,306v32.074A60.046,60.046,0,0,0,85.688,342.035Z" transform="translate(-81 -306)"/></g><g transform="translate(23.672 23.438)"><path class="d" d="M173.656,102.578v81.738a60.048,60.048,0,0,1-63.281,5.864q-2.408-1.213-4.687-2.63-2.426-1.508-4.687-3.234V102.578A2.577,2.577,0,0,1,103.578,100h67.5A2.577,2.577,0,0,1,173.656,102.578Z" transform="translate(-101 -100)"/></g><g transform="translate(23.672 23.438)"><path class="e" d="M109.854,102.578A2.577,2.577,0,0,1,112.433,100h-8.854A2.577,2.577,0,0,0,101,102.578v81.738q2.261,1.726,4.688,3.234,2.03,1.263,4.167,2.36Z" transform="translate(-101 -100)"/></g><g transform="translate(64.036 32.49)"><path class="f" d="M293.178,139.184c-4.553-2.023-8.238,2.1-8.238,2.1s-3.686-4.119-8.238-2.1-4.553,8.744-.506,13.224,7.515,6.431,8.744,6.431,4.7-1.951,8.744-6.431S297.73,141.208,293.178,139.184Z" transform="translate(-273.221 -138.625)"/></g><g transform="translate(64.036 32.49)"><path class="g" d="M283.227,152.409c-3.772-4.176-4.026-10.3-.358-12.747a6.608,6.608,0,0,0-6.167-.477c-4.553,2.023-4.553,8.744-.506,13.224s7.515,6.431,8.744,6.431a7.844,7.844,0,0,0,3.516-1.676A32.374,32.374,0,0,1,283.227,152.409Z" transform="translate(-273.221 -138.626)"/></g><g transform="translate(30.768 32.636)"><path class="f" d="M141.2,159.17h-.015a1.758,1.758,0,0,1-1.743-1.773c.008-.939.016-1.982.024-3.069h-6.435a1.758,1.758,0,0,1-1.539-2.607c1.3-2.352,5.6-10.114,6.532-11.253a2.815,2.815,0,0,1,3.029-1.109A2.924,2.924,0,0,1,143,142c.049.587.037,4.856.013,8.815h.328a1.758,1.758,0,0,1,0,3.516h-.352c-.01,1.4-.02,2.524-.025,3.1A1.758,1.758,0,0,1,141.2,159.17Zm-5.182-8.358h3.471c.013-2.3.023-4.525.022-6.13C138.607,146.229,137.33,148.474,136.023,150.812Z" transform="translate(-131.279 -139.247)"/></g><g transform="translate(46.931 32.637)"><g transform="translate(0 6.918)"><path class="f" d="M206.739,181.77a6.5,6.5,0,1,1,6.5-6.5A6.509,6.509,0,0,1,206.739,181.77Zm0-9.489a2.987,2.987,0,1,0,2.986,2.987A2.99,2.99,0,0,0,206.739,172.282Z" transform="translate(-200.237 -168.766)"/></g><g transform="translate(1.285)"><path class="f" d="M210.938,149.684a5.217,5.217,0,1,1,5.217-5.216A5.222,5.222,0,0,1,210.938,149.684Zm0-6.918a1.7,1.7,0,1,0,1.7,1.7A1.7,1.7,0,0,0,210.938,142.767Z" transform="translate(-205.721 -139.251)"/></g></g><g transform="translate(23.672 57.979)"><path class="h" d="M148.97,264.082a2.916,2.916,0,0,1-2.8-2.061l-3.024-9.739-3.023,9.738a2.93,2.93,0,0,1-5.6,0l-3.023-9.737-3.023,9.737a2.93,2.93,0,0,1-5.6,0l-1.407-4.533H101v-3.516h20.912a2.916,2.916,0,0,1,2.8,2.061l.976,3.143,3.023-9.737a2.93,2.93,0,0,1,5.6,0l3.023,9.738,3.023-9.738a2.93,2.93,0,0,1,5.6,0l3.024,9.739,1.108-3.567a2.917,2.917,0,0,1,2.8-2.061h20.781v3.516H153.307l-1.539,4.957A2.916,2.916,0,0,1,148.97,264.082Z" transform="translate(-101 -247.377)"/></g><g transform="translate(48.281 14.063)"><path class="c" d="M227.094,64.688h-18.75a2.344,2.344,0,0,1,0-4.687h18.75a2.344,2.344,0,0,1,0,4.688Z" transform="translate(-206 -60)"/></g><g transform="translate(48.281 14.063)"><path class="i" d="M215.375,62.344A2.344,2.344,0,0,1,217.719,60h-9.375a2.344,2.344,0,0,0,0,4.688h9.375A2.344,2.344,0,0,1,215.375,62.344Z" transform="translate(-206 -60)"/></g><g transform="translate(39.048 14.286)"><circle class="c" cx="2.5" cy="2.5" r="2.5" transform="translate(-0.048 -0.286)"/></g><g transform="translate(58.095 4.762)"><ellipse class="c" cx="2" cy="2.5" rx="2" ry="2.5" transform="translate(-0.095 0.238)"/></g><g transform="translate(30.768 86.403)"><path class="h" d="M187.984,372.168H133.037a1.758,1.758,0,0,1,0-3.516h54.947a1.758,1.758,0,0,1,0,3.516Z" transform="translate(-131.279 -368.652)"/></g><g transform="translate(69.896 82.301)"><circle class="j" cx="5.859" cy="5.859" r="5.859"/></g><g transform="translate(30.768 102.809)"><path class="h" d="M187.984,442.168H133.037a1.758,1.758,0,0,1,0-3.516h54.947a1.758,1.758,0,0,1,0,3.516Z" transform="translate(-131.279 -438.652)"/></g><g transform="translate(46.458 98.708)"><circle class="k" cx="5.859" cy="5.859" r="5.859"/></g></g></svg>