<svg xmlns="http://www.w3.org/2000/svg" width="80.382" height="98" viewBox="0 0 80.382 98"><defs><style>.a{fill:#aaa;}</style></defs><g transform="translate(-46.022)"><path class="a" d="M72.672,190.4c-14.585-.081-26.65-28.677-26.65-43.24,0-23.789,18.581-29,25.742-29,3.227,0,6.673,1.217,9.712,2.294a22.407,22.407,0,0,0,5.546,1.527A17.775,17.775,0,0,0,91,120.742c3.247-1.241,7.287-2.784,11.992-2.784h.028c3.513,0,14.165.741,20.569,9.977l1.5,2.165-2.159,1.565c-3.084,2.235-8.711,6.312-8.711,14.388,0,9.565,6.373,13.244,9.435,15.013,1.352.781,2.751,1.586,2.751,3.347,0,1.15-9.555,25.841-23.431,25.841a19.47,19.47,0,0,1-7.912-1.845,16.58,16.58,0,0,0-7.043-1.629,18.709,18.709,0,0,0-5.577,1.449,28.249,28.249,0,0,1-9.673,2.168Z" transform="translate(0 -92.397)"/><path class="a" d="M276,0c.409,14.752-10.141,24.985-20.678,24.344C253.583,12.571,265.856,0,276,0Z" transform="translate(-170.675)"/></g></svg>