<svg xmlns="http://www.w3.org/2000/svg" width="129.019" height="141.728" viewBox="0 0 129.019 141.728"><defs><style>.a{fill:#febc61;}.b{fill:#1e365a;}.c{fill:#fff;}</style></defs><path class="a" d="M182,187.219h79.468v-3.564A9.655,9.655,0,0,0,251.813,174H191.655A9.655,9.655,0,0,0,182,183.655Z" transform="translate(-159.004 -172.749)"/><path class="a" d="M73.55,359h79.468v17.364a10.794,10.794,0,0,1-10.794,10.794H84.344A10.794,10.794,0,0,1,73.55,376.364V359Z" transform="translate(-50.554 -246.682)"/><path class="b" d="M247.925,311.728h-57.88A12.058,12.058,0,0,1,178,299.682V182.045A12.058,12.058,0,0,1,190.045,170h57.88a12.058,12.058,0,0,1,12.045,12.045V221.31a1.251,1.251,0,0,1-2.5,0V182.045a9.552,9.552,0,0,0-9.542-9.542h-57.88a9.552,9.552,0,0,0-9.542,9.542V299.682a9.552,9.552,0,0,0,9.542,9.542h57.88a9.552,9.552,0,0,0,9.542-9.542V267.927a1.251,1.251,0,0,1,2.5,0v31.756A12.058,12.058,0,0,1,247.925,311.728Z" transform="translate(-156.256 -170)"/><rect class="b" width="79.468" height="2.503" transform="translate(22.996 111.067)"/><circle class="c" cx="4.693" cy="4.693" r="4.693" transform="translate(58.036 121.704)"/><path class="b" d="M295.944,566.889a5.944,5.944,0,1,1,5.944-5.944A5.944,5.944,0,0,1,295.944,566.889Zm0-9.386a3.441,3.441,0,1,0,3.442,3.441A3.441,3.441,0,0,0,295.944,557.5Z" transform="translate(-233.215 -434.547)"/><path class="b" d="M364.541,368.582H299.5a2.665,2.665,0,0,1-2.5-2.816v-10.95A2.673,2.673,0,0,1,299.5,352h65.038a2.663,2.663,0,0,1,2.5,2.816v10.95A2.653,2.653,0,0,1,364.541,368.582Zm-64.951-2.5h64.879a.529.529,0,0,0,.088-.313v-10.95a.529.529,0,0,0-.088-.313H299.591a.529.529,0,0,0-.088.313v10.95A.529.529,0,0,0,299.591,366.079Z" transform="translate(-238.025 -295.059)"/><path class="b" d="M364.541,434.582H299.5a2.665,2.665,0,0,1-2.5-2.816v-10.95A2.673,2.673,0,0,1,299.5,418h65.038a2.663,2.663,0,0,1,2.5,2.816v10.95A2.653,2.653,0,0,1,364.541,434.582Zm-64.951-2.5h64.879a.529.529,0,0,0,.088-.313v-10.95a.529.529,0,0,0-.088-.313H299.591a.529.529,0,0,0-.088.313v10.95A.529.529,0,0,0,299.591,432.079Z" transform="translate(-238.025 -340.41)"/><path class="b" d="M359.946,377H327.251a1.251,1.251,0,1,1,0-2.5h32.694a1.251,1.251,0,0,1,0,2.5Z" transform="translate(-257.952 -310.519)"/><path class="b" d="M404.946,443H372.251a1.251,1.251,0,0,1,0-2.5h32.694a1.251,1.251,0,0,1,0,2.5Z" transform="translate(-288.873 -355.87)"/><path class="b" d="M465.073,377h-7.822a1.251,1.251,0,1,1,0-2.5h7.822a1.251,1.251,0,0,1,0,2.5Z" transform="translate(-347.279 -310.519)"/><path class="b" d="M328.073,443h-7.822a1.251,1.251,0,1,1,0-2.5h7.822a1.251,1.251,0,0,1,0,2.5Z" transform="translate(-253.142 -355.87)"/><path class="b" d="M212.085,270h-.294a14.042,14.042,0,0,1-8.76-3.31c-.235-.2-.463-.407-.682-.626a14,14,0,1,1,20.061-.626c-.144.156-.288.313-.435.457a13.919,13.919,0,0,1-9.89,4.1Zm-.188-2.5h.188a11.429,11.429,0,0,0,8.135-3.366c.122-.122.241-.244.36-.375a11.5,11.5,0,1,0-16.475.513c.181.178.369.347.56.513a11.535,11.535,0,0,0,7.155,2.713Z" transform="translate(-170.052 -219.477)"/><path class="b" d="M228.461,265.947a6.548,6.548,0,1,1,6.545-6.546A6.548,6.548,0,0,1,228.461,265.947Zm0-10.59A4.045,4.045,0,1,0,232.5,259.4,4.045,4.045,0,0,0,228.461,255.356Z" transform="translate(-186.428 -226.929)"/><path class="b" d="M212.29,297.742a1.229,1.229,0,0,1-.81-.313c-.232-.2-.46-.4-.679-.626l-.313-.294-.063-.419a6.488,6.488,0,0,1-.066-.939c0-4.627,4.555-8.391,10.156-8.391s10.159,3.754,10.159,8.391v.313l-.041.413-.282.313c-.144.156-.288.313-.435.457a1.252,1.252,0,1,1-1.771-1.771l.028-.025c-.21-3.107-3.56-5.582-7.646-5.582-4.221,0-7.653,2.641-7.653,5.888v.166l.228.2a1.251,1.251,0,0,1-.81,2.19Z" transform="translate(-178.492 -250.23)"/><path class="b" d="M328.231,263.559H308.924a1.564,1.564,0,0,1,0-3.129h19.307a1.564,1.564,0,0,1,0,3.129Z" transform="translate(-245.144 -232.138)"/><path class="b" d="M395.474,263.559h-6.839a1.564,1.564,0,1,1,0-3.129h6.839a1.564,1.564,0,0,1,0,3.129Z" transform="translate(-299.915 -232.138)"/><path class="b" d="M368.084,320.129h-19.31a1.564,1.564,0,1,1,0-3.129h19.31a1.564,1.564,0,1,1,0,3.129Z" transform="translate(-272.526 -271.009)"/><path class="b" d="M315.76,320.129h-6.836a1.564,1.564,0,1,1,0-3.129h6.836a1.564,1.564,0,1,1,0,3.129Z" transform="translate(-245.144 -271.009)"/><path class="b" d="M319.449,292.489H308.924a1.564,1.564,0,1,1,0-3.129h10.525a1.564,1.564,0,1,1,0,3.129Z" transform="translate(-245.144 -252.016)"/><path class="b" d="M378.126,292.489H364.854a1.564,1.564,0,1,1,0-3.129h13.272a1.564,1.564,0,1,1,0,3.129Z" transform="translate(-283.575 -252.016)"/><circle class="c" cx="22.604" cy="22.604" r="22.604" transform="translate(1.236 56.829)"/><path class="b" d="M132.34,395.352a23.856,23.856,0,1,1,23.872-23.861,23.856,23.856,0,0,1-23.872,23.861Zm0-45.209A21.353,21.353,0,1,0,153.709,371.5a21.353,21.353,0,0,0-21.369-21.358Z" transform="translate(-108.5 -292.063)"/><path class="b" d="M175.918,398.722a4.442,4.442,0,0,0-1.858-1.63,14.059,14.059,0,0,0-2.778-.873l-.131-.028-.131-.025h-.053a15.259,15.259,0,0,1-1.743-.46,2.5,2.5,0,0,1-1.064-.71,1.955,1.955,0,0,1-.426-1.339h0a1.764,1.764,0,0,1,.776-1.533,3.723,3.723,0,0,1,2.165-.544,5.6,5.6,0,0,1,2.043.413,8.112,8.112,0,0,1,2.043,1.189l1.524-3.047a10.324,10.324,0,0,0-1.78-1.076,9.748,9.748,0,0,0-1.918-.682c-.163-.041-.329-.075-.491-.106V386.01h-3.6v2.359a6.667,6.667,0,0,0-1.339.457,4.968,4.968,0,0,0-2.228,2.005,6.157,6.157,0,0,0-.767,3.166h0a5.473,5.473,0,0,0,.82,3.238,4.3,4.3,0,0,0,1.971,1.564,18.2,18.2,0,0,0,3,.776.42.42,0,0,1,.088,0,.333.333,0,0,1,.084.019.13.13,0,0,0,.059,0,.18.18,0,0,1,.059,0,10.716,10.716,0,0,1,1.511.382,2.19,2.19,0,0,1,.964.657,1.821,1.821,0,0,1,.375,1.211h0a1.952,1.952,0,0,1-.835,1.686,3.95,3.95,0,0,1-2.343.6,7.491,7.491,0,0,1-2.687-.491,7.346,7.346,0,0,1-2.306-1.4l-1.668,2.969a4.4,4.4,0,0,0,1.536,1.148,11.426,11.426,0,0,0,2.453.926l1.251.313v2.159h3.6V407.41a7.167,7.167,0,0,0,1.464-.469,5.047,5.047,0,0,0,2.312-1.984,5.86,5.86,0,0,0,.795-3.129V401.8A5.484,5.484,0,0,0,175.918,398.722Z" transform="translate(-146.121 -318.428)"/><rect class="b" width="79.468" height="2.503" transform="translate(22.996 13.219)"/></svg>