<svg xmlns="http://www.w3.org/2000/svg" width="134.999" height="135" viewBox="0 0 134.999 135"><defs><style>.a{fill:#febc61;}</style></defs><g transform="translate(-0.001 0)"><g transform="translate(66.337 63.391)"><path class="a" d="M256.089,241.192a2.637,2.637,0,1,0,0,3.728A2.637,2.637,0,0,0,256.089,241.192Z" transform="translate(-251.587 -240.418)"/></g><g transform="translate(81.898 26.74)"><path class="a" d="M333.1,105.279a13.184,13.184,0,1,0,0,18.645A13.178,13.178,0,0,0,333.1,105.279ZM329.373,120.2a7.91,7.91,0,1,1,0-11.187A7.921,7.921,0,0,1,329.373,120.2Z" transform="translate(-310.603 -101.415)"/></g><g transform="translate(25.318 0)"><path class="a" d="M204.928.772A2.628,2.628,0,0,0,202.969,0,117.133,117.133,0,0,0,171.3,6.558c-13.521,4.774-24.791,11.609-33.5,20.316-1.951,1.951-3.849,4.02-5.666,6.169-8.608-5.067-15.507-3.478-19.867-1.145-10.041,5.374-16.256,19.964-16.256,30.4a2.637,2.637,0,0,0,4.5,1.864,16.786,16.786,0,0,1,13.96-4.684l.923.923a92.744,92.744,0,0,0-4.355,12.806,7.463,7.463,0,0,0,.319,4.58,24.969,24.969,0,0,0-7.12,5.02c-6.787,6.787-8.165,23.329-8.221,24.029a2.636,2.636,0,0,0,2.628,2.844q.1,0,.208-.008c.7-.055,17.243-1.433,24.03-8.22a24.971,24.971,0,0,0,5.019-7.119,7.446,7.446,0,0,0,4.583.317A92.75,92.75,0,0,0,145.3,90.3l.923.923a16.786,16.786,0,0,1-4.684,13.96,2.637,2.637,0,0,0,1.864,4.5c10.436,0,25.026-6.215,30.4-16.256,2.334-4.36,3.923-11.259-1.145-19.867,2.148-1.816,4.217-3.714,6.169-5.666,8.706-8.706,15.541-19.977,20.315-33.5A117.133,117.133,0,0,0,205.7,2.731,2.637,2.637,0,0,0,204.928.772ZM101.913,56.627c1.638-7.927,6.4-16.625,12.85-20.08,4.313-2.308,9.028-2.082,14.041.662a106.61,106.61,0,0,0-11.078,18.058,2.78,2.78,0,0,0-1.4-.82A22.536,22.536,0,0,0,101.913,56.627Zm17.25,41.1c-3.625,3.625-12.13,5.538-17.506,6.318.781-5.376,2.693-13.88,6.319-17.505a19,19,0,0,1,6.751-4.437l8.873,8.873A19,19,0,0,1,119.164,97.725Zm12.021-8.181a2.474,2.474,0,0,1-2.3-.748l-5.164-5.164-6.81-6.81a2.476,2.476,0,0,1-.75-2.3,85.62,85.62,0,0,1,3.292-10.07l21.8,21.8A85.557,85.557,0,0,1,131.184,89.544Zm37.97,1.394C165.7,97.392,157,102.15,149.075,103.788c2.527-4.756,3.084-10.81,2.161-14.481a2.754,2.754,0,0,0-.8-1.332A106.649,106.649,0,0,0,168.492,76.9C171.236,81.91,171.462,86.625,169.154,90.938ZM175.1,64.164a95.7,95.7,0,0,1-7.6,6.822,101.3,101.3,0,0,1-21.019,13.03l-24.79-24.79a101.286,101.286,0,0,1,13.03-21.019,95.687,95.687,0,0,1,6.822-7.605c7.811-7.812,17.893-14.028,29.972-18.5L193.6,34.192C189.128,46.271,182.911,56.353,175.1,64.164Zm20.4-35.533L177.07,10.2A118.543,118.543,0,0,1,200.206,5.5,118.562,118.562,0,0,1,195.5,28.631Z" transform="translate(-96.018 0)"/></g><g transform="translate(51.422 108.137)"><path class="a" d="M206.978,410.893a2.637,2.637,0,0,0-3.729,0l-7.457,7.459a2.637,2.637,0,0,0,3.73,3.728l7.457-7.459A2.637,2.637,0,0,0,206.978,410.893Z" transform="translate(-195.021 -410.121)"/></g><g transform="translate(14.132 70.849)"><path class="a" d="M65.552,269.474a2.637,2.637,0,0,0-3.729,0l-7.459,7.457a2.637,2.637,0,1,0,3.728,3.729l7.459-7.457A2.637,2.637,0,0,0,65.552,269.474Z" transform="translate(-53.592 -268.701)"/></g><g transform="translate(22.374 111.868)"><path class="a" d="M107.214,425.043a2.637,2.637,0,0,0-3.729,0L85.624,442.9a2.637,2.637,0,0,0,3.729,3.729l17.861-17.858A2.637,2.637,0,0,0,107.214,425.043Z" transform="translate(-84.851 -424.271)"/></g><g transform="translate(1.28 111.868)"><path class="a" d="M27.214,425.043a2.637,2.637,0,0,0-3.729,0L5.624,442.9a2.637,2.637,0,0,0,3.729,3.729l17.861-17.858A2.637,2.637,0,0,0,27.214,425.043Z" transform="translate(-4.851 -424.271)"/></g><g transform="translate(0.001 89.493)"><path class="a" d="M22.361,340.182a2.637,2.637,0,0,0-3.729,0L.774,358.044A2.637,2.637,0,0,0,4.5,361.772l17.858-17.861A2.637,2.637,0,0,0,22.361,340.182Z" transform="translate(-0.001 -339.41)"/></g><g transform="translate(73.795 52.204)"><path class="a" d="M288.1,198.762a2.637,2.637,0,0,0-3.729,0l-3.728,3.728a2.637,2.637,0,1,0,3.729,3.729l3.728-3.728A2.637,2.637,0,0,0,288.1,198.762Z" transform="translate(-279.871 -197.99)"/></g></g></svg>