<svg xmlns="http://www.w3.org/2000/svg" width="110.999" height="111" viewBox="0 0 110.999 111"><g transform="translate(-0.001)"><g transform="translate(54.544 52.122)"><path d="M255.289,241.054a2.168,2.168,0,1,0,0,3.066A2.168,2.168,0,0,0,255.289,241.054Z" transform="translate(-251.587 -240.418)"/></g><g transform="translate(67.339 21.986)"><path d="M329.1,104.592a10.84,10.84,0,1,0,0,15.33A10.835,10.835,0,0,0,329.1,104.592Zm-3.066,12.264a6.5,6.5,0,1,1,0-9.2A6.513,6.513,0,0,1,326.037,116.856Z" transform="translate(-310.603 -101.415)"/></g><g transform="translate(20.817 0)"><path d="M185.566.635A2.16,2.16,0,0,0,183.956,0a96.309,96.309,0,0,0-26.035,5.39c-11.117,3.925-20.384,9.545-27.542,16.7-1.6,1.6-3.165,3.305-4.659,5.072-7.078-4.166-12.75-2.86-16.335-.941-8.256,4.418-13.366,16.415-13.366,25a2.168,2.168,0,0,0,3.7,1.533A13.8,13.8,0,0,1,111.2,48.9l.759.759a76.255,76.255,0,0,0-3.581,10.53,6.137,6.137,0,0,0,.263,3.766,20.53,20.53,0,0,0-5.855,4.128c-5.581,5.581-6.714,19.181-6.759,19.758a2.168,2.168,0,0,0,2.161,2.339q.085,0,.171-.007c.576-.045,14.177-1.179,19.758-6.759a20.531,20.531,0,0,0,4.127-5.853,6.122,6.122,0,0,0,3.768.261,76.262,76.262,0,0,0,10.528-3.58L137.3,75a13.8,13.8,0,0,1-3.851,11.478,2.168,2.168,0,0,0,1.533,3.7c8.581,0,20.577-5.11,25-13.366,1.919-3.585,3.225-9.257-.941-16.335,1.766-1.493,3.467-3.054,5.072-4.659,7.159-7.159,12.778-16.425,16.7-27.542A96.309,96.309,0,0,0,186.2,2.246,2.168,2.168,0,0,0,185.566.635Zm-84.7,45.925c1.347-6.518,5.258-13.669,10.566-16.51,3.547-1.9,7.423-1.712,11.545.544a87.657,87.657,0,0,0-9.109,14.848,2.286,2.286,0,0,0-1.148-.674A18.53,18.53,0,0,0,100.865,46.56Zm14.184,33.792c-2.981,2.981-9.974,4.553-14.394,5.2.642-4.42,2.215-11.413,5.2-14.393a15.623,15.623,0,0,1,5.55-3.648l7.3,7.3A15.621,15.621,0,0,1,115.049,80.351Zm9.884-6.727a2.034,2.034,0,0,1-1.894-.615l-4.246-4.246-5.6-5.6a2.036,2.036,0,0,1-.616-1.895,70.4,70.4,0,0,1,2.707-8.28l17.928,17.928A70.348,70.348,0,0,1,124.933,73.625Zm31.22,1.146c-2.84,5.307-9.992,9.219-16.51,10.565A18.452,18.452,0,0,0,141.42,73.43a2.264,2.264,0,0,0-.659-1.1,87.69,87.69,0,0,0,14.848-9.109C157.864,67.348,158.05,71.225,156.152,74.771Zm4.888-22.014a78.69,78.69,0,0,1-6.252,5.609A83.292,83.292,0,0,1,137.505,69.08L117.122,48.7a83.28,83.28,0,0,1,10.713-17.282,78.677,78.677,0,0,1,5.61-6.253c6.423-6.423,14.712-11.534,24.643-15.214l18.166,18.166C172.575,38.045,167.463,46.334,161.04,52.757Zm16.774-29.216L162.661,8.388a97.469,97.469,0,0,1,19.023-3.87A97.483,97.483,0,0,1,177.814,23.541Z" transform="translate(-96.018 0)"/></g><g transform="translate(42.281 88.913)"><path d="M204.852,410.756a2.168,2.168,0,0,0-3.066,0l-6.131,6.133a2.168,2.168,0,0,0,3.067,3.066l6.131-6.133A2.168,2.168,0,0,0,204.852,410.756Z" transform="translate(-195.021 -410.121)"/></g><g transform="translate(11.62 58.253)"><path d="M63.426,269.336a2.168,2.168,0,0,0-3.066,0l-6.133,6.131a2.168,2.168,0,1,0,3.065,3.066l6.133-6.131A2.168,2.168,0,0,0,63.426,269.336Z" transform="translate(-53.592 -268.701)"/></g><g transform="translate(18.397 91.981)"><path d="M103.238,424.906a2.168,2.168,0,0,0-3.066,0L85.487,439.59a2.168,2.168,0,0,0,3.066,3.066l14.686-14.684A2.168,2.168,0,0,0,103.238,424.906Z" transform="translate(-84.851 -424.271)"/></g><g transform="translate(1.053 91.981)"><path d="M23.238,424.906a2.168,2.168,0,0,0-3.066,0L5.487,439.59a2.168,2.168,0,1,0,3.066,3.066l14.686-14.684A2.168,2.168,0,0,0,23.238,424.906Z" transform="translate(-4.851 -424.271)"/></g><g transform="translate(0.001 73.583)"><path d="M18.386,340.045a2.168,2.168,0,0,0-3.066,0L.636,354.731A2.168,2.168,0,0,0,3.7,357.8l14.684-14.686A2.168,2.168,0,0,0,18.386,340.045Z" transform="translate(-0.001 -339.41)"/></g><g transform="translate(60.676 42.924)"><path d="M286.638,198.625a2.168,2.168,0,0,0-3.066,0l-3.065,3.066a2.168,2.168,0,1,0,3.066,3.066l3.066-3.066A2.168,2.168,0,0,0,286.638,198.625Z" transform="translate(-279.871 -197.99)"/></g></g></svg>