<svg xmlns="http://www.w3.org/2000/svg" width="121.317" height="121" viewBox="0 0 121.317 121"><defs><style>.a,.b{fill:none;}.b{stroke:#febc61;stroke-miterlimit:10;stroke-width:5px;}</style></defs><g transform="translate(0.488 0.139)"><rect class="a" width="121" height="121" transform="translate(-0.488 -0.139)"/><path class="b" d="M49.648,22.824a4.824,4.824,0,0,0-9.648,0V59a4.824,4.824,0,1,0,9.648,0Z" transform="translate(56.621 25.261)"/><path class="b" d="M37.884,52.648a4.824,4.824,0,0,0,0-9.648H25.824a4.824,4.824,0,0,0,0,9.648Z" transform="translate(29.793 60.561)"/><path class="b" d="M8,43a41,41,0,1,1,82.008,0" transform="translate(11.437 2.669)"/><path class="b" d="M44,20c6.662,0,12.06,8.1,12.06,18.09S50.662,56.18,44,56.18" transform="translate(62.269 28.085)"/><path class="b" d="M6,22.824a4.824,4.824,0,0,1,9.648,0V59A4.824,4.824,0,1,1,6,59Z" transform="translate(8.613 25.261)"/><path class="b" d="M13.06,20C6.4,20,1,28.1,1,38.09S6.4,56.18,13.06,56.18" transform="translate(1.553 28.085)"/><path class="b" d="M58.944,37c0,12.06-7.236,19.3-19.3,19.3H30" transform="translate(42.501 52.089)"/></g></svg>