<svg xmlns="http://www.w3.org/2000/svg" width="111.701" height="98" viewBox="0 0 111.701 98"><defs><style>.a{fill:#f05138;}</style></defs><g transform="translate(-26 -54.211)"><g transform="translate(26 54.211)"><g transform="translate(0 0)"><path class="a" d="M94.849,54.211c49.105,32.858,33.181,68.965,33.181,68.965s13.948,15.477,8.341,29.035c0,0-5.787-9.471-15.392-9.471-9.286,0-14.78,9.471-33.525,9.471C45.763,152.211,26,117.954,26,117.954c37.572,24.36,63.242,7.1,63.242,7.1C72.278,115.406,36.3,69.21,36.3,69.21c31.366,26.259,44.9,33.153,44.9,33.153C73.06,95.812,50.378,63.7,50.378,63.7c18.151,18.053,54.231,43.227,54.231,43.227,10.346-27.819-9.759-52.717-9.759-52.717Z" transform="translate(-26 -54.211)"/></g></g></g></svg>