<svg xmlns="http://www.w3.org/2000/svg" width="80.188" height="107" viewBox="0 0 80.188 107"><defs><style>.a{fill:#26221d;}</style></defs><g transform="translate(0 0)"><path class="a" d="M8.034,33.018a2.04,2.04,0,0,0,1.442-3.482,18.423,18.423,0,0,1,0-26.055A2.039,2.039,0,0,0,6.591.6a22.5,22.5,0,0,0,0,31.824,2.035,2.035,0,0,0,1.442.6Zm0,0" transform="translate(0 0)"/><path class="a" d="M58.548,44.508a2.04,2.04,0,0,0,1.442-3.482,12.864,12.864,0,0,1,0-18.193,2.04,2.04,0,0,0-2.885-2.885,16.963,16.963,0,0,0,0,23.962,2.031,2.031,0,0,0,1.442.6Zm0,0" transform="translate(-41.557 -15.42)"/><path class="a" d="M109.021,56a2.04,2.04,0,0,0,1.443-3.482,7.313,7.313,0,0,1,0-10.332,2.04,2.04,0,1,0-2.885-2.884,11.4,11.4,0,0,0,0,16.1,2.034,2.034,0,0,0,1.442.6Zm0,0" transform="translate(-82.404 -30.839)"/><path class="a" d="M63.457,56.892a8.626,8.626,0,1,0-5.824,0l-31.818,79.24a2.107,2.107,0,0,0,3.912,1.565l5.447-13.566H57.488a2.1,2.1,0,1,0,0-4.207H42.964l34.192-17.606,7.07,17.606H74.4a2.1,2.1,0,1,0,0,4.207H85.915L91.362,137.7a2.107,2.107,0,0,0,3.912-1.565ZM53.379,78.8a2.092,2.092,0,0,0,.467.054h8.045L48.27,91.517Zm1.668-4.154,5.5-13.694,5.5,13.694Zm1.088-25.854a4.411,4.411,0,1,1,4.411,4.4A4.412,4.412,0,0,1,56.135,48.789ZM37.671,117.915l6.6-16.426h25.3ZM48.254,97.283l19.572-18.2,7.309,18.2Zm0,0" transform="translate(-20.451 -32.018)"/><path class="a" d="M334.715,32.421a2.04,2.04,0,0,0,2.885,0A22.5,22.5,0,0,0,337.6.6a2.04,2.04,0,0,0-2.885,2.885,18.422,18.422,0,0,1,0,26.054A2.04,2.04,0,0,0,334.715,32.421Zm0,0" transform="translate(-264.002)"/><path class="a" d="M290.62,43.911a2.039,2.039,0,0,0,2.884,0,16.963,16.963,0,0,0,0-23.962,2.04,2.04,0,0,0-2.885,2.884,12.865,12.865,0,0,1,0,18.194,2.04,2.04,0,0,0,0,2.884Zm0,0" transform="translate(-228.864 -15.421)"/><path class="a" d="M246.522,55.4a2.039,2.039,0,0,0,2.884,0,11.4,11.4,0,0,0,0-16.1,2.04,2.04,0,0,0-2.885,2.885,7.313,7.313,0,0,1,0,10.332A2.04,2.04,0,0,0,246.522,55.4Zm0,0" transform="translate(-194.392 -30.841)"/><path class="a" d="M211.478,422.112a2.039,2.039,0,1,0-.751,2.476,2.054,2.054,0,0,0,.751-2.476Zm0,0" transform="translate(-164.114 -332.368)"/></g></svg>