<svg xmlns="http://www.w3.org/2000/svg" width="40" height="32.507" viewBox="0 0 40 32.507"><defs><style>.a{fill:#fff;}</style></defs><path class="a" d="M65.1,37.876a16.374,16.374,0,0,1-4.714,1.291A8.229,8.229,0,0,0,64,34.628a16.429,16.429,0,0,1-5.211,1.991A8.213,8.213,0,0,0,44.8,44.1a23.3,23.3,0,0,1-16.915-8.576,8.215,8.215,0,0,0,2.539,10.957,8.149,8.149,0,0,1-3.717-1.028c0,.035,0,.07,0,.1a8.211,8.211,0,0,0,6.583,8.046,8.238,8.238,0,0,1-3.706.142,8.215,8.215,0,0,0,7.666,5.7,16.566,16.566,0,0,1-12.15,3.4,23.213,23.213,0,0,0,12.579,3.687c15.095,0,23.35-12.5,23.35-23.35,0-.356-.008-.71-.024-1.061a16.642,16.642,0,0,0,4.1-4.247Z" transform="translate(-25.103 -34.028)"/></svg>