<svg xmlns="http://www.w3.org/2000/svg" width="112.125" height="112" viewBox="0 0 112.125 112"><defs><style>.a{fill:#5a5a5a;}.b{fill:#ffd86e;}.c{fill:#ffb509;}.d{fill:#838383;}.e{fill:#acacac;}.f{fill:#9c9c9c;}.g{fill:#64dcfc;}.h{fill:#00d1fc;}.i{fill:#0396fd;}.j{fill:#0077f0;}.k{fill:#e7e7e7;}.l{fill:#ff5770;}.m{fill:#80e0dc;}.n{fill:#ff435f;}.o{fill:#00a8b0;}</style></defs><path class="a" d="M184.176,417.711h31.329v12.967H184.176Zm0,0" transform="translate(-143.843 -326.235)"/><path class="b" d="M106.246,93.292H5.75A5.749,5.749,0,0,1,0,87.543V5.75A5.749,5.749,0,0,1,5.75,0h100.5A5.749,5.749,0,0,1,112,5.75V87.543A5.749,5.749,0,0,1,106.246,93.292Zm0,0" transform="translate(0 0)"/><path class="c" d="M465.862,5.753V87.546a5.749,5.749,0,0,1-5.749,5.749H453.09a5.749,5.749,0,0,0,5.749-5.749V5.753A5.749,5.749,0,0,0,453.09,0h7.023a5.749,5.749,0,0,1,5.749,5.749Zm0,0" transform="translate(-353.866 -0.003)"/><path class="d" d="M112,362.754H0v8.1a5.749,5.749,0,0,0,5.749,5.749h100.5A5.749,5.749,0,0,0,112,370.856Zm0,0" transform="translate(0 -283.313)"/><path class="a" d="M465.862,362.75v8.1a5.749,5.749,0,0,1-5.749,5.749H453.09a5.749,5.749,0,0,0,5.749-5.749v-8.1Zm0,0" transform="translate(-353.866 -283.31)"/><path class="e" d="M112.569,19.614H.57V5.749A5.749,5.749,0,0,1,6.319,0h100.5a5.749,5.749,0,0,1,5.749,5.749Zm0,0" transform="translate(-0.445)"/><path class="f" d="M465.988,5.752V19.618h-7.152V5.752A5.749,5.749,0,0,0,453.086,0h7.152A5.749,5.749,0,0,1,465.988,5.752Zm0,0" transform="translate(-353.863 -0.003)"/><path class="d" d="M185.433,478.392H133.8a1.127,1.127,0,0,1-1.127-1.127v-3.652a4.484,4.484,0,0,1,4.484-4.484h44.918a4.484,4.484,0,0,1,4.484,4.484v3.652a1.127,1.127,0,0,1-1.127,1.127Zm0,0" transform="translate(-103.618 -366.393)"/><path class="a" d="M344.544,473.613v3.654a1.127,1.127,0,0,1-1.127,1.127h-3.978v-4.78a4.484,4.484,0,0,0-4.483-4.483h5.105a4.483,4.483,0,0,1,4.483,4.483Zm0,0" transform="translate(-261.603 -366.393)"/><g transform="translate(5.864 26.956)"><path class="d" d="M33.718,136.976a1.638,1.638,0,0,1-1.162-.481l-5.3-5.3a1.642,1.642,0,0,1,0-2.323l5.3-5.3a1.643,1.643,0,0,1,2.323,2.323l-4.139,4.139,4.139,4.139a1.642,1.642,0,0,1-1.162,2.8Zm0,0" transform="translate(-26.775 -123.091)"/><path class="d" d="M110.477,136.976a1.642,1.642,0,0,1-1.162-2.8l4.139-4.139-4.139-4.139a1.643,1.643,0,0,1,2.323-2.323l5.3,5.3a1.642,1.642,0,0,1,0,2.323l-5.3,5.3A1.638,1.638,0,0,1,110.477,136.976Zm0,0" transform="translate(-90.864 -123.091)"/><path class="d" d="M72.863,136.974a1.644,1.644,0,0,1-1.529-2.244l4.164-10.6a1.643,1.643,0,1,1,3.057,1.2l-4.164,10.6A1.642,1.642,0,0,1,72.863,136.974Zm0,0" transform="translate(-61.487 -123.088)"/><path class="d" d="M44.175,220.066H32.787a1.642,1.642,0,0,1,0-3.285H44.175a1.642,1.642,0,0,1,0,3.285Zm0,0" transform="translate(-30.188 -196.263)"/><path class="d" d="M133.156,220.066H113.135a1.642,1.642,0,0,1,0-3.285h20.022a1.642,1.642,0,1,1,0,3.285Zm0,0" transform="translate(-92.94 -196.263)"/><path class="d" d="M37.638,252.621H32.787a1.642,1.642,0,0,1,0-3.285h4.851a1.642,1.642,0,0,1,0,3.285Zm0,0" transform="translate(-30.188 -221.688)"/><path class="d" d="M179.273,252.621h-2.955a1.642,1.642,0,0,1,0-3.285h2.955a1.642,1.642,0,1,1,0,3.285Zm0,0" transform="translate(-142.287 -221.688)"/><path class="d" d="M96.536,252.621H82.026a1.642,1.642,0,0,1,0-3.285h14.51a1.642,1.642,0,1,1,0,3.285Zm0,0" transform="translate(-68.643 -221.688)"/><path class="d" d="M219.821,252.621h-5.534a1.642,1.642,0,0,1,0-3.285h5.534a1.642,1.642,0,0,1,0,3.285Zm0,0" transform="translate(-171.94 -221.688)"/><path class="d" d="M170.366,149.047h-5.837a1.642,1.642,0,1,1,0-3.285h5.837a1.642,1.642,0,1,1,0,3.285Zm0,0" transform="translate(-133.079 -140.797)"/><path class="d" d="M256.642,149.047H221.029a1.642,1.642,0,1,1,0-3.285h35.612a1.642,1.642,0,1,1,0,3.285Zm0,0" transform="translate(-177.206 -140.797)"/><path class="d" d="M307.5,183.012H293.076a1.642,1.642,0,1,1,0-3.285H307.5a1.642,1.642,0,1,1,0,3.285Zm0,0" transform="translate(-233.475 -167.323)"/><path class="d" d="M250.687,183.012h-4.959a1.642,1.642,0,1,1,0-3.285h4.959a1.642,1.642,0,1,1,0,3.285Zm0,0" transform="translate(-196.496 -167.323)"/><path class="d" d="M176.674,183.012H164.525a1.642,1.642,0,0,1,0-3.285h12.149a1.642,1.642,0,0,1,0,3.285Zm0,0" transform="translate(-133.076 -167.323)"/><path class="d" d="M107.768,284.906H96.38a1.642,1.642,0,0,1,0-3.285h11.388a1.642,1.642,0,0,1,0,3.285Zm0,0" transform="translate(-79.855 -246.903)"/><path class="d" d="M41.537,284.906H32.787a1.642,1.642,0,0,1,0-3.285h8.749a1.642,1.642,0,0,1,0,3.285Zm0,0" transform="translate(-30.188 -246.903)"/><path class="d" d="M189.592,284.906H174.717a1.642,1.642,0,1,1,0-3.285h14.875a1.642,1.642,0,1,1,0,3.285Zm0,0" transform="translate(-141.036 -246.903)"/></g><path class="g" d="M296.664,263.391h36.605v12.4H296.664Zm0,0" transform="translate(-231.696 -205.71)"/><path class="g" d="M296.664,350.871h36.605v11.5H296.664Zm0,0" transform="translate(-231.696 -274.032)"/><path class="h" d="M444.051,263.391h4.329v12.4h-4.329Zm0,0" transform="translate(-346.807 -205.71)"/><path class="h" d="M444.051,350.871h4.329v11.5h-4.329Zm0,0" transform="translate(-346.807 -274.032)"/><path class="i" d="M319.664,234.734H277a1.634,1.634,0,0,1-1.634-1.634v-8.216A1.634,1.634,0,0,1,277,223.251h42.667a1.634,1.634,0,0,1,1.634,1.634V233.1A1.634,1.634,0,0,1,319.664,234.734Zm0,0" transform="translate(-215.06 -174.36)"/><path class="i" d="M319.664,318.855H277a1.634,1.634,0,0,1-1.634-1.634v-8.216A1.634,1.634,0,0,1,277,307.372h42.667a1.634,1.634,0,0,1,1.634,1.634v8.216A1.634,1.634,0,0,1,319.664,318.855Zm0,0" transform="translate(-215.06 -240.059)"/><path class="i" d="M319.664,402.976H277a1.634,1.634,0,0,1-1.634-1.634v-8.216A1.634,1.634,0,0,1,277,391.493h42.667a1.634,1.634,0,0,1,1.634,1.634v8.216A1.634,1.634,0,0,1,319.664,402.976Zm0,0" transform="translate(-215.06 -305.758)"/><path class="j" d="M465.769,224.884V233.1a1.634,1.634,0,0,1-1.634,1.634h-3.791a1.633,1.633,0,0,0,1.634-1.634v-8.216a1.633,1.633,0,0,0-1.634-1.634h3.791A1.634,1.634,0,0,1,465.769,224.884Zm0,0" transform="translate(-359.531 -174.36)"/><path class="j" d="M465.769,309v8.216a1.633,1.633,0,0,1-1.634,1.635h-3.791a1.632,1.632,0,0,0,1.634-1.635V309a1.633,1.633,0,0,0-1.634-1.634h3.791A1.634,1.634,0,0,1,465.769,309Zm0,0" transform="translate(-359.531 -240.056)"/><path class="j" d="M465.769,393.13v8.216a1.634,1.634,0,0,1-1.634,1.634h-3.791a1.633,1.633,0,0,0,1.634-1.634V393.13a1.632,1.632,0,0,0-1.634-1.634h3.791A1.633,1.633,0,0,1,465.769,393.13Zm0,0" transform="translate(-359.531 -305.761)"/><path class="k" d="M305.5,245.254h-8.134a1.642,1.642,0,1,1,0-3.285H305.5a1.642,1.642,0,1,1,0,3.285Zm0,0" transform="translate(-230.958 -188.979)"/><path class="k" d="M410.447,245.254H398.963a1.642,1.642,0,1,1,0-3.285h11.483a1.642,1.642,0,0,1,0,3.285Zm0,0" transform="translate(-310.31 -188.979)"/><path class="k" d="M363.357,245.254h-2.632a1.642,1.642,0,1,1,0-3.285h2.632a1.642,1.642,0,0,1,0,3.285Zm0,0" transform="translate(-280.446 -188.979)"/><path class="k" d="M305.5,329.375h-8.134a1.642,1.642,0,1,1,0-3.285H305.5a1.642,1.642,0,1,1,0,3.285Zm0,0" transform="translate(-230.958 -254.678)"/><path class="k" d="M410.447,329.375H398.963a1.642,1.642,0,1,1,0-3.285h11.483a1.642,1.642,0,0,1,0,3.285Zm0,0" transform="translate(-310.31 -254.678)"/><path class="k" d="M363.357,329.375h-2.632a1.642,1.642,0,1,1,0-3.285h2.632a1.642,1.642,0,0,1,0,3.285Zm0,0" transform="translate(-280.446 -254.678)"/><path class="k" d="M305.5,413.5h-8.134a1.642,1.642,0,1,1,0-3.285H305.5a1.642,1.642,0,1,1,0,3.285Zm0,0" transform="translate(-230.958 -320.377)"/><path class="k" d="M410.447,413.5H398.963a1.642,1.642,0,1,1,0-3.285h11.483a1.642,1.642,0,0,1,0,3.285Zm0,0" transform="translate(-310.31 -320.377)"/><path class="k" d="M363.357,413.5h-2.632a1.642,1.642,0,1,1,0-3.285h2.632a1.642,1.642,0,0,1,0,3.285Zm0,0" transform="translate(-280.446 -320.377)"/><path class="l" d="M40.815,32.9a3.271,3.271,0,1,1-3.27-3.27A3.27,3.27,0,0,1,40.815,32.9Zm0,0" transform="translate(-26.768 -23.14)"/><path class="b" d="M98.49,32.9a3.27,3.27,0,1,1-3.27-3.27A3.27,3.27,0,0,1,98.49,32.9Zm0,0" transform="translate(-71.813 -23.14)"/><path class="m" d="M156.166,32.9a3.27,3.27,0,1,1-3.27-3.27A3.27,3.27,0,0,1,156.166,32.9Zm0,0" transform="translate(-116.858 -23.14)"/><path class="n" d="M44.435,32.9a3.268,3.268,0,0,1-5.524,2.364,3.267,3.267,0,0,0,2.18-5.632c.025,0,.052,0,.077,0a3.268,3.268,0,0,1,3.268,3.27Zm0,0" transform="translate(-30.389 -23.143)"/><path class="c" d="M102.1,32.9a3.269,3.269,0,0,1-5.526,2.364,3.267,3.267,0,0,0,2.182-5.632.7.7,0,0,1,.074,0,3.268,3.268,0,0,1,3.27,3.27Zm0,0" transform="translate(-75.428 -23.143)"/><path class="o" d="M159.781,32.9a3.27,3.27,0,0,1-5.527,2.364,3.267,3.267,0,0,0,2.18-5.632c.025,0,.052,0,.077,0a3.27,3.27,0,0,1,3.27,3.27Zm0,0" transform="translate(-120.473 -23.143)"/></svg>