<svg xmlns="http://www.w3.org/2000/svg" width="43" height="32" viewBox="0 0 43 32"><defs><style>.a{fill:#fff;fill-rule:evenodd;}</style></defs><path class="a" d="M43.4,7.846s-.42-3.135-1.71-4.516A5.97,5.97,0,0,0,37.379,1.4C31.362.943,22.335.943,22.335.943h-.019S13.29.943,7.273,1.4A5.971,5.971,0,0,0,2.965,3.33C1.675,4.711,1.256,7.846,1.256,7.846a72.745,72.745,0,0,0-.43,7.363v3.452a72.74,72.74,0,0,0,.43,7.363s.419,3.135,1.709,4.516C4.6,32.353,6.749,32.3,7.706,32.485c3.44.349,14.62.457,14.62.457s9.036-.015,15.053-.475a5.968,5.968,0,0,0,4.308-1.927c1.289-1.381,1.71-4.516,1.71-4.516a72.905,72.905,0,0,0,.429-7.363V15.21A72.911,72.911,0,0,0,43.4,7.846Zm-25.51,15,0-12.783L29.5,16.475Z" transform="translate(-0.826 -0.943)"/></svg>